G04 #@! TF.GenerationSoftware,KiCad,Pcbnew,(7.0.0-0)*
G04 #@! TF.CreationDate,2023-02-27T08:41:08+01:00*
G04 #@! TF.ProjectId,Leonardo_Rev3e,4c656f6e-6172-4646-9f5f-52657633652e,3d*
G04 #@! TF.SameCoordinates,Original*
G04 #@! TF.FileFunction,Legend,Bot*
G04 #@! TF.FilePolarity,Positive*
%FSLAX46Y46*%
G04 Gerber Fmt 4.6, Leading zero omitted, Abs format (unit mm)*
G04 Created by KiCad (PCBNEW (7.0.0-0)) date 2023-02-27 08:41:08*
%MOMM*%
%LPD*%
G01*
G04 APERTURE LIST*
G04 Aperture macros list*
%AMRoundRect*
0 Rectangle with rounded corners*
0 $1 Rounding radius*
0 $2 $3 $4 $5 $6 $7 $8 $9 X,Y pos of 4 corners*
0 Add a 4 corners polygon primitive as box body*
4,1,4,$2,$3,$4,$5,$6,$7,$8,$9,$2,$3,0*
0 Add four circle primitives for the rounded corners*
1,1,$1+$1,$2,$3*
1,1,$1+$1,$4,$5*
1,1,$1+$1,$6,$7*
1,1,$1+$1,$8,$9*
0 Add four rect primitives between the rounded corners*
20,1,$1+$1,$2,$3,$4,$5,0*
20,1,$1+$1,$4,$5,$6,$7,0*
20,1,$1+$1,$6,$7,$8,$9,0*
20,1,$1+$1,$8,$9,$2,$3,0*%
%AMFreePoly0*
4,1,17,0.356937,0.810921,0.810921,0.356937,0.825800,0.321016,0.825800,-0.321016,0.810921,-0.356937,0.356937,-0.810921,0.321016,-0.825800,-0.321016,-0.825800,-0.356937,-0.810921,-0.810921,-0.356937,-0.825800,-0.321016,-0.825800,0.321016,-0.810921,0.356937,-0.356937,0.810921,-0.321016,0.825800,0.321016,0.825800,0.356937,0.810921,0.356937,0.810921,$1*%
%AMFreePoly1*
4,1,17,0.864348,2.035921,2.035921,0.864348,2.050800,0.828427,2.050800,-0.828427,2.035921,-0.864348,0.864348,-2.035921,0.828427,-2.050800,-0.828427,-2.050800,-0.864348,-2.035921,-2.035921,-0.864348,-2.050800,-0.828427,-2.050800,0.828427,-2.035921,0.864348,-0.864348,2.035921,-0.828427,2.050800,0.828427,2.050800,0.864348,2.035921,0.864348,2.035921,$1*%
G04 Aperture macros list end*
%ADD10C,0.304800*%
%ADD11C,0.120000*%
%ADD12C,0.142240*%
%ADD13C,0.150000*%
%ADD14C,0.152400*%
%ADD15C,0.121920*%
%ADD16C,0.170688*%
%ADD17C,0.251460*%
%ADD18C,0.022433*%
%ADD19C,0.081280*%
%ADD20C,0.140208*%
%ADD21C,3.200000*%
%ADD22C,1.524000*%
%ADD23O,1.524000X2.946400*%
%ADD24RoundRect,0.550800X0.000000X0.000000X0.000000X0.000000X0.000000X0.000000X0.000000X0.000000X0*%
%ADD25O,1.651000X1.016000*%
%ADD26O,1.016000X1.295400*%
%ADD27FreePoly0,270.000000*%
%ADD28FreePoly1,180.000000*%
%ADD29FreePoly1,90.000000*%
%ADD30RoundRect,0.050800X2.000000X-2.000000X2.000000X2.000000X-2.000000X2.000000X-2.000000X-2.000000X0*%
%ADD31C,2.051600*%
%ADD32RoundRect,0.365800X0.135000X-0.035000X0.135000X0.035000X-0.135000X0.035000X-0.135000X-0.035000X0*%
G04 APERTURE END LIST*
D10*
X178440000Y-84984000D02*
X178059000Y-85365000D01*
X175188000Y-84778000D02*
X174299000Y-85667000D01*
X178059000Y-85619000D02*
X178948000Y-84730000D01*
D11*
X137790000Y-91130000D02*
X142310000Y-91130000D01*
X142310000Y-91130000D02*
X142310000Y-92940000D01*
X142310000Y-92940000D02*
X137790000Y-92940000D01*
X137790000Y-92940000D02*
X137790000Y-91130000D01*
D10*
X177170000Y-84730000D02*
X178059000Y-85619000D01*
X175188000Y-85032000D02*
X175696000Y-85540000D01*
X175442000Y-85540000D02*
X174680000Y-85540000D01*
D11*
X142650000Y-117210000D02*
X142370000Y-119110000D01*
D10*
X174680000Y-85540000D02*
X175188000Y-85032000D01*
D11*
X142680000Y-115180000D02*
X142650000Y-117210000D01*
X122360000Y-112490000D02*
X122360000Y-109280000D01*
D10*
X175061000Y-85286000D02*
X175442000Y-85540000D01*
X178059000Y-85365000D02*
X177551000Y-84857000D01*
X174299000Y-85667000D02*
X176077000Y-85667000D01*
D11*
X122360000Y-109280000D02*
X125680000Y-109280000D01*
X142370000Y-119110000D02*
X140650000Y-119110000D01*
D10*
X177932000Y-84984000D02*
X178440000Y-84984000D01*
X178059000Y-85238000D02*
X178059000Y-85111000D01*
X177551000Y-84857000D02*
X178567000Y-84857000D01*
X178948000Y-84730000D02*
X177170000Y-84730000D01*
D11*
X140650000Y-119110000D02*
X140950000Y-116880000D01*
X125690000Y-112495000D02*
X125690000Y-109285000D01*
D10*
X176077000Y-85667000D02*
X175188000Y-84778000D01*
D12*
X175989147Y-89469880D02*
X175989147Y-88738360D01*
X174708987Y-89104120D02*
X175989147Y-89104120D01*
X175989147Y-88433560D02*
X174708987Y-87580120D01*
X175989147Y-87580120D02*
X174708987Y-88433560D01*
X174708987Y-86421880D02*
X174708987Y-87153400D01*
X174708987Y-86787640D02*
X175989147Y-86787640D01*
X175989147Y-86787640D02*
X175806267Y-86909560D01*
X175806267Y-86909560D02*
X175684347Y-87031480D01*
X175684347Y-87031480D02*
X175623387Y-87153400D01*
X141277787Y-85564640D02*
X141338747Y-85686560D01*
X141338747Y-85686560D02*
X141338747Y-85869440D01*
X141338747Y-85869440D02*
X141277787Y-86052320D01*
X141277787Y-86052320D02*
X141155867Y-86174240D01*
X141155867Y-86174240D02*
X141033947Y-86235200D01*
X141033947Y-86235200D02*
X140790107Y-86296160D01*
X140790107Y-86296160D02*
X140607227Y-86296160D01*
X140607227Y-86296160D02*
X140363387Y-86235200D01*
X140363387Y-86235200D02*
X140241467Y-86174240D01*
X140241467Y-86174240D02*
X140119547Y-86052320D01*
X140119547Y-86052320D02*
X140058587Y-85869440D01*
X140058587Y-85869440D02*
X140058587Y-85747520D01*
X140058587Y-85747520D02*
X140119547Y-85564640D01*
X140119547Y-85564640D02*
X140180507Y-85503680D01*
X140180507Y-85503680D02*
X140607227Y-85503680D01*
X140607227Y-85503680D02*
X140607227Y-85747520D01*
X140058587Y-84955040D02*
X141338747Y-84955040D01*
X141338747Y-84955040D02*
X140058587Y-84223520D01*
X140058587Y-84223520D02*
X141338747Y-84223520D01*
X140058587Y-83613920D02*
X141338747Y-83613920D01*
X141338747Y-83613920D02*
X141338747Y-83309120D01*
X141338747Y-83309120D02*
X141277787Y-83126240D01*
X141277787Y-83126240D02*
X141155867Y-83004320D01*
X141155867Y-83004320D02*
X141033947Y-82943360D01*
X141033947Y-82943360D02*
X140790107Y-82882400D01*
X140790107Y-82882400D02*
X140607227Y-82882400D01*
X140607227Y-82882400D02*
X140363387Y-82943360D01*
X140363387Y-82943360D02*
X140241467Y-83004320D01*
X140241467Y-83004320D02*
X140119547Y-83126240D01*
X140119547Y-83126240D02*
X140058587Y-83309120D01*
X140058587Y-83309120D02*
X140058587Y-83613920D01*
X146878587Y-126333680D02*
X147488187Y-126760400D01*
X146878587Y-127065200D02*
X148158747Y-127065200D01*
X148158747Y-127065200D02*
X148158747Y-126577520D01*
X148158747Y-126577520D02*
X148097787Y-126455600D01*
X148097787Y-126455600D02*
X148036827Y-126394640D01*
X148036827Y-126394640D02*
X147914907Y-126333680D01*
X147914907Y-126333680D02*
X147732027Y-126333680D01*
X147732027Y-126333680D02*
X147610107Y-126394640D01*
X147610107Y-126394640D02*
X147549147Y-126455600D01*
X147549147Y-126455600D02*
X147488187Y-126577520D01*
X147488187Y-126577520D02*
X147488187Y-127065200D01*
X146939547Y-125846000D02*
X146878587Y-125663120D01*
X146878587Y-125663120D02*
X146878587Y-125358320D01*
X146878587Y-125358320D02*
X146939547Y-125236400D01*
X146939547Y-125236400D02*
X147000507Y-125175440D01*
X147000507Y-125175440D02*
X147122427Y-125114480D01*
X147122427Y-125114480D02*
X147244347Y-125114480D01*
X147244347Y-125114480D02*
X147366267Y-125175440D01*
X147366267Y-125175440D02*
X147427227Y-125236400D01*
X147427227Y-125236400D02*
X147488187Y-125358320D01*
X147488187Y-125358320D02*
X147549147Y-125602160D01*
X147549147Y-125602160D02*
X147610107Y-125724080D01*
X147610107Y-125724080D02*
X147671067Y-125785040D01*
X147671067Y-125785040D02*
X147792987Y-125846000D01*
X147792987Y-125846000D02*
X147914907Y-125846000D01*
X147914907Y-125846000D02*
X148036827Y-125785040D01*
X148036827Y-125785040D02*
X148097787Y-125724080D01*
X148097787Y-125724080D02*
X148158747Y-125602160D01*
X148158747Y-125602160D02*
X148158747Y-125297360D01*
X148158747Y-125297360D02*
X148097787Y-125114480D01*
X148158747Y-124748720D02*
X148158747Y-124017200D01*
X146878587Y-124382960D02*
X148158747Y-124382960D01*
D13*
X141803571Y-117539999D02*
X141803571Y-116778095D01*
X141422619Y-117159047D02*
X142184523Y-117159047D01*
X142422619Y-116397142D02*
X142422619Y-115778095D01*
X142422619Y-115778095D02*
X142041666Y-116111428D01*
X142041666Y-116111428D02*
X142041666Y-115968571D01*
X142041666Y-115968571D02*
X141994047Y-115873333D01*
X141994047Y-115873333D02*
X141946428Y-115825714D01*
X141946428Y-115825714D02*
X141851190Y-115778095D01*
X141851190Y-115778095D02*
X141613095Y-115778095D01*
X141613095Y-115778095D02*
X141517857Y-115825714D01*
X141517857Y-115825714D02*
X141470238Y-115873333D01*
X141470238Y-115873333D02*
X141422619Y-115968571D01*
X141422619Y-115968571D02*
X141422619Y-116254285D01*
X141422619Y-116254285D02*
X141470238Y-116349523D01*
X141470238Y-116349523D02*
X141517857Y-116397142D01*
X141517857Y-115349523D02*
X141470238Y-115301904D01*
X141470238Y-115301904D02*
X141422619Y-115349523D01*
X141422619Y-115349523D02*
X141470238Y-115397142D01*
X141470238Y-115397142D02*
X141517857Y-115349523D01*
X141517857Y-115349523D02*
X141422619Y-115349523D01*
X142422619Y-114968571D02*
X142422619Y-114349524D01*
X142422619Y-114349524D02*
X142041666Y-114682857D01*
X142041666Y-114682857D02*
X142041666Y-114540000D01*
X142041666Y-114540000D02*
X141994047Y-114444762D01*
X141994047Y-114444762D02*
X141946428Y-114397143D01*
X141946428Y-114397143D02*
X141851190Y-114349524D01*
X141851190Y-114349524D02*
X141613095Y-114349524D01*
X141613095Y-114349524D02*
X141517857Y-114397143D01*
X141517857Y-114397143D02*
X141470238Y-114444762D01*
X141470238Y-114444762D02*
X141422619Y-114540000D01*
X141422619Y-114540000D02*
X141422619Y-114825714D01*
X141422619Y-114825714D02*
X141470238Y-114920952D01*
X141470238Y-114920952D02*
X141517857Y-114968571D01*
X142422619Y-114063809D02*
X141422619Y-113730476D01*
X141422619Y-113730476D02*
X142422619Y-113397143D01*
D14*
X172996780Y-83521504D02*
X173050000Y-83468285D01*
X173050000Y-83468285D02*
X173103219Y-83361847D01*
X173103219Y-83361847D02*
X173103219Y-83095752D01*
X173103219Y-83095752D02*
X173050000Y-82989314D01*
X173050000Y-82989314D02*
X172996780Y-82936095D01*
X172996780Y-82936095D02*
X172890342Y-82882876D01*
X172890342Y-82882876D02*
X172783904Y-82882876D01*
X172783904Y-82882876D02*
X172624247Y-82936095D01*
X172624247Y-82936095D02*
X171985619Y-83574723D01*
X171985619Y-83574723D02*
X171985619Y-82882876D01*
X167470685Y-83079314D02*
X166725619Y-83079314D01*
X167896438Y-83345409D02*
X167098152Y-83611504D01*
X167098152Y-83611504D02*
X167098152Y-82919657D01*
D15*
X168149699Y-126869980D02*
X167723946Y-126869980D01*
X168234849Y-127125431D02*
X167936822Y-126231351D01*
X167936822Y-126231351D02*
X167638796Y-127125431D01*
X166872442Y-127125431D02*
X167383345Y-127125431D01*
X167127893Y-127125431D02*
X167127893Y-126231351D01*
X167127893Y-126231351D02*
X167213044Y-126359077D01*
X167213044Y-126359077D02*
X167298194Y-126444227D01*
X167298194Y-126444227D02*
X167383345Y-126486803D01*
D14*
X178083219Y-83295409D02*
X178083219Y-83188971D01*
X178083219Y-83188971D02*
X178030000Y-83082533D01*
X178030000Y-83082533D02*
X177976780Y-83029314D01*
X177976780Y-83029314D02*
X177870342Y-82976095D01*
X177870342Y-82976095D02*
X177657466Y-82922876D01*
X177657466Y-82922876D02*
X177391371Y-82922876D01*
X177391371Y-82922876D02*
X177178495Y-82976095D01*
X177178495Y-82976095D02*
X177072057Y-83029314D01*
X177072057Y-83029314D02*
X177018838Y-83082533D01*
X177018838Y-83082533D02*
X176965619Y-83188971D01*
X176965619Y-83188971D02*
X176965619Y-83295409D01*
X176965619Y-83295409D02*
X177018838Y-83401847D01*
X177018838Y-83401847D02*
X177072057Y-83455066D01*
X177072057Y-83455066D02*
X177178495Y-83508285D01*
X177178495Y-83508285D02*
X177391371Y-83561504D01*
X177391371Y-83561504D02*
X177657466Y-83561504D01*
X177657466Y-83561504D02*
X177870342Y-83508285D01*
X177870342Y-83508285D02*
X177976780Y-83455066D01*
X177976780Y-83455066D02*
X178030000Y-83401847D01*
X178030000Y-83401847D02*
X178083219Y-83295409D01*
X150025619Y-83947257D02*
X150025619Y-84585885D01*
X150025619Y-84266571D02*
X151143219Y-84266571D01*
X151143219Y-84266571D02*
X150983561Y-84373009D01*
X150983561Y-84373009D02*
X150877123Y-84479447D01*
X150877123Y-84479447D02*
X150823904Y-84585885D01*
X151143219Y-83255409D02*
X151143219Y-83148971D01*
X151143219Y-83148971D02*
X151090000Y-83042533D01*
X151090000Y-83042533D02*
X151036780Y-82989314D01*
X151036780Y-82989314D02*
X150930342Y-82936095D01*
X150930342Y-82936095D02*
X150717466Y-82882876D01*
X150717466Y-82882876D02*
X150451371Y-82882876D01*
X150451371Y-82882876D02*
X150238495Y-82936095D01*
X150238495Y-82936095D02*
X150132057Y-82989314D01*
X150132057Y-82989314D02*
X150078838Y-83042533D01*
X150078838Y-83042533D02*
X150025619Y-83148971D01*
X150025619Y-83148971D02*
X150025619Y-83255409D01*
X150025619Y-83255409D02*
X150078838Y-83361847D01*
X150078838Y-83361847D02*
X150132057Y-83415066D01*
X150132057Y-83415066D02*
X150238495Y-83468285D01*
X150238495Y-83468285D02*
X150451371Y-83521504D01*
X150451371Y-83521504D02*
X150717466Y-83521504D01*
X150717466Y-83521504D02*
X150930342Y-83468285D01*
X150930342Y-83468285D02*
X151036780Y-83415066D01*
X151036780Y-83415066D02*
X151090000Y-83361847D01*
X151090000Y-83361847D02*
X151143219Y-83255409D01*
D12*
X150638747Y-127187120D02*
X150638747Y-126394640D01*
X150638747Y-126394640D02*
X150151067Y-126821360D01*
X150151067Y-126821360D02*
X150151067Y-126638480D01*
X150151067Y-126638480D02*
X150090107Y-126516560D01*
X150090107Y-126516560D02*
X150029147Y-126455600D01*
X150029147Y-126455600D02*
X149907227Y-126394640D01*
X149907227Y-126394640D02*
X149602427Y-126394640D01*
X149602427Y-126394640D02*
X149480507Y-126455600D01*
X149480507Y-126455600D02*
X149419547Y-126516560D01*
X149419547Y-126516560D02*
X149358587Y-126638480D01*
X149358587Y-126638480D02*
X149358587Y-127004240D01*
X149358587Y-127004240D02*
X149419547Y-127126160D01*
X149419547Y-127126160D02*
X149480507Y-127187120D01*
X150638747Y-126028880D02*
X149358587Y-125602160D01*
X149358587Y-125602160D02*
X150638747Y-125175440D01*
X150638747Y-124870640D02*
X150638747Y-124078160D01*
X150638747Y-124078160D02*
X150151067Y-124504880D01*
X150151067Y-124504880D02*
X150151067Y-124322000D01*
X150151067Y-124322000D02*
X150090107Y-124200080D01*
X150090107Y-124200080D02*
X150029147Y-124139120D01*
X150029147Y-124139120D02*
X149907227Y-124078160D01*
X149907227Y-124078160D02*
X149602427Y-124078160D01*
X149602427Y-124078160D02*
X149480507Y-124139120D01*
X149480507Y-124139120D02*
X149419547Y-124200080D01*
X149419547Y-124200080D02*
X149358587Y-124322000D01*
X149358587Y-124322000D02*
X149358587Y-124687760D01*
X149358587Y-124687760D02*
X149419547Y-124809680D01*
X149419547Y-124809680D02*
X149480507Y-124870640D01*
X132509547Y-86196160D02*
X132448587Y-86013280D01*
X132448587Y-86013280D02*
X132448587Y-85708480D01*
X132448587Y-85708480D02*
X132509547Y-85586560D01*
X132509547Y-85586560D02*
X132570507Y-85525600D01*
X132570507Y-85525600D02*
X132692427Y-85464640D01*
X132692427Y-85464640D02*
X132814347Y-85464640D01*
X132814347Y-85464640D02*
X132936267Y-85525600D01*
X132936267Y-85525600D02*
X132997227Y-85586560D01*
X132997227Y-85586560D02*
X133058187Y-85708480D01*
X133058187Y-85708480D02*
X133119147Y-85952320D01*
X133119147Y-85952320D02*
X133180107Y-86074240D01*
X133180107Y-86074240D02*
X133241067Y-86135200D01*
X133241067Y-86135200D02*
X133362987Y-86196160D01*
X133362987Y-86196160D02*
X133484907Y-86196160D01*
X133484907Y-86196160D02*
X133606827Y-86135200D01*
X133606827Y-86135200D02*
X133667787Y-86074240D01*
X133667787Y-86074240D02*
X133728747Y-85952320D01*
X133728747Y-85952320D02*
X133728747Y-85647520D01*
X133728747Y-85647520D02*
X133667787Y-85464640D01*
X132570507Y-84184480D02*
X132509547Y-84245440D01*
X132509547Y-84245440D02*
X132448587Y-84428320D01*
X132448587Y-84428320D02*
X132448587Y-84550240D01*
X132448587Y-84550240D02*
X132509547Y-84733120D01*
X132509547Y-84733120D02*
X132631467Y-84855040D01*
X132631467Y-84855040D02*
X132753387Y-84916000D01*
X132753387Y-84916000D02*
X132997227Y-84976960D01*
X132997227Y-84976960D02*
X133180107Y-84976960D01*
X133180107Y-84976960D02*
X133423947Y-84916000D01*
X133423947Y-84916000D02*
X133545867Y-84855040D01*
X133545867Y-84855040D02*
X133667787Y-84733120D01*
X133667787Y-84733120D02*
X133728747Y-84550240D01*
X133728747Y-84550240D02*
X133728747Y-84428320D01*
X133728747Y-84428320D02*
X133667787Y-84245440D01*
X133667787Y-84245440D02*
X133606827Y-84184480D01*
X132448587Y-83026240D02*
X132448587Y-83635840D01*
X132448587Y-83635840D02*
X133728747Y-83635840D01*
D14*
X145035619Y-84037257D02*
X145035619Y-84675885D01*
X145035619Y-84356571D02*
X146153219Y-84356571D01*
X146153219Y-84356571D02*
X145993561Y-84463009D01*
X145993561Y-84463009D02*
X145887123Y-84569447D01*
X145887123Y-84569447D02*
X145833904Y-84675885D01*
X146046780Y-83611504D02*
X146100000Y-83558285D01*
X146100000Y-83558285D02*
X146153219Y-83451847D01*
X146153219Y-83451847D02*
X146153219Y-83185752D01*
X146153219Y-83185752D02*
X146100000Y-83079314D01*
X146100000Y-83079314D02*
X146046780Y-83026095D01*
X146046780Y-83026095D02*
X145940342Y-82972876D01*
X145940342Y-82972876D02*
X145833904Y-82972876D01*
X145833904Y-82972876D02*
X145674247Y-83026095D01*
X145674247Y-83026095D02*
X145035619Y-83664723D01*
X145035619Y-83664723D02*
X145035619Y-82972876D01*
D12*
X135059547Y-86156160D02*
X134998587Y-85973280D01*
X134998587Y-85973280D02*
X134998587Y-85668480D01*
X134998587Y-85668480D02*
X135059547Y-85546560D01*
X135059547Y-85546560D02*
X135120507Y-85485600D01*
X135120507Y-85485600D02*
X135242427Y-85424640D01*
X135242427Y-85424640D02*
X135364347Y-85424640D01*
X135364347Y-85424640D02*
X135486267Y-85485600D01*
X135486267Y-85485600D02*
X135547227Y-85546560D01*
X135547227Y-85546560D02*
X135608187Y-85668480D01*
X135608187Y-85668480D02*
X135669147Y-85912320D01*
X135669147Y-85912320D02*
X135730107Y-86034240D01*
X135730107Y-86034240D02*
X135791067Y-86095200D01*
X135791067Y-86095200D02*
X135912987Y-86156160D01*
X135912987Y-86156160D02*
X136034907Y-86156160D01*
X136034907Y-86156160D02*
X136156827Y-86095200D01*
X136156827Y-86095200D02*
X136217787Y-86034240D01*
X136217787Y-86034240D02*
X136278747Y-85912320D01*
X136278747Y-85912320D02*
X136278747Y-85607520D01*
X136278747Y-85607520D02*
X136217787Y-85424640D01*
X134998587Y-84876000D02*
X136278747Y-84876000D01*
X136278747Y-84876000D02*
X136278747Y-84571200D01*
X136278747Y-84571200D02*
X136217787Y-84388320D01*
X136217787Y-84388320D02*
X136095867Y-84266400D01*
X136095867Y-84266400D02*
X135973947Y-84205440D01*
X135973947Y-84205440D02*
X135730107Y-84144480D01*
X135730107Y-84144480D02*
X135547227Y-84144480D01*
X135547227Y-84144480D02*
X135303387Y-84205440D01*
X135303387Y-84205440D02*
X135181467Y-84266400D01*
X135181467Y-84266400D02*
X135059547Y-84388320D01*
X135059547Y-84388320D02*
X134998587Y-84571200D01*
X134998587Y-84571200D02*
X134998587Y-84876000D01*
X135364347Y-83656800D02*
X135364347Y-83047200D01*
X134998587Y-83778720D02*
X136278747Y-83352000D01*
X136278747Y-83352000D02*
X134998587Y-82925280D01*
X177702587Y-88519680D02*
X178312187Y-88946400D01*
X177702587Y-89251200D02*
X178982747Y-89251200D01*
X178982747Y-89251200D02*
X178982747Y-88763520D01*
X178982747Y-88763520D02*
X178921787Y-88641600D01*
X178921787Y-88641600D02*
X178860827Y-88580640D01*
X178860827Y-88580640D02*
X178738907Y-88519680D01*
X178738907Y-88519680D02*
X178556027Y-88519680D01*
X178556027Y-88519680D02*
X178434107Y-88580640D01*
X178434107Y-88580640D02*
X178373147Y-88641600D01*
X178373147Y-88641600D02*
X178312187Y-88763520D01*
X178312187Y-88763520D02*
X178312187Y-89251200D01*
X178982747Y-88092960D02*
X177702587Y-87239520D01*
X178982747Y-87239520D02*
X177702587Y-88092960D01*
X177702587Y-86081280D02*
X177702587Y-86812800D01*
X177702587Y-86447040D02*
X178982747Y-86447040D01*
X178982747Y-86447040D02*
X178799867Y-86568960D01*
X178799867Y-86568960D02*
X178677947Y-86690880D01*
X178677947Y-86690880D02*
X178616987Y-86812800D01*
D14*
X142365619Y-84037257D02*
X142365619Y-84675885D01*
X142365619Y-84356571D02*
X143483219Y-84356571D01*
X143483219Y-84356571D02*
X143323561Y-84463009D01*
X143323561Y-84463009D02*
X143217123Y-84569447D01*
X143217123Y-84569447D02*
X143163904Y-84675885D01*
X143483219Y-83664723D02*
X143483219Y-82972876D01*
X143483219Y-82972876D02*
X143057466Y-83345409D01*
X143057466Y-83345409D02*
X143057466Y-83185752D01*
X143057466Y-83185752D02*
X143004247Y-83079314D01*
X143004247Y-83079314D02*
X142951028Y-83026095D01*
X142951028Y-83026095D02*
X142844590Y-82972876D01*
X142844590Y-82972876D02*
X142578495Y-82972876D01*
X142578495Y-82972876D02*
X142472057Y-83026095D01*
X142472057Y-83026095D02*
X142418838Y-83079314D01*
X142418838Y-83079314D02*
X142365619Y-83185752D01*
X142365619Y-83185752D02*
X142365619Y-83505066D01*
X142365619Y-83505066D02*
X142418838Y-83611504D01*
X142418838Y-83611504D02*
X142472057Y-83664723D01*
D16*
X153264108Y-126385920D02*
X153264108Y-126981973D01*
X153264108Y-126981973D02*
X152668055Y-127041578D01*
X152668055Y-127041578D02*
X152727660Y-126981973D01*
X152727660Y-126981973D02*
X152787265Y-126862762D01*
X152787265Y-126862762D02*
X152787265Y-126564736D01*
X152787265Y-126564736D02*
X152727660Y-126445525D01*
X152727660Y-126445525D02*
X152668055Y-126385920D01*
X152668055Y-126385920D02*
X152548844Y-126326314D01*
X152548844Y-126326314D02*
X152250817Y-126326314D01*
X152250817Y-126326314D02*
X152131607Y-126385920D01*
X152131607Y-126385920D02*
X152072001Y-126445525D01*
X152072001Y-126445525D02*
X152012396Y-126564736D01*
X152012396Y-126564736D02*
X152012396Y-126862762D01*
X152012396Y-126862762D02*
X152072001Y-126981973D01*
X152072001Y-126981973D02*
X152131607Y-127041578D01*
X153264108Y-125968682D02*
X152012396Y-125551445D01*
X152012396Y-125551445D02*
X153264108Y-125134207D01*
D15*
X178389699Y-126869980D02*
X177963946Y-126869980D01*
X178474849Y-127125431D02*
X178176822Y-126231351D01*
X178176822Y-126231351D02*
X177878796Y-127125431D01*
X177155017Y-126231351D02*
X177580769Y-126231351D01*
X177580769Y-126231351D02*
X177623345Y-126657104D01*
X177623345Y-126657104D02*
X177580769Y-126614528D01*
X177580769Y-126614528D02*
X177495619Y-126571953D01*
X177495619Y-126571953D02*
X177282743Y-126571953D01*
X177282743Y-126571953D02*
X177197592Y-126614528D01*
X177197592Y-126614528D02*
X177155017Y-126657104D01*
X177155017Y-126657104D02*
X177112442Y-126742254D01*
X177112442Y-126742254D02*
X177112442Y-126955130D01*
X177112442Y-126955130D02*
X177155017Y-127040281D01*
X177155017Y-127040281D02*
X177197592Y-127082856D01*
X177197592Y-127082856D02*
X177282743Y-127125431D01*
X177282743Y-127125431D02*
X177495619Y-127125431D01*
X177495619Y-127125431D02*
X177580769Y-127082856D01*
X177580769Y-127082856D02*
X177623345Y-127040281D01*
D13*
X141391904Y-91555000D02*
X141487142Y-91507380D01*
X141487142Y-91507380D02*
X141629999Y-91507380D01*
X141629999Y-91507380D02*
X141772856Y-91555000D01*
X141772856Y-91555000D02*
X141868094Y-91650238D01*
X141868094Y-91650238D02*
X141915713Y-91745476D01*
X141915713Y-91745476D02*
X141963332Y-91935952D01*
X141963332Y-91935952D02*
X141963332Y-92078809D01*
X141963332Y-92078809D02*
X141915713Y-92269285D01*
X141915713Y-92269285D02*
X141868094Y-92364523D01*
X141868094Y-92364523D02*
X141772856Y-92459761D01*
X141772856Y-92459761D02*
X141629999Y-92507380D01*
X141629999Y-92507380D02*
X141534761Y-92507380D01*
X141534761Y-92507380D02*
X141391904Y-92459761D01*
X141391904Y-92459761D02*
X141344285Y-92412142D01*
X141344285Y-92412142D02*
X141344285Y-92078809D01*
X141344285Y-92078809D02*
X141534761Y-92078809D01*
X140915713Y-92507380D02*
X140915713Y-91507380D01*
X140915713Y-91507380D02*
X140344285Y-92507380D01*
X140344285Y-92507380D02*
X140344285Y-91507380D01*
X139868094Y-92507380D02*
X139868094Y-91507380D01*
X139868094Y-91507380D02*
X139629999Y-91507380D01*
X139629999Y-91507380D02*
X139487142Y-91555000D01*
X139487142Y-91555000D02*
X139391904Y-91650238D01*
X139391904Y-91650238D02*
X139344285Y-91745476D01*
X139344285Y-91745476D02*
X139296666Y-91935952D01*
X139296666Y-91935952D02*
X139296666Y-92078809D01*
X139296666Y-92078809D02*
X139344285Y-92269285D01*
X139344285Y-92269285D02*
X139391904Y-92364523D01*
X139391904Y-92364523D02*
X139487142Y-92459761D01*
X139487142Y-92459761D02*
X139629999Y-92507380D01*
X139629999Y-92507380D02*
X139868094Y-92507380D01*
X125445713Y-113386428D02*
X124683809Y-113386428D01*
X125064761Y-113767380D02*
X125064761Y-113005476D01*
X123731428Y-112767380D02*
X124207618Y-112767380D01*
X124207618Y-112767380D02*
X124255237Y-113243571D01*
X124255237Y-113243571D02*
X124207618Y-113195952D01*
X124207618Y-113195952D02*
X124112380Y-113148333D01*
X124112380Y-113148333D02*
X123874285Y-113148333D01*
X123874285Y-113148333D02*
X123779047Y-113195952D01*
X123779047Y-113195952D02*
X123731428Y-113243571D01*
X123731428Y-113243571D02*
X123683809Y-113338809D01*
X123683809Y-113338809D02*
X123683809Y-113576904D01*
X123683809Y-113576904D02*
X123731428Y-113672142D01*
X123731428Y-113672142D02*
X123779047Y-113719761D01*
X123779047Y-113719761D02*
X123874285Y-113767380D01*
X123874285Y-113767380D02*
X124112380Y-113767380D01*
X124112380Y-113767380D02*
X124207618Y-113719761D01*
X124207618Y-113719761D02*
X124255237Y-113672142D01*
X123398094Y-112767380D02*
X123064761Y-113767380D01*
X123064761Y-113767380D02*
X122731428Y-112767380D01*
D14*
X174515619Y-82922876D02*
X174515619Y-83561504D01*
X174515619Y-83242190D02*
X175633219Y-83242190D01*
X175633219Y-83242190D02*
X175473561Y-83348628D01*
X175473561Y-83348628D02*
X175367123Y-83455066D01*
X175367123Y-83455066D02*
X175313904Y-83561504D01*
D15*
X173329699Y-126829980D02*
X172903946Y-126829980D01*
X173414849Y-127085431D02*
X173116822Y-126191351D01*
X173116822Y-126191351D02*
X172818796Y-127085431D01*
X172605920Y-126191351D02*
X172052442Y-126191351D01*
X172052442Y-126191351D02*
X172350468Y-126531953D01*
X172350468Y-126531953D02*
X172222743Y-126531953D01*
X172222743Y-126531953D02*
X172137592Y-126574528D01*
X172137592Y-126574528D02*
X172095017Y-126617104D01*
X172095017Y-126617104D02*
X172052442Y-126702254D01*
X172052442Y-126702254D02*
X172052442Y-126915130D01*
X172052442Y-126915130D02*
X172095017Y-127000281D01*
X172095017Y-127000281D02*
X172137592Y-127042856D01*
X172137592Y-127042856D02*
X172222743Y-127085431D01*
X172222743Y-127085431D02*
X172478194Y-127085431D01*
X172478194Y-127085431D02*
X172563345Y-127042856D01*
X172563345Y-127042856D02*
X172605920Y-127000281D01*
D16*
X155684503Y-126366314D02*
X155744108Y-126485525D01*
X155744108Y-126485525D02*
X155744108Y-126664341D01*
X155744108Y-126664341D02*
X155684503Y-126843157D01*
X155684503Y-126843157D02*
X155565292Y-126962368D01*
X155565292Y-126962368D02*
X155446081Y-127021973D01*
X155446081Y-127021973D02*
X155207660Y-127081578D01*
X155207660Y-127081578D02*
X155028844Y-127081578D01*
X155028844Y-127081578D02*
X154790423Y-127021973D01*
X154790423Y-127021973D02*
X154671212Y-126962368D01*
X154671212Y-126962368D02*
X154552001Y-126843157D01*
X154552001Y-126843157D02*
X154492396Y-126664341D01*
X154492396Y-126664341D02*
X154492396Y-126545130D01*
X154492396Y-126545130D02*
X154552001Y-126366314D01*
X154552001Y-126366314D02*
X154611607Y-126306709D01*
X154611607Y-126306709D02*
X155028844Y-126306709D01*
X155028844Y-126306709D02*
X155028844Y-126545130D01*
X154492396Y-125770261D02*
X155744108Y-125770261D01*
X155744108Y-125770261D02*
X154492396Y-125054997D01*
X154492396Y-125054997D02*
X155744108Y-125054997D01*
X154492396Y-124458944D02*
X155744108Y-124458944D01*
X155744108Y-124458944D02*
X155744108Y-124160917D01*
X155744108Y-124160917D02*
X155684503Y-123982101D01*
X155684503Y-123982101D02*
X155565292Y-123862891D01*
X155565292Y-123862891D02*
X155446081Y-123803285D01*
X155446081Y-123803285D02*
X155207660Y-123743680D01*
X155207660Y-123743680D02*
X155028844Y-123743680D01*
X155028844Y-123743680D02*
X154790423Y-123803285D01*
X154790423Y-123803285D02*
X154671212Y-123862891D01*
X154671212Y-123862891D02*
X154552001Y-123982101D01*
X154552001Y-123982101D02*
X154492396Y-124160917D01*
X154492396Y-124160917D02*
X154492396Y-124458944D01*
X160844108Y-127080789D02*
X159592396Y-126663552D01*
X159592396Y-126663552D02*
X160844108Y-126246314D01*
X159592396Y-125829077D02*
X160844108Y-125829077D01*
X159592396Y-125233024D02*
X160844108Y-125233024D01*
X160844108Y-125233024D02*
X159592396Y-124517760D01*
X159592396Y-124517760D02*
X160844108Y-124517760D01*
X158294503Y-126326314D02*
X158354108Y-126445525D01*
X158354108Y-126445525D02*
X158354108Y-126624341D01*
X158354108Y-126624341D02*
X158294503Y-126803157D01*
X158294503Y-126803157D02*
X158175292Y-126922368D01*
X158175292Y-126922368D02*
X158056081Y-126981973D01*
X158056081Y-126981973D02*
X157817660Y-127041578D01*
X157817660Y-127041578D02*
X157638844Y-127041578D01*
X157638844Y-127041578D02*
X157400423Y-126981973D01*
X157400423Y-126981973D02*
X157281212Y-126922368D01*
X157281212Y-126922368D02*
X157162001Y-126803157D01*
X157162001Y-126803157D02*
X157102396Y-126624341D01*
X157102396Y-126624341D02*
X157102396Y-126505130D01*
X157102396Y-126505130D02*
X157162001Y-126326314D01*
X157162001Y-126326314D02*
X157221607Y-126266709D01*
X157221607Y-126266709D02*
X157638844Y-126266709D01*
X157638844Y-126266709D02*
X157638844Y-126505130D01*
X157102396Y-125730261D02*
X158354108Y-125730261D01*
X158354108Y-125730261D02*
X157102396Y-125014997D01*
X157102396Y-125014997D02*
X158354108Y-125014997D01*
X157102396Y-124418944D02*
X158354108Y-124418944D01*
X158354108Y-124418944D02*
X158354108Y-124120917D01*
X158354108Y-124120917D02*
X158294503Y-123942101D01*
X158294503Y-123942101D02*
X158175292Y-123822891D01*
X158175292Y-123822891D02*
X158056081Y-123763285D01*
X158056081Y-123763285D02*
X157817660Y-123703680D01*
X157817660Y-123703680D02*
X157638844Y-123703680D01*
X157638844Y-123703680D02*
X157400423Y-123763285D01*
X157400423Y-123763285D02*
X157281212Y-123822891D01*
X157281212Y-123822891D02*
X157162001Y-123942101D01*
X157162001Y-123942101D02*
X157102396Y-124120917D01*
X157102396Y-124120917D02*
X157102396Y-124418944D01*
D12*
X137934347Y-87356160D02*
X137934347Y-86746560D01*
X137568587Y-87478080D02*
X138848747Y-87051360D01*
X138848747Y-87051360D02*
X137568587Y-86624640D01*
X137568587Y-85466400D02*
X138178187Y-85893120D01*
X137568587Y-86197920D02*
X138848747Y-86197920D01*
X138848747Y-86197920D02*
X138848747Y-85710240D01*
X138848747Y-85710240D02*
X138787787Y-85588320D01*
X138787787Y-85588320D02*
X138726827Y-85527360D01*
X138726827Y-85527360D02*
X138604907Y-85466400D01*
X138604907Y-85466400D02*
X138422027Y-85466400D01*
X138422027Y-85466400D02*
X138300107Y-85527360D01*
X138300107Y-85527360D02*
X138239147Y-85588320D01*
X138239147Y-85588320D02*
X138178187Y-85710240D01*
X138178187Y-85710240D02*
X138178187Y-86197920D01*
X138239147Y-84917760D02*
X138239147Y-84491040D01*
X137568587Y-84308160D02*
X137568587Y-84917760D01*
X137568587Y-84917760D02*
X138848747Y-84917760D01*
X138848747Y-84917760D02*
X138848747Y-84308160D01*
X138239147Y-83332800D02*
X138239147Y-83759520D01*
X137568587Y-83759520D02*
X138848747Y-83759520D01*
X138848747Y-83759520D02*
X138848747Y-83149920D01*
D14*
X165443219Y-82886095D02*
X165443219Y-83418285D01*
X165443219Y-83418285D02*
X164911028Y-83471504D01*
X164911028Y-83471504D02*
X164964247Y-83418285D01*
X164964247Y-83418285D02*
X165017466Y-83311847D01*
X165017466Y-83311847D02*
X165017466Y-83045752D01*
X165017466Y-83045752D02*
X164964247Y-82939314D01*
X164964247Y-82939314D02*
X164911028Y-82886095D01*
X164911028Y-82886095D02*
X164804590Y-82832876D01*
X164804590Y-82832876D02*
X164538495Y-82832876D01*
X164538495Y-82832876D02*
X164432057Y-82886095D01*
X164432057Y-82886095D02*
X164378838Y-82939314D01*
X164378838Y-82939314D02*
X164325619Y-83045752D01*
X164325619Y-83045752D02*
X164325619Y-83311847D01*
X164325619Y-83311847D02*
X164378838Y-83418285D01*
X164378838Y-83418285D02*
X164432057Y-83471504D01*
X147575619Y-84037257D02*
X147575619Y-84675885D01*
X147575619Y-84356571D02*
X148693219Y-84356571D01*
X148693219Y-84356571D02*
X148533561Y-84463009D01*
X148533561Y-84463009D02*
X148427123Y-84569447D01*
X148427123Y-84569447D02*
X148373904Y-84675885D01*
X147575619Y-82972876D02*
X147575619Y-83611504D01*
X147575619Y-83292190D02*
X148693219Y-83292190D01*
X148693219Y-83292190D02*
X148533561Y-83398628D01*
X148533561Y-83398628D02*
X148427123Y-83505066D01*
X148427123Y-83505066D02*
X148373904Y-83611504D01*
D15*
X175859699Y-126829980D02*
X175433946Y-126829980D01*
X175944849Y-127085431D02*
X175646822Y-126191351D01*
X175646822Y-126191351D02*
X175348796Y-127085431D01*
X174667592Y-126489378D02*
X174667592Y-127085431D01*
X174880468Y-126148776D02*
X175093345Y-126787405D01*
X175093345Y-126787405D02*
X174539866Y-126787405D01*
X170759699Y-126869980D02*
X170333946Y-126869980D01*
X170844849Y-127125431D02*
X170546822Y-126231351D01*
X170546822Y-126231351D02*
X170248796Y-127125431D01*
X169993345Y-126316502D02*
X169950769Y-126273927D01*
X169950769Y-126273927D02*
X169865619Y-126231351D01*
X169865619Y-126231351D02*
X169652743Y-126231351D01*
X169652743Y-126231351D02*
X169567592Y-126273927D01*
X169567592Y-126273927D02*
X169525017Y-126316502D01*
X169525017Y-126316502D02*
X169482442Y-126401652D01*
X169482442Y-126401652D02*
X169482442Y-126486803D01*
X169482442Y-126486803D02*
X169525017Y-126614528D01*
X169525017Y-126614528D02*
X170035920Y-127125431D01*
X170035920Y-127125431D02*
X169482442Y-127125431D01*
X165699699Y-126829980D02*
X165273946Y-126829980D01*
X165784849Y-127085431D02*
X165486822Y-126191351D01*
X165486822Y-126191351D02*
X165188796Y-127085431D01*
X164720468Y-126191351D02*
X164635318Y-126191351D01*
X164635318Y-126191351D02*
X164550167Y-126233927D01*
X164550167Y-126233927D02*
X164507592Y-126276502D01*
X164507592Y-126276502D02*
X164465017Y-126361652D01*
X164465017Y-126361652D02*
X164422442Y-126531953D01*
X164422442Y-126531953D02*
X164422442Y-126744829D01*
X164422442Y-126744829D02*
X164465017Y-126915130D01*
X164465017Y-126915130D02*
X164507592Y-127000281D01*
X164507592Y-127000281D02*
X164550167Y-127042856D01*
X164550167Y-127042856D02*
X164635318Y-127085431D01*
X164635318Y-127085431D02*
X164720468Y-127085431D01*
X164720468Y-127085431D02*
X164805619Y-127042856D01*
X164805619Y-127042856D02*
X164848194Y-127000281D01*
X164848194Y-127000281D02*
X164890769Y-126915130D01*
X164890769Y-126915130D02*
X164933345Y-126744829D01*
X164933345Y-126744829D02*
X164933345Y-126531953D01*
X164933345Y-126531953D02*
X164890769Y-126361652D01*
X164890769Y-126361652D02*
X164848194Y-126276502D01*
X164848194Y-126276502D02*
X164805619Y-126233927D01*
X164805619Y-126233927D02*
X164720468Y-126191351D01*
D12*
X144298587Y-126975200D02*
X145578747Y-126975200D01*
X145578747Y-126121760D02*
X145578747Y-125877920D01*
X145578747Y-125877920D02*
X145517787Y-125756000D01*
X145517787Y-125756000D02*
X145395867Y-125634080D01*
X145395867Y-125634080D02*
X145152027Y-125573120D01*
X145152027Y-125573120D02*
X144725307Y-125573120D01*
X144725307Y-125573120D02*
X144481467Y-125634080D01*
X144481467Y-125634080D02*
X144359547Y-125756000D01*
X144359547Y-125756000D02*
X144298587Y-125877920D01*
X144298587Y-125877920D02*
X144298587Y-126121760D01*
X144298587Y-126121760D02*
X144359547Y-126243680D01*
X144359547Y-126243680D02*
X144481467Y-126365600D01*
X144481467Y-126365600D02*
X144725307Y-126426560D01*
X144725307Y-126426560D02*
X145152027Y-126426560D01*
X145152027Y-126426560D02*
X145395867Y-126365600D01*
X145395867Y-126365600D02*
X145517787Y-126243680D01*
X145517787Y-126243680D02*
X145578747Y-126121760D01*
X144298587Y-124292960D02*
X144908187Y-124719680D01*
X144298587Y-125024480D02*
X145578747Y-125024480D01*
X145578747Y-125024480D02*
X145578747Y-124536800D01*
X145578747Y-124536800D02*
X145517787Y-124414880D01*
X145517787Y-124414880D02*
X145456827Y-124353920D01*
X145456827Y-124353920D02*
X145334907Y-124292960D01*
X145334907Y-124292960D02*
X145152027Y-124292960D01*
X145152027Y-124292960D02*
X145030107Y-124353920D01*
X145030107Y-124353920D02*
X144969147Y-124414880D01*
X144969147Y-124414880D02*
X144908187Y-124536800D01*
X144908187Y-124536800D02*
X144908187Y-125024480D01*
X144969147Y-123744320D02*
X144969147Y-123317600D01*
X144298587Y-123134720D02*
X144298587Y-123744320D01*
X144298587Y-123744320D02*
X145578747Y-123744320D01*
X145578747Y-123744320D02*
X145578747Y-123134720D01*
X144969147Y-122159360D02*
X144969147Y-122586080D01*
X144298587Y-122586080D02*
X145578747Y-122586080D01*
X145578747Y-122586080D02*
X145578747Y-121976480D01*
D14*
X160273219Y-83524723D02*
X160273219Y-82779657D01*
X160273219Y-82779657D02*
X159155619Y-83258628D01*
X152515619Y-83415066D02*
X152515619Y-83202190D01*
X152515619Y-83202190D02*
X152568838Y-83095752D01*
X152568838Y-83095752D02*
X152622057Y-83042533D01*
X152622057Y-83042533D02*
X152781714Y-82936095D01*
X152781714Y-82936095D02*
X152994590Y-82882876D01*
X152994590Y-82882876D02*
X153420342Y-82882876D01*
X153420342Y-82882876D02*
X153526780Y-82936095D01*
X153526780Y-82936095D02*
X153580000Y-82989314D01*
X153580000Y-82989314D02*
X153633219Y-83095752D01*
X153633219Y-83095752D02*
X153633219Y-83308628D01*
X153633219Y-83308628D02*
X153580000Y-83415066D01*
X153580000Y-83415066D02*
X153526780Y-83468285D01*
X153526780Y-83468285D02*
X153420342Y-83521504D01*
X153420342Y-83521504D02*
X153154247Y-83521504D01*
X153154247Y-83521504D02*
X153047809Y-83468285D01*
X153047809Y-83468285D02*
X152994590Y-83415066D01*
X152994590Y-83415066D02*
X152941371Y-83308628D01*
X152941371Y-83308628D02*
X152941371Y-83095752D01*
X152941371Y-83095752D02*
X152994590Y-82989314D01*
X152994590Y-82989314D02*
X153047809Y-82936095D01*
X153047809Y-82936095D02*
X153154247Y-82882876D01*
D13*
X177769047Y-92037380D02*
X177864285Y-91989761D01*
X177864285Y-91989761D02*
X177911904Y-91942142D01*
X177911904Y-91942142D02*
X177959523Y-91846904D01*
X177959523Y-91846904D02*
X177959523Y-91561190D01*
X177959523Y-91561190D02*
X177911904Y-91465952D01*
X177911904Y-91465952D02*
X177864285Y-91418333D01*
X177864285Y-91418333D02*
X177769047Y-91370714D01*
X177769047Y-91370714D02*
X177626190Y-91370714D01*
X177626190Y-91370714D02*
X177530952Y-91418333D01*
X177530952Y-91418333D02*
X177483333Y-91465952D01*
X177483333Y-91465952D02*
X177435714Y-91561190D01*
X177435714Y-91561190D02*
X177435714Y-91846904D01*
X177435714Y-91846904D02*
X177483333Y-91942142D01*
X177483333Y-91942142D02*
X177530952Y-91989761D01*
X177530952Y-91989761D02*
X177626190Y-92037380D01*
X177626190Y-92037380D02*
X177769047Y-92037380D01*
X177007142Y-92037380D02*
X177007142Y-91370714D01*
X177007142Y-91561190D02*
X176959523Y-91465952D01*
X176959523Y-91465952D02*
X176911904Y-91418333D01*
X176911904Y-91418333D02*
X176816666Y-91370714D01*
X176816666Y-91370714D02*
X176721428Y-91370714D01*
X176388094Y-92037380D02*
X176388094Y-91370714D01*
X176388094Y-91037380D02*
X176435713Y-91085000D01*
X176435713Y-91085000D02*
X176388094Y-91132619D01*
X176388094Y-91132619D02*
X176340475Y-91085000D01*
X176340475Y-91085000D02*
X176388094Y-91037380D01*
X176388094Y-91037380D02*
X176388094Y-91132619D01*
X175483333Y-91370714D02*
X175483333Y-92180238D01*
X175483333Y-92180238D02*
X175530952Y-92275476D01*
X175530952Y-92275476D02*
X175578571Y-92323095D01*
X175578571Y-92323095D02*
X175673809Y-92370714D01*
X175673809Y-92370714D02*
X175816666Y-92370714D01*
X175816666Y-92370714D02*
X175911904Y-92323095D01*
X175483333Y-91989761D02*
X175578571Y-92037380D01*
X175578571Y-92037380D02*
X175769047Y-92037380D01*
X175769047Y-92037380D02*
X175864285Y-91989761D01*
X175864285Y-91989761D02*
X175911904Y-91942142D01*
X175911904Y-91942142D02*
X175959523Y-91846904D01*
X175959523Y-91846904D02*
X175959523Y-91561190D01*
X175959523Y-91561190D02*
X175911904Y-91465952D01*
X175911904Y-91465952D02*
X175864285Y-91418333D01*
X175864285Y-91418333D02*
X175769047Y-91370714D01*
X175769047Y-91370714D02*
X175578571Y-91370714D01*
X175578571Y-91370714D02*
X175483333Y-91418333D01*
X175007142Y-92037380D02*
X175007142Y-91370714D01*
X175007142Y-91037380D02*
X175054761Y-91085000D01*
X175054761Y-91085000D02*
X175007142Y-91132619D01*
X175007142Y-91132619D02*
X174959523Y-91085000D01*
X174959523Y-91085000D02*
X175007142Y-91037380D01*
X175007142Y-91037380D02*
X175007142Y-91132619D01*
X174530952Y-91370714D02*
X174530952Y-92037380D01*
X174530952Y-91465952D02*
X174483333Y-91418333D01*
X174483333Y-91418333D02*
X174388095Y-91370714D01*
X174388095Y-91370714D02*
X174245238Y-91370714D01*
X174245238Y-91370714D02*
X174150000Y-91418333D01*
X174150000Y-91418333D02*
X174102381Y-91513571D01*
X174102381Y-91513571D02*
X174102381Y-92037380D01*
X173197619Y-92037380D02*
X173197619Y-91513571D01*
X173197619Y-91513571D02*
X173245238Y-91418333D01*
X173245238Y-91418333D02*
X173340476Y-91370714D01*
X173340476Y-91370714D02*
X173530952Y-91370714D01*
X173530952Y-91370714D02*
X173626190Y-91418333D01*
X173197619Y-91989761D02*
X173292857Y-92037380D01*
X173292857Y-92037380D02*
X173530952Y-92037380D01*
X173530952Y-92037380D02*
X173626190Y-91989761D01*
X173626190Y-91989761D02*
X173673809Y-91894523D01*
X173673809Y-91894523D02*
X173673809Y-91799285D01*
X173673809Y-91799285D02*
X173626190Y-91704047D01*
X173626190Y-91704047D02*
X173530952Y-91656428D01*
X173530952Y-91656428D02*
X173292857Y-91656428D01*
X173292857Y-91656428D02*
X173197619Y-91608809D01*
X172578571Y-92037380D02*
X172673809Y-91989761D01*
X172673809Y-91989761D02*
X172721428Y-91894523D01*
X172721428Y-91894523D02*
X172721428Y-91037380D01*
X171169047Y-92037380D02*
X171169047Y-91037380D01*
X171169047Y-91989761D02*
X171264285Y-92037380D01*
X171264285Y-92037380D02*
X171454761Y-92037380D01*
X171454761Y-92037380D02*
X171549999Y-91989761D01*
X171549999Y-91989761D02*
X171597618Y-91942142D01*
X171597618Y-91942142D02*
X171645237Y-91846904D01*
X171645237Y-91846904D02*
X171645237Y-91561190D01*
X171645237Y-91561190D02*
X171597618Y-91465952D01*
X171597618Y-91465952D02*
X171549999Y-91418333D01*
X171549999Y-91418333D02*
X171454761Y-91370714D01*
X171454761Y-91370714D02*
X171264285Y-91370714D01*
X171264285Y-91370714D02*
X171169047Y-91418333D01*
X170311904Y-91989761D02*
X170407142Y-92037380D01*
X170407142Y-92037380D02*
X170597618Y-92037380D01*
X170597618Y-92037380D02*
X170692856Y-91989761D01*
X170692856Y-91989761D02*
X170740475Y-91894523D01*
X170740475Y-91894523D02*
X170740475Y-91513571D01*
X170740475Y-91513571D02*
X170692856Y-91418333D01*
X170692856Y-91418333D02*
X170597618Y-91370714D01*
X170597618Y-91370714D02*
X170407142Y-91370714D01*
X170407142Y-91370714D02*
X170311904Y-91418333D01*
X170311904Y-91418333D02*
X170264285Y-91513571D01*
X170264285Y-91513571D02*
X170264285Y-91608809D01*
X170264285Y-91608809D02*
X170740475Y-91704047D01*
X169883332Y-91989761D02*
X169788094Y-92037380D01*
X169788094Y-92037380D02*
X169597618Y-92037380D01*
X169597618Y-92037380D02*
X169502380Y-91989761D01*
X169502380Y-91989761D02*
X169454761Y-91894523D01*
X169454761Y-91894523D02*
X169454761Y-91846904D01*
X169454761Y-91846904D02*
X169502380Y-91751666D01*
X169502380Y-91751666D02*
X169597618Y-91704047D01*
X169597618Y-91704047D02*
X169740475Y-91704047D01*
X169740475Y-91704047D02*
X169835713Y-91656428D01*
X169835713Y-91656428D02*
X169883332Y-91561190D01*
X169883332Y-91561190D02*
X169883332Y-91513571D01*
X169883332Y-91513571D02*
X169835713Y-91418333D01*
X169835713Y-91418333D02*
X169740475Y-91370714D01*
X169740475Y-91370714D02*
X169597618Y-91370714D01*
X169597618Y-91370714D02*
X169502380Y-91418333D01*
X169026189Y-92037380D02*
X169026189Y-91370714D01*
X169026189Y-91037380D02*
X169073808Y-91085000D01*
X169073808Y-91085000D02*
X169026189Y-91132619D01*
X169026189Y-91132619D02*
X168978570Y-91085000D01*
X168978570Y-91085000D02*
X169026189Y-91037380D01*
X169026189Y-91037380D02*
X169026189Y-91132619D01*
X168121428Y-91370714D02*
X168121428Y-92180238D01*
X168121428Y-92180238D02*
X168169047Y-92275476D01*
X168169047Y-92275476D02*
X168216666Y-92323095D01*
X168216666Y-92323095D02*
X168311904Y-92370714D01*
X168311904Y-92370714D02*
X168454761Y-92370714D01*
X168454761Y-92370714D02*
X168549999Y-92323095D01*
X168121428Y-91989761D02*
X168216666Y-92037380D01*
X168216666Y-92037380D02*
X168407142Y-92037380D01*
X168407142Y-92037380D02*
X168502380Y-91989761D01*
X168502380Y-91989761D02*
X168549999Y-91942142D01*
X168549999Y-91942142D02*
X168597618Y-91846904D01*
X168597618Y-91846904D02*
X168597618Y-91561190D01*
X168597618Y-91561190D02*
X168549999Y-91465952D01*
X168549999Y-91465952D02*
X168502380Y-91418333D01*
X168502380Y-91418333D02*
X168407142Y-91370714D01*
X168407142Y-91370714D02*
X168216666Y-91370714D01*
X168216666Y-91370714D02*
X168121428Y-91418333D01*
X167645237Y-91370714D02*
X167645237Y-92037380D01*
X167645237Y-91465952D02*
X167597618Y-91418333D01*
X167597618Y-91418333D02*
X167502380Y-91370714D01*
X167502380Y-91370714D02*
X167359523Y-91370714D01*
X167359523Y-91370714D02*
X167264285Y-91418333D01*
X167264285Y-91418333D02*
X167216666Y-91513571D01*
X167216666Y-91513571D02*
X167216666Y-92037380D01*
X166740475Y-91942142D02*
X166692856Y-91989761D01*
X166692856Y-91989761D02*
X166740475Y-92037380D01*
X166740475Y-92037380D02*
X166788094Y-91989761D01*
X166788094Y-91989761D02*
X166740475Y-91942142D01*
X166740475Y-91942142D02*
X166740475Y-92037380D01*
X166740475Y-91418333D02*
X166692856Y-91465952D01*
X166692856Y-91465952D02*
X166740475Y-91513571D01*
X166740475Y-91513571D02*
X166788094Y-91465952D01*
X166788094Y-91465952D02*
X166740475Y-91418333D01*
X166740475Y-91418333D02*
X166740475Y-91513571D01*
X177435714Y-93657380D02*
X177911904Y-93657380D01*
X177911904Y-93657380D02*
X177911904Y-92657380D01*
X176721428Y-93609761D02*
X176816666Y-93657380D01*
X176816666Y-93657380D02*
X177007142Y-93657380D01*
X177007142Y-93657380D02*
X177102380Y-93609761D01*
X177102380Y-93609761D02*
X177149999Y-93514523D01*
X177149999Y-93514523D02*
X177149999Y-93133571D01*
X177149999Y-93133571D02*
X177102380Y-93038333D01*
X177102380Y-93038333D02*
X177007142Y-92990714D01*
X177007142Y-92990714D02*
X176816666Y-92990714D01*
X176816666Y-92990714D02*
X176721428Y-93038333D01*
X176721428Y-93038333D02*
X176673809Y-93133571D01*
X176673809Y-93133571D02*
X176673809Y-93228809D01*
X176673809Y-93228809D02*
X177149999Y-93324047D01*
X176102380Y-93657380D02*
X176197618Y-93609761D01*
X176197618Y-93609761D02*
X176245237Y-93562142D01*
X176245237Y-93562142D02*
X176292856Y-93466904D01*
X176292856Y-93466904D02*
X176292856Y-93181190D01*
X176292856Y-93181190D02*
X176245237Y-93085952D01*
X176245237Y-93085952D02*
X176197618Y-93038333D01*
X176197618Y-93038333D02*
X176102380Y-92990714D01*
X176102380Y-92990714D02*
X175959523Y-92990714D01*
X175959523Y-92990714D02*
X175864285Y-93038333D01*
X175864285Y-93038333D02*
X175816666Y-93085952D01*
X175816666Y-93085952D02*
X175769047Y-93181190D01*
X175769047Y-93181190D02*
X175769047Y-93466904D01*
X175769047Y-93466904D02*
X175816666Y-93562142D01*
X175816666Y-93562142D02*
X175864285Y-93609761D01*
X175864285Y-93609761D02*
X175959523Y-93657380D01*
X175959523Y-93657380D02*
X176102380Y-93657380D01*
X175340475Y-92990714D02*
X175340475Y-93657380D01*
X175340475Y-93085952D02*
X175292856Y-93038333D01*
X175292856Y-93038333D02*
X175197618Y-92990714D01*
X175197618Y-92990714D02*
X175054761Y-92990714D01*
X175054761Y-92990714D02*
X174959523Y-93038333D01*
X174959523Y-93038333D02*
X174911904Y-93133571D01*
X174911904Y-93133571D02*
X174911904Y-93657380D01*
X174007142Y-93657380D02*
X174007142Y-93133571D01*
X174007142Y-93133571D02*
X174054761Y-93038333D01*
X174054761Y-93038333D02*
X174149999Y-92990714D01*
X174149999Y-92990714D02*
X174340475Y-92990714D01*
X174340475Y-92990714D02*
X174435713Y-93038333D01*
X174007142Y-93609761D02*
X174102380Y-93657380D01*
X174102380Y-93657380D02*
X174340475Y-93657380D01*
X174340475Y-93657380D02*
X174435713Y-93609761D01*
X174435713Y-93609761D02*
X174483332Y-93514523D01*
X174483332Y-93514523D02*
X174483332Y-93419285D01*
X174483332Y-93419285D02*
X174435713Y-93324047D01*
X174435713Y-93324047D02*
X174340475Y-93276428D01*
X174340475Y-93276428D02*
X174102380Y-93276428D01*
X174102380Y-93276428D02*
X174007142Y-93228809D01*
X173530951Y-93657380D02*
X173530951Y-92990714D01*
X173530951Y-93181190D02*
X173483332Y-93085952D01*
X173483332Y-93085952D02*
X173435713Y-93038333D01*
X173435713Y-93038333D02*
X173340475Y-92990714D01*
X173340475Y-92990714D02*
X173245237Y-92990714D01*
X172483332Y-93657380D02*
X172483332Y-92657380D01*
X172483332Y-93609761D02*
X172578570Y-93657380D01*
X172578570Y-93657380D02*
X172769046Y-93657380D01*
X172769046Y-93657380D02*
X172864284Y-93609761D01*
X172864284Y-93609761D02*
X172911903Y-93562142D01*
X172911903Y-93562142D02*
X172959522Y-93466904D01*
X172959522Y-93466904D02*
X172959522Y-93181190D01*
X172959522Y-93181190D02*
X172911903Y-93085952D01*
X172911903Y-93085952D02*
X172864284Y-93038333D01*
X172864284Y-93038333D02*
X172769046Y-92990714D01*
X172769046Y-92990714D02*
X172578570Y-92990714D01*
X172578570Y-92990714D02*
X172483332Y-93038333D01*
X171864284Y-93657380D02*
X171959522Y-93609761D01*
X171959522Y-93609761D02*
X172007141Y-93562142D01*
X172007141Y-93562142D02*
X172054760Y-93466904D01*
X172054760Y-93466904D02*
X172054760Y-93181190D01*
X172054760Y-93181190D02*
X172007141Y-93085952D01*
X172007141Y-93085952D02*
X171959522Y-93038333D01*
X171959522Y-93038333D02*
X171864284Y-92990714D01*
X171864284Y-92990714D02*
X171721427Y-92990714D01*
X171721427Y-92990714D02*
X171626189Y-93038333D01*
X171626189Y-93038333D02*
X171578570Y-93085952D01*
X171578570Y-93085952D02*
X171530951Y-93181190D01*
X171530951Y-93181190D02*
X171530951Y-93466904D01*
X171530951Y-93466904D02*
X171578570Y-93562142D01*
X171578570Y-93562142D02*
X171626189Y-93609761D01*
X171626189Y-93609761D02*
X171721427Y-93657380D01*
X171721427Y-93657380D02*
X171864284Y-93657380D01*
X170502379Y-93657380D02*
X170502379Y-92657380D01*
X170502379Y-93038333D02*
X170407141Y-92990714D01*
X170407141Y-92990714D02*
X170216665Y-92990714D01*
X170216665Y-92990714D02*
X170121427Y-93038333D01*
X170121427Y-93038333D02*
X170073808Y-93085952D01*
X170073808Y-93085952D02*
X170026189Y-93181190D01*
X170026189Y-93181190D02*
X170026189Y-93466904D01*
X170026189Y-93466904D02*
X170073808Y-93562142D01*
X170073808Y-93562142D02*
X170121427Y-93609761D01*
X170121427Y-93609761D02*
X170216665Y-93657380D01*
X170216665Y-93657380D02*
X170407141Y-93657380D01*
X170407141Y-93657380D02*
X170502379Y-93609761D01*
X169454760Y-93657380D02*
X169549998Y-93609761D01*
X169549998Y-93609761D02*
X169597617Y-93562142D01*
X169597617Y-93562142D02*
X169645236Y-93466904D01*
X169645236Y-93466904D02*
X169645236Y-93181190D01*
X169645236Y-93181190D02*
X169597617Y-93085952D01*
X169597617Y-93085952D02*
X169549998Y-93038333D01*
X169549998Y-93038333D02*
X169454760Y-92990714D01*
X169454760Y-92990714D02*
X169311903Y-92990714D01*
X169311903Y-92990714D02*
X169216665Y-93038333D01*
X169216665Y-93038333D02*
X169169046Y-93085952D01*
X169169046Y-93085952D02*
X169121427Y-93181190D01*
X169121427Y-93181190D02*
X169121427Y-93466904D01*
X169121427Y-93466904D02*
X169169046Y-93562142D01*
X169169046Y-93562142D02*
X169216665Y-93609761D01*
X169216665Y-93609761D02*
X169311903Y-93657380D01*
X169311903Y-93657380D02*
X169454760Y-93657380D01*
X168264284Y-93657380D02*
X168264284Y-93133571D01*
X168264284Y-93133571D02*
X168311903Y-93038333D01*
X168311903Y-93038333D02*
X168407141Y-92990714D01*
X168407141Y-92990714D02*
X168597617Y-92990714D01*
X168597617Y-92990714D02*
X168692855Y-93038333D01*
X168264284Y-93609761D02*
X168359522Y-93657380D01*
X168359522Y-93657380D02*
X168597617Y-93657380D01*
X168597617Y-93657380D02*
X168692855Y-93609761D01*
X168692855Y-93609761D02*
X168740474Y-93514523D01*
X168740474Y-93514523D02*
X168740474Y-93419285D01*
X168740474Y-93419285D02*
X168692855Y-93324047D01*
X168692855Y-93324047D02*
X168597617Y-93276428D01*
X168597617Y-93276428D02*
X168359522Y-93276428D01*
X168359522Y-93276428D02*
X168264284Y-93228809D01*
X167788093Y-93657380D02*
X167788093Y-92990714D01*
X167788093Y-93181190D02*
X167740474Y-93085952D01*
X167740474Y-93085952D02*
X167692855Y-93038333D01*
X167692855Y-93038333D02*
X167597617Y-92990714D01*
X167597617Y-92990714D02*
X167502379Y-92990714D01*
X166740474Y-93657380D02*
X166740474Y-92657380D01*
X166740474Y-93609761D02*
X166835712Y-93657380D01*
X166835712Y-93657380D02*
X167026188Y-93657380D01*
X167026188Y-93657380D02*
X167121426Y-93609761D01*
X167121426Y-93609761D02*
X167169045Y-93562142D01*
X167169045Y-93562142D02*
X167216664Y-93466904D01*
X167216664Y-93466904D02*
X167216664Y-93181190D01*
X167216664Y-93181190D02*
X167169045Y-93085952D01*
X167169045Y-93085952D02*
X167121426Y-93038333D01*
X167121426Y-93038333D02*
X167026188Y-92990714D01*
X167026188Y-92990714D02*
X166835712Y-92990714D01*
X166835712Y-92990714D02*
X166740474Y-93038333D01*
X165664283Y-93657380D02*
X165664283Y-92990714D01*
X165664283Y-93181190D02*
X165616664Y-93085952D01*
X165616664Y-93085952D02*
X165569045Y-93038333D01*
X165569045Y-93038333D02*
X165473807Y-92990714D01*
X165473807Y-92990714D02*
X165378569Y-92990714D01*
X164664283Y-93609761D02*
X164759521Y-93657380D01*
X164759521Y-93657380D02*
X164949997Y-93657380D01*
X164949997Y-93657380D02*
X165045235Y-93609761D01*
X165045235Y-93609761D02*
X165092854Y-93514523D01*
X165092854Y-93514523D02*
X165092854Y-93133571D01*
X165092854Y-93133571D02*
X165045235Y-93038333D01*
X165045235Y-93038333D02*
X164949997Y-92990714D01*
X164949997Y-92990714D02*
X164759521Y-92990714D01*
X164759521Y-92990714D02*
X164664283Y-93038333D01*
X164664283Y-93038333D02*
X164616664Y-93133571D01*
X164616664Y-93133571D02*
X164616664Y-93228809D01*
X164616664Y-93228809D02*
X165092854Y-93324047D01*
X164283330Y-92990714D02*
X164045235Y-93657380D01*
X164045235Y-93657380D02*
X163807140Y-92990714D01*
X163521425Y-92657380D02*
X162902378Y-92657380D01*
X162902378Y-92657380D02*
X163235711Y-93038333D01*
X163235711Y-93038333D02*
X163092854Y-93038333D01*
X163092854Y-93038333D02*
X162997616Y-93085952D01*
X162997616Y-93085952D02*
X162949997Y-93133571D01*
X162949997Y-93133571D02*
X162902378Y-93228809D01*
X162902378Y-93228809D02*
X162902378Y-93466904D01*
X162902378Y-93466904D02*
X162949997Y-93562142D01*
X162949997Y-93562142D02*
X162997616Y-93609761D01*
X162997616Y-93609761D02*
X163092854Y-93657380D01*
X163092854Y-93657380D02*
X163378568Y-93657380D01*
X163378568Y-93657380D02*
X163473806Y-93609761D01*
X163473806Y-93609761D02*
X163521425Y-93562142D01*
X162045235Y-93657380D02*
X162045235Y-92657380D01*
X162045235Y-93609761D02*
X162140473Y-93657380D01*
X162140473Y-93657380D02*
X162330949Y-93657380D01*
X162330949Y-93657380D02*
X162426187Y-93609761D01*
X162426187Y-93609761D02*
X162473806Y-93562142D01*
X162473806Y-93562142D02*
X162521425Y-93466904D01*
X162521425Y-93466904D02*
X162521425Y-93181190D01*
X162521425Y-93181190D02*
X162473806Y-93085952D01*
X162473806Y-93085952D02*
X162426187Y-93038333D01*
X162426187Y-93038333D02*
X162330949Y-92990714D01*
X162330949Y-92990714D02*
X162140473Y-92990714D01*
X162140473Y-92990714D02*
X162045235Y-93038333D01*
X160159520Y-92895476D02*
X160254759Y-92847857D01*
X160254759Y-92847857D02*
X160445235Y-92847857D01*
X160445235Y-92847857D02*
X160540473Y-92895476D01*
X160540473Y-92895476D02*
X160635711Y-92990714D01*
X160635711Y-92990714D02*
X160683330Y-93085952D01*
X160683330Y-93085952D02*
X160683330Y-93276428D01*
X160683330Y-93276428D02*
X160635711Y-93371666D01*
X160635711Y-93371666D02*
X160540473Y-93466904D01*
X160540473Y-93466904D02*
X160445235Y-93514523D01*
X160445235Y-93514523D02*
X160254759Y-93514523D01*
X160254759Y-93514523D02*
X160159520Y-93466904D01*
X160349997Y-92514523D02*
X160588092Y-92562142D01*
X160588092Y-92562142D02*
X160826187Y-92705000D01*
X160826187Y-92705000D02*
X160969044Y-92943095D01*
X160969044Y-92943095D02*
X161016663Y-93181190D01*
X161016663Y-93181190D02*
X160969044Y-93419285D01*
X160969044Y-93419285D02*
X160826187Y-93657380D01*
X160826187Y-93657380D02*
X160588092Y-93800238D01*
X160588092Y-93800238D02*
X160349997Y-93847857D01*
X160349997Y-93847857D02*
X160111901Y-93800238D01*
X160111901Y-93800238D02*
X159873806Y-93657380D01*
X159873806Y-93657380D02*
X159730949Y-93419285D01*
X159730949Y-93419285D02*
X159683330Y-93181190D01*
X159683330Y-93181190D02*
X159730949Y-92943095D01*
X159730949Y-92943095D02*
X159873806Y-92705000D01*
X159873806Y-92705000D02*
X160111901Y-92562142D01*
X160111901Y-92562142D02*
X160349997Y-92514523D01*
X158702377Y-93371666D02*
X158226187Y-93371666D01*
X158797615Y-93657380D02*
X158464282Y-92657380D01*
X158464282Y-92657380D02*
X158130949Y-93657380D01*
X157797615Y-93657380D02*
X157797615Y-92990714D01*
X157797615Y-93181190D02*
X157749996Y-93085952D01*
X157749996Y-93085952D02*
X157702377Y-93038333D01*
X157702377Y-93038333D02*
X157607139Y-92990714D01*
X157607139Y-92990714D02*
X157511901Y-92990714D01*
X156749996Y-93657380D02*
X156749996Y-92657380D01*
X156749996Y-93609761D02*
X156845234Y-93657380D01*
X156845234Y-93657380D02*
X157035710Y-93657380D01*
X157035710Y-93657380D02*
X157130948Y-93609761D01*
X157130948Y-93609761D02*
X157178567Y-93562142D01*
X157178567Y-93562142D02*
X157226186Y-93466904D01*
X157226186Y-93466904D02*
X157226186Y-93181190D01*
X157226186Y-93181190D02*
X157178567Y-93085952D01*
X157178567Y-93085952D02*
X157130948Y-93038333D01*
X157130948Y-93038333D02*
X157035710Y-92990714D01*
X157035710Y-92990714D02*
X156845234Y-92990714D01*
X156845234Y-92990714D02*
X156749996Y-93038333D01*
X155845234Y-92990714D02*
X155845234Y-93657380D01*
X156273805Y-92990714D02*
X156273805Y-93514523D01*
X156273805Y-93514523D02*
X156226186Y-93609761D01*
X156226186Y-93609761D02*
X156130948Y-93657380D01*
X156130948Y-93657380D02*
X155988091Y-93657380D01*
X155988091Y-93657380D02*
X155892853Y-93609761D01*
X155892853Y-93609761D02*
X155845234Y-93562142D01*
X155369043Y-93657380D02*
X155369043Y-92990714D01*
X155369043Y-92657380D02*
X155416662Y-92705000D01*
X155416662Y-92705000D02*
X155369043Y-92752619D01*
X155369043Y-92752619D02*
X155321424Y-92705000D01*
X155321424Y-92705000D02*
X155369043Y-92657380D01*
X155369043Y-92657380D02*
X155369043Y-92752619D01*
X154892853Y-92990714D02*
X154892853Y-93657380D01*
X154892853Y-93085952D02*
X154845234Y-93038333D01*
X154845234Y-93038333D02*
X154749996Y-92990714D01*
X154749996Y-92990714D02*
X154607139Y-92990714D01*
X154607139Y-92990714D02*
X154511901Y-93038333D01*
X154511901Y-93038333D02*
X154464282Y-93133571D01*
X154464282Y-93133571D02*
X154464282Y-93657380D01*
X153845234Y-93657380D02*
X153940472Y-93609761D01*
X153940472Y-93609761D02*
X153988091Y-93562142D01*
X153988091Y-93562142D02*
X154035710Y-93466904D01*
X154035710Y-93466904D02*
X154035710Y-93181190D01*
X154035710Y-93181190D02*
X153988091Y-93085952D01*
X153988091Y-93085952D02*
X153940472Y-93038333D01*
X153940472Y-93038333D02*
X153845234Y-92990714D01*
X153845234Y-92990714D02*
X153702377Y-92990714D01*
X153702377Y-92990714D02*
X153607139Y-93038333D01*
X153607139Y-93038333D02*
X153559520Y-93085952D01*
X153559520Y-93085952D02*
X153511901Y-93181190D01*
X153511901Y-93181190D02*
X153511901Y-93466904D01*
X153511901Y-93466904D02*
X153559520Y-93562142D01*
X153559520Y-93562142D02*
X153607139Y-93609761D01*
X153607139Y-93609761D02*
X153702377Y-93657380D01*
X153702377Y-93657380D02*
X153845234Y-93657380D01*
X152530948Y-93609761D02*
X152435710Y-93657380D01*
X152435710Y-93657380D02*
X152245234Y-93657380D01*
X152245234Y-93657380D02*
X152149996Y-93609761D01*
X152149996Y-93609761D02*
X152102377Y-93514523D01*
X152102377Y-93514523D02*
X152102377Y-93466904D01*
X152102377Y-93466904D02*
X152149996Y-93371666D01*
X152149996Y-93371666D02*
X152245234Y-93324047D01*
X152245234Y-93324047D02*
X152388091Y-93324047D01*
X152388091Y-93324047D02*
X152483329Y-93276428D01*
X152483329Y-93276428D02*
X152530948Y-93181190D01*
X152530948Y-93181190D02*
X152530948Y-93133571D01*
X152530948Y-93133571D02*
X152483329Y-93038333D01*
X152483329Y-93038333D02*
X152388091Y-92990714D01*
X152388091Y-92990714D02*
X152245234Y-92990714D01*
X152245234Y-92990714D02*
X152149996Y-93038333D01*
X151673805Y-93562142D02*
X151626186Y-93609761D01*
X151626186Y-93609761D02*
X151673805Y-93657380D01*
X151673805Y-93657380D02*
X151721424Y-93609761D01*
X151721424Y-93609761D02*
X151673805Y-93562142D01*
X151673805Y-93562142D02*
X151673805Y-93657380D01*
X151197615Y-93657380D02*
X151197615Y-92990714D01*
X151197615Y-93181190D02*
X151149996Y-93085952D01*
X151149996Y-93085952D02*
X151102377Y-93038333D01*
X151102377Y-93038333D02*
X151007139Y-92990714D01*
X151007139Y-92990714D02*
X150911901Y-92990714D01*
X150578567Y-93562142D02*
X150530948Y-93609761D01*
X150530948Y-93609761D02*
X150578567Y-93657380D01*
X150578567Y-93657380D02*
X150626186Y-93609761D01*
X150626186Y-93609761D02*
X150578567Y-93562142D01*
X150578567Y-93562142D02*
X150578567Y-93657380D01*
X149959520Y-93657380D02*
X150054758Y-93609761D01*
X150054758Y-93609761D02*
X150102377Y-93514523D01*
X150102377Y-93514523D02*
X150102377Y-92657380D01*
X149578567Y-93562142D02*
X149530948Y-93609761D01*
X149530948Y-93609761D02*
X149578567Y-93657380D01*
X149578567Y-93657380D02*
X149626186Y-93609761D01*
X149626186Y-93609761D02*
X149578567Y-93562142D01*
X149578567Y-93562142D02*
X149578567Y-93657380D01*
D17*
X175968582Y-124822781D02*
X175290040Y-124822781D01*
X176104291Y-125229906D02*
X175629311Y-123804966D01*
X175629311Y-123804966D02*
X175154331Y-125229906D01*
X174679351Y-125229906D02*
X174679351Y-123804966D01*
X174679351Y-123804966D02*
X173865100Y-125229906D01*
X173865100Y-125229906D02*
X173865100Y-123804966D01*
X173254411Y-124822781D02*
X172575869Y-124822781D01*
X173390120Y-125229906D02*
X172915140Y-123804966D01*
X172915140Y-123804966D02*
X172440160Y-125229906D01*
X171286637Y-125229906D02*
X171965180Y-125229906D01*
X171965180Y-125229906D02*
X171965180Y-123804966D01*
X170540240Y-123804966D02*
X170268823Y-123804966D01*
X170268823Y-123804966D02*
X170133114Y-123872821D01*
X170133114Y-123872821D02*
X169997406Y-124008529D01*
X169997406Y-124008529D02*
X169929551Y-124279946D01*
X169929551Y-124279946D02*
X169929551Y-124754926D01*
X169929551Y-124754926D02*
X169997406Y-125026343D01*
X169997406Y-125026343D02*
X170133114Y-125162052D01*
X170133114Y-125162052D02*
X170268823Y-125229906D01*
X170268823Y-125229906D02*
X170540240Y-125229906D01*
X170540240Y-125229906D02*
X170675949Y-125162052D01*
X170675949Y-125162052D02*
X170811657Y-125026343D01*
X170811657Y-125026343D02*
X170879511Y-124754926D01*
X170879511Y-124754926D02*
X170879511Y-124279946D01*
X170879511Y-124279946D02*
X170811657Y-124008529D01*
X170811657Y-124008529D02*
X170675949Y-123872821D01*
X170675949Y-123872821D02*
X170540240Y-123804966D01*
X168572466Y-123872821D02*
X168708175Y-123804966D01*
X168708175Y-123804966D02*
X168911737Y-123804966D01*
X168911737Y-123804966D02*
X169115300Y-123872821D01*
X169115300Y-123872821D02*
X169251009Y-124008529D01*
X169251009Y-124008529D02*
X169318863Y-124144238D01*
X169318863Y-124144238D02*
X169386717Y-124415655D01*
X169386717Y-124415655D02*
X169386717Y-124619218D01*
X169386717Y-124619218D02*
X169318863Y-124890635D01*
X169318863Y-124890635D02*
X169251009Y-125026343D01*
X169251009Y-125026343D02*
X169115300Y-125162052D01*
X169115300Y-125162052D02*
X168911737Y-125229906D01*
X168911737Y-125229906D02*
X168776029Y-125229906D01*
X168776029Y-125229906D02*
X168572466Y-125162052D01*
X168572466Y-125162052D02*
X168504612Y-125094198D01*
X168504612Y-125094198D02*
X168504612Y-124619218D01*
X168504612Y-124619218D02*
X168776029Y-124619218D01*
X167038959Y-125229906D02*
X167038959Y-123804966D01*
X166360416Y-125229906D02*
X166360416Y-123804966D01*
X166360416Y-123804966D02*
X165546165Y-125229906D01*
X165546165Y-125229906D02*
X165546165Y-123804966D01*
D14*
X162903219Y-83029314D02*
X162903219Y-83242190D01*
X162903219Y-83242190D02*
X162850000Y-83348628D01*
X162850000Y-83348628D02*
X162796780Y-83401847D01*
X162796780Y-83401847D02*
X162637123Y-83508285D01*
X162637123Y-83508285D02*
X162424247Y-83561504D01*
X162424247Y-83561504D02*
X161998495Y-83561504D01*
X161998495Y-83561504D02*
X161892057Y-83508285D01*
X161892057Y-83508285D02*
X161838838Y-83455066D01*
X161838838Y-83455066D02*
X161785619Y-83348628D01*
X161785619Y-83348628D02*
X161785619Y-83135752D01*
X161785619Y-83135752D02*
X161838838Y-83029314D01*
X161838838Y-83029314D02*
X161892057Y-82976095D01*
X161892057Y-82976095D02*
X161998495Y-82922876D01*
X161998495Y-82922876D02*
X162264590Y-82922876D01*
X162264590Y-82922876D02*
X162371028Y-82976095D01*
X162371028Y-82976095D02*
X162424247Y-83029314D01*
X162424247Y-83029314D02*
X162477466Y-83135752D01*
X162477466Y-83135752D02*
X162477466Y-83348628D01*
X162477466Y-83348628D02*
X162424247Y-83455066D01*
X162424247Y-83455066D02*
X162371028Y-83508285D01*
X162371028Y-83508285D02*
X162264590Y-83561504D01*
X155684247Y-83308628D02*
X155737466Y-83415066D01*
X155737466Y-83415066D02*
X155790685Y-83468285D01*
X155790685Y-83468285D02*
X155897123Y-83521504D01*
X155897123Y-83521504D02*
X155950342Y-83521504D01*
X155950342Y-83521504D02*
X156056780Y-83468285D01*
X156056780Y-83468285D02*
X156110000Y-83415066D01*
X156110000Y-83415066D02*
X156163219Y-83308628D01*
X156163219Y-83308628D02*
X156163219Y-83095752D01*
X156163219Y-83095752D02*
X156110000Y-82989314D01*
X156110000Y-82989314D02*
X156056780Y-82936095D01*
X156056780Y-82936095D02*
X155950342Y-82882876D01*
X155950342Y-82882876D02*
X155897123Y-82882876D01*
X155897123Y-82882876D02*
X155790685Y-82936095D01*
X155790685Y-82936095D02*
X155737466Y-82989314D01*
X155737466Y-82989314D02*
X155684247Y-83095752D01*
X155684247Y-83095752D02*
X155684247Y-83308628D01*
X155684247Y-83308628D02*
X155631028Y-83415066D01*
X155631028Y-83415066D02*
X155577809Y-83468285D01*
X155577809Y-83468285D02*
X155471371Y-83521504D01*
X155471371Y-83521504D02*
X155258495Y-83521504D01*
X155258495Y-83521504D02*
X155152057Y-83468285D01*
X155152057Y-83468285D02*
X155098838Y-83415066D01*
X155098838Y-83415066D02*
X155045619Y-83308628D01*
X155045619Y-83308628D02*
X155045619Y-83095752D01*
X155045619Y-83095752D02*
X155098838Y-82989314D01*
X155098838Y-82989314D02*
X155152057Y-82936095D01*
X155152057Y-82936095D02*
X155258495Y-82882876D01*
X155258495Y-82882876D02*
X155471371Y-82882876D01*
X155471371Y-82882876D02*
X155577809Y-82936095D01*
X155577809Y-82936095D02*
X155631028Y-82989314D01*
X155631028Y-82989314D02*
X155684247Y-83095752D01*
X170423219Y-83574723D02*
X170423219Y-82882876D01*
X170423219Y-82882876D02*
X169997466Y-83255409D01*
X169997466Y-83255409D02*
X169997466Y-83095752D01*
X169997466Y-83095752D02*
X169944247Y-82989314D01*
X169944247Y-82989314D02*
X169891028Y-82936095D01*
X169891028Y-82936095D02*
X169784590Y-82882876D01*
X169784590Y-82882876D02*
X169518495Y-82882876D01*
X169518495Y-82882876D02*
X169412057Y-82936095D01*
X169412057Y-82936095D02*
X169358838Y-82989314D01*
X169358838Y-82989314D02*
X169305619Y-83095752D01*
X169305619Y-83095752D02*
X169305619Y-83415066D01*
X169305619Y-83415066D02*
X169358838Y-83521504D01*
X169358838Y-83521504D02*
X169412057Y-83574723D01*
D18*
X120643869Y-91518336D02*
X120643869Y-91235969D01*
X120643869Y-91235969D02*
X120576639Y-91235969D01*
X120576639Y-91235969D02*
X120536301Y-91249416D01*
X120536301Y-91249416D02*
X120509409Y-91276308D01*
X120509409Y-91276308D02*
X120495963Y-91303200D01*
X120495963Y-91303200D02*
X120482517Y-91356984D01*
X120482517Y-91356984D02*
X120482517Y-91397322D01*
X120482517Y-91397322D02*
X120495963Y-91451106D01*
X120495963Y-91451106D02*
X120509409Y-91477998D01*
X120509409Y-91477998D02*
X120536301Y-91504890D01*
X120536301Y-91504890D02*
X120576639Y-91518336D01*
X120576639Y-91518336D02*
X120643869Y-91518336D01*
X120361502Y-91410768D02*
X120146366Y-91410768D01*
X120253934Y-91518336D02*
X120253934Y-91303200D01*
X119958121Y-91235969D02*
X119931229Y-91235969D01*
X119931229Y-91235969D02*
X119904337Y-91249416D01*
X119904337Y-91249416D02*
X119890891Y-91262862D01*
X119890891Y-91262862D02*
X119877445Y-91289754D01*
X119877445Y-91289754D02*
X119863999Y-91343538D01*
X119863999Y-91343538D02*
X119863999Y-91410768D01*
X119863999Y-91410768D02*
X119877445Y-91464552D01*
X119877445Y-91464552D02*
X119890891Y-91491444D01*
X119890891Y-91491444D02*
X119904337Y-91504890D01*
X119904337Y-91504890D02*
X119931229Y-91518336D01*
X119931229Y-91518336D02*
X119958121Y-91518336D01*
X119958121Y-91518336D02*
X119985013Y-91504890D01*
X119985013Y-91504890D02*
X119998459Y-91491444D01*
X119998459Y-91491444D02*
X120011905Y-91464552D01*
X120011905Y-91464552D02*
X120025351Y-91410768D01*
X120025351Y-91410768D02*
X120025351Y-91343538D01*
X120025351Y-91343538D02*
X120011905Y-91289754D01*
X120011905Y-91289754D02*
X119998459Y-91262862D01*
X119998459Y-91262862D02*
X119985013Y-91249416D01*
X119985013Y-91249416D02*
X119958121Y-91235969D01*
D19*
X116498688Y-92176952D02*
X115563968Y-92176952D01*
X115563968Y-92176952D02*
X115563968Y-92533036D01*
X115563968Y-92533036D02*
X115608479Y-92622057D01*
X115608479Y-92622057D02*
X115652989Y-92666567D01*
X115652989Y-92666567D02*
X115742010Y-92711078D01*
X115742010Y-92711078D02*
X115875541Y-92711078D01*
X115875541Y-92711078D02*
X115964562Y-92666567D01*
X115964562Y-92666567D02*
X116009073Y-92622057D01*
X116009073Y-92622057D02*
X116053583Y-92533036D01*
X116053583Y-92533036D02*
X116053583Y-92176952D01*
X116409667Y-93645798D02*
X116454178Y-93601287D01*
X116454178Y-93601287D02*
X116498688Y-93467756D01*
X116498688Y-93467756D02*
X116498688Y-93378735D01*
X116498688Y-93378735D02*
X116454178Y-93245203D01*
X116454178Y-93245203D02*
X116365157Y-93156182D01*
X116365157Y-93156182D02*
X116276136Y-93111672D01*
X116276136Y-93111672D02*
X116098094Y-93067161D01*
X116098094Y-93067161D02*
X115964562Y-93067161D01*
X115964562Y-93067161D02*
X115786520Y-93111672D01*
X115786520Y-93111672D02*
X115697499Y-93156182D01*
X115697499Y-93156182D02*
X115608479Y-93245203D01*
X115608479Y-93245203D02*
X115563968Y-93378735D01*
X115563968Y-93378735D02*
X115563968Y-93467756D01*
X115563968Y-93467756D02*
X115608479Y-93601287D01*
X115608479Y-93601287D02*
X115652989Y-93645798D01*
X116009073Y-94357965D02*
X116053583Y-94491497D01*
X116053583Y-94491497D02*
X116098094Y-94536007D01*
X116098094Y-94536007D02*
X116187115Y-94580518D01*
X116187115Y-94580518D02*
X116320646Y-94580518D01*
X116320646Y-94580518D02*
X116409667Y-94536007D01*
X116409667Y-94536007D02*
X116454178Y-94491497D01*
X116454178Y-94491497D02*
X116498688Y-94402476D01*
X116498688Y-94402476D02*
X116498688Y-94046392D01*
X116498688Y-94046392D02*
X115563968Y-94046392D01*
X115563968Y-94046392D02*
X115563968Y-94357965D01*
X115563968Y-94357965D02*
X115608479Y-94446986D01*
X115608479Y-94446986D02*
X115652989Y-94491497D01*
X115652989Y-94491497D02*
X115742010Y-94536007D01*
X115742010Y-94536007D02*
X115831031Y-94536007D01*
X115831031Y-94536007D02*
X115920052Y-94491497D01*
X115920052Y-94491497D02*
X115964562Y-94446986D01*
X115964562Y-94446986D02*
X116009073Y-94357965D01*
X116009073Y-94357965D02*
X116009073Y-94046392D01*
D18*
X120504863Y-95055816D02*
X120531755Y-95042369D01*
X120531755Y-95042369D02*
X120572093Y-95042369D01*
X120572093Y-95042369D02*
X120612431Y-95055816D01*
X120612431Y-95055816D02*
X120639323Y-95082708D01*
X120639323Y-95082708D02*
X120652769Y-95109600D01*
X120652769Y-95109600D02*
X120666215Y-95163384D01*
X120666215Y-95163384D02*
X120666215Y-95203722D01*
X120666215Y-95203722D02*
X120652769Y-95257506D01*
X120652769Y-95257506D02*
X120639323Y-95284398D01*
X120639323Y-95284398D02*
X120612431Y-95311290D01*
X120612431Y-95311290D02*
X120572093Y-95324736D01*
X120572093Y-95324736D02*
X120545201Y-95324736D01*
X120545201Y-95324736D02*
X120504863Y-95311290D01*
X120504863Y-95311290D02*
X120491417Y-95297844D01*
X120491417Y-95297844D02*
X120491417Y-95203722D01*
X120491417Y-95203722D02*
X120545201Y-95203722D01*
X120370402Y-95324736D02*
X120370402Y-95042369D01*
X120370402Y-95042369D02*
X120209050Y-95324736D01*
X120209050Y-95324736D02*
X120209050Y-95042369D01*
X120074589Y-95324736D02*
X120074589Y-95042369D01*
X120074589Y-95042369D02*
X120007359Y-95042369D01*
X120007359Y-95042369D02*
X119967021Y-95055816D01*
X119967021Y-95055816D02*
X119940129Y-95082708D01*
X119940129Y-95082708D02*
X119926683Y-95109600D01*
X119926683Y-95109600D02*
X119913237Y-95163384D01*
X119913237Y-95163384D02*
X119913237Y-95203722D01*
X119913237Y-95203722D02*
X119926683Y-95257506D01*
X119926683Y-95257506D02*
X119940129Y-95284398D01*
X119940129Y-95284398D02*
X119967021Y-95311290D01*
X119967021Y-95311290D02*
X120007359Y-95324736D01*
X120007359Y-95324736D02*
X120074589Y-95324736D01*
X119738438Y-95042369D02*
X119711546Y-95042369D01*
X119711546Y-95042369D02*
X119684654Y-95055816D01*
X119684654Y-95055816D02*
X119671208Y-95069262D01*
X119671208Y-95069262D02*
X119657762Y-95096154D01*
X119657762Y-95096154D02*
X119644316Y-95149938D01*
X119644316Y-95149938D02*
X119644316Y-95217168D01*
X119644316Y-95217168D02*
X119657762Y-95270952D01*
X119657762Y-95270952D02*
X119671208Y-95297844D01*
X119671208Y-95297844D02*
X119684654Y-95311290D01*
X119684654Y-95311290D02*
X119711546Y-95324736D01*
X119711546Y-95324736D02*
X119738438Y-95324736D01*
X119738438Y-95324736D02*
X119765330Y-95311290D01*
X119765330Y-95311290D02*
X119778776Y-95297844D01*
X119778776Y-95297844D02*
X119792222Y-95270952D01*
X119792222Y-95270952D02*
X119805668Y-95217168D01*
X119805668Y-95217168D02*
X119805668Y-95149938D01*
X119805668Y-95149938D02*
X119792222Y-95096154D01*
X119792222Y-95096154D02*
X119778776Y-95069262D01*
X119778776Y-95069262D02*
X119765330Y-95055816D01*
X119765330Y-95055816D02*
X119738438Y-95042369D01*
X122652869Y-91518336D02*
X122652869Y-91235969D01*
X122652869Y-91235969D02*
X122585639Y-91235969D01*
X122585639Y-91235969D02*
X122545301Y-91249416D01*
X122545301Y-91249416D02*
X122518409Y-91276308D01*
X122518409Y-91276308D02*
X122504963Y-91303200D01*
X122504963Y-91303200D02*
X122491517Y-91356984D01*
X122491517Y-91356984D02*
X122491517Y-91397322D01*
X122491517Y-91397322D02*
X122504963Y-91451106D01*
X122504963Y-91451106D02*
X122518409Y-91477998D01*
X122518409Y-91477998D02*
X122545301Y-91504890D01*
X122545301Y-91504890D02*
X122585639Y-91518336D01*
X122585639Y-91518336D02*
X122652869Y-91518336D01*
X122370502Y-91410768D02*
X122155366Y-91410768D01*
X121967121Y-91235969D02*
X121940229Y-91235969D01*
X121940229Y-91235969D02*
X121913337Y-91249416D01*
X121913337Y-91249416D02*
X121899891Y-91262862D01*
X121899891Y-91262862D02*
X121886445Y-91289754D01*
X121886445Y-91289754D02*
X121872999Y-91343538D01*
X121872999Y-91343538D02*
X121872999Y-91410768D01*
X121872999Y-91410768D02*
X121886445Y-91464552D01*
X121886445Y-91464552D02*
X121899891Y-91491444D01*
X121899891Y-91491444D02*
X121913337Y-91504890D01*
X121913337Y-91504890D02*
X121940229Y-91518336D01*
X121940229Y-91518336D02*
X121967121Y-91518336D01*
X121967121Y-91518336D02*
X121994013Y-91504890D01*
X121994013Y-91504890D02*
X122007459Y-91491444D01*
X122007459Y-91491444D02*
X122020905Y-91464552D01*
X122020905Y-91464552D02*
X122034351Y-91410768D01*
X122034351Y-91410768D02*
X122034351Y-91343538D01*
X122034351Y-91343538D02*
X122020905Y-91289754D01*
X122020905Y-91289754D02*
X122007459Y-91262862D01*
X122007459Y-91262862D02*
X121994013Y-91249416D01*
X121994013Y-91249416D02*
X121967121Y-91235969D01*
X122693207Y-93775969D02*
X122599085Y-94058336D01*
X122599085Y-94058336D02*
X122504963Y-93775969D01*
X122410840Y-93775969D02*
X122410840Y-94004552D01*
X122410840Y-94004552D02*
X122397394Y-94031444D01*
X122397394Y-94031444D02*
X122383948Y-94044890D01*
X122383948Y-94044890D02*
X122357056Y-94058336D01*
X122357056Y-94058336D02*
X122303272Y-94058336D01*
X122303272Y-94058336D02*
X122276380Y-94044890D01*
X122276380Y-94044890D02*
X122262934Y-94031444D01*
X122262934Y-94031444D02*
X122249488Y-94004552D01*
X122249488Y-94004552D02*
X122249488Y-93775969D01*
X122128473Y-94044890D02*
X122088135Y-94058336D01*
X122088135Y-94058336D02*
X122020905Y-94058336D01*
X122020905Y-94058336D02*
X121994013Y-94044890D01*
X121994013Y-94044890D02*
X121980567Y-94031444D01*
X121980567Y-94031444D02*
X121967121Y-94004552D01*
X121967121Y-94004552D02*
X121967121Y-93977660D01*
X121967121Y-93977660D02*
X121980567Y-93950768D01*
X121980567Y-93950768D02*
X121994013Y-93937322D01*
X121994013Y-93937322D02*
X122020905Y-93923876D01*
X122020905Y-93923876D02*
X122074689Y-93910430D01*
X122074689Y-93910430D02*
X122101581Y-93896984D01*
X122101581Y-93896984D02*
X122115027Y-93883538D01*
X122115027Y-93883538D02*
X122128473Y-93856646D01*
X122128473Y-93856646D02*
X122128473Y-93829754D01*
X122128473Y-93829754D02*
X122115027Y-93802862D01*
X122115027Y-93802862D02*
X122101581Y-93789416D01*
X122101581Y-93789416D02*
X122074689Y-93775969D01*
X122074689Y-93775969D02*
X122007459Y-93775969D01*
X122007459Y-93775969D02*
X121967121Y-93789416D01*
X121751984Y-93910430D02*
X121711646Y-93923876D01*
X121711646Y-93923876D02*
X121698200Y-93937322D01*
X121698200Y-93937322D02*
X121684754Y-93964214D01*
X121684754Y-93964214D02*
X121684754Y-94004552D01*
X121684754Y-94004552D02*
X121698200Y-94031444D01*
X121698200Y-94031444D02*
X121711646Y-94044890D01*
X121711646Y-94044890D02*
X121738538Y-94058336D01*
X121738538Y-94058336D02*
X121846106Y-94058336D01*
X121846106Y-94058336D02*
X121846106Y-93775969D01*
X121846106Y-93775969D02*
X121751984Y-93775969D01*
X121751984Y-93775969D02*
X121725092Y-93789416D01*
X121725092Y-93789416D02*
X121711646Y-93802862D01*
X121711646Y-93802862D02*
X121698200Y-93829754D01*
X121698200Y-93829754D02*
X121698200Y-93856646D01*
X121698200Y-93856646D02*
X121711646Y-93883538D01*
X121711646Y-93883538D02*
X121725092Y-93896984D01*
X121725092Y-93896984D02*
X121751984Y-93910430D01*
X121751984Y-93910430D02*
X121846106Y-93910430D01*
X121509955Y-93775969D02*
X121483063Y-93775969D01*
X121483063Y-93775969D02*
X121456171Y-93789416D01*
X121456171Y-93789416D02*
X121442725Y-93802862D01*
X121442725Y-93802862D02*
X121429279Y-93829754D01*
X121429279Y-93829754D02*
X121415833Y-93883538D01*
X121415833Y-93883538D02*
X121415833Y-93950768D01*
X121415833Y-93950768D02*
X121429279Y-94004552D01*
X121429279Y-94004552D02*
X121442725Y-94031444D01*
X121442725Y-94031444D02*
X121456171Y-94044890D01*
X121456171Y-94044890D02*
X121483063Y-94058336D01*
X121483063Y-94058336D02*
X121509955Y-94058336D01*
X121509955Y-94058336D02*
X121536847Y-94044890D01*
X121536847Y-94044890D02*
X121550293Y-94031444D01*
X121550293Y-94031444D02*
X121563739Y-94004552D01*
X121563739Y-94004552D02*
X121577185Y-93950768D01*
X121577185Y-93950768D02*
X121577185Y-93883538D01*
X121577185Y-93883538D02*
X121563739Y-93829754D01*
X121563739Y-93829754D02*
X121550293Y-93802862D01*
X121550293Y-93802862D02*
X121536847Y-93789416D01*
X121536847Y-93789416D02*
X121509955Y-93775969D01*
D20*
X167429749Y-117669974D02*
X167012705Y-117378043D01*
X167429749Y-117169521D02*
X166553957Y-117169521D01*
X166553957Y-117169521D02*
X166553957Y-117503156D01*
X166553957Y-117503156D02*
X166595662Y-117586565D01*
X166595662Y-117586565D02*
X166637366Y-117628270D01*
X166637366Y-117628270D02*
X166720775Y-117669974D01*
X166720775Y-117669974D02*
X166845888Y-117669974D01*
X166845888Y-117669974D02*
X166929297Y-117628270D01*
X166929297Y-117628270D02*
X166971001Y-117586565D01*
X166971001Y-117586565D02*
X167012705Y-117503156D01*
X167012705Y-117503156D02*
X167012705Y-117169521D01*
X166553957Y-117961905D02*
X166553957Y-118504062D01*
X166553957Y-118504062D02*
X166887592Y-118212131D01*
X166887592Y-118212131D02*
X166887592Y-118337244D01*
X166887592Y-118337244D02*
X166929297Y-118420653D01*
X166929297Y-118420653D02*
X166971001Y-118462357D01*
X166971001Y-118462357D02*
X167054410Y-118504062D01*
X167054410Y-118504062D02*
X167262932Y-118504062D01*
X167262932Y-118504062D02*
X167346340Y-118462357D01*
X167346340Y-118462357D02*
X167388045Y-118420653D01*
X167388045Y-118420653D02*
X167429749Y-118337244D01*
X167429749Y-118337244D02*
X167429749Y-118087018D01*
X167429749Y-118087018D02*
X167388045Y-118003609D01*
X167388045Y-118003609D02*
X167346340Y-117961905D01*
X168499749Y-118945974D02*
X168082705Y-118654043D01*
X168499749Y-118445521D02*
X167623957Y-118445521D01*
X167623957Y-118445521D02*
X167623957Y-118779156D01*
X167623957Y-118779156D02*
X167665662Y-118862565D01*
X167665662Y-118862565D02*
X167707366Y-118904270D01*
X167707366Y-118904270D02*
X167790775Y-118945974D01*
X167790775Y-118945974D02*
X167915888Y-118945974D01*
X167915888Y-118945974D02*
X167999297Y-118904270D01*
X167999297Y-118904270D02*
X168041001Y-118862565D01*
X168041001Y-118862565D02*
X168082705Y-118779156D01*
X168082705Y-118779156D02*
X168082705Y-118445521D01*
X167707366Y-119279609D02*
X167665662Y-119321313D01*
X167665662Y-119321313D02*
X167623957Y-119404722D01*
X167623957Y-119404722D02*
X167623957Y-119613244D01*
X167623957Y-119613244D02*
X167665662Y-119696653D01*
X167665662Y-119696653D02*
X167707366Y-119738357D01*
X167707366Y-119738357D02*
X167790775Y-119780062D01*
X167790775Y-119780062D02*
X167874183Y-119780062D01*
X167874183Y-119780062D02*
X167999297Y-119738357D01*
X167999297Y-119738357D02*
X168499749Y-119237905D01*
X168499749Y-119237905D02*
X168499749Y-119780062D01*
%LPC*%
D21*
X180251100Y-96113600D03*
D22*
X118470000Y-86810000D03*
X121010000Y-86810000D03*
D23*
X165011099Y-129133599D03*
X167551099Y-129133599D03*
X170091099Y-129133599D03*
X172631099Y-129133599D03*
X175171099Y-129133599D03*
X177711099Y-129133599D03*
X142151099Y-129133599D03*
X144691099Y-129133599D03*
X147231099Y-129133599D03*
X149771099Y-129133599D03*
X152311099Y-129133599D03*
X154851099Y-129133599D03*
X157391099Y-129133599D03*
X159931099Y-129133599D03*
X177711099Y-80873599D03*
X175171099Y-80873599D03*
X172631099Y-80873599D03*
X170091099Y-80873599D03*
X167551099Y-80873599D03*
X165011099Y-80873599D03*
X162471099Y-80873599D03*
X159931099Y-80873599D03*
D24*
X120711100Y-92303600D03*
D21*
X128181100Y-129133600D03*
D25*
X115947598Y-90079999D03*
X115947598Y-97080000D03*
D26*
X118622599Y-91079999D03*
X118622599Y-96079999D03*
D23*
X155867099Y-80873599D03*
X153327099Y-80873599D03*
X150787099Y-80873599D03*
X148247099Y-80873599D03*
X145707099Y-80873599D03*
X143167099Y-80873599D03*
X140627099Y-80873599D03*
X138087099Y-80873599D03*
X135547099Y-80873599D03*
X133007099Y-80873599D03*
D24*
X120720000Y-96110000D03*
D21*
X129451100Y-80873600D03*
D27*
X177838100Y-101193600D03*
X180378100Y-101193600D03*
X177838100Y-103733600D03*
X180378100Y-103733600D03*
X177838100Y-106273600D03*
X180378100Y-106273600D03*
D24*
X122720100Y-92303600D03*
D28*
X122897900Y-128371600D03*
D29*
X125895100Y-123367800D03*
D30*
X119900700Y-123367800D03*
D31*
X123659900Y-128371600D03*
X122135900Y-128371600D03*
X119900700Y-124129800D03*
X119900700Y-122605800D03*
X125895100Y-124129800D03*
X125895100Y-122605800D03*
D21*
X180251100Y-124053600D03*
D24*
X122720100Y-94843600D03*
D32*
X169140000Y-117230000D03*
X169140000Y-115930000D03*
X170210000Y-117998000D03*
X170210000Y-116698000D03*
M02*
