G04 #@! TF.GenerationSoftware,KiCad,Pcbnew,(7.0.0-0)*
G04 #@! TF.CreationDate,2023-02-27T08:41:07+01:00*
G04 #@! TF.ProjectId,Leonardo_Rev3e,4c656f6e-6172-4646-9f5f-52657633652e,3d*
G04 #@! TF.SameCoordinates,Original*
G04 #@! TF.FileFunction,Paste,Top*
G04 #@! TF.FilePolarity,Positive*
%FSLAX46Y46*%
G04 Gerber Fmt 4.6, Leading zero omitted, Abs format (unit mm)*
G04 Created by KiCad (PCBNEW (7.0.0-0)) date 2023-02-27 08:41:07*
%MOMM*%
%LPD*%
G01*
G04 APERTURE LIST*
G04 Aperture macros list*
%AMRoundRect*
0 Rectangle with rounded corners*
0 $1 Rounding radius*
0 $2 $3 $4 $5 $6 $7 $8 $9 X,Y pos of 4 corners*
0 Add a 4 corners polygon primitive as box body*
4,1,4,$2,$3,$4,$5,$6,$7,$8,$9,$2,$3,0*
0 Add four circle primitives for the rounded corners*
1,1,$1+$1,$2,$3*
1,1,$1+$1,$4,$5*
1,1,$1+$1,$6,$7*
1,1,$1+$1,$8,$9*
0 Add four rect primitives between the rounded corners*
20,1,$1+$1,$2,$3,$4,$5,0*
20,1,$1+$1,$4,$5,$6,$7,0*
20,1,$1+$1,$6,$7,$8,$9,0*
20,1,$1+$1,$8,$9,$2,$3,0*%
G04 Aperture macros list end*
%ADD10C,1.270000*%
%ADD11R,2.235200X1.219200*%
%ADD12R,2.200000X3.600000*%
%ADD13RoundRect,0.359360X0.089840X-0.190640X0.089840X0.190640X-0.089840X0.190640X-0.089840X-0.190640X0*%
%ADD14RoundRect,0.359360X-0.089840X0.190640X-0.089840X-0.190640X0.089840X-0.190640X0.089840X0.190640X0*%
%ADD15R,1.200000X0.550000*%
%ADD16R,1.800000X1.400000*%
%ADD17R,1.000000X1.000000*%
%ADD18R,0.889000X0.787400*%
%ADD19R,1.200000X1.200000*%
%ADD20RoundRect,0.180000X0.520000X0.045000X-0.520000X0.045000X-0.520000X-0.045000X0.520000X-0.045000X0*%
%ADD21RoundRect,0.180000X0.045000X0.520000X-0.045000X0.520000X-0.045000X-0.520000X0.045000X-0.520000X0*%
%ADD22RoundRect,0.500000X0.000000X0.000000X0.000000X0.000000X0.000000X0.000000X0.000000X0.000000X0*%
%ADD23R,2.400000X2.400000*%
%ADD24R,1.000000X1.200000*%
%ADD25R,0.650000X0.500000*%
%ADD26R,1.900000X3.400000*%
%ADD27RoundRect,0.359360X-0.089840X-0.190640X0.089840X-0.190640X0.089840X0.190640X-0.089840X0.190640X0*%
%ADD28R,1.346200X0.457200*%
%ADD29R,1.651000X1.498600*%
%ADD30R,2.400000X1.600000*%
%ADD31R,1.600000X2.400000*%
%ADD32R,0.300000X1.200000*%
%ADD33R,1.050000X1.300000*%
%ADD34R,1.200000X1.000000*%
%ADD35RoundRect,0.359360X0.190640X0.089840X-0.190640X0.089840X-0.190640X-0.089840X0.190640X-0.089840X0*%
%ADD36RoundRect,0.359360X-0.190640X-0.089840X0.190640X-0.089840X0.190640X0.089840X-0.190640X0.089840X0*%
%ADD37RoundRect,0.110000X0.265000X0.027500X-0.265000X0.027500X-0.265000X-0.027500X0.265000X-0.027500X0*%
%ADD38RoundRect,0.110000X-0.027500X0.265000X-0.027500X-0.265000X0.027500X-0.265000X0.027500X0.265000X0*%
%ADD39RoundRect,0.110000X-0.265000X-0.027500X0.265000X-0.027500X0.265000X0.027500X-0.265000X0.027500X0*%
%ADD40RoundRect,0.110000X0.027500X-0.265000X0.027500X0.265000X-0.027500X0.265000X-0.027500X-0.265000X0*%
%ADD41RoundRect,0.105000X0.695000X0.595000X-0.695000X0.595000X-0.695000X-0.595000X0.695000X-0.595000X0*%
%ADD42RoundRect,0.359360X0.089840X0.190640X-0.089840X0.190640X-0.089840X-0.190640X0.089840X-0.190640X0*%
G04 APERTURE END LIST*
D10*
X161836100Y-115163600D02*
G75*
G03*
X161836100Y-115163600I-635000J0D01*
G01*
G36*
X125259000Y-82701000D02*
G01*
X124370000Y-82701000D01*
X124370000Y-81939000D01*
X125259000Y-81939000D01*
X125259000Y-82701000D01*
G37*
D11*
X133819899Y-116839999D03*
X133819899Y-114528599D03*
X133819899Y-112217199D03*
D12*
X127622099Y-114528599D03*
D13*
X161582100Y-99923600D03*
X163360100Y-99923600D03*
D14*
X172249000Y-113450300D03*
X170471000Y-113450300D03*
D15*
X137676099Y-113578599D03*
X137676099Y-114528599D03*
X137676099Y-115478599D03*
X140276099Y-115478599D03*
X140276099Y-113578599D03*
D16*
X173139099Y-106703599D03*
X173139099Y-103303599D03*
D17*
X125911099Y-91033599D03*
X127911099Y-91033599D03*
D18*
X130975099Y-103123999D03*
X133007099Y-102158799D03*
X133007099Y-104089199D03*
D19*
X119706099Y-115163599D03*
X117606099Y-115163599D03*
D20*
X167001100Y-119163600D03*
X167001100Y-118363600D03*
X167001100Y-117563600D03*
X167001100Y-116763600D03*
X167001100Y-115963600D03*
X167001100Y-115163600D03*
X167001100Y-114363600D03*
X167001100Y-113563600D03*
X167001100Y-112763600D03*
X167001100Y-111963600D03*
X167001100Y-111163600D03*
D21*
X165201100Y-109363600D03*
X164401100Y-109363600D03*
X163601100Y-109363600D03*
X162801100Y-109363600D03*
X162001100Y-109363600D03*
X161201100Y-109363600D03*
X160401100Y-109363600D03*
X159601100Y-109363600D03*
X158801100Y-109363600D03*
X158001100Y-109363600D03*
X157201100Y-109363600D03*
D20*
X155401100Y-111163600D03*
X155401100Y-111963600D03*
X155401100Y-112763600D03*
X155401100Y-113563600D03*
X155401100Y-114363600D03*
X155401100Y-115163600D03*
X155401100Y-115963600D03*
X155401100Y-116763600D03*
X155401100Y-117563600D03*
X155401100Y-118363600D03*
X155401100Y-119163600D03*
D21*
X157201100Y-120963600D03*
X158001100Y-120963600D03*
X158801100Y-120963600D03*
X159601100Y-120963600D03*
X160401100Y-120963600D03*
X161201100Y-120963600D03*
X162001100Y-120963600D03*
X162801100Y-120963600D03*
X163601100Y-120963600D03*
X164401100Y-120963600D03*
X165201100Y-120963600D03*
D22*
X161201100Y-115163600D03*
D19*
X119706099Y-103733599D03*
X117606099Y-103733599D03*
D23*
X135801099Y-126253599D03*
X135801099Y-121853599D03*
D24*
X169456099Y-103903599D03*
X169456099Y-106103599D03*
D17*
X125911099Y-97383599D03*
X127911099Y-97383599D03*
D25*
X127586099Y-95408599D03*
X127586099Y-94608599D03*
X127586099Y-93808599D03*
X127586099Y-93008599D03*
X126236099Y-93008599D03*
X126236099Y-93808599D03*
X126236099Y-94608599D03*
X126236099Y-95408599D03*
D14*
X154335100Y-121248600D03*
X152557100Y-121248600D03*
D26*
X128861099Y-87858599D03*
X124961099Y-87858599D03*
D19*
X119706099Y-111353599D03*
X117606099Y-111353599D03*
D27*
X161582100Y-106273600D03*
X163360100Y-106273600D03*
D28*
X118622599Y-92279999D03*
X118622599Y-92930000D03*
X118622599Y-93579999D03*
X118622599Y-94229998D03*
X118622599Y-94879999D03*
D29*
X115947598Y-92579998D03*
X115947598Y-94580000D03*
D30*
X131991099Y-122553599D03*
X131991099Y-125553599D03*
D31*
X128411099Y-103098599D03*
X125411099Y-103098599D03*
D13*
X170411000Y-115170000D03*
X172189000Y-115170000D03*
D32*
X134190099Y-99496599D03*
X134840099Y-99496599D03*
X135490099Y-99496599D03*
X136140099Y-99496599D03*
X136140099Y-95271599D03*
X135490099Y-95271599D03*
X134840099Y-95271599D03*
X134190099Y-95271599D03*
D25*
X127586099Y-108108599D03*
X127586099Y-107308599D03*
X127586099Y-106508599D03*
X127586099Y-105708599D03*
X126236099Y-105708599D03*
X126236099Y-106508599D03*
X126236099Y-107308599D03*
X126236099Y-108108599D03*
X144016099Y-112058599D03*
X144016099Y-112858599D03*
X144016099Y-113658599D03*
X144016099Y-114458599D03*
X145366099Y-114458599D03*
X145366099Y-113658599D03*
X145366099Y-112858599D03*
X145366099Y-112058599D03*
D13*
X138087100Y-117068600D03*
X139865100Y-117068600D03*
D33*
X162181099Y-101948599D03*
X162181099Y-104248599D03*
X164031099Y-104248599D03*
X164031099Y-101948599D03*
D34*
X125811099Y-99288599D03*
X128011099Y-99288599D03*
D30*
X139611099Y-122553599D03*
X139611099Y-125553599D03*
D35*
X165646100Y-105892600D03*
X165646100Y-104114600D03*
D13*
X168397100Y-121223600D03*
X170175100Y-121223600D03*
X136182100Y-101193600D03*
X137960100Y-101193600D03*
D35*
X167551100Y-105892600D03*
X167551100Y-104114600D03*
D36*
X171361100Y-104114600D03*
X171361100Y-105892600D03*
D37*
X164476100Y-117663600D03*
X164476100Y-117163600D03*
X164476100Y-116663600D03*
X164476100Y-116163600D03*
X164476100Y-115663600D03*
X164476100Y-115163600D03*
X164476100Y-114663600D03*
X164476100Y-114163600D03*
X164476100Y-113663600D03*
X164476100Y-113163600D03*
X164476100Y-112663600D03*
D38*
X163701100Y-111888600D03*
X163201100Y-111888600D03*
X162701100Y-111888600D03*
X162201100Y-111888600D03*
X161701100Y-111888600D03*
X161201100Y-111888600D03*
X160701100Y-111888600D03*
X160201100Y-111888600D03*
X159701100Y-111888600D03*
X159201100Y-111888600D03*
X158701100Y-111888600D03*
D39*
X157926100Y-112663600D03*
X157926100Y-113163600D03*
X157926100Y-113663600D03*
X157926100Y-114163600D03*
X157926100Y-114663600D03*
X157926100Y-115163600D03*
X157926100Y-115663600D03*
X157926100Y-116163600D03*
X157926100Y-116663600D03*
X157926100Y-117163600D03*
X157926100Y-117663600D03*
D40*
X158701100Y-118438600D03*
X159201100Y-118438600D03*
X159701100Y-118438600D03*
X160201100Y-118438600D03*
X160701100Y-118438600D03*
X161201100Y-118438600D03*
X161701100Y-118438600D03*
X162201100Y-118438600D03*
X162701100Y-118438600D03*
X163201100Y-118438600D03*
X163701100Y-118438600D03*
D41*
X124760000Y-84570000D03*
X124760000Y-80070000D03*
X116360000Y-84570000D03*
X116360000Y-80070000D03*
D19*
X119706099Y-107543599D03*
X117606099Y-107543599D03*
D42*
X134150100Y-93319600D03*
X132372100Y-93319600D03*
D14*
X139865100Y-111988600D03*
X138087100Y-111988600D03*
X137960100Y-93319600D03*
X136182100Y-93319600D03*
M02*
