M48
; DRILL file {KiCad (7.0.0-0)} date Monday 27 February 2023 at 08:41:10
; FORMAT={-:-/ absolute / inch / decimal}
; #@! TF.CreationDate,2023-02-27T08:41:10+01:00
; #@! TF.GenerationSoftware,Kicad,Pcbnew,(7.0.0-0)
; #@! TF.FileFunction,Plated,1,2,PTH
FMAT,2
INCH
; #@! TA.AperFunction,Plated,PTH,ViaDrill
T1C0.0157
; #@! TA.AperFunction,Plated,PTH,ViaDrill
T2C0.0197
; #@! TA.AperFunction,Plated,PTH,ComponentDrill
T3C0.0236
; #@! TA.AperFunction,Plated,PTH,ComponentDrill
T4C0.0300
; #@! TA.AperFunction,Plated,PTH,ComponentDrill
T5C0.0335
; #@! TA.AperFunction,Plated,PTH,ComponentDrill
T6C0.0374
; #@! TA.AperFunction,Plated,PTH,ComponentDrill
T7C0.0512
%
G90
G05
T1
X4.6189Y-3.4921
X4.6287Y-3.9154
X4.7892Y-3.7432
T2
X4.5454Y-3.4805
X4.5715Y-3.234
X4.5715Y-3.984
X4.5715Y-4.059
X4.6091Y-3.5866
X4.6146Y-3.7791
X4.711Y-3.8772
X4.7354Y-3.5122
X4.7878Y-3.6834
X4.8465Y-4.334
X4.8465Y-4.4088
X4.8465Y-4.5842
X4.8465Y-4.659
X4.8548Y-3.6801
X4.8715Y-4.034
X4.8745Y-3.5974
X4.8965Y-3.859
X4.9213Y-4.5842
X4.9215Y-4.334
X4.9215Y-4.4088
X4.9215Y-4.659
X4.9965Y-4.334
X4.9965Y-4.659
X5.0715Y-3.684
X5.0715Y-3.759
X5.0715Y-4.334
X5.0715Y-4.659
X5.1215Y-4.509
X5.1965Y-3.609
X5.1965Y-3.919
X5.1965Y-3.979
X5.2215Y-3.509
X5.2481Y-3.734
X5.2715Y-4.369
X5.3365Y-4.234
X5.3465Y-3.509
X5.3565Y-3.829
X5.4015Y-3.909
X5.4215Y-4.234
X5.4465Y-4.734
X5.4515Y-3.624
X5.5165Y-5.084
X5.5715Y-4.659
X5.5865Y-4.399
X5.5965Y-3.984
X5.6065Y-3.909
X5.6465Y-4.1248
X5.6465Y-4.609
X5.6765Y-4.669
X5.6965Y-3.934
X5.7215Y-4.134
X5.7815Y-4.304
X5.7965Y-3.934
X5.7965Y-4.0992
X5.7965Y-4.734
X5.8465Y-4.134
X5.8965Y-4.1098
X5.9465Y-4.134
X5.9715Y-4.509
X5.9965Y-4.084
X6.0215Y-4.184
X6.0915Y-4.284
X6.0965Y-4.084
X6.1415Y-4.249
X6.1415Y-4.739
X6.1465Y-3.884
X6.1465Y-3.984
X6.1465Y-4.809
X6.1465Y-4.884
X6.1715Y-4.159
X6.2165Y-3.184
X6.2215Y-4.084
X6.3965Y-5.084
X6.4215Y-4.609
X6.4805Y-4.684
X6.5465Y-4.309
X6.6215Y-4.7222
X6.6265Y-4.219
X6.6715Y-4.009
X6.6965Y-4.334
X6.6965Y-4.809
X6.7215Y-4.219
X6.7465Y-4.72
X6.8215Y-4.409
X6.8215Y-4.534
X6.8215Y-4.599
X6.8215Y-4.659
X6.8625Y-4.706
X6.8915Y-4.759
X6.8915Y-4.819
X6.9465Y-4.934
X6.9965Y-4.459
X6.9965Y-4.659
X7.0465Y-3.584
X7.0965Y-4.459
X7.0965Y-4.659
T4
X4.6642Y-3.4177
X4.7642Y-3.4177
T5
X5.2365Y-3.184
X5.3365Y-3.184
X5.4365Y-3.184
X5.5365Y-3.184
X5.5965Y-5.084
X5.6365Y-3.184
X5.6965Y-5.084
X5.7365Y-3.184
X5.7965Y-5.084
X5.8365Y-3.184
X5.8965Y-5.084
X5.9365Y-3.184
X5.9965Y-5.084
X6.0365Y-3.184
X6.0965Y-5.084
X6.1365Y-3.184
X6.1965Y-5.084
X6.2965Y-3.184
X6.2965Y-5.084
X6.3965Y-3.184
X6.4965Y-3.184
X6.4965Y-5.084
X6.5965Y-3.184
X6.5965Y-5.084
X6.6965Y-3.184
X6.6965Y-5.084
X6.7965Y-3.184
X6.7965Y-5.084
X6.8965Y-3.184
X6.8965Y-5.084
X6.9965Y-3.184
X6.9965Y-5.084
T6
X7.0015Y-3.984
X7.0015Y-4.084
X7.0015Y-4.184
X7.1015Y-3.984
X7.1015Y-4.084
X7.1015Y-4.184
T7
X4.7205Y-4.827
X4.7205Y-4.857
X4.7205Y-4.887
X4.8085Y-5.054
X4.8385Y-5.054
X4.8685Y-5.054
X4.9565Y-4.827
X4.9565Y-4.857
X4.9565Y-4.887
T3
G00X4.5532Y-3.5465
M15
G01X4.5766Y-3.5465
M16
G05
G00X4.5532Y-3.822
M15
G01X4.5766Y-3.822
M16
G05
G00X4.6702Y-3.5799
M15
G01X4.6702Y-3.5917
M16
G05
G00X4.6702Y-3.7768
M15
G01X4.6702Y-3.7886
M16
G05
T0
M30
