%TF.GenerationSoftware,KiCad,Pcbnew,(7.0.0-0)*%
%TF.CreationDate,2023-02-27T08:41:11+01:00*%
%TF.ProjectId,Leonardo_Rev3e,4c656f6e-6172-4646-9f5f-52657633652e,3d*%
%TF.SameCoordinates,Original*%
%TF.FileFunction,Drillmap*%
%TF.FilePolarity,Positive*%
%FSLAX45Y45*%
G04 Gerber Fmt 4.5, Leading zero omitted, Abs format (unit mm)*
G04 Created by KiCad (PCBNEW (7.0.0-0)) date 2023-02-27 08:41:11*
%MOMM*%
%LPD*%
G01*
G04 APERTURE LIST*
%ADD10C,0.254000*%
%ADD11C,0.200000*%
%ADD12C,0.320000*%
G04 APERTURE END LIST*
D10*
X18025110Y-12913360D02*
X18025110Y-13067360D01*
X18025110Y-9128760D02*
X18279110Y-9382760D01*
X11421110Y-13067360D02*
X11421110Y-7933360D01*
X17872710Y-7833360D02*
X18025110Y-7985760D01*
X18279110Y-9382760D02*
X18279110Y-12659360D01*
X11421110Y-13067360D02*
G75*
G03*
X11521110Y-13167360I100000J0D01*
G01*
X18025110Y-7985760D02*
X18025110Y-9128760D01*
X11521110Y-7833360D02*
X17872710Y-7833360D01*
X17925110Y-13167360D02*
X11521110Y-13167360D01*
X11521110Y-7833360D02*
G75*
G03*
X11421110Y-7933360I0J-100000D01*
G01*
X17925110Y-13167360D02*
G75*
G03*
X18025110Y-13067360I0J100000D01*
G01*
X18279110Y-12659360D02*
X18025110Y-12913360D01*
D11*
D12*
X12658110Y-12753360D02*
X12978110Y-13073360D01*
X12978110Y-12753360D02*
X12658110Y-13073360D01*
X12785110Y-7927360D02*
X13105110Y-8247360D01*
X13105110Y-7927360D02*
X12785110Y-8247360D01*
X17865110Y-9451360D02*
X18185110Y-9771360D01*
X18185110Y-9451360D02*
X17865110Y-9771360D01*
X17865110Y-12245360D02*
X18185110Y-12565360D01*
X18185110Y-12245360D02*
X17865110Y-12565360D01*
D11*
X11656029Y-13473536D02*
X11656029Y-13273536D01*
X11656029Y-13273536D02*
X11703648Y-13273536D01*
X11703648Y-13273536D02*
X11732219Y-13283060D01*
X11732219Y-13283060D02*
X11751267Y-13302108D01*
X11751267Y-13302108D02*
X11760791Y-13321155D01*
X11760791Y-13321155D02*
X11770315Y-13359250D01*
X11770315Y-13359250D02*
X11770315Y-13387822D01*
X11770315Y-13387822D02*
X11760791Y-13425917D01*
X11760791Y-13425917D02*
X11751267Y-13444965D01*
X11751267Y-13444965D02*
X11732219Y-13464012D01*
X11732219Y-13464012D02*
X11703648Y-13473536D01*
X11703648Y-13473536D02*
X11656029Y-13473536D01*
X11856029Y-13473536D02*
X11856029Y-13340203D01*
X11856029Y-13378298D02*
X11865553Y-13359250D01*
X11865553Y-13359250D02*
X11875077Y-13349727D01*
X11875077Y-13349727D02*
X11894124Y-13340203D01*
X11894124Y-13340203D02*
X11913172Y-13340203D01*
X11979838Y-13473536D02*
X11979838Y-13340203D01*
X11979838Y-13273536D02*
X11970315Y-13283060D01*
X11970315Y-13283060D02*
X11979838Y-13292584D01*
X11979838Y-13292584D02*
X11989362Y-13283060D01*
X11989362Y-13283060D02*
X11979838Y-13273536D01*
X11979838Y-13273536D02*
X11979838Y-13292584D01*
X12103648Y-13473536D02*
X12084600Y-13464012D01*
X12084600Y-13464012D02*
X12075077Y-13444965D01*
X12075077Y-13444965D02*
X12075077Y-13273536D01*
X12208410Y-13473536D02*
X12189362Y-13464012D01*
X12189362Y-13464012D02*
X12179838Y-13444965D01*
X12179838Y-13444965D02*
X12179838Y-13273536D01*
X12404600Y-13473536D02*
X12404600Y-13273536D01*
X12404600Y-13273536D02*
X12471267Y-13416393D01*
X12471267Y-13416393D02*
X12537934Y-13273536D01*
X12537934Y-13273536D02*
X12537934Y-13473536D01*
X12718886Y-13473536D02*
X12718886Y-13368774D01*
X12718886Y-13368774D02*
X12709362Y-13349727D01*
X12709362Y-13349727D02*
X12690315Y-13340203D01*
X12690315Y-13340203D02*
X12652219Y-13340203D01*
X12652219Y-13340203D02*
X12633172Y-13349727D01*
X12718886Y-13464012D02*
X12699838Y-13473536D01*
X12699838Y-13473536D02*
X12652219Y-13473536D01*
X12652219Y-13473536D02*
X12633172Y-13464012D01*
X12633172Y-13464012D02*
X12623648Y-13444965D01*
X12623648Y-13444965D02*
X12623648Y-13425917D01*
X12623648Y-13425917D02*
X12633172Y-13406869D01*
X12633172Y-13406869D02*
X12652219Y-13397346D01*
X12652219Y-13397346D02*
X12699838Y-13397346D01*
X12699838Y-13397346D02*
X12718886Y-13387822D01*
X12814124Y-13340203D02*
X12814124Y-13540203D01*
X12814124Y-13349727D02*
X12833172Y-13340203D01*
X12833172Y-13340203D02*
X12871267Y-13340203D01*
X12871267Y-13340203D02*
X12890315Y-13349727D01*
X12890315Y-13349727D02*
X12899838Y-13359250D01*
X12899838Y-13359250D02*
X12909362Y-13378298D01*
X12909362Y-13378298D02*
X12909362Y-13435441D01*
X12909362Y-13435441D02*
X12899838Y-13454488D01*
X12899838Y-13454488D02*
X12890315Y-13464012D01*
X12890315Y-13464012D02*
X12871267Y-13473536D01*
X12871267Y-13473536D02*
X12833172Y-13473536D01*
X12833172Y-13473536D02*
X12814124Y-13464012D01*
X12995077Y-13454488D02*
X13004600Y-13464012D01*
X13004600Y-13464012D02*
X12995077Y-13473536D01*
X12995077Y-13473536D02*
X12985553Y-13464012D01*
X12985553Y-13464012D02*
X12995077Y-13454488D01*
X12995077Y-13454488D02*
X12995077Y-13473536D01*
X12995077Y-13349727D02*
X13004600Y-13359250D01*
X13004600Y-13359250D02*
X12995077Y-13368774D01*
X12995077Y-13368774D02*
X12985553Y-13359250D01*
X12985553Y-13359250D02*
X12995077Y-13349727D01*
X12995077Y-13349727D02*
X12995077Y-13368774D01*
X11208410Y-13720060D02*
X11408410Y-13920060D01*
X11408410Y-13720060D02*
X11208410Y-13920060D01*
X11636981Y-13693536D02*
X11760791Y-13693536D01*
X11760791Y-13693536D02*
X11694124Y-13769727D01*
X11694124Y-13769727D02*
X11722696Y-13769727D01*
X11722696Y-13769727D02*
X11741743Y-13779250D01*
X11741743Y-13779250D02*
X11751267Y-13788774D01*
X11751267Y-13788774D02*
X11760791Y-13807822D01*
X11760791Y-13807822D02*
X11760791Y-13855441D01*
X11760791Y-13855441D02*
X11751267Y-13874488D01*
X11751267Y-13874488D02*
X11741743Y-13884012D01*
X11741743Y-13884012D02*
X11722696Y-13893536D01*
X11722696Y-13893536D02*
X11665553Y-13893536D01*
X11665553Y-13893536D02*
X11646505Y-13884012D01*
X11646505Y-13884012D02*
X11636981Y-13874488D01*
X11846505Y-13874488D02*
X11856029Y-13884012D01*
X11856029Y-13884012D02*
X11846505Y-13893536D01*
X11846505Y-13893536D02*
X11836981Y-13884012D01*
X11836981Y-13884012D02*
X11846505Y-13874488D01*
X11846505Y-13874488D02*
X11846505Y-13893536D01*
X11932219Y-13712584D02*
X11941743Y-13703060D01*
X11941743Y-13703060D02*
X11960791Y-13693536D01*
X11960791Y-13693536D02*
X12008410Y-13693536D01*
X12008410Y-13693536D02*
X12027458Y-13703060D01*
X12027458Y-13703060D02*
X12036981Y-13712584D01*
X12036981Y-13712584D02*
X12046505Y-13731631D01*
X12046505Y-13731631D02*
X12046505Y-13750679D01*
X12046505Y-13750679D02*
X12036981Y-13779250D01*
X12036981Y-13779250D02*
X11922696Y-13893536D01*
X11922696Y-13893536D02*
X12046505Y-13893536D01*
X12170315Y-13693536D02*
X12189362Y-13693536D01*
X12189362Y-13693536D02*
X12208410Y-13703060D01*
X12208410Y-13703060D02*
X12217934Y-13712584D01*
X12217934Y-13712584D02*
X12227458Y-13731631D01*
X12227458Y-13731631D02*
X12236981Y-13769727D01*
X12236981Y-13769727D02*
X12236981Y-13817346D01*
X12236981Y-13817346D02*
X12227458Y-13855441D01*
X12227458Y-13855441D02*
X12217934Y-13874488D01*
X12217934Y-13874488D02*
X12208410Y-13884012D01*
X12208410Y-13884012D02*
X12189362Y-13893536D01*
X12189362Y-13893536D02*
X12170315Y-13893536D01*
X12170315Y-13893536D02*
X12151267Y-13884012D01*
X12151267Y-13884012D02*
X12141743Y-13874488D01*
X12141743Y-13874488D02*
X12132219Y-13855441D01*
X12132219Y-13855441D02*
X12122696Y-13817346D01*
X12122696Y-13817346D02*
X12122696Y-13769727D01*
X12122696Y-13769727D02*
X12132219Y-13731631D01*
X12132219Y-13731631D02*
X12141743Y-13712584D01*
X12141743Y-13712584D02*
X12151267Y-13703060D01*
X12151267Y-13703060D02*
X12170315Y-13693536D01*
X12360791Y-13693536D02*
X12379839Y-13693536D01*
X12379839Y-13693536D02*
X12398886Y-13703060D01*
X12398886Y-13703060D02*
X12408410Y-13712584D01*
X12408410Y-13712584D02*
X12417934Y-13731631D01*
X12417934Y-13731631D02*
X12427458Y-13769727D01*
X12427458Y-13769727D02*
X12427458Y-13817346D01*
X12427458Y-13817346D02*
X12417934Y-13855441D01*
X12417934Y-13855441D02*
X12408410Y-13874488D01*
X12408410Y-13874488D02*
X12398886Y-13884012D01*
X12398886Y-13884012D02*
X12379839Y-13893536D01*
X12379839Y-13893536D02*
X12360791Y-13893536D01*
X12360791Y-13893536D02*
X12341743Y-13884012D01*
X12341743Y-13884012D02*
X12332219Y-13874488D01*
X12332219Y-13874488D02*
X12322696Y-13855441D01*
X12322696Y-13855441D02*
X12313172Y-13817346D01*
X12313172Y-13817346D02*
X12313172Y-13769727D01*
X12313172Y-13769727D02*
X12322696Y-13731631D01*
X12322696Y-13731631D02*
X12332219Y-13712584D01*
X12332219Y-13712584D02*
X12341743Y-13703060D01*
X12341743Y-13703060D02*
X12360791Y-13693536D01*
X12513172Y-13893536D02*
X12513172Y-13760203D01*
X12513172Y-13779250D02*
X12522696Y-13769727D01*
X12522696Y-13769727D02*
X12541743Y-13760203D01*
X12541743Y-13760203D02*
X12570315Y-13760203D01*
X12570315Y-13760203D02*
X12589362Y-13769727D01*
X12589362Y-13769727D02*
X12598886Y-13788774D01*
X12598886Y-13788774D02*
X12598886Y-13893536D01*
X12598886Y-13788774D02*
X12608410Y-13769727D01*
X12608410Y-13769727D02*
X12627458Y-13760203D01*
X12627458Y-13760203D02*
X12656029Y-13760203D01*
X12656029Y-13760203D02*
X12675077Y-13769727D01*
X12675077Y-13769727D02*
X12684600Y-13788774D01*
X12684600Y-13788774D02*
X12684600Y-13893536D01*
X12779839Y-13893536D02*
X12779839Y-13760203D01*
X12779839Y-13779250D02*
X12789362Y-13769727D01*
X12789362Y-13769727D02*
X12808410Y-13760203D01*
X12808410Y-13760203D02*
X12836981Y-13760203D01*
X12836981Y-13760203D02*
X12856029Y-13769727D01*
X12856029Y-13769727D02*
X12865553Y-13788774D01*
X12865553Y-13788774D02*
X12865553Y-13893536D01*
X12865553Y-13788774D02*
X12875077Y-13769727D01*
X12875077Y-13769727D02*
X12894124Y-13760203D01*
X12894124Y-13760203D02*
X12922696Y-13760203D01*
X12922696Y-13760203D02*
X12941743Y-13769727D01*
X12941743Y-13769727D02*
X12951267Y-13788774D01*
X12951267Y-13788774D02*
X12951267Y-13893536D01*
X13309362Y-13684012D02*
X13137934Y-13941155D01*
X13534124Y-13693536D02*
X13553172Y-13693536D01*
X13553172Y-13693536D02*
X13572220Y-13703060D01*
X13572220Y-13703060D02*
X13581743Y-13712584D01*
X13581743Y-13712584D02*
X13591267Y-13731631D01*
X13591267Y-13731631D02*
X13600791Y-13769727D01*
X13600791Y-13769727D02*
X13600791Y-13817346D01*
X13600791Y-13817346D02*
X13591267Y-13855441D01*
X13591267Y-13855441D02*
X13581743Y-13874488D01*
X13581743Y-13874488D02*
X13572220Y-13884012D01*
X13572220Y-13884012D02*
X13553172Y-13893536D01*
X13553172Y-13893536D02*
X13534124Y-13893536D01*
X13534124Y-13893536D02*
X13515077Y-13884012D01*
X13515077Y-13884012D02*
X13505553Y-13874488D01*
X13505553Y-13874488D02*
X13496029Y-13855441D01*
X13496029Y-13855441D02*
X13486505Y-13817346D01*
X13486505Y-13817346D02*
X13486505Y-13769727D01*
X13486505Y-13769727D02*
X13496029Y-13731631D01*
X13496029Y-13731631D02*
X13505553Y-13712584D01*
X13505553Y-13712584D02*
X13515077Y-13703060D01*
X13515077Y-13703060D02*
X13534124Y-13693536D01*
X13686505Y-13874488D02*
X13696029Y-13884012D01*
X13696029Y-13884012D02*
X13686505Y-13893536D01*
X13686505Y-13893536D02*
X13676981Y-13884012D01*
X13676981Y-13884012D02*
X13686505Y-13874488D01*
X13686505Y-13874488D02*
X13686505Y-13893536D01*
X13886505Y-13893536D02*
X13772220Y-13893536D01*
X13829362Y-13893536D02*
X13829362Y-13693536D01*
X13829362Y-13693536D02*
X13810315Y-13722108D01*
X13810315Y-13722108D02*
X13791267Y-13741155D01*
X13791267Y-13741155D02*
X13772220Y-13750679D01*
X13962696Y-13712584D02*
X13972220Y-13703060D01*
X13972220Y-13703060D02*
X13991267Y-13693536D01*
X13991267Y-13693536D02*
X14038886Y-13693536D01*
X14038886Y-13693536D02*
X14057934Y-13703060D01*
X14057934Y-13703060D02*
X14067458Y-13712584D01*
X14067458Y-13712584D02*
X14076981Y-13731631D01*
X14076981Y-13731631D02*
X14076981Y-13750679D01*
X14076981Y-13750679D02*
X14067458Y-13779250D01*
X14067458Y-13779250D02*
X13953172Y-13893536D01*
X13953172Y-13893536D02*
X14076981Y-13893536D01*
X14248410Y-13693536D02*
X14210315Y-13693536D01*
X14210315Y-13693536D02*
X14191267Y-13703060D01*
X14191267Y-13703060D02*
X14181743Y-13712584D01*
X14181743Y-13712584D02*
X14162696Y-13741155D01*
X14162696Y-13741155D02*
X14153172Y-13779250D01*
X14153172Y-13779250D02*
X14153172Y-13855441D01*
X14153172Y-13855441D02*
X14162696Y-13874488D01*
X14162696Y-13874488D02*
X14172220Y-13884012D01*
X14172220Y-13884012D02*
X14191267Y-13893536D01*
X14191267Y-13893536D02*
X14229362Y-13893536D01*
X14229362Y-13893536D02*
X14248410Y-13884012D01*
X14248410Y-13884012D02*
X14257934Y-13874488D01*
X14257934Y-13874488D02*
X14267458Y-13855441D01*
X14267458Y-13855441D02*
X14267458Y-13807822D01*
X14267458Y-13807822D02*
X14257934Y-13788774D01*
X14257934Y-13788774D02*
X14248410Y-13779250D01*
X14248410Y-13779250D02*
X14229362Y-13769727D01*
X14229362Y-13769727D02*
X14191267Y-13769727D01*
X14191267Y-13769727D02*
X14172220Y-13779250D01*
X14172220Y-13779250D02*
X14162696Y-13788774D01*
X14162696Y-13788774D02*
X14153172Y-13807822D01*
X14391267Y-13693536D02*
X14410315Y-13693536D01*
X14410315Y-13693536D02*
X14429362Y-13703060D01*
X14429362Y-13703060D02*
X14438886Y-13712584D01*
X14438886Y-13712584D02*
X14448410Y-13731631D01*
X14448410Y-13731631D02*
X14457934Y-13769727D01*
X14457934Y-13769727D02*
X14457934Y-13817346D01*
X14457934Y-13817346D02*
X14448410Y-13855441D01*
X14448410Y-13855441D02*
X14438886Y-13874488D01*
X14438886Y-13874488D02*
X14429362Y-13884012D01*
X14429362Y-13884012D02*
X14410315Y-13893536D01*
X14410315Y-13893536D02*
X14391267Y-13893536D01*
X14391267Y-13893536D02*
X14372220Y-13884012D01*
X14372220Y-13884012D02*
X14362696Y-13874488D01*
X14362696Y-13874488D02*
X14353172Y-13855441D01*
X14353172Y-13855441D02*
X14343648Y-13817346D01*
X14343648Y-13817346D02*
X14343648Y-13769727D01*
X14343648Y-13769727D02*
X14353172Y-13731631D01*
X14353172Y-13731631D02*
X14362696Y-13712584D01*
X14362696Y-13712584D02*
X14372220Y-13703060D01*
X14372220Y-13703060D02*
X14391267Y-13693536D01*
X14534124Y-13693536D02*
X14534124Y-13731631D01*
X14610315Y-13693536D02*
X14610315Y-13731631D01*
X14873172Y-13969727D02*
X14863648Y-13960203D01*
X14863648Y-13960203D02*
X14844601Y-13931631D01*
X14844601Y-13931631D02*
X14835077Y-13912584D01*
X14835077Y-13912584D02*
X14825553Y-13884012D01*
X14825553Y-13884012D02*
X14816029Y-13836393D01*
X14816029Y-13836393D02*
X14816029Y-13798298D01*
X14816029Y-13798298D02*
X14825553Y-13750679D01*
X14825553Y-13750679D02*
X14835077Y-13722108D01*
X14835077Y-13722108D02*
X14844601Y-13703060D01*
X14844601Y-13703060D02*
X14863648Y-13674488D01*
X14863648Y-13674488D02*
X14873172Y-13664965D01*
X15035077Y-13760203D02*
X15035077Y-13893536D01*
X14987458Y-13684012D02*
X14939839Y-13826869D01*
X14939839Y-13826869D02*
X15063648Y-13826869D01*
X15259839Y-13893536D02*
X15259839Y-13693536D01*
X15345553Y-13893536D02*
X15345553Y-13788774D01*
X15345553Y-13788774D02*
X15336029Y-13769727D01*
X15336029Y-13769727D02*
X15316982Y-13760203D01*
X15316982Y-13760203D02*
X15288410Y-13760203D01*
X15288410Y-13760203D02*
X15269362Y-13769727D01*
X15269362Y-13769727D02*
X15259839Y-13779250D01*
X15469362Y-13893536D02*
X15450315Y-13884012D01*
X15450315Y-13884012D02*
X15440791Y-13874488D01*
X15440791Y-13874488D02*
X15431267Y-13855441D01*
X15431267Y-13855441D02*
X15431267Y-13798298D01*
X15431267Y-13798298D02*
X15440791Y-13779250D01*
X15440791Y-13779250D02*
X15450315Y-13769727D01*
X15450315Y-13769727D02*
X15469362Y-13760203D01*
X15469362Y-13760203D02*
X15497934Y-13760203D01*
X15497934Y-13760203D02*
X15516982Y-13769727D01*
X15516982Y-13769727D02*
X15526505Y-13779250D01*
X15526505Y-13779250D02*
X15536029Y-13798298D01*
X15536029Y-13798298D02*
X15536029Y-13855441D01*
X15536029Y-13855441D02*
X15526505Y-13874488D01*
X15526505Y-13874488D02*
X15516982Y-13884012D01*
X15516982Y-13884012D02*
X15497934Y-13893536D01*
X15497934Y-13893536D02*
X15469362Y-13893536D01*
X15650315Y-13893536D02*
X15631267Y-13884012D01*
X15631267Y-13884012D02*
X15621743Y-13864965D01*
X15621743Y-13864965D02*
X15621743Y-13693536D01*
X15802696Y-13884012D02*
X15783648Y-13893536D01*
X15783648Y-13893536D02*
X15745553Y-13893536D01*
X15745553Y-13893536D02*
X15726505Y-13884012D01*
X15726505Y-13884012D02*
X15716982Y-13864965D01*
X15716982Y-13864965D02*
X15716982Y-13788774D01*
X15716982Y-13788774D02*
X15726505Y-13769727D01*
X15726505Y-13769727D02*
X15745553Y-13760203D01*
X15745553Y-13760203D02*
X15783648Y-13760203D01*
X15783648Y-13760203D02*
X15802696Y-13769727D01*
X15802696Y-13769727D02*
X15812220Y-13788774D01*
X15812220Y-13788774D02*
X15812220Y-13807822D01*
X15812220Y-13807822D02*
X15716982Y-13826869D01*
X15888410Y-13884012D02*
X15907458Y-13893536D01*
X15907458Y-13893536D02*
X15945553Y-13893536D01*
X15945553Y-13893536D02*
X15964601Y-13884012D01*
X15964601Y-13884012D02*
X15974124Y-13864965D01*
X15974124Y-13864965D02*
X15974124Y-13855441D01*
X15974124Y-13855441D02*
X15964601Y-13836393D01*
X15964601Y-13836393D02*
X15945553Y-13826869D01*
X15945553Y-13826869D02*
X15916982Y-13826869D01*
X15916982Y-13826869D02*
X15897934Y-13817346D01*
X15897934Y-13817346D02*
X15888410Y-13798298D01*
X15888410Y-13798298D02*
X15888410Y-13788774D01*
X15888410Y-13788774D02*
X15897934Y-13769727D01*
X15897934Y-13769727D02*
X15916982Y-13760203D01*
X15916982Y-13760203D02*
X15945553Y-13760203D01*
X15945553Y-13760203D02*
X15964601Y-13769727D01*
X16040791Y-13969727D02*
X16050315Y-13960203D01*
X16050315Y-13960203D02*
X16069363Y-13931631D01*
X16069363Y-13931631D02*
X16078886Y-13912584D01*
X16078886Y-13912584D02*
X16088410Y-13884012D01*
X16088410Y-13884012D02*
X16097934Y-13836393D01*
X16097934Y-13836393D02*
X16097934Y-13798298D01*
X16097934Y-13798298D02*
X16088410Y-13750679D01*
X16088410Y-13750679D02*
X16078886Y-13722108D01*
X16078886Y-13722108D02*
X16069363Y-13703060D01*
X16069363Y-13703060D02*
X16050315Y-13674488D01*
X16050315Y-13674488D02*
X16040791Y-13664965D01*
X16370315Y-13969727D02*
X16360791Y-13960203D01*
X16360791Y-13960203D02*
X16341743Y-13931631D01*
X16341743Y-13931631D02*
X16332220Y-13912584D01*
X16332220Y-13912584D02*
X16322696Y-13884012D01*
X16322696Y-13884012D02*
X16313172Y-13836393D01*
X16313172Y-13836393D02*
X16313172Y-13798298D01*
X16313172Y-13798298D02*
X16322696Y-13750679D01*
X16322696Y-13750679D02*
X16332220Y-13722108D01*
X16332220Y-13722108D02*
X16341743Y-13703060D01*
X16341743Y-13703060D02*
X16360791Y-13674488D01*
X16360791Y-13674488D02*
X16370315Y-13664965D01*
X16446505Y-13760203D02*
X16446505Y-13893536D01*
X16446505Y-13779250D02*
X16456029Y-13769727D01*
X16456029Y-13769727D02*
X16475077Y-13760203D01*
X16475077Y-13760203D02*
X16503648Y-13760203D01*
X16503648Y-13760203D02*
X16522696Y-13769727D01*
X16522696Y-13769727D02*
X16532220Y-13788774D01*
X16532220Y-13788774D02*
X16532220Y-13893536D01*
X16656029Y-13893536D02*
X16636982Y-13884012D01*
X16636982Y-13884012D02*
X16627458Y-13874488D01*
X16627458Y-13874488D02*
X16617934Y-13855441D01*
X16617934Y-13855441D02*
X16617934Y-13798298D01*
X16617934Y-13798298D02*
X16627458Y-13779250D01*
X16627458Y-13779250D02*
X16636982Y-13769727D01*
X16636982Y-13769727D02*
X16656029Y-13760203D01*
X16656029Y-13760203D02*
X16684601Y-13760203D01*
X16684601Y-13760203D02*
X16703648Y-13769727D01*
X16703648Y-13769727D02*
X16713172Y-13779250D01*
X16713172Y-13779250D02*
X16722696Y-13798298D01*
X16722696Y-13798298D02*
X16722696Y-13855441D01*
X16722696Y-13855441D02*
X16713172Y-13874488D01*
X16713172Y-13874488D02*
X16703648Y-13884012D01*
X16703648Y-13884012D02*
X16684601Y-13893536D01*
X16684601Y-13893536D02*
X16656029Y-13893536D01*
X16779839Y-13760203D02*
X16856029Y-13760203D01*
X16808410Y-13693536D02*
X16808410Y-13864965D01*
X16808410Y-13864965D02*
X16817934Y-13884012D01*
X16817934Y-13884012D02*
X16836982Y-13893536D01*
X16836982Y-13893536D02*
X16856029Y-13893536D01*
X17042696Y-13760203D02*
X17042696Y-13960203D01*
X17042696Y-13769727D02*
X17061744Y-13760203D01*
X17061744Y-13760203D02*
X17099839Y-13760203D01*
X17099839Y-13760203D02*
X17118886Y-13769727D01*
X17118886Y-13769727D02*
X17128410Y-13779250D01*
X17128410Y-13779250D02*
X17137934Y-13798298D01*
X17137934Y-13798298D02*
X17137934Y-13855441D01*
X17137934Y-13855441D02*
X17128410Y-13874488D01*
X17128410Y-13874488D02*
X17118886Y-13884012D01*
X17118886Y-13884012D02*
X17099839Y-13893536D01*
X17099839Y-13893536D02*
X17061744Y-13893536D01*
X17061744Y-13893536D02*
X17042696Y-13884012D01*
X17252220Y-13893536D02*
X17233172Y-13884012D01*
X17233172Y-13884012D02*
X17223648Y-13864965D01*
X17223648Y-13864965D02*
X17223648Y-13693536D01*
X17414125Y-13893536D02*
X17414125Y-13788774D01*
X17414125Y-13788774D02*
X17404601Y-13769727D01*
X17404601Y-13769727D02*
X17385553Y-13760203D01*
X17385553Y-13760203D02*
X17347458Y-13760203D01*
X17347458Y-13760203D02*
X17328410Y-13769727D01*
X17414125Y-13884012D02*
X17395077Y-13893536D01*
X17395077Y-13893536D02*
X17347458Y-13893536D01*
X17347458Y-13893536D02*
X17328410Y-13884012D01*
X17328410Y-13884012D02*
X17318886Y-13864965D01*
X17318886Y-13864965D02*
X17318886Y-13845917D01*
X17318886Y-13845917D02*
X17328410Y-13826869D01*
X17328410Y-13826869D02*
X17347458Y-13817346D01*
X17347458Y-13817346D02*
X17395077Y-13817346D01*
X17395077Y-13817346D02*
X17414125Y-13807822D01*
X17480791Y-13760203D02*
X17556982Y-13760203D01*
X17509363Y-13693536D02*
X17509363Y-13864965D01*
X17509363Y-13864965D02*
X17518886Y-13884012D01*
X17518886Y-13884012D02*
X17537934Y-13893536D01*
X17537934Y-13893536D02*
X17556982Y-13893536D01*
X17699839Y-13884012D02*
X17680791Y-13893536D01*
X17680791Y-13893536D02*
X17642696Y-13893536D01*
X17642696Y-13893536D02*
X17623648Y-13884012D01*
X17623648Y-13884012D02*
X17614125Y-13864965D01*
X17614125Y-13864965D02*
X17614125Y-13788774D01*
X17614125Y-13788774D02*
X17623648Y-13769727D01*
X17623648Y-13769727D02*
X17642696Y-13760203D01*
X17642696Y-13760203D02*
X17680791Y-13760203D01*
X17680791Y-13760203D02*
X17699839Y-13769727D01*
X17699839Y-13769727D02*
X17709363Y-13788774D01*
X17709363Y-13788774D02*
X17709363Y-13807822D01*
X17709363Y-13807822D02*
X17614125Y-13826869D01*
X17880791Y-13893536D02*
X17880791Y-13693536D01*
X17880791Y-13884012D02*
X17861744Y-13893536D01*
X17861744Y-13893536D02*
X17823648Y-13893536D01*
X17823648Y-13893536D02*
X17804601Y-13884012D01*
X17804601Y-13884012D02*
X17795077Y-13874488D01*
X17795077Y-13874488D02*
X17785553Y-13855441D01*
X17785553Y-13855441D02*
X17785553Y-13798298D01*
X17785553Y-13798298D02*
X17795077Y-13779250D01*
X17795077Y-13779250D02*
X17804601Y-13769727D01*
X17804601Y-13769727D02*
X17823648Y-13760203D01*
X17823648Y-13760203D02*
X17861744Y-13760203D01*
X17861744Y-13760203D02*
X17880791Y-13769727D01*
X17956982Y-13969727D02*
X17966506Y-13960203D01*
X17966506Y-13960203D02*
X17985553Y-13931631D01*
X17985553Y-13931631D02*
X17995077Y-13912584D01*
X17995077Y-13912584D02*
X18004601Y-13884012D01*
X18004601Y-13884012D02*
X18014125Y-13836393D01*
X18014125Y-13836393D02*
X18014125Y-13798298D01*
X18014125Y-13798298D02*
X18004601Y-13750679D01*
X18004601Y-13750679D02*
X17995077Y-13722108D01*
X17995077Y-13722108D02*
X17985553Y-13703060D01*
X17985553Y-13703060D02*
X17966506Y-13674488D01*
X17966506Y-13674488D02*
X17956982Y-13664965D01*
M02*
