%TF.GenerationSoftware,KiCad,Pcbnew,(6.0.10-0)*%
%TF.CreationDate,2023-01-08T15:57:32+01:00*%
%TF.ProjectId,Leonardo_Rev3d,4c656f6e-6172-4646-9f5f-52657633642e,3d*%
%TF.SameCoordinates,Original*%
%TF.FileFunction,Drillmap*%
%TF.FilePolarity,Positive*%
%FSLAX45Y45*%
G04 Gerber Fmt 4.5, Leading zero omitted, Abs format (unit mm)*
G04 Created by KiCad (PCBNEW (6.0.10-0)) date 2023-01-08 15:57:32*
%MOMM*%
%LPD*%
G01*
G04 APERTURE LIST*
%ADD10C,0.254000*%
%ADD11C,0.200000*%
%ADD12C,0.320000*%
G04 APERTURE END LIST*
D10*
X18025110Y-12913360D02*
X18025110Y-13067360D01*
X18025110Y-9128760D02*
X18279110Y-9382760D01*
X11421110Y-13067360D02*
X11421110Y-7933360D01*
X17872710Y-7833360D02*
X18025110Y-7985760D01*
X18279110Y-9382760D02*
X18279110Y-12659360D01*
X11421110Y-13067360D02*
G75*
G03*
X11521110Y-13167360I100000J0D01*
G01*
X18025110Y-7985760D02*
X18025110Y-9128760D01*
X11521110Y-7833360D02*
X17872710Y-7833360D01*
X17925110Y-13167360D02*
X11521110Y-13167360D01*
X11521110Y-7833360D02*
G75*
G03*
X11421110Y-7933360I0J-100000D01*
G01*
X17925110Y-13167360D02*
G75*
G03*
X18025110Y-13067360I0J100000D01*
G01*
X18279110Y-12659360D02*
X18025110Y-12913360D01*
D11*
D12*
X12658110Y-12753360D02*
X12978110Y-13073360D01*
X12978110Y-12753360D02*
X12658110Y-13073360D01*
X12785110Y-7927360D02*
X13105110Y-8247360D01*
X13105110Y-7927360D02*
X12785110Y-8247360D01*
X17865110Y-9451360D02*
X18185110Y-9771360D01*
X18185110Y-9451360D02*
X17865110Y-9771360D01*
X17865110Y-12245360D02*
X18185110Y-12565360D01*
X18185110Y-12245360D02*
X17865110Y-12565360D01*
D11*
X11666029Y-13490536D02*
X11666029Y-13290536D01*
X11713648Y-13290536D01*
X11742219Y-13300060D01*
X11761267Y-13319108D01*
X11770791Y-13338155D01*
X11780315Y-13376250D01*
X11780315Y-13404822D01*
X11770791Y-13442917D01*
X11761267Y-13461965D01*
X11742219Y-13481012D01*
X11713648Y-13490536D01*
X11666029Y-13490536D01*
X11866029Y-13490536D02*
X11866029Y-13357203D01*
X11866029Y-13395298D02*
X11875553Y-13376250D01*
X11885077Y-13366727D01*
X11904124Y-13357203D01*
X11923172Y-13357203D01*
X11989838Y-13490536D02*
X11989838Y-13357203D01*
X11989838Y-13290536D02*
X11980315Y-13300060D01*
X11989838Y-13309584D01*
X11999362Y-13300060D01*
X11989838Y-13290536D01*
X11989838Y-13309584D01*
X12113648Y-13490536D02*
X12094600Y-13481012D01*
X12085077Y-13461965D01*
X12085077Y-13290536D01*
X12218410Y-13490536D02*
X12199362Y-13481012D01*
X12189838Y-13461965D01*
X12189838Y-13290536D01*
X12446981Y-13490536D02*
X12446981Y-13290536D01*
X12513648Y-13433393D01*
X12580315Y-13290536D01*
X12580315Y-13490536D01*
X12761267Y-13490536D02*
X12761267Y-13385774D01*
X12751743Y-13366727D01*
X12732696Y-13357203D01*
X12694600Y-13357203D01*
X12675553Y-13366727D01*
X12761267Y-13481012D02*
X12742219Y-13490536D01*
X12694600Y-13490536D01*
X12675553Y-13481012D01*
X12666029Y-13461965D01*
X12666029Y-13442917D01*
X12675553Y-13423869D01*
X12694600Y-13414346D01*
X12742219Y-13414346D01*
X12761267Y-13404822D01*
X12856505Y-13357203D02*
X12856505Y-13557203D01*
X12856505Y-13366727D02*
X12875553Y-13357203D01*
X12913648Y-13357203D01*
X12932696Y-13366727D01*
X12942219Y-13376250D01*
X12951743Y-13395298D01*
X12951743Y-13452441D01*
X12942219Y-13471488D01*
X12932696Y-13481012D01*
X12913648Y-13490536D01*
X12875553Y-13490536D01*
X12856505Y-13481012D01*
X13037458Y-13471488D02*
X13046981Y-13481012D01*
X13037458Y-13490536D01*
X13027934Y-13481012D01*
X13037458Y-13471488D01*
X13037458Y-13490536D01*
X13037458Y-13366727D02*
X13046981Y-13376250D01*
X13037458Y-13385774D01*
X13027934Y-13376250D01*
X13037458Y-13366727D01*
X13037458Y-13385774D01*
X11208410Y-13720060D02*
X11408410Y-13920060D01*
X11408410Y-13720060D02*
X11208410Y-13920060D01*
X11646981Y-13710536D02*
X11770791Y-13710536D01*
X11704124Y-13786727D01*
X11732696Y-13786727D01*
X11751743Y-13796250D01*
X11761267Y-13805774D01*
X11770791Y-13824822D01*
X11770791Y-13872441D01*
X11761267Y-13891488D01*
X11751743Y-13901012D01*
X11732696Y-13910536D01*
X11675553Y-13910536D01*
X11656505Y-13901012D01*
X11646981Y-13891488D01*
X11856505Y-13891488D02*
X11866029Y-13901012D01*
X11856505Y-13910536D01*
X11846981Y-13901012D01*
X11856505Y-13891488D01*
X11856505Y-13910536D01*
X11942219Y-13729584D02*
X11951743Y-13720060D01*
X11970791Y-13710536D01*
X12018410Y-13710536D01*
X12037458Y-13720060D01*
X12046981Y-13729584D01*
X12056505Y-13748631D01*
X12056505Y-13767679D01*
X12046981Y-13796250D01*
X11932696Y-13910536D01*
X12056505Y-13910536D01*
X12180315Y-13710536D02*
X12199362Y-13710536D01*
X12218410Y-13720060D01*
X12227934Y-13729584D01*
X12237458Y-13748631D01*
X12246981Y-13786727D01*
X12246981Y-13834346D01*
X12237458Y-13872441D01*
X12227934Y-13891488D01*
X12218410Y-13901012D01*
X12199362Y-13910536D01*
X12180315Y-13910536D01*
X12161267Y-13901012D01*
X12151743Y-13891488D01*
X12142219Y-13872441D01*
X12132696Y-13834346D01*
X12132696Y-13786727D01*
X12142219Y-13748631D01*
X12151743Y-13729584D01*
X12161267Y-13720060D01*
X12180315Y-13710536D01*
X12370791Y-13710536D02*
X12389838Y-13710536D01*
X12408886Y-13720060D01*
X12418410Y-13729584D01*
X12427934Y-13748631D01*
X12437458Y-13786727D01*
X12437458Y-13834346D01*
X12427934Y-13872441D01*
X12418410Y-13891488D01*
X12408886Y-13901012D01*
X12389838Y-13910536D01*
X12370791Y-13910536D01*
X12351743Y-13901012D01*
X12342219Y-13891488D01*
X12332696Y-13872441D01*
X12323172Y-13834346D01*
X12323172Y-13786727D01*
X12332696Y-13748631D01*
X12342219Y-13729584D01*
X12351743Y-13720060D01*
X12370791Y-13710536D01*
X12523172Y-13910536D02*
X12523172Y-13777203D01*
X12523172Y-13796250D02*
X12532696Y-13786727D01*
X12551743Y-13777203D01*
X12580315Y-13777203D01*
X12599362Y-13786727D01*
X12608886Y-13805774D01*
X12608886Y-13910536D01*
X12608886Y-13805774D02*
X12618410Y-13786727D01*
X12637458Y-13777203D01*
X12666029Y-13777203D01*
X12685077Y-13786727D01*
X12694600Y-13805774D01*
X12694600Y-13910536D01*
X12789838Y-13910536D02*
X12789838Y-13777203D01*
X12789838Y-13796250D02*
X12799362Y-13786727D01*
X12818410Y-13777203D01*
X12846981Y-13777203D01*
X12866029Y-13786727D01*
X12875553Y-13805774D01*
X12875553Y-13910536D01*
X12875553Y-13805774D02*
X12885077Y-13786727D01*
X12904124Y-13777203D01*
X12932696Y-13777203D01*
X12951743Y-13786727D01*
X12961267Y-13805774D01*
X12961267Y-13910536D01*
X13351743Y-13701012D02*
X13180315Y-13958155D01*
X13608886Y-13710536D02*
X13627934Y-13710536D01*
X13646981Y-13720060D01*
X13656505Y-13729584D01*
X13666029Y-13748631D01*
X13675553Y-13786727D01*
X13675553Y-13834346D01*
X13666029Y-13872441D01*
X13656505Y-13891488D01*
X13646981Y-13901012D01*
X13627934Y-13910536D01*
X13608886Y-13910536D01*
X13589838Y-13901012D01*
X13580315Y-13891488D01*
X13570791Y-13872441D01*
X13561267Y-13834346D01*
X13561267Y-13786727D01*
X13570791Y-13748631D01*
X13580315Y-13729584D01*
X13589838Y-13720060D01*
X13608886Y-13710536D01*
X13761267Y-13891488D02*
X13770791Y-13901012D01*
X13761267Y-13910536D01*
X13751743Y-13901012D01*
X13761267Y-13891488D01*
X13761267Y-13910536D01*
X13961267Y-13910536D02*
X13846981Y-13910536D01*
X13904124Y-13910536D02*
X13904124Y-13710536D01*
X13885077Y-13739108D01*
X13866029Y-13758155D01*
X13846981Y-13767679D01*
X14037458Y-13729584D02*
X14046981Y-13720060D01*
X14066029Y-13710536D01*
X14113648Y-13710536D01*
X14132696Y-13720060D01*
X14142219Y-13729584D01*
X14151743Y-13748631D01*
X14151743Y-13767679D01*
X14142219Y-13796250D01*
X14027934Y-13910536D01*
X14151743Y-13910536D01*
X14323172Y-13710536D02*
X14285077Y-13710536D01*
X14266029Y-13720060D01*
X14256505Y-13729584D01*
X14237458Y-13758155D01*
X14227934Y-13796250D01*
X14227934Y-13872441D01*
X14237458Y-13891488D01*
X14246981Y-13901012D01*
X14266029Y-13910536D01*
X14304124Y-13910536D01*
X14323172Y-13901012D01*
X14332696Y-13891488D01*
X14342219Y-13872441D01*
X14342219Y-13824822D01*
X14332696Y-13805774D01*
X14323172Y-13796250D01*
X14304124Y-13786727D01*
X14266029Y-13786727D01*
X14246981Y-13796250D01*
X14237458Y-13805774D01*
X14227934Y-13824822D01*
X14466029Y-13710536D02*
X14485077Y-13710536D01*
X14504124Y-13720060D01*
X14513648Y-13729584D01*
X14523172Y-13748631D01*
X14532696Y-13786727D01*
X14532696Y-13834346D01*
X14523172Y-13872441D01*
X14513648Y-13891488D01*
X14504124Y-13901012D01*
X14485077Y-13910536D01*
X14466029Y-13910536D01*
X14446981Y-13901012D01*
X14437458Y-13891488D01*
X14427934Y-13872441D01*
X14418410Y-13834346D01*
X14418410Y-13786727D01*
X14427934Y-13748631D01*
X14437458Y-13729584D01*
X14446981Y-13720060D01*
X14466029Y-13710536D01*
X14608886Y-13710536D02*
X14608886Y-13748631D01*
X14685077Y-13710536D02*
X14685077Y-13748631D01*
X14980315Y-13986727D02*
X14970791Y-13977203D01*
X14951743Y-13948631D01*
X14942219Y-13929584D01*
X14932696Y-13901012D01*
X14923172Y-13853393D01*
X14923172Y-13815298D01*
X14932696Y-13767679D01*
X14942219Y-13739108D01*
X14951743Y-13720060D01*
X14970791Y-13691488D01*
X14980315Y-13681965D01*
X15142219Y-13777203D02*
X15142219Y-13910536D01*
X15094600Y-13701012D02*
X15046981Y-13843869D01*
X15170791Y-13843869D01*
X15399362Y-13910536D02*
X15399362Y-13710536D01*
X15485077Y-13910536D02*
X15485077Y-13805774D01*
X15475553Y-13786727D01*
X15456505Y-13777203D01*
X15427934Y-13777203D01*
X15408886Y-13786727D01*
X15399362Y-13796250D01*
X15608886Y-13910536D02*
X15589838Y-13901012D01*
X15580315Y-13891488D01*
X15570791Y-13872441D01*
X15570791Y-13815298D01*
X15580315Y-13796250D01*
X15589838Y-13786727D01*
X15608886Y-13777203D01*
X15637458Y-13777203D01*
X15656505Y-13786727D01*
X15666029Y-13796250D01*
X15675553Y-13815298D01*
X15675553Y-13872441D01*
X15666029Y-13891488D01*
X15656505Y-13901012D01*
X15637458Y-13910536D01*
X15608886Y-13910536D01*
X15789838Y-13910536D02*
X15770791Y-13901012D01*
X15761267Y-13881965D01*
X15761267Y-13710536D01*
X15942219Y-13901012D02*
X15923172Y-13910536D01*
X15885077Y-13910536D01*
X15866029Y-13901012D01*
X15856505Y-13881965D01*
X15856505Y-13805774D01*
X15866029Y-13786727D01*
X15885077Y-13777203D01*
X15923172Y-13777203D01*
X15942219Y-13786727D01*
X15951743Y-13805774D01*
X15951743Y-13824822D01*
X15856505Y-13843869D01*
X16027934Y-13901012D02*
X16046981Y-13910536D01*
X16085077Y-13910536D01*
X16104124Y-13901012D01*
X16113648Y-13881965D01*
X16113648Y-13872441D01*
X16104124Y-13853393D01*
X16085077Y-13843869D01*
X16056505Y-13843869D01*
X16037458Y-13834346D01*
X16027934Y-13815298D01*
X16027934Y-13805774D01*
X16037458Y-13786727D01*
X16056505Y-13777203D01*
X16085077Y-13777203D01*
X16104124Y-13786727D01*
X16180315Y-13986727D02*
X16189838Y-13977203D01*
X16208886Y-13948631D01*
X16218410Y-13929584D01*
X16227934Y-13901012D01*
X16237458Y-13853393D01*
X16237458Y-13815298D01*
X16227934Y-13767679D01*
X16218410Y-13739108D01*
X16208886Y-13720060D01*
X16189838Y-13691488D01*
X16180315Y-13681965D01*
X16542219Y-13986727D02*
X16532696Y-13977203D01*
X16513648Y-13948631D01*
X16504124Y-13929584D01*
X16494600Y-13901012D01*
X16485077Y-13853393D01*
X16485077Y-13815298D01*
X16494600Y-13767679D01*
X16504124Y-13739108D01*
X16513648Y-13720060D01*
X16532696Y-13691488D01*
X16542219Y-13681965D01*
X16618410Y-13777203D02*
X16618410Y-13910536D01*
X16618410Y-13796250D02*
X16627934Y-13786727D01*
X16646981Y-13777203D01*
X16675553Y-13777203D01*
X16694600Y-13786727D01*
X16704124Y-13805774D01*
X16704124Y-13910536D01*
X16827934Y-13910536D02*
X16808886Y-13901012D01*
X16799362Y-13891488D01*
X16789839Y-13872441D01*
X16789839Y-13815298D01*
X16799362Y-13796250D01*
X16808886Y-13786727D01*
X16827934Y-13777203D01*
X16856505Y-13777203D01*
X16875553Y-13786727D01*
X16885077Y-13796250D01*
X16894600Y-13815298D01*
X16894600Y-13872441D01*
X16885077Y-13891488D01*
X16875553Y-13901012D01*
X16856505Y-13910536D01*
X16827934Y-13910536D01*
X16951743Y-13777203D02*
X17027934Y-13777203D01*
X16980315Y-13710536D02*
X16980315Y-13881965D01*
X16989839Y-13901012D01*
X17008886Y-13910536D01*
X17027934Y-13910536D01*
X17246981Y-13777203D02*
X17246981Y-13977203D01*
X17246981Y-13786727D02*
X17266029Y-13777203D01*
X17304124Y-13777203D01*
X17323172Y-13786727D01*
X17332696Y-13796250D01*
X17342220Y-13815298D01*
X17342220Y-13872441D01*
X17332696Y-13891488D01*
X17323172Y-13901012D01*
X17304124Y-13910536D01*
X17266029Y-13910536D01*
X17246981Y-13901012D01*
X17456505Y-13910536D02*
X17437458Y-13901012D01*
X17427934Y-13881965D01*
X17427934Y-13710536D01*
X17618410Y-13910536D02*
X17618410Y-13805774D01*
X17608886Y-13786727D01*
X17589839Y-13777203D01*
X17551743Y-13777203D01*
X17532696Y-13786727D01*
X17618410Y-13901012D02*
X17599362Y-13910536D01*
X17551743Y-13910536D01*
X17532696Y-13901012D01*
X17523172Y-13881965D01*
X17523172Y-13862917D01*
X17532696Y-13843869D01*
X17551743Y-13834346D01*
X17599362Y-13834346D01*
X17618410Y-13824822D01*
X17685077Y-13777203D02*
X17761267Y-13777203D01*
X17713648Y-13710536D02*
X17713648Y-13881965D01*
X17723172Y-13901012D01*
X17742220Y-13910536D01*
X17761267Y-13910536D01*
X17904124Y-13901012D02*
X17885077Y-13910536D01*
X17846981Y-13910536D01*
X17827934Y-13901012D01*
X17818410Y-13881965D01*
X17818410Y-13805774D01*
X17827934Y-13786727D01*
X17846981Y-13777203D01*
X17885077Y-13777203D01*
X17904124Y-13786727D01*
X17913648Y-13805774D01*
X17913648Y-13824822D01*
X17818410Y-13843869D01*
X18085077Y-13910536D02*
X18085077Y-13710536D01*
X18085077Y-13901012D02*
X18066029Y-13910536D01*
X18027934Y-13910536D01*
X18008886Y-13901012D01*
X17999362Y-13891488D01*
X17989839Y-13872441D01*
X17989839Y-13815298D01*
X17999362Y-13796250D01*
X18008886Y-13786727D01*
X18027934Y-13777203D01*
X18066029Y-13777203D01*
X18085077Y-13786727D01*
X18161267Y-13986727D02*
X18170791Y-13977203D01*
X18189839Y-13948631D01*
X18199362Y-13929584D01*
X18208886Y-13901012D01*
X18218410Y-13853393D01*
X18218410Y-13815298D01*
X18208886Y-13767679D01*
X18199362Y-13739108D01*
X18189839Y-13720060D01*
X18170791Y-13691488D01*
X18161267Y-13681965D01*
M02*
