%TF.GenerationSoftware,KiCad,Pcbnew,(6.0.10-0)*%
%TF.CreationDate,2023-01-08T15:57:32+01:00*%
%TF.ProjectId,Leonardo_Rev3d,4c656f6e-6172-4646-9f5f-52657633642e,3d*%
%TF.SameCoordinates,Original*%
%TF.FileFunction,Drillmap*%
%TF.FilePolarity,Positive*%
%FSLAX45Y45*%
G04 Gerber Fmt 4.5, Leading zero omitted, Abs format (unit mm)*
G04 Created by KiCad (PCBNEW (6.0.10-0)) date 2023-01-08 15:57:32*
%MOMM*%
%LPD*%
G01*
G04 APERTURE LIST*
%ADD10C,0.254000*%
%ADD11C,0.200000*%
%ADD12C,0.040000*%
%ADD13C,0.050000*%
%ADD14C,0.060000*%
%ADD15C,0.076200*%
%ADD16C,0.085000*%
%ADD17C,0.095000*%
%ADD18C,0.130000*%
G04 APERTURE END LIST*
D10*
X18025110Y-12913360D02*
X18025110Y-13067360D01*
X18025110Y-9128760D02*
X18279110Y-9382760D01*
X11421110Y-13067360D02*
X11421110Y-7933360D01*
X17872710Y-7833360D02*
X18025110Y-7985760D01*
X18279110Y-9382760D02*
X18279110Y-12659360D01*
X11421110Y-13067360D02*
G75*
G03*
X11521110Y-13167360I100000J0D01*
G01*
X18025110Y-7985760D02*
X18025110Y-9128760D01*
X11521110Y-7833360D02*
X17872710Y-7833360D01*
X17925110Y-13167360D02*
X11521110Y-13167360D01*
X11521110Y-7833360D02*
G75*
G03*
X11421110Y-7933360I0J-100000D01*
G01*
X17925110Y-13167360D02*
G75*
G03*
X18025110Y-13067360I0J100000D01*
G01*
X18279110Y-12659360D02*
X18025110Y-12913360D01*
D11*
D12*
X11712000Y-8850000D02*
X11752000Y-8890000D01*
X11752000Y-8850000D02*
X11712000Y-8890000D01*
X11737000Y-9925000D02*
X11777000Y-9965000D01*
X11777000Y-9925000D02*
X11737000Y-9965000D01*
X12144567Y-9487707D02*
X12184567Y-9527707D01*
X12184567Y-9487707D02*
X12144567Y-9527707D01*
D13*
X11570290Y-8840583D02*
G75*
G03*
X11570290Y-8840583I-25000J0D01*
G01*
X11636610Y-8214360D02*
G75*
G03*
X11636610Y-8214360I-25000J0D01*
G01*
X11636610Y-10119360D02*
G75*
G03*
X11636610Y-10119360I-25000J0D01*
G01*
X11636610Y-10309860D02*
G75*
G03*
X11636610Y-10309860I-25000J0D01*
G01*
X11732000Y-9110000D02*
G75*
G03*
X11732000Y-9110000I-25000J0D01*
G01*
X11746000Y-9599000D02*
G75*
G03*
X11746000Y-9599000I-25000J0D01*
G01*
X11991000Y-9848000D02*
G75*
G03*
X11991000Y-9848000I-25000J0D01*
G01*
X12053000Y-8921000D02*
G75*
G03*
X12053000Y-8921000I-25000J0D01*
G01*
X12186000Y-9355950D02*
G75*
G03*
X12186000Y-9355950I-25000J0D01*
G01*
X12335110Y-11008360D02*
G75*
G03*
X12335110Y-11008360I-25000J0D01*
G01*
X12335110Y-11198360D02*
G75*
G03*
X12335110Y-11198360I-25000J0D01*
G01*
X12335110Y-11643860D02*
G75*
G03*
X12335110Y-11643860I-25000J0D01*
G01*
X12335110Y-11833860D02*
G75*
G03*
X12335110Y-11833860I-25000J0D01*
G01*
X12356110Y-9347360D02*
G75*
G03*
X12356110Y-9347360I-25000J0D01*
G01*
X12398610Y-10246360D02*
G75*
G03*
X12398610Y-10246360I-25000J0D01*
G01*
X12406110Y-9137360D02*
G75*
G03*
X12406110Y-9137360I-25000J0D01*
G01*
X12462110Y-9801860D02*
G75*
G03*
X12462110Y-9801860I-25000J0D01*
G01*
X12525110Y-11643860D02*
G75*
G03*
X12525110Y-11643860I-25000J0D01*
G01*
X12525610Y-11008360D02*
G75*
G03*
X12525610Y-11008360I-25000J0D01*
G01*
X12525610Y-11198360D02*
G75*
G03*
X12525610Y-11198360I-25000J0D01*
G01*
X12525610Y-11833860D02*
G75*
G03*
X12525610Y-11833860I-25000J0D01*
G01*
X12716110Y-11008360D02*
G75*
G03*
X12716110Y-11008360I-25000J0D01*
G01*
X12716110Y-11833860D02*
G75*
G03*
X12716110Y-11833860I-25000J0D01*
G01*
X12906610Y-9357360D02*
G75*
G03*
X12906610Y-9357360I-25000J0D01*
G01*
X12906610Y-9547860D02*
G75*
G03*
X12906610Y-9547860I-25000J0D01*
G01*
X12906610Y-11008360D02*
G75*
G03*
X12906610Y-11008360I-25000J0D01*
G01*
X12906610Y-11833860D02*
G75*
G03*
X12906610Y-11833860I-25000J0D01*
G01*
X13033610Y-11452860D02*
G75*
G03*
X13033610Y-11452860I-25000J0D01*
G01*
X13224110Y-9166860D02*
G75*
G03*
X13224110Y-9166860I-25000J0D01*
G01*
X13224110Y-9954260D02*
G75*
G03*
X13224110Y-9954260I-25000J0D01*
G01*
X13224110Y-10106660D02*
G75*
G03*
X13224110Y-10106660I-25000J0D01*
G01*
X13287610Y-8912860D02*
G75*
G03*
X13287610Y-8912860I-25000J0D01*
G01*
X13355110Y-9484360D02*
G75*
G03*
X13355110Y-9484360I-25000J0D01*
G01*
X13414610Y-11097260D02*
G75*
G03*
X13414610Y-11097260I-25000J0D01*
G01*
X13579710Y-10754360D02*
G75*
G03*
X13579710Y-10754360I-25000J0D01*
G01*
X13605110Y-8912860D02*
G75*
G03*
X13605110Y-8912860I-25000J0D01*
G01*
X13630510Y-9725660D02*
G75*
G03*
X13630510Y-9725660I-25000J0D01*
G01*
X13744810Y-9928860D02*
G75*
G03*
X13744810Y-9928860I-25000J0D01*
G01*
X13795610Y-10754360D02*
G75*
G03*
X13795610Y-10754360I-25000J0D01*
G01*
X13859110Y-12024360D02*
G75*
G03*
X13859110Y-12024360I-25000J0D01*
G01*
X13871810Y-9204960D02*
G75*
G03*
X13871810Y-9204960I-25000J0D01*
G01*
X14036910Y-12913360D02*
G75*
G03*
X14036910Y-12913360I-25000J0D01*
G01*
X14176610Y-11833860D02*
G75*
G03*
X14176610Y-11833860I-25000J0D01*
G01*
X14214710Y-11173460D02*
G75*
G03*
X14214710Y-11173460I-25000J0D01*
G01*
X14240110Y-10119360D02*
G75*
G03*
X14240110Y-10119360I-25000J0D01*
G01*
X14265510Y-9928860D02*
G75*
G03*
X14265510Y-9928860I-25000J0D01*
G01*
X14367110Y-10477110D02*
G75*
G03*
X14367110Y-10477110I-25000J0D01*
G01*
X14367110Y-11706860D02*
G75*
G03*
X14367110Y-11706860I-25000J0D01*
G01*
X14443310Y-11859260D02*
G75*
G03*
X14443310Y-11859260I-25000J0D01*
G01*
X14494110Y-9992360D02*
G75*
G03*
X14494110Y-9992360I-25000J0D01*
G01*
X14557610Y-10500360D02*
G75*
G03*
X14557610Y-10500360I-25000J0D01*
G01*
X14710010Y-10932160D02*
G75*
G03*
X14710010Y-10932160I-25000J0D01*
G01*
X14748110Y-9992360D02*
G75*
G03*
X14748110Y-9992360I-25000J0D01*
G01*
X14748110Y-10411890D02*
G75*
G03*
X14748110Y-10411890I-25000J0D01*
G01*
X14748110Y-12024360D02*
G75*
G03*
X14748110Y-12024360I-25000J0D01*
G01*
X14875110Y-10500360D02*
G75*
G03*
X14875110Y-10500360I-25000J0D01*
G01*
X15002110Y-10438890D02*
G75*
G03*
X15002110Y-10438890I-25000J0D01*
G01*
X15129110Y-10500360D02*
G75*
G03*
X15129110Y-10500360I-25000J0D01*
G01*
X15192610Y-11452860D02*
G75*
G03*
X15192610Y-11452860I-25000J0D01*
G01*
X15256110Y-10373360D02*
G75*
G03*
X15256110Y-10373360I-25000J0D01*
G01*
X15319610Y-10627360D02*
G75*
G03*
X15319610Y-10627360I-25000J0D01*
G01*
X15497410Y-10881360D02*
G75*
G03*
X15497410Y-10881360I-25000J0D01*
G01*
X15510110Y-10373360D02*
G75*
G03*
X15510110Y-10373360I-25000J0D01*
G01*
X15624410Y-10792460D02*
G75*
G03*
X15624410Y-10792460I-25000J0D01*
G01*
X15624410Y-12037060D02*
G75*
G03*
X15624410Y-12037060I-25000J0D01*
G01*
X15637110Y-9865360D02*
G75*
G03*
X15637110Y-9865360I-25000J0D01*
G01*
X15637110Y-10119360D02*
G75*
G03*
X15637110Y-10119360I-25000J0D01*
G01*
X15637110Y-12214860D02*
G75*
G03*
X15637110Y-12214860I-25000J0D01*
G01*
X15637110Y-12405360D02*
G75*
G03*
X15637110Y-12405360I-25000J0D01*
G01*
X15700610Y-10563860D02*
G75*
G03*
X15700610Y-10563860I-25000J0D01*
G01*
X15814910Y-8087360D02*
G75*
G03*
X15814910Y-8087360I-25000J0D01*
G01*
X15827610Y-10373360D02*
G75*
G03*
X15827610Y-10373360I-25000J0D01*
G01*
X16272110Y-12913360D02*
G75*
G03*
X16272110Y-12913360I-25000J0D01*
G01*
X16335610Y-11706860D02*
G75*
G03*
X16335610Y-11706860I-25000J0D01*
G01*
X16485470Y-11897360D02*
G75*
G03*
X16485470Y-11897360I-25000J0D01*
G01*
X16653110Y-10944860D02*
G75*
G03*
X16653110Y-10944860I-25000J0D01*
G01*
X16843610Y-11994360D02*
G75*
G03*
X16843610Y-11994360I-25000J0D01*
G01*
X16856310Y-10716260D02*
G75*
G03*
X16856310Y-10716260I-25000J0D01*
G01*
X16970610Y-10182860D02*
G75*
G03*
X16970610Y-10182860I-25000J0D01*
G01*
X17034110Y-11008360D02*
G75*
G03*
X17034110Y-11008360I-25000J0D01*
G01*
X17034110Y-12214860D02*
G75*
G03*
X17034110Y-12214860I-25000J0D01*
G01*
X17097610Y-10716260D02*
G75*
G03*
X17097610Y-10716260I-25000J0D01*
G01*
X17161110Y-11988800D02*
G75*
G03*
X17161110Y-11988800I-25000J0D01*
G01*
X17351610Y-11198860D02*
G75*
G03*
X17351610Y-11198860I-25000J0D01*
G01*
X17351610Y-11516360D02*
G75*
G03*
X17351610Y-11516360I-25000J0D01*
G01*
X17351610Y-11681460D02*
G75*
G03*
X17351610Y-11681460I-25000J0D01*
G01*
X17351610Y-11833860D02*
G75*
G03*
X17351610Y-11833860I-25000J0D01*
G01*
X17455750Y-11953240D02*
G75*
G03*
X17455750Y-11953240I-25000J0D01*
G01*
X17529410Y-12087860D02*
G75*
G03*
X17529410Y-12087860I-25000J0D01*
G01*
X17529410Y-12240260D02*
G75*
G03*
X17529410Y-12240260I-25000J0D01*
G01*
X17669110Y-12532360D02*
G75*
G03*
X17669110Y-12532360I-25000J0D01*
G01*
X17796110Y-11325860D02*
G75*
G03*
X17796110Y-11325860I-25000J0D01*
G01*
X17796110Y-11833860D02*
G75*
G03*
X17796110Y-11833860I-25000J0D01*
G01*
X17923110Y-9103360D02*
G75*
G03*
X17923110Y-9103360I-25000J0D01*
G01*
X18050110Y-11325860D02*
G75*
G03*
X18050110Y-11325860I-25000J0D01*
G01*
X18050110Y-11833860D02*
G75*
G03*
X18050110Y-11833860I-25000J0D01*
G01*
D14*
X11594760Y-8978000D02*
X11594760Y-9038000D01*
X11564760Y-9008000D02*
X11624760Y-9008000D01*
D11*
X11565060Y-9038000D02*
X11624460Y-9038000D01*
X11565060Y-8978000D02*
X11624460Y-8978000D01*
X11624460Y-9038000D02*
G75*
G03*
X11624460Y-8978000I0J30000D01*
G01*
X11565060Y-8978000D02*
G75*
G03*
X11565060Y-9038000I0J-30000D01*
G01*
D14*
X11594760Y-9678000D02*
X11594760Y-9738000D01*
X11564760Y-9708000D02*
X11624760Y-9708000D01*
D11*
X11565060Y-9738000D02*
X11624460Y-9738000D01*
X11565060Y-9678000D02*
X11624460Y-9678000D01*
X11624460Y-9738000D02*
G75*
G03*
X11624460Y-9678000I0J30000D01*
G01*
X11565060Y-9678000D02*
G75*
G03*
X11565060Y-9738000I0J-30000D01*
G01*
D14*
X11862260Y-9078000D02*
X11862260Y-9138000D01*
X11832260Y-9108000D02*
X11892260Y-9108000D01*
D11*
X11832260Y-9093000D02*
X11832260Y-9123000D01*
X11892260Y-9093000D02*
X11892260Y-9123000D01*
X11832260Y-9123000D02*
G75*
G03*
X11892260Y-9123000I30000J0D01*
G01*
X11892260Y-9093000D02*
G75*
G03*
X11832260Y-9093000I-30000J0D01*
G01*
D14*
X11862260Y-9578000D02*
X11862260Y-9638000D01*
X11832260Y-9608000D02*
X11892260Y-9608000D01*
D11*
X11832260Y-9593000D02*
X11832260Y-9623000D01*
X11892260Y-9593000D02*
X11892260Y-9623000D01*
X11832260Y-9623000D02*
G75*
G03*
X11892260Y-9623000I30000J0D01*
G01*
X11892260Y-9593000D02*
G75*
G03*
X11832260Y-9593000I-30000J0D01*
G01*
D15*
X11873941Y-8707941D02*
X11873941Y-8654059D01*
X11820059Y-8654059D01*
X11820059Y-8707941D01*
X11873941Y-8707941D01*
X12127941Y-8707941D02*
X12127941Y-8654059D01*
X12074059Y-8654059D01*
X12074059Y-8707941D01*
X12127941Y-8707941D01*
D16*
X13300710Y-8129860D02*
X13343210Y-8087360D01*
X13300710Y-8044860D01*
X13258210Y-8087360D01*
X13300710Y-8129860D01*
X13554710Y-8129860D02*
X13597210Y-8087360D01*
X13554710Y-8044860D01*
X13512210Y-8087360D01*
X13554710Y-8129860D01*
X13808710Y-8129860D02*
X13851210Y-8087360D01*
X13808710Y-8044860D01*
X13766210Y-8087360D01*
X13808710Y-8129860D01*
X14062710Y-8129860D02*
X14105210Y-8087360D01*
X14062710Y-8044860D01*
X14020210Y-8087360D01*
X14062710Y-8129860D01*
X14215110Y-12955860D02*
X14257610Y-12913360D01*
X14215110Y-12870860D01*
X14172610Y-12913360D01*
X14215110Y-12955860D01*
X14316710Y-8129860D02*
X14359210Y-8087360D01*
X14316710Y-8044860D01*
X14274210Y-8087360D01*
X14316710Y-8129860D01*
X14469110Y-12955860D02*
X14511610Y-12913360D01*
X14469110Y-12870860D01*
X14426610Y-12913360D01*
X14469110Y-12955860D01*
X14570710Y-8129860D02*
X14613210Y-8087360D01*
X14570710Y-8044860D01*
X14528210Y-8087360D01*
X14570710Y-8129860D01*
X14723110Y-12955860D02*
X14765610Y-12913360D01*
X14723110Y-12870860D01*
X14680610Y-12913360D01*
X14723110Y-12955860D01*
X14824710Y-8129860D02*
X14867210Y-8087360D01*
X14824710Y-8044860D01*
X14782210Y-8087360D01*
X14824710Y-8129860D01*
X14977110Y-12955860D02*
X15019610Y-12913360D01*
X14977110Y-12870860D01*
X14934610Y-12913360D01*
X14977110Y-12955860D01*
X15078710Y-8129860D02*
X15121210Y-8087360D01*
X15078710Y-8044860D01*
X15036210Y-8087360D01*
X15078710Y-8129860D01*
X15231110Y-12955860D02*
X15273610Y-12913360D01*
X15231110Y-12870860D01*
X15188610Y-12913360D01*
X15231110Y-12955860D01*
X15332710Y-8129860D02*
X15375210Y-8087360D01*
X15332710Y-8044860D01*
X15290210Y-8087360D01*
X15332710Y-8129860D01*
X15485110Y-12955860D02*
X15527610Y-12913360D01*
X15485110Y-12870860D01*
X15442610Y-12913360D01*
X15485110Y-12955860D01*
X15586710Y-8129860D02*
X15629210Y-8087360D01*
X15586710Y-8044860D01*
X15544210Y-8087360D01*
X15586710Y-8129860D01*
X15739110Y-12955860D02*
X15781610Y-12913360D01*
X15739110Y-12870860D01*
X15696610Y-12913360D01*
X15739110Y-12955860D01*
X15993110Y-8129860D02*
X16035610Y-8087360D01*
X15993110Y-8044860D01*
X15950610Y-8087360D01*
X15993110Y-8129860D01*
X15993110Y-12955860D02*
X16035610Y-12913360D01*
X15993110Y-12870860D01*
X15950610Y-12913360D01*
X15993110Y-12955860D01*
X16247110Y-8129860D02*
X16289610Y-8087360D01*
X16247110Y-8044860D01*
X16204610Y-8087360D01*
X16247110Y-8129860D01*
X16501110Y-8129860D02*
X16543610Y-8087360D01*
X16501110Y-8044860D01*
X16458610Y-8087360D01*
X16501110Y-8129860D01*
X16501110Y-12955860D02*
X16543610Y-12913360D01*
X16501110Y-12870860D01*
X16458610Y-12913360D01*
X16501110Y-12955860D01*
X16755110Y-8129860D02*
X16797610Y-8087360D01*
X16755110Y-8044860D01*
X16712610Y-8087360D01*
X16755110Y-8129860D01*
X16755110Y-12955860D02*
X16797610Y-12913360D01*
X16755110Y-12870860D01*
X16712610Y-12913360D01*
X16755110Y-12955860D01*
X17009110Y-8129860D02*
X17051610Y-8087360D01*
X17009110Y-8044860D01*
X16966610Y-8087360D01*
X17009110Y-8129860D01*
X17009110Y-12955860D02*
X17051610Y-12913360D01*
X17009110Y-12870860D01*
X16966610Y-12913360D01*
X17009110Y-12955860D01*
X17263110Y-8129860D02*
X17305610Y-8087360D01*
X17263110Y-8044860D01*
X17220610Y-8087360D01*
X17263110Y-8129860D01*
X17263110Y-12955860D02*
X17305610Y-12913360D01*
X17263110Y-12870860D01*
X17220610Y-12913360D01*
X17263110Y-12955860D01*
X17517110Y-8129860D02*
X17559610Y-8087360D01*
X17517110Y-8044860D01*
X17474610Y-8087360D01*
X17517110Y-8129860D01*
X17517110Y-12955860D02*
X17559610Y-12913360D01*
X17517110Y-12870860D01*
X17474610Y-12913360D01*
X17517110Y-12955860D01*
X17771110Y-8129860D02*
X17813610Y-8087360D01*
X17771110Y-8044860D01*
X17728610Y-8087360D01*
X17771110Y-8129860D01*
X17771110Y-12955860D02*
X17813610Y-12913360D01*
X17771110Y-12870860D01*
X17728610Y-12913360D01*
X17771110Y-12955860D01*
D17*
X17736310Y-10071860D02*
X17831310Y-10166860D01*
X17831310Y-10071860D02*
X17736310Y-10166860D01*
X17831310Y-10119360D02*
G75*
G03*
X17831310Y-10119360I-47500J0D01*
G01*
X17736310Y-10325860D02*
X17831310Y-10420860D01*
X17831310Y-10325860D02*
X17736310Y-10420860D01*
X17831310Y-10373360D02*
G75*
G03*
X17831310Y-10373360I-47500J0D01*
G01*
X17736310Y-10579860D02*
X17831310Y-10674860D01*
X17831310Y-10579860D02*
X17736310Y-10674860D01*
X17831310Y-10627360D02*
G75*
G03*
X17831310Y-10627360I-47500J0D01*
G01*
X17990310Y-10071860D02*
X18085310Y-10166860D01*
X18085310Y-10071860D02*
X17990310Y-10166860D01*
X18085310Y-10119360D02*
G75*
G03*
X18085310Y-10119360I-47500J0D01*
G01*
X17990310Y-10325860D02*
X18085310Y-10420860D01*
X18085310Y-10325860D02*
X17990310Y-10420860D01*
X18085310Y-10373360D02*
G75*
G03*
X18085310Y-10373360I-47500J0D01*
G01*
X17990310Y-10579860D02*
X18085310Y-10674860D01*
X18085310Y-10579860D02*
X17990310Y-10674860D01*
X18085310Y-10627360D02*
G75*
G03*
X18085310Y-10627360I-47500J0D01*
G01*
D18*
X11925070Y-12271780D02*
X12055070Y-12401780D01*
X12055070Y-12271780D02*
X11925070Y-12401780D01*
X11990070Y-12271780D02*
X11990070Y-12401780D01*
X11925070Y-12336780D02*
X12055070Y-12336780D01*
D11*
X12055070Y-12413280D02*
X12055070Y-12260280D01*
X11925070Y-12413280D02*
X11925070Y-12260280D01*
X12055070Y-12260280D02*
G75*
G03*
X11925070Y-12260280I-65000J0D01*
G01*
X11925070Y-12413280D02*
G75*
G03*
X12055070Y-12413280I65000J0D01*
G01*
D18*
X12224790Y-12772160D02*
X12354790Y-12902160D01*
X12354790Y-12772160D02*
X12224790Y-12902160D01*
X12289790Y-12772160D02*
X12289790Y-12902160D01*
X12224790Y-12837160D02*
X12354790Y-12837160D01*
D11*
X12213290Y-12902160D02*
X12366290Y-12902160D01*
X12213290Y-12772160D02*
X12366290Y-12772160D01*
X12366290Y-12902160D02*
G75*
G03*
X12366290Y-12772160I0J65000D01*
G01*
X12213290Y-12772160D02*
G75*
G03*
X12213290Y-12902160I0J-65000D01*
G01*
D18*
X12524510Y-12271780D02*
X12654510Y-12401780D01*
X12654510Y-12271780D02*
X12524510Y-12401780D01*
X12589510Y-12271780D02*
X12589510Y-12401780D01*
X12524510Y-12336780D02*
X12654510Y-12336780D01*
D11*
X12654510Y-12413280D02*
X12654510Y-12260280D01*
X12524510Y-12413280D02*
X12524510Y-12260280D01*
X12654510Y-12260280D02*
G75*
G03*
X12524510Y-12260280I-65000J0D01*
G01*
X12524510Y-12413280D02*
G75*
G03*
X12654510Y-12413280I65000J0D01*
G01*
X11666029Y-13490536D02*
X11666029Y-13290536D01*
X11713648Y-13290536D01*
X11742219Y-13300060D01*
X11761267Y-13319108D01*
X11770791Y-13338155D01*
X11780315Y-13376250D01*
X11780315Y-13404822D01*
X11770791Y-13442917D01*
X11761267Y-13461965D01*
X11742219Y-13481012D01*
X11713648Y-13490536D01*
X11666029Y-13490536D01*
X11866029Y-13490536D02*
X11866029Y-13357203D01*
X11866029Y-13395298D02*
X11875553Y-13376250D01*
X11885077Y-13366727D01*
X11904124Y-13357203D01*
X11923172Y-13357203D01*
X11989838Y-13490536D02*
X11989838Y-13357203D01*
X11989838Y-13290536D02*
X11980315Y-13300060D01*
X11989838Y-13309584D01*
X11999362Y-13300060D01*
X11989838Y-13290536D01*
X11989838Y-13309584D01*
X12113648Y-13490536D02*
X12094600Y-13481012D01*
X12085077Y-13461965D01*
X12085077Y-13290536D01*
X12218410Y-13490536D02*
X12199362Y-13481012D01*
X12189838Y-13461965D01*
X12189838Y-13290536D01*
X12446981Y-13490536D02*
X12446981Y-13290536D01*
X12513648Y-13433393D01*
X12580315Y-13290536D01*
X12580315Y-13490536D01*
X12761267Y-13490536D02*
X12761267Y-13385774D01*
X12751743Y-13366727D01*
X12732696Y-13357203D01*
X12694600Y-13357203D01*
X12675553Y-13366727D01*
X12761267Y-13481012D02*
X12742219Y-13490536D01*
X12694600Y-13490536D01*
X12675553Y-13481012D01*
X12666029Y-13461965D01*
X12666029Y-13442917D01*
X12675553Y-13423869D01*
X12694600Y-13414346D01*
X12742219Y-13414346D01*
X12761267Y-13404822D01*
X12856505Y-13357203D02*
X12856505Y-13557203D01*
X12856505Y-13366727D02*
X12875553Y-13357203D01*
X12913648Y-13357203D01*
X12932696Y-13366727D01*
X12942219Y-13376250D01*
X12951743Y-13395298D01*
X12951743Y-13452441D01*
X12942219Y-13471488D01*
X12932696Y-13481012D01*
X12913648Y-13490536D01*
X12875553Y-13490536D01*
X12856505Y-13481012D01*
X13037458Y-13471488D02*
X13046981Y-13481012D01*
X13037458Y-13490536D01*
X13027934Y-13481012D01*
X13037458Y-13471488D01*
X13037458Y-13490536D01*
X13037458Y-13366727D02*
X13046981Y-13376250D01*
X13037458Y-13385774D01*
X13027934Y-13376250D01*
X13037458Y-13366727D01*
X13037458Y-13385774D01*
D12*
X11368410Y-13800060D02*
X11408410Y-13840060D01*
X11408410Y-13800060D02*
X11368410Y-13840060D01*
D11*
X11704124Y-13710536D02*
X11723172Y-13710536D01*
X11742219Y-13720060D01*
X11751743Y-13729584D01*
X11761267Y-13748631D01*
X11770791Y-13786727D01*
X11770791Y-13834346D01*
X11761267Y-13872441D01*
X11751743Y-13891488D01*
X11742219Y-13901012D01*
X11723172Y-13910536D01*
X11704124Y-13910536D01*
X11685077Y-13901012D01*
X11675553Y-13891488D01*
X11666029Y-13872441D01*
X11656505Y-13834346D01*
X11656505Y-13786727D01*
X11666029Y-13748631D01*
X11675553Y-13729584D01*
X11685077Y-13720060D01*
X11704124Y-13710536D01*
X11856505Y-13891488D02*
X11866029Y-13901012D01*
X11856505Y-13910536D01*
X11846981Y-13901012D01*
X11856505Y-13891488D01*
X11856505Y-13910536D01*
X12037458Y-13777203D02*
X12037458Y-13910536D01*
X11989838Y-13701012D02*
X11942219Y-13843869D01*
X12066029Y-13843869D01*
X12180315Y-13710536D02*
X12199362Y-13710536D01*
X12218410Y-13720060D01*
X12227934Y-13729584D01*
X12237458Y-13748631D01*
X12246981Y-13786727D01*
X12246981Y-13834346D01*
X12237458Y-13872441D01*
X12227934Y-13891488D01*
X12218410Y-13901012D01*
X12199362Y-13910536D01*
X12180315Y-13910536D01*
X12161267Y-13901012D01*
X12151743Y-13891488D01*
X12142219Y-13872441D01*
X12132696Y-13834346D01*
X12132696Y-13786727D01*
X12142219Y-13748631D01*
X12151743Y-13729584D01*
X12161267Y-13720060D01*
X12180315Y-13710536D01*
X12370791Y-13710536D02*
X12389838Y-13710536D01*
X12408886Y-13720060D01*
X12418410Y-13729584D01*
X12427934Y-13748631D01*
X12437458Y-13786727D01*
X12437458Y-13834346D01*
X12427934Y-13872441D01*
X12418410Y-13891488D01*
X12408886Y-13901012D01*
X12389838Y-13910536D01*
X12370791Y-13910536D01*
X12351743Y-13901012D01*
X12342219Y-13891488D01*
X12332696Y-13872441D01*
X12323172Y-13834346D01*
X12323172Y-13786727D01*
X12332696Y-13748631D01*
X12342219Y-13729584D01*
X12351743Y-13720060D01*
X12370791Y-13710536D01*
X12523172Y-13910536D02*
X12523172Y-13777203D01*
X12523172Y-13796250D02*
X12532696Y-13786727D01*
X12551743Y-13777203D01*
X12580315Y-13777203D01*
X12599362Y-13786727D01*
X12608886Y-13805774D01*
X12608886Y-13910536D01*
X12608886Y-13805774D02*
X12618410Y-13786727D01*
X12637458Y-13777203D01*
X12666029Y-13777203D01*
X12685077Y-13786727D01*
X12694600Y-13805774D01*
X12694600Y-13910536D01*
X12789838Y-13910536D02*
X12789838Y-13777203D01*
X12789838Y-13796250D02*
X12799362Y-13786727D01*
X12818410Y-13777203D01*
X12846981Y-13777203D01*
X12866029Y-13786727D01*
X12875553Y-13805774D01*
X12875553Y-13910536D01*
X12875553Y-13805774D02*
X12885077Y-13786727D01*
X12904124Y-13777203D01*
X12932696Y-13777203D01*
X12951743Y-13786727D01*
X12961267Y-13805774D01*
X12961267Y-13910536D01*
X13351743Y-13701012D02*
X13180315Y-13958155D01*
X13608886Y-13710536D02*
X13627934Y-13710536D01*
X13646981Y-13720060D01*
X13656505Y-13729584D01*
X13666029Y-13748631D01*
X13675553Y-13786727D01*
X13675553Y-13834346D01*
X13666029Y-13872441D01*
X13656505Y-13891488D01*
X13646981Y-13901012D01*
X13627934Y-13910536D01*
X13608886Y-13910536D01*
X13589838Y-13901012D01*
X13580315Y-13891488D01*
X13570791Y-13872441D01*
X13561267Y-13834346D01*
X13561267Y-13786727D01*
X13570791Y-13748631D01*
X13580315Y-13729584D01*
X13589838Y-13720060D01*
X13608886Y-13710536D01*
X13761267Y-13891488D02*
X13770791Y-13901012D01*
X13761267Y-13910536D01*
X13751743Y-13901012D01*
X13761267Y-13891488D01*
X13761267Y-13910536D01*
X13894600Y-13710536D02*
X13913648Y-13710536D01*
X13932696Y-13720060D01*
X13942219Y-13729584D01*
X13951743Y-13748631D01*
X13961267Y-13786727D01*
X13961267Y-13834346D01*
X13951743Y-13872441D01*
X13942219Y-13891488D01*
X13932696Y-13901012D01*
X13913648Y-13910536D01*
X13894600Y-13910536D01*
X13875553Y-13901012D01*
X13866029Y-13891488D01*
X13856505Y-13872441D01*
X13846981Y-13834346D01*
X13846981Y-13786727D01*
X13856505Y-13748631D01*
X13866029Y-13729584D01*
X13875553Y-13720060D01*
X13894600Y-13710536D01*
X14151743Y-13910536D02*
X14037458Y-13910536D01*
X14094600Y-13910536D02*
X14094600Y-13710536D01*
X14075553Y-13739108D01*
X14056505Y-13758155D01*
X14037458Y-13767679D01*
X14332696Y-13710536D02*
X14237458Y-13710536D01*
X14227934Y-13805774D01*
X14237458Y-13796250D01*
X14256505Y-13786727D01*
X14304124Y-13786727D01*
X14323172Y-13796250D01*
X14332696Y-13805774D01*
X14342219Y-13824822D01*
X14342219Y-13872441D01*
X14332696Y-13891488D01*
X14323172Y-13901012D01*
X14304124Y-13910536D01*
X14256505Y-13910536D01*
X14237458Y-13901012D01*
X14227934Y-13891488D01*
X14408886Y-13710536D02*
X14542219Y-13710536D01*
X14456505Y-13910536D01*
X14608886Y-13710536D02*
X14608886Y-13748631D01*
X14685077Y-13710536D02*
X14685077Y-13748631D01*
X14980315Y-13986727D02*
X14970791Y-13977203D01*
X14951743Y-13948631D01*
X14942219Y-13929584D01*
X14932696Y-13901012D01*
X14923172Y-13853393D01*
X14923172Y-13815298D01*
X14932696Y-13767679D01*
X14942219Y-13739108D01*
X14951743Y-13720060D01*
X14970791Y-13691488D01*
X14980315Y-13681965D01*
X15037458Y-13710536D02*
X15161267Y-13710536D01*
X15094600Y-13786727D01*
X15123172Y-13786727D01*
X15142219Y-13796250D01*
X15151743Y-13805774D01*
X15161267Y-13824822D01*
X15161267Y-13872441D01*
X15151743Y-13891488D01*
X15142219Y-13901012D01*
X15123172Y-13910536D01*
X15066029Y-13910536D01*
X15046981Y-13901012D01*
X15037458Y-13891488D01*
X15399362Y-13910536D02*
X15399362Y-13710536D01*
X15485077Y-13910536D02*
X15485077Y-13805774D01*
X15475553Y-13786727D01*
X15456505Y-13777203D01*
X15427934Y-13777203D01*
X15408886Y-13786727D01*
X15399362Y-13796250D01*
X15608886Y-13910536D02*
X15589838Y-13901012D01*
X15580315Y-13891488D01*
X15570791Y-13872441D01*
X15570791Y-13815298D01*
X15580315Y-13796250D01*
X15589838Y-13786727D01*
X15608886Y-13777203D01*
X15637458Y-13777203D01*
X15656505Y-13786727D01*
X15666029Y-13796250D01*
X15675553Y-13815298D01*
X15675553Y-13872441D01*
X15666029Y-13891488D01*
X15656505Y-13901012D01*
X15637458Y-13910536D01*
X15608886Y-13910536D01*
X15789838Y-13910536D02*
X15770791Y-13901012D01*
X15761267Y-13881965D01*
X15761267Y-13710536D01*
X15942219Y-13901012D02*
X15923172Y-13910536D01*
X15885077Y-13910536D01*
X15866029Y-13901012D01*
X15856505Y-13881965D01*
X15856505Y-13805774D01*
X15866029Y-13786727D01*
X15885077Y-13777203D01*
X15923172Y-13777203D01*
X15942219Y-13786727D01*
X15951743Y-13805774D01*
X15951743Y-13824822D01*
X15856505Y-13843869D01*
X16027934Y-13901012D02*
X16046981Y-13910536D01*
X16085077Y-13910536D01*
X16104124Y-13901012D01*
X16113648Y-13881965D01*
X16113648Y-13872441D01*
X16104124Y-13853393D01*
X16085077Y-13843869D01*
X16056505Y-13843869D01*
X16037458Y-13834346D01*
X16027934Y-13815298D01*
X16027934Y-13805774D01*
X16037458Y-13786727D01*
X16056505Y-13777203D01*
X16085077Y-13777203D01*
X16104124Y-13786727D01*
X16180315Y-13986727D02*
X16189838Y-13977203D01*
X16208886Y-13948631D01*
X16218410Y-13929584D01*
X16227934Y-13901012D01*
X16237458Y-13853393D01*
X16237458Y-13815298D01*
X16227934Y-13767679D01*
X16218410Y-13739108D01*
X16208886Y-13720060D01*
X16189838Y-13691488D01*
X16180315Y-13681965D01*
D13*
X11408410Y-14084060D02*
G75*
G03*
X11408410Y-14084060I-25000J0D01*
G01*
D11*
X11704124Y-13974536D02*
X11723172Y-13974536D01*
X11742219Y-13984060D01*
X11751743Y-13993584D01*
X11761267Y-14012631D01*
X11770791Y-14050727D01*
X11770791Y-14098346D01*
X11761267Y-14136441D01*
X11751743Y-14155488D01*
X11742219Y-14165012D01*
X11723172Y-14174536D01*
X11704124Y-14174536D01*
X11685077Y-14165012D01*
X11675553Y-14155488D01*
X11666029Y-14136441D01*
X11656505Y-14098346D01*
X11656505Y-14050727D01*
X11666029Y-14012631D01*
X11675553Y-13993584D01*
X11685077Y-13984060D01*
X11704124Y-13974536D01*
X11856505Y-14155488D02*
X11866029Y-14165012D01*
X11856505Y-14174536D01*
X11846981Y-14165012D01*
X11856505Y-14155488D01*
X11856505Y-14174536D01*
X12046981Y-13974536D02*
X11951743Y-13974536D01*
X11942219Y-14069774D01*
X11951743Y-14060250D01*
X11970791Y-14050727D01*
X12018410Y-14050727D01*
X12037458Y-14060250D01*
X12046981Y-14069774D01*
X12056505Y-14088822D01*
X12056505Y-14136441D01*
X12046981Y-14155488D01*
X12037458Y-14165012D01*
X12018410Y-14174536D01*
X11970791Y-14174536D01*
X11951743Y-14165012D01*
X11942219Y-14155488D01*
X12180315Y-13974536D02*
X12199362Y-13974536D01*
X12218410Y-13984060D01*
X12227934Y-13993584D01*
X12237458Y-14012631D01*
X12246981Y-14050727D01*
X12246981Y-14098346D01*
X12237458Y-14136441D01*
X12227934Y-14155488D01*
X12218410Y-14165012D01*
X12199362Y-14174536D01*
X12180315Y-14174536D01*
X12161267Y-14165012D01*
X12151743Y-14155488D01*
X12142219Y-14136441D01*
X12132696Y-14098346D01*
X12132696Y-14050727D01*
X12142219Y-14012631D01*
X12151743Y-13993584D01*
X12161267Y-13984060D01*
X12180315Y-13974536D01*
X12370791Y-13974536D02*
X12389838Y-13974536D01*
X12408886Y-13984060D01*
X12418410Y-13993584D01*
X12427934Y-14012631D01*
X12437458Y-14050727D01*
X12437458Y-14098346D01*
X12427934Y-14136441D01*
X12418410Y-14155488D01*
X12408886Y-14165012D01*
X12389838Y-14174536D01*
X12370791Y-14174536D01*
X12351743Y-14165012D01*
X12342219Y-14155488D01*
X12332696Y-14136441D01*
X12323172Y-14098346D01*
X12323172Y-14050727D01*
X12332696Y-14012631D01*
X12342219Y-13993584D01*
X12351743Y-13984060D01*
X12370791Y-13974536D01*
X12523172Y-14174536D02*
X12523172Y-14041203D01*
X12523172Y-14060250D02*
X12532696Y-14050727D01*
X12551743Y-14041203D01*
X12580315Y-14041203D01*
X12599362Y-14050727D01*
X12608886Y-14069774D01*
X12608886Y-14174536D01*
X12608886Y-14069774D02*
X12618410Y-14050727D01*
X12637458Y-14041203D01*
X12666029Y-14041203D01*
X12685077Y-14050727D01*
X12694600Y-14069774D01*
X12694600Y-14174536D01*
X12789838Y-14174536D02*
X12789838Y-14041203D01*
X12789838Y-14060250D02*
X12799362Y-14050727D01*
X12818410Y-14041203D01*
X12846981Y-14041203D01*
X12866029Y-14050727D01*
X12875553Y-14069774D01*
X12875553Y-14174536D01*
X12875553Y-14069774D02*
X12885077Y-14050727D01*
X12904124Y-14041203D01*
X12932696Y-14041203D01*
X12951743Y-14050727D01*
X12961267Y-14069774D01*
X12961267Y-14174536D01*
X13351743Y-13965012D02*
X13180315Y-14222155D01*
X13608886Y-13974536D02*
X13627934Y-13974536D01*
X13646981Y-13984060D01*
X13656505Y-13993584D01*
X13666029Y-14012631D01*
X13675553Y-14050727D01*
X13675553Y-14098346D01*
X13666029Y-14136441D01*
X13656505Y-14155488D01*
X13646981Y-14165012D01*
X13627934Y-14174536D01*
X13608886Y-14174536D01*
X13589838Y-14165012D01*
X13580315Y-14155488D01*
X13570791Y-14136441D01*
X13561267Y-14098346D01*
X13561267Y-14050727D01*
X13570791Y-14012631D01*
X13580315Y-13993584D01*
X13589838Y-13984060D01*
X13608886Y-13974536D01*
X13761267Y-14155488D02*
X13770791Y-14165012D01*
X13761267Y-14174536D01*
X13751743Y-14165012D01*
X13761267Y-14155488D01*
X13761267Y-14174536D01*
X13894600Y-13974536D02*
X13913648Y-13974536D01*
X13932696Y-13984060D01*
X13942219Y-13993584D01*
X13951743Y-14012631D01*
X13961267Y-14050727D01*
X13961267Y-14098346D01*
X13951743Y-14136441D01*
X13942219Y-14155488D01*
X13932696Y-14165012D01*
X13913648Y-14174536D01*
X13894600Y-14174536D01*
X13875553Y-14165012D01*
X13866029Y-14155488D01*
X13856505Y-14136441D01*
X13846981Y-14098346D01*
X13846981Y-14050727D01*
X13856505Y-14012631D01*
X13866029Y-13993584D01*
X13875553Y-13984060D01*
X13894600Y-13974536D01*
X14151743Y-14174536D02*
X14037458Y-14174536D01*
X14094600Y-14174536D02*
X14094600Y-13974536D01*
X14075553Y-14003108D01*
X14056505Y-14022155D01*
X14037458Y-14031679D01*
X14246981Y-14174536D02*
X14285077Y-14174536D01*
X14304124Y-14165012D01*
X14313648Y-14155488D01*
X14332696Y-14126917D01*
X14342219Y-14088822D01*
X14342219Y-14012631D01*
X14332696Y-13993584D01*
X14323172Y-13984060D01*
X14304124Y-13974536D01*
X14266029Y-13974536D01*
X14246981Y-13984060D01*
X14237458Y-13993584D01*
X14227934Y-14012631D01*
X14227934Y-14060250D01*
X14237458Y-14079298D01*
X14246981Y-14088822D01*
X14266029Y-14098346D01*
X14304124Y-14098346D01*
X14323172Y-14088822D01*
X14332696Y-14079298D01*
X14342219Y-14060250D01*
X14408886Y-13974536D02*
X14542219Y-13974536D01*
X14456505Y-14174536D01*
X14608886Y-13974536D02*
X14608886Y-14012631D01*
X14685077Y-13974536D02*
X14685077Y-14012631D01*
X14980315Y-14250727D02*
X14970791Y-14241203D01*
X14951743Y-14212631D01*
X14942219Y-14193584D01*
X14932696Y-14165012D01*
X14923172Y-14117393D01*
X14923172Y-14079298D01*
X14932696Y-14031679D01*
X14942219Y-14003108D01*
X14951743Y-13984060D01*
X14970791Y-13955488D01*
X14980315Y-13945965D01*
X15066029Y-14174536D02*
X15104124Y-14174536D01*
X15123172Y-14165012D01*
X15132696Y-14155488D01*
X15151743Y-14126917D01*
X15161267Y-14088822D01*
X15161267Y-14012631D01*
X15151743Y-13993584D01*
X15142219Y-13984060D01*
X15123172Y-13974536D01*
X15085077Y-13974536D01*
X15066029Y-13984060D01*
X15056505Y-13993584D01*
X15046981Y-14012631D01*
X15046981Y-14060250D01*
X15056505Y-14079298D01*
X15066029Y-14088822D01*
X15085077Y-14098346D01*
X15123172Y-14098346D01*
X15142219Y-14088822D01*
X15151743Y-14079298D01*
X15161267Y-14060250D01*
X15332696Y-13974536D02*
X15294600Y-13974536D01*
X15275553Y-13984060D01*
X15266029Y-13993584D01*
X15246981Y-14022155D01*
X15237458Y-14060250D01*
X15237458Y-14136441D01*
X15246981Y-14155488D01*
X15256505Y-14165012D01*
X15275553Y-14174536D01*
X15313648Y-14174536D01*
X15332696Y-14165012D01*
X15342219Y-14155488D01*
X15351743Y-14136441D01*
X15351743Y-14088822D01*
X15342219Y-14069774D01*
X15332696Y-14060250D01*
X15313648Y-14050727D01*
X15275553Y-14050727D01*
X15256505Y-14060250D01*
X15246981Y-14069774D01*
X15237458Y-14088822D01*
X15589838Y-14174536D02*
X15589838Y-13974536D01*
X15675553Y-14174536D02*
X15675553Y-14069774D01*
X15666029Y-14050727D01*
X15646981Y-14041203D01*
X15618410Y-14041203D01*
X15599362Y-14050727D01*
X15589838Y-14060250D01*
X15799362Y-14174536D02*
X15780315Y-14165012D01*
X15770791Y-14155488D01*
X15761267Y-14136441D01*
X15761267Y-14079298D01*
X15770791Y-14060250D01*
X15780315Y-14050727D01*
X15799362Y-14041203D01*
X15827934Y-14041203D01*
X15846981Y-14050727D01*
X15856505Y-14060250D01*
X15866029Y-14079298D01*
X15866029Y-14136441D01*
X15856505Y-14155488D01*
X15846981Y-14165012D01*
X15827934Y-14174536D01*
X15799362Y-14174536D01*
X15980315Y-14174536D02*
X15961267Y-14165012D01*
X15951743Y-14145965D01*
X15951743Y-13974536D01*
X16132696Y-14165012D02*
X16113648Y-14174536D01*
X16075553Y-14174536D01*
X16056505Y-14165012D01*
X16046981Y-14145965D01*
X16046981Y-14069774D01*
X16056505Y-14050727D01*
X16075553Y-14041203D01*
X16113648Y-14041203D01*
X16132696Y-14050727D01*
X16142219Y-14069774D01*
X16142219Y-14088822D01*
X16046981Y-14107869D01*
X16218410Y-14165012D02*
X16237458Y-14174536D01*
X16275553Y-14174536D01*
X16294600Y-14165012D01*
X16304124Y-14145965D01*
X16304124Y-14136441D01*
X16294600Y-14117393D01*
X16275553Y-14107869D01*
X16246981Y-14107869D01*
X16227934Y-14098346D01*
X16218410Y-14079298D01*
X16218410Y-14069774D01*
X16227934Y-14050727D01*
X16246981Y-14041203D01*
X16275553Y-14041203D01*
X16294600Y-14050727D01*
X16370791Y-14250727D02*
X16380315Y-14241203D01*
X16399362Y-14212631D01*
X16408886Y-14193584D01*
X16418410Y-14165012D01*
X16427934Y-14117393D01*
X16427934Y-14079298D01*
X16418410Y-14031679D01*
X16408886Y-14003108D01*
X16399362Y-13984060D01*
X16380315Y-13955488D01*
X16370791Y-13945965D01*
D14*
X11378410Y-14318060D02*
X11378410Y-14378060D01*
X11348410Y-14348060D02*
X11408410Y-14348060D01*
D11*
X11704124Y-14238536D02*
X11723172Y-14238536D01*
X11742219Y-14248060D01*
X11751743Y-14257584D01*
X11761267Y-14276631D01*
X11770791Y-14314727D01*
X11770791Y-14362346D01*
X11761267Y-14400441D01*
X11751743Y-14419488D01*
X11742219Y-14429012D01*
X11723172Y-14438536D01*
X11704124Y-14438536D01*
X11685077Y-14429012D01*
X11675553Y-14419488D01*
X11666029Y-14400441D01*
X11656505Y-14362346D01*
X11656505Y-14314727D01*
X11666029Y-14276631D01*
X11675553Y-14257584D01*
X11685077Y-14248060D01*
X11704124Y-14238536D01*
X11856505Y-14419488D02*
X11866029Y-14429012D01*
X11856505Y-14438536D01*
X11846981Y-14429012D01*
X11856505Y-14419488D01*
X11856505Y-14438536D01*
X12037458Y-14238536D02*
X11999362Y-14238536D01*
X11980315Y-14248060D01*
X11970791Y-14257584D01*
X11951743Y-14286155D01*
X11942219Y-14324250D01*
X11942219Y-14400441D01*
X11951743Y-14419488D01*
X11961267Y-14429012D01*
X11980315Y-14438536D01*
X12018410Y-14438536D01*
X12037458Y-14429012D01*
X12046981Y-14419488D01*
X12056505Y-14400441D01*
X12056505Y-14352822D01*
X12046981Y-14333774D01*
X12037458Y-14324250D01*
X12018410Y-14314727D01*
X11980315Y-14314727D01*
X11961267Y-14324250D01*
X11951743Y-14333774D01*
X11942219Y-14352822D01*
X12180315Y-14238536D02*
X12199362Y-14238536D01*
X12218410Y-14248060D01*
X12227934Y-14257584D01*
X12237458Y-14276631D01*
X12246981Y-14314727D01*
X12246981Y-14362346D01*
X12237458Y-14400441D01*
X12227934Y-14419488D01*
X12218410Y-14429012D01*
X12199362Y-14438536D01*
X12180315Y-14438536D01*
X12161267Y-14429012D01*
X12151743Y-14419488D01*
X12142219Y-14400441D01*
X12132696Y-14362346D01*
X12132696Y-14314727D01*
X12142219Y-14276631D01*
X12151743Y-14257584D01*
X12161267Y-14248060D01*
X12180315Y-14238536D01*
X12370791Y-14238536D02*
X12389838Y-14238536D01*
X12408886Y-14248060D01*
X12418410Y-14257584D01*
X12427934Y-14276631D01*
X12437458Y-14314727D01*
X12437458Y-14362346D01*
X12427934Y-14400441D01*
X12418410Y-14419488D01*
X12408886Y-14429012D01*
X12389838Y-14438536D01*
X12370791Y-14438536D01*
X12351743Y-14429012D01*
X12342219Y-14419488D01*
X12332696Y-14400441D01*
X12323172Y-14362346D01*
X12323172Y-14314727D01*
X12332696Y-14276631D01*
X12342219Y-14257584D01*
X12351743Y-14248060D01*
X12370791Y-14238536D01*
X12523172Y-14438536D02*
X12523172Y-14305203D01*
X12523172Y-14324250D02*
X12532696Y-14314727D01*
X12551743Y-14305203D01*
X12580315Y-14305203D01*
X12599362Y-14314727D01*
X12608886Y-14333774D01*
X12608886Y-14438536D01*
X12608886Y-14333774D02*
X12618410Y-14314727D01*
X12637458Y-14305203D01*
X12666029Y-14305203D01*
X12685077Y-14314727D01*
X12694600Y-14333774D01*
X12694600Y-14438536D01*
X12789838Y-14438536D02*
X12789838Y-14305203D01*
X12789838Y-14324250D02*
X12799362Y-14314727D01*
X12818410Y-14305203D01*
X12846981Y-14305203D01*
X12866029Y-14314727D01*
X12875553Y-14333774D01*
X12875553Y-14438536D01*
X12875553Y-14333774D02*
X12885077Y-14314727D01*
X12904124Y-14305203D01*
X12932696Y-14305203D01*
X12951743Y-14314727D01*
X12961267Y-14333774D01*
X12961267Y-14438536D01*
X13351743Y-14229012D02*
X13180315Y-14486155D01*
X13608886Y-14238536D02*
X13627934Y-14238536D01*
X13646981Y-14248060D01*
X13656505Y-14257584D01*
X13666029Y-14276631D01*
X13675553Y-14314727D01*
X13675553Y-14362346D01*
X13666029Y-14400441D01*
X13656505Y-14419488D01*
X13646981Y-14429012D01*
X13627934Y-14438536D01*
X13608886Y-14438536D01*
X13589838Y-14429012D01*
X13580315Y-14419488D01*
X13570791Y-14400441D01*
X13561267Y-14362346D01*
X13561267Y-14314727D01*
X13570791Y-14276631D01*
X13580315Y-14257584D01*
X13589838Y-14248060D01*
X13608886Y-14238536D01*
X13761267Y-14419488D02*
X13770791Y-14429012D01*
X13761267Y-14438536D01*
X13751743Y-14429012D01*
X13761267Y-14419488D01*
X13761267Y-14438536D01*
X13894600Y-14238536D02*
X13913648Y-14238536D01*
X13932696Y-14248060D01*
X13942219Y-14257584D01*
X13951743Y-14276631D01*
X13961267Y-14314727D01*
X13961267Y-14362346D01*
X13951743Y-14400441D01*
X13942219Y-14419488D01*
X13932696Y-14429012D01*
X13913648Y-14438536D01*
X13894600Y-14438536D01*
X13875553Y-14429012D01*
X13866029Y-14419488D01*
X13856505Y-14400441D01*
X13846981Y-14362346D01*
X13846981Y-14314727D01*
X13856505Y-14276631D01*
X13866029Y-14257584D01*
X13875553Y-14248060D01*
X13894600Y-14238536D01*
X14037458Y-14257584D02*
X14046981Y-14248060D01*
X14066029Y-14238536D01*
X14113648Y-14238536D01*
X14132696Y-14248060D01*
X14142219Y-14257584D01*
X14151743Y-14276631D01*
X14151743Y-14295679D01*
X14142219Y-14324250D01*
X14027934Y-14438536D01*
X14151743Y-14438536D01*
X14218410Y-14238536D02*
X14342219Y-14238536D01*
X14275553Y-14314727D01*
X14304124Y-14314727D01*
X14323172Y-14324250D01*
X14332696Y-14333774D01*
X14342219Y-14352822D01*
X14342219Y-14400441D01*
X14332696Y-14419488D01*
X14323172Y-14429012D01*
X14304124Y-14438536D01*
X14246981Y-14438536D01*
X14227934Y-14429012D01*
X14218410Y-14419488D01*
X14513648Y-14238536D02*
X14475553Y-14238536D01*
X14456505Y-14248060D01*
X14446981Y-14257584D01*
X14427934Y-14286155D01*
X14418410Y-14324250D01*
X14418410Y-14400441D01*
X14427934Y-14419488D01*
X14437458Y-14429012D01*
X14456505Y-14438536D01*
X14494600Y-14438536D01*
X14513648Y-14429012D01*
X14523172Y-14419488D01*
X14532696Y-14400441D01*
X14532696Y-14352822D01*
X14523172Y-14333774D01*
X14513648Y-14324250D01*
X14494600Y-14314727D01*
X14456505Y-14314727D01*
X14437458Y-14324250D01*
X14427934Y-14333774D01*
X14418410Y-14352822D01*
X14608886Y-14238536D02*
X14608886Y-14276631D01*
X14685077Y-14238536D02*
X14685077Y-14276631D01*
X14980315Y-14514727D02*
X14970791Y-14505203D01*
X14951743Y-14476631D01*
X14942219Y-14457584D01*
X14932696Y-14429012D01*
X14923172Y-14381393D01*
X14923172Y-14343298D01*
X14932696Y-14295679D01*
X14942219Y-14267108D01*
X14951743Y-14248060D01*
X14970791Y-14219488D01*
X14980315Y-14209965D01*
X15094600Y-14238536D02*
X15113648Y-14238536D01*
X15132696Y-14248060D01*
X15142219Y-14257584D01*
X15151743Y-14276631D01*
X15161267Y-14314727D01*
X15161267Y-14362346D01*
X15151743Y-14400441D01*
X15142219Y-14419488D01*
X15132696Y-14429012D01*
X15113648Y-14438536D01*
X15094600Y-14438536D01*
X15075553Y-14429012D01*
X15066029Y-14419488D01*
X15056505Y-14400441D01*
X15046981Y-14362346D01*
X15046981Y-14314727D01*
X15056505Y-14276631D01*
X15066029Y-14257584D01*
X15075553Y-14248060D01*
X15094600Y-14238536D01*
X15399362Y-14438536D02*
X15399362Y-14238536D01*
X15485077Y-14438536D02*
X15485077Y-14333774D01*
X15475553Y-14314727D01*
X15456505Y-14305203D01*
X15427934Y-14305203D01*
X15408886Y-14314727D01*
X15399362Y-14324250D01*
X15608886Y-14438536D02*
X15589838Y-14429012D01*
X15580315Y-14419488D01*
X15570791Y-14400441D01*
X15570791Y-14343298D01*
X15580315Y-14324250D01*
X15589838Y-14314727D01*
X15608886Y-14305203D01*
X15637458Y-14305203D01*
X15656505Y-14314727D01*
X15666029Y-14324250D01*
X15675553Y-14343298D01*
X15675553Y-14400441D01*
X15666029Y-14419488D01*
X15656505Y-14429012D01*
X15637458Y-14438536D01*
X15608886Y-14438536D01*
X15789838Y-14438536D02*
X15770791Y-14429012D01*
X15761267Y-14409965D01*
X15761267Y-14238536D01*
X15942219Y-14429012D02*
X15923172Y-14438536D01*
X15885077Y-14438536D01*
X15866029Y-14429012D01*
X15856505Y-14409965D01*
X15856505Y-14333774D01*
X15866029Y-14314727D01*
X15885077Y-14305203D01*
X15923172Y-14305203D01*
X15942219Y-14314727D01*
X15951743Y-14333774D01*
X15951743Y-14352822D01*
X15856505Y-14371869D01*
X16027934Y-14429012D02*
X16046981Y-14438536D01*
X16085077Y-14438536D01*
X16104124Y-14429012D01*
X16113648Y-14409965D01*
X16113648Y-14400441D01*
X16104124Y-14381393D01*
X16085077Y-14371869D01*
X16056505Y-14371869D01*
X16037458Y-14362346D01*
X16027934Y-14343298D01*
X16027934Y-14333774D01*
X16037458Y-14314727D01*
X16056505Y-14305203D01*
X16085077Y-14305203D01*
X16104124Y-14314727D01*
X16351743Y-14362346D02*
X16504124Y-14362346D01*
X16427934Y-14438536D02*
X16427934Y-14286155D01*
X16837458Y-14305203D02*
X16837458Y-14438536D01*
X16789839Y-14229012D02*
X16742219Y-14371869D01*
X16866029Y-14371869D01*
X17085077Y-14429012D02*
X17104124Y-14438536D01*
X17142220Y-14438536D01*
X17161267Y-14429012D01*
X17170791Y-14409965D01*
X17170791Y-14400441D01*
X17161267Y-14381393D01*
X17142220Y-14371869D01*
X17113648Y-14371869D01*
X17094600Y-14362346D01*
X17085077Y-14343298D01*
X17085077Y-14333774D01*
X17094600Y-14314727D01*
X17113648Y-14305203D01*
X17142220Y-14305203D01*
X17161267Y-14314727D01*
X17285077Y-14438536D02*
X17266029Y-14429012D01*
X17256505Y-14409965D01*
X17256505Y-14238536D01*
X17389839Y-14438536D02*
X17370791Y-14429012D01*
X17361267Y-14419488D01*
X17351743Y-14400441D01*
X17351743Y-14343298D01*
X17361267Y-14324250D01*
X17370791Y-14314727D01*
X17389839Y-14305203D01*
X17418410Y-14305203D01*
X17437458Y-14314727D01*
X17446981Y-14324250D01*
X17456505Y-14343298D01*
X17456505Y-14400441D01*
X17446981Y-14419488D01*
X17437458Y-14429012D01*
X17418410Y-14438536D01*
X17389839Y-14438536D01*
X17513648Y-14305203D02*
X17589839Y-14305203D01*
X17542220Y-14238536D02*
X17542220Y-14409965D01*
X17551743Y-14429012D01*
X17570791Y-14438536D01*
X17589839Y-14438536D01*
X17646981Y-14429012D02*
X17666029Y-14438536D01*
X17704124Y-14438536D01*
X17723172Y-14429012D01*
X17732696Y-14409965D01*
X17732696Y-14400441D01*
X17723172Y-14381393D01*
X17704124Y-14371869D01*
X17675553Y-14371869D01*
X17656505Y-14362346D01*
X17646981Y-14343298D01*
X17646981Y-14333774D01*
X17656505Y-14314727D01*
X17675553Y-14305203D01*
X17704124Y-14305203D01*
X17723172Y-14314727D01*
X17799362Y-14514727D02*
X17808886Y-14505203D01*
X17827934Y-14476631D01*
X17837458Y-14457584D01*
X17846981Y-14429012D01*
X17856505Y-14381393D01*
X17856505Y-14343298D01*
X17846981Y-14295679D01*
X17837458Y-14267108D01*
X17827934Y-14248060D01*
X17808886Y-14219488D01*
X17799362Y-14209965D01*
D15*
X11397251Y-14639001D02*
X11397251Y-14585119D01*
X11343369Y-14585119D01*
X11343369Y-14639001D01*
X11397251Y-14639001D01*
D11*
X11704124Y-14502536D02*
X11723172Y-14502536D01*
X11742219Y-14512060D01*
X11751743Y-14521584D01*
X11761267Y-14540631D01*
X11770791Y-14578727D01*
X11770791Y-14626346D01*
X11761267Y-14664441D01*
X11751743Y-14683488D01*
X11742219Y-14693012D01*
X11723172Y-14702536D01*
X11704124Y-14702536D01*
X11685077Y-14693012D01*
X11675553Y-14683488D01*
X11666029Y-14664441D01*
X11656505Y-14626346D01*
X11656505Y-14578727D01*
X11666029Y-14540631D01*
X11675553Y-14521584D01*
X11685077Y-14512060D01*
X11704124Y-14502536D01*
X11856505Y-14683488D02*
X11866029Y-14693012D01*
X11856505Y-14702536D01*
X11846981Y-14693012D01*
X11856505Y-14683488D01*
X11856505Y-14702536D01*
X11932696Y-14502536D02*
X12066029Y-14502536D01*
X11980315Y-14702536D01*
X12227934Y-14502536D02*
X12189838Y-14502536D01*
X12170791Y-14512060D01*
X12161267Y-14521584D01*
X12142219Y-14550155D01*
X12132696Y-14588250D01*
X12132696Y-14664441D01*
X12142219Y-14683488D01*
X12151743Y-14693012D01*
X12170791Y-14702536D01*
X12208886Y-14702536D01*
X12227934Y-14693012D01*
X12237458Y-14683488D01*
X12246981Y-14664441D01*
X12246981Y-14616822D01*
X12237458Y-14597774D01*
X12227934Y-14588250D01*
X12208886Y-14578727D01*
X12170791Y-14578727D01*
X12151743Y-14588250D01*
X12142219Y-14597774D01*
X12132696Y-14616822D01*
X12323172Y-14521584D02*
X12332696Y-14512060D01*
X12351743Y-14502536D01*
X12399362Y-14502536D01*
X12418410Y-14512060D01*
X12427934Y-14521584D01*
X12437458Y-14540631D01*
X12437458Y-14559679D01*
X12427934Y-14588250D01*
X12313648Y-14702536D01*
X12437458Y-14702536D01*
X12523172Y-14702536D02*
X12523172Y-14569203D01*
X12523172Y-14588250D02*
X12532696Y-14578727D01*
X12551743Y-14569203D01*
X12580315Y-14569203D01*
X12599362Y-14578727D01*
X12608886Y-14597774D01*
X12608886Y-14702536D01*
X12608886Y-14597774D02*
X12618410Y-14578727D01*
X12637458Y-14569203D01*
X12666029Y-14569203D01*
X12685077Y-14578727D01*
X12694600Y-14597774D01*
X12694600Y-14702536D01*
X12789838Y-14702536D02*
X12789838Y-14569203D01*
X12789838Y-14588250D02*
X12799362Y-14578727D01*
X12818410Y-14569203D01*
X12846981Y-14569203D01*
X12866029Y-14578727D01*
X12875553Y-14597774D01*
X12875553Y-14702536D01*
X12875553Y-14597774D02*
X12885077Y-14578727D01*
X12904124Y-14569203D01*
X12932696Y-14569203D01*
X12951743Y-14578727D01*
X12961267Y-14597774D01*
X12961267Y-14702536D01*
X13351743Y-14493012D02*
X13180315Y-14750155D01*
X13608886Y-14502536D02*
X13627934Y-14502536D01*
X13646981Y-14512060D01*
X13656505Y-14521584D01*
X13666029Y-14540631D01*
X13675553Y-14578727D01*
X13675553Y-14626346D01*
X13666029Y-14664441D01*
X13656505Y-14683488D01*
X13646981Y-14693012D01*
X13627934Y-14702536D01*
X13608886Y-14702536D01*
X13589838Y-14693012D01*
X13580315Y-14683488D01*
X13570791Y-14664441D01*
X13561267Y-14626346D01*
X13561267Y-14578727D01*
X13570791Y-14540631D01*
X13580315Y-14521584D01*
X13589838Y-14512060D01*
X13608886Y-14502536D01*
X13761267Y-14683488D02*
X13770791Y-14693012D01*
X13761267Y-14702536D01*
X13751743Y-14693012D01*
X13761267Y-14683488D01*
X13761267Y-14702536D01*
X13894600Y-14502536D02*
X13913648Y-14502536D01*
X13932696Y-14512060D01*
X13942219Y-14521584D01*
X13951743Y-14540631D01*
X13961267Y-14578727D01*
X13961267Y-14626346D01*
X13951743Y-14664441D01*
X13942219Y-14683488D01*
X13932696Y-14693012D01*
X13913648Y-14702536D01*
X13894600Y-14702536D01*
X13875553Y-14693012D01*
X13866029Y-14683488D01*
X13856505Y-14664441D01*
X13846981Y-14626346D01*
X13846981Y-14578727D01*
X13856505Y-14540631D01*
X13866029Y-14521584D01*
X13875553Y-14512060D01*
X13894600Y-14502536D01*
X14027934Y-14502536D02*
X14151743Y-14502536D01*
X14085077Y-14578727D01*
X14113648Y-14578727D01*
X14132696Y-14588250D01*
X14142219Y-14597774D01*
X14151743Y-14616822D01*
X14151743Y-14664441D01*
X14142219Y-14683488D01*
X14132696Y-14693012D01*
X14113648Y-14702536D01*
X14056505Y-14702536D01*
X14037458Y-14693012D01*
X14027934Y-14683488D01*
X14275553Y-14502536D02*
X14294600Y-14502536D01*
X14313648Y-14512060D01*
X14323172Y-14521584D01*
X14332696Y-14540631D01*
X14342219Y-14578727D01*
X14342219Y-14626346D01*
X14332696Y-14664441D01*
X14323172Y-14683488D01*
X14313648Y-14693012D01*
X14294600Y-14702536D01*
X14275553Y-14702536D01*
X14256505Y-14693012D01*
X14246981Y-14683488D01*
X14237458Y-14664441D01*
X14227934Y-14626346D01*
X14227934Y-14578727D01*
X14237458Y-14540631D01*
X14246981Y-14521584D01*
X14256505Y-14512060D01*
X14275553Y-14502536D01*
X14466029Y-14502536D02*
X14485077Y-14502536D01*
X14504124Y-14512060D01*
X14513648Y-14521584D01*
X14523172Y-14540631D01*
X14532696Y-14578727D01*
X14532696Y-14626346D01*
X14523172Y-14664441D01*
X14513648Y-14683488D01*
X14504124Y-14693012D01*
X14485077Y-14702536D01*
X14466029Y-14702536D01*
X14446981Y-14693012D01*
X14437458Y-14683488D01*
X14427934Y-14664441D01*
X14418410Y-14626346D01*
X14418410Y-14578727D01*
X14427934Y-14540631D01*
X14437458Y-14521584D01*
X14446981Y-14512060D01*
X14466029Y-14502536D01*
X14608886Y-14502536D02*
X14608886Y-14540631D01*
X14685077Y-14502536D02*
X14685077Y-14540631D01*
X14980315Y-14778727D02*
X14970791Y-14769203D01*
X14951743Y-14740631D01*
X14942219Y-14721584D01*
X14932696Y-14693012D01*
X14923172Y-14645393D01*
X14923172Y-14607298D01*
X14932696Y-14559679D01*
X14942219Y-14531108D01*
X14951743Y-14512060D01*
X14970791Y-14483488D01*
X14980315Y-14473965D01*
X15046981Y-14521584D02*
X15056505Y-14512060D01*
X15075553Y-14502536D01*
X15123172Y-14502536D01*
X15142219Y-14512060D01*
X15151743Y-14521584D01*
X15161267Y-14540631D01*
X15161267Y-14559679D01*
X15151743Y-14588250D01*
X15037458Y-14702536D01*
X15161267Y-14702536D01*
X15399362Y-14702536D02*
X15399362Y-14502536D01*
X15485077Y-14702536D02*
X15485077Y-14597774D01*
X15475553Y-14578727D01*
X15456505Y-14569203D01*
X15427934Y-14569203D01*
X15408886Y-14578727D01*
X15399362Y-14588250D01*
X15608886Y-14702536D02*
X15589838Y-14693012D01*
X15580315Y-14683488D01*
X15570791Y-14664441D01*
X15570791Y-14607298D01*
X15580315Y-14588250D01*
X15589838Y-14578727D01*
X15608886Y-14569203D01*
X15637458Y-14569203D01*
X15656505Y-14578727D01*
X15666029Y-14588250D01*
X15675553Y-14607298D01*
X15675553Y-14664441D01*
X15666029Y-14683488D01*
X15656505Y-14693012D01*
X15637458Y-14702536D01*
X15608886Y-14702536D01*
X15789838Y-14702536D02*
X15770791Y-14693012D01*
X15761267Y-14673965D01*
X15761267Y-14502536D01*
X15942219Y-14693012D02*
X15923172Y-14702536D01*
X15885077Y-14702536D01*
X15866029Y-14693012D01*
X15856505Y-14673965D01*
X15856505Y-14597774D01*
X15866029Y-14578727D01*
X15885077Y-14569203D01*
X15923172Y-14569203D01*
X15942219Y-14578727D01*
X15951743Y-14597774D01*
X15951743Y-14616822D01*
X15856505Y-14635869D01*
X16027934Y-14693012D02*
X16046981Y-14702536D01*
X16085077Y-14702536D01*
X16104124Y-14693012D01*
X16113648Y-14673965D01*
X16113648Y-14664441D01*
X16104124Y-14645393D01*
X16085077Y-14635869D01*
X16056505Y-14635869D01*
X16037458Y-14626346D01*
X16027934Y-14607298D01*
X16027934Y-14597774D01*
X16037458Y-14578727D01*
X16056505Y-14569203D01*
X16085077Y-14569203D01*
X16104124Y-14578727D01*
X16180315Y-14778727D02*
X16189838Y-14769203D01*
X16208886Y-14740631D01*
X16218410Y-14721584D01*
X16227934Y-14693012D01*
X16237458Y-14645393D01*
X16237458Y-14607298D01*
X16227934Y-14559679D01*
X16218410Y-14531108D01*
X16208886Y-14512060D01*
X16189838Y-14483488D01*
X16180315Y-14473965D01*
D16*
X11365910Y-14918560D02*
X11408410Y-14876060D01*
X11365910Y-14833560D01*
X11323410Y-14876060D01*
X11365910Y-14918560D01*
D11*
X11704124Y-14766536D02*
X11723172Y-14766536D01*
X11742219Y-14776060D01*
X11751743Y-14785584D01*
X11761267Y-14804631D01*
X11770791Y-14842727D01*
X11770791Y-14890346D01*
X11761267Y-14928441D01*
X11751743Y-14947488D01*
X11742219Y-14957012D01*
X11723172Y-14966536D01*
X11704124Y-14966536D01*
X11685077Y-14957012D01*
X11675553Y-14947488D01*
X11666029Y-14928441D01*
X11656505Y-14890346D01*
X11656505Y-14842727D01*
X11666029Y-14804631D01*
X11675553Y-14785584D01*
X11685077Y-14776060D01*
X11704124Y-14766536D01*
X11856505Y-14947488D02*
X11866029Y-14957012D01*
X11856505Y-14966536D01*
X11846981Y-14957012D01*
X11856505Y-14947488D01*
X11856505Y-14966536D01*
X11980315Y-14852250D02*
X11961267Y-14842727D01*
X11951743Y-14833203D01*
X11942219Y-14814155D01*
X11942219Y-14804631D01*
X11951743Y-14785584D01*
X11961267Y-14776060D01*
X11980315Y-14766536D01*
X12018410Y-14766536D01*
X12037458Y-14776060D01*
X12046981Y-14785584D01*
X12056505Y-14804631D01*
X12056505Y-14814155D01*
X12046981Y-14833203D01*
X12037458Y-14842727D01*
X12018410Y-14852250D01*
X11980315Y-14852250D01*
X11961267Y-14861774D01*
X11951743Y-14871298D01*
X11942219Y-14890346D01*
X11942219Y-14928441D01*
X11951743Y-14947488D01*
X11961267Y-14957012D01*
X11980315Y-14966536D01*
X12018410Y-14966536D01*
X12037458Y-14957012D01*
X12046981Y-14947488D01*
X12056505Y-14928441D01*
X12056505Y-14890346D01*
X12046981Y-14871298D01*
X12037458Y-14861774D01*
X12018410Y-14852250D01*
X12237458Y-14766536D02*
X12142219Y-14766536D01*
X12132696Y-14861774D01*
X12142219Y-14852250D01*
X12161267Y-14842727D01*
X12208886Y-14842727D01*
X12227934Y-14852250D01*
X12237458Y-14861774D01*
X12246981Y-14880822D01*
X12246981Y-14928441D01*
X12237458Y-14947488D01*
X12227934Y-14957012D01*
X12208886Y-14966536D01*
X12161267Y-14966536D01*
X12142219Y-14957012D01*
X12132696Y-14947488D01*
X12370791Y-14766536D02*
X12389838Y-14766536D01*
X12408886Y-14776060D01*
X12418410Y-14785584D01*
X12427934Y-14804631D01*
X12437458Y-14842727D01*
X12437458Y-14890346D01*
X12427934Y-14928441D01*
X12418410Y-14947488D01*
X12408886Y-14957012D01*
X12389838Y-14966536D01*
X12370791Y-14966536D01*
X12351743Y-14957012D01*
X12342219Y-14947488D01*
X12332696Y-14928441D01*
X12323172Y-14890346D01*
X12323172Y-14842727D01*
X12332696Y-14804631D01*
X12342219Y-14785584D01*
X12351743Y-14776060D01*
X12370791Y-14766536D01*
X12523172Y-14966536D02*
X12523172Y-14833203D01*
X12523172Y-14852250D02*
X12532696Y-14842727D01*
X12551743Y-14833203D01*
X12580315Y-14833203D01*
X12599362Y-14842727D01*
X12608886Y-14861774D01*
X12608886Y-14966536D01*
X12608886Y-14861774D02*
X12618410Y-14842727D01*
X12637458Y-14833203D01*
X12666029Y-14833203D01*
X12685077Y-14842727D01*
X12694600Y-14861774D01*
X12694600Y-14966536D01*
X12789838Y-14966536D02*
X12789838Y-14833203D01*
X12789838Y-14852250D02*
X12799362Y-14842727D01*
X12818410Y-14833203D01*
X12846981Y-14833203D01*
X12866029Y-14842727D01*
X12875553Y-14861774D01*
X12875553Y-14966536D01*
X12875553Y-14861774D02*
X12885077Y-14842727D01*
X12904124Y-14833203D01*
X12932696Y-14833203D01*
X12951743Y-14842727D01*
X12961267Y-14861774D01*
X12961267Y-14966536D01*
X13351743Y-14757012D02*
X13180315Y-15014155D01*
X13608886Y-14766536D02*
X13627934Y-14766536D01*
X13646981Y-14776060D01*
X13656505Y-14785584D01*
X13666029Y-14804631D01*
X13675553Y-14842727D01*
X13675553Y-14890346D01*
X13666029Y-14928441D01*
X13656505Y-14947488D01*
X13646981Y-14957012D01*
X13627934Y-14966536D01*
X13608886Y-14966536D01*
X13589838Y-14957012D01*
X13580315Y-14947488D01*
X13570791Y-14928441D01*
X13561267Y-14890346D01*
X13561267Y-14842727D01*
X13570791Y-14804631D01*
X13580315Y-14785584D01*
X13589838Y-14776060D01*
X13608886Y-14766536D01*
X13761267Y-14947488D02*
X13770791Y-14957012D01*
X13761267Y-14966536D01*
X13751743Y-14957012D01*
X13761267Y-14947488D01*
X13761267Y-14966536D01*
X13894600Y-14766536D02*
X13913648Y-14766536D01*
X13932696Y-14776060D01*
X13942219Y-14785584D01*
X13951743Y-14804631D01*
X13961267Y-14842727D01*
X13961267Y-14890346D01*
X13951743Y-14928441D01*
X13942219Y-14947488D01*
X13932696Y-14957012D01*
X13913648Y-14966536D01*
X13894600Y-14966536D01*
X13875553Y-14957012D01*
X13866029Y-14947488D01*
X13856505Y-14928441D01*
X13846981Y-14890346D01*
X13846981Y-14842727D01*
X13856505Y-14804631D01*
X13866029Y-14785584D01*
X13875553Y-14776060D01*
X13894600Y-14766536D01*
X14027934Y-14766536D02*
X14151743Y-14766536D01*
X14085077Y-14842727D01*
X14113648Y-14842727D01*
X14132696Y-14852250D01*
X14142219Y-14861774D01*
X14151743Y-14880822D01*
X14151743Y-14928441D01*
X14142219Y-14947488D01*
X14132696Y-14957012D01*
X14113648Y-14966536D01*
X14056505Y-14966536D01*
X14037458Y-14957012D01*
X14027934Y-14947488D01*
X14218410Y-14766536D02*
X14342219Y-14766536D01*
X14275553Y-14842727D01*
X14304124Y-14842727D01*
X14323172Y-14852250D01*
X14332696Y-14861774D01*
X14342219Y-14880822D01*
X14342219Y-14928441D01*
X14332696Y-14947488D01*
X14323172Y-14957012D01*
X14304124Y-14966536D01*
X14246981Y-14966536D01*
X14227934Y-14957012D01*
X14218410Y-14947488D01*
X14523172Y-14766536D02*
X14427934Y-14766536D01*
X14418410Y-14861774D01*
X14427934Y-14852250D01*
X14446981Y-14842727D01*
X14494600Y-14842727D01*
X14513648Y-14852250D01*
X14523172Y-14861774D01*
X14532696Y-14880822D01*
X14532696Y-14928441D01*
X14523172Y-14947488D01*
X14513648Y-14957012D01*
X14494600Y-14966536D01*
X14446981Y-14966536D01*
X14427934Y-14957012D01*
X14418410Y-14947488D01*
X14608886Y-14766536D02*
X14608886Y-14804631D01*
X14685077Y-14766536D02*
X14685077Y-14804631D01*
X14980315Y-15042727D02*
X14970791Y-15033203D01*
X14951743Y-15004631D01*
X14942219Y-14985584D01*
X14932696Y-14957012D01*
X14923172Y-14909393D01*
X14923172Y-14871298D01*
X14932696Y-14823679D01*
X14942219Y-14795108D01*
X14951743Y-14776060D01*
X14970791Y-14747488D01*
X14980315Y-14737965D01*
X15037458Y-14766536D02*
X15161267Y-14766536D01*
X15094600Y-14842727D01*
X15123172Y-14842727D01*
X15142219Y-14852250D01*
X15151743Y-14861774D01*
X15161267Y-14880822D01*
X15161267Y-14928441D01*
X15151743Y-14947488D01*
X15142219Y-14957012D01*
X15123172Y-14966536D01*
X15066029Y-14966536D01*
X15046981Y-14957012D01*
X15037458Y-14947488D01*
X15237458Y-14785584D02*
X15246981Y-14776060D01*
X15266029Y-14766536D01*
X15313648Y-14766536D01*
X15332696Y-14776060D01*
X15342219Y-14785584D01*
X15351743Y-14804631D01*
X15351743Y-14823679D01*
X15342219Y-14852250D01*
X15227934Y-14966536D01*
X15351743Y-14966536D01*
X15589838Y-14966536D02*
X15589838Y-14766536D01*
X15675553Y-14966536D02*
X15675553Y-14861774D01*
X15666029Y-14842727D01*
X15646981Y-14833203D01*
X15618410Y-14833203D01*
X15599362Y-14842727D01*
X15589838Y-14852250D01*
X15799362Y-14966536D02*
X15780315Y-14957012D01*
X15770791Y-14947488D01*
X15761267Y-14928441D01*
X15761267Y-14871298D01*
X15770791Y-14852250D01*
X15780315Y-14842727D01*
X15799362Y-14833203D01*
X15827934Y-14833203D01*
X15846981Y-14842727D01*
X15856505Y-14852250D01*
X15866029Y-14871298D01*
X15866029Y-14928441D01*
X15856505Y-14947488D01*
X15846981Y-14957012D01*
X15827934Y-14966536D01*
X15799362Y-14966536D01*
X15980315Y-14966536D02*
X15961267Y-14957012D01*
X15951743Y-14937965D01*
X15951743Y-14766536D01*
X16132696Y-14957012D02*
X16113648Y-14966536D01*
X16075553Y-14966536D01*
X16056505Y-14957012D01*
X16046981Y-14937965D01*
X16046981Y-14861774D01*
X16056505Y-14842727D01*
X16075553Y-14833203D01*
X16113648Y-14833203D01*
X16132696Y-14842727D01*
X16142219Y-14861774D01*
X16142219Y-14880822D01*
X16046981Y-14899869D01*
X16218410Y-14957012D02*
X16237458Y-14966536D01*
X16275553Y-14966536D01*
X16294600Y-14957012D01*
X16304124Y-14937965D01*
X16304124Y-14928441D01*
X16294600Y-14909393D01*
X16275553Y-14899869D01*
X16246981Y-14899869D01*
X16227934Y-14890346D01*
X16218410Y-14871298D01*
X16218410Y-14861774D01*
X16227934Y-14842727D01*
X16246981Y-14833203D01*
X16275553Y-14833203D01*
X16294600Y-14842727D01*
X16370791Y-15042727D02*
X16380315Y-15033203D01*
X16399362Y-15004631D01*
X16408886Y-14985584D01*
X16418410Y-14957012D01*
X16427934Y-14909393D01*
X16427934Y-14871298D01*
X16418410Y-14823679D01*
X16408886Y-14795108D01*
X16399362Y-14776060D01*
X16380315Y-14747488D01*
X16370791Y-14737965D01*
D17*
X11313410Y-15092560D02*
X11408410Y-15187560D01*
X11408410Y-15092560D02*
X11313410Y-15187560D01*
X11408410Y-15140060D02*
G75*
G03*
X11408410Y-15140060I-47500J0D01*
G01*
D11*
X11704124Y-15030536D02*
X11723172Y-15030536D01*
X11742219Y-15040060D01*
X11751743Y-15049584D01*
X11761267Y-15068631D01*
X11770791Y-15106727D01*
X11770791Y-15154346D01*
X11761267Y-15192441D01*
X11751743Y-15211488D01*
X11742219Y-15221012D01*
X11723172Y-15230536D01*
X11704124Y-15230536D01*
X11685077Y-15221012D01*
X11675553Y-15211488D01*
X11666029Y-15192441D01*
X11656505Y-15154346D01*
X11656505Y-15106727D01*
X11666029Y-15068631D01*
X11675553Y-15049584D01*
X11685077Y-15040060D01*
X11704124Y-15030536D01*
X11856505Y-15211488D02*
X11866029Y-15221012D01*
X11856505Y-15230536D01*
X11846981Y-15221012D01*
X11856505Y-15211488D01*
X11856505Y-15230536D01*
X11961267Y-15230536D02*
X11999362Y-15230536D01*
X12018410Y-15221012D01*
X12027934Y-15211488D01*
X12046981Y-15182917D01*
X12056505Y-15144822D01*
X12056505Y-15068631D01*
X12046981Y-15049584D01*
X12037458Y-15040060D01*
X12018410Y-15030536D01*
X11980315Y-15030536D01*
X11961267Y-15040060D01*
X11951743Y-15049584D01*
X11942219Y-15068631D01*
X11942219Y-15116250D01*
X11951743Y-15135298D01*
X11961267Y-15144822D01*
X11980315Y-15154346D01*
X12018410Y-15154346D01*
X12037458Y-15144822D01*
X12046981Y-15135298D01*
X12056505Y-15116250D01*
X12237458Y-15030536D02*
X12142219Y-15030536D01*
X12132696Y-15125774D01*
X12142219Y-15116250D01*
X12161267Y-15106727D01*
X12208886Y-15106727D01*
X12227934Y-15116250D01*
X12237458Y-15125774D01*
X12246981Y-15144822D01*
X12246981Y-15192441D01*
X12237458Y-15211488D01*
X12227934Y-15221012D01*
X12208886Y-15230536D01*
X12161267Y-15230536D01*
X12142219Y-15221012D01*
X12132696Y-15211488D01*
X12370791Y-15030536D02*
X12389838Y-15030536D01*
X12408886Y-15040060D01*
X12418410Y-15049584D01*
X12427934Y-15068631D01*
X12437458Y-15106727D01*
X12437458Y-15154346D01*
X12427934Y-15192441D01*
X12418410Y-15211488D01*
X12408886Y-15221012D01*
X12389838Y-15230536D01*
X12370791Y-15230536D01*
X12351743Y-15221012D01*
X12342219Y-15211488D01*
X12332696Y-15192441D01*
X12323172Y-15154346D01*
X12323172Y-15106727D01*
X12332696Y-15068631D01*
X12342219Y-15049584D01*
X12351743Y-15040060D01*
X12370791Y-15030536D01*
X12523172Y-15230536D02*
X12523172Y-15097203D01*
X12523172Y-15116250D02*
X12532696Y-15106727D01*
X12551743Y-15097203D01*
X12580315Y-15097203D01*
X12599362Y-15106727D01*
X12608886Y-15125774D01*
X12608886Y-15230536D01*
X12608886Y-15125774D02*
X12618410Y-15106727D01*
X12637458Y-15097203D01*
X12666029Y-15097203D01*
X12685077Y-15106727D01*
X12694600Y-15125774D01*
X12694600Y-15230536D01*
X12789838Y-15230536D02*
X12789838Y-15097203D01*
X12789838Y-15116250D02*
X12799362Y-15106727D01*
X12818410Y-15097203D01*
X12846981Y-15097203D01*
X12866029Y-15106727D01*
X12875553Y-15125774D01*
X12875553Y-15230536D01*
X12875553Y-15125774D02*
X12885077Y-15106727D01*
X12904124Y-15097203D01*
X12932696Y-15097203D01*
X12951743Y-15106727D01*
X12961267Y-15125774D01*
X12961267Y-15230536D01*
X13351743Y-15021012D02*
X13180315Y-15278155D01*
X13608886Y-15030536D02*
X13627934Y-15030536D01*
X13646981Y-15040060D01*
X13656505Y-15049584D01*
X13666029Y-15068631D01*
X13675553Y-15106727D01*
X13675553Y-15154346D01*
X13666029Y-15192441D01*
X13656505Y-15211488D01*
X13646981Y-15221012D01*
X13627934Y-15230536D01*
X13608886Y-15230536D01*
X13589838Y-15221012D01*
X13580315Y-15211488D01*
X13570791Y-15192441D01*
X13561267Y-15154346D01*
X13561267Y-15106727D01*
X13570791Y-15068631D01*
X13580315Y-15049584D01*
X13589838Y-15040060D01*
X13608886Y-15030536D01*
X13761267Y-15211488D02*
X13770791Y-15221012D01*
X13761267Y-15230536D01*
X13751743Y-15221012D01*
X13761267Y-15211488D01*
X13761267Y-15230536D01*
X13894600Y-15030536D02*
X13913648Y-15030536D01*
X13932696Y-15040060D01*
X13942219Y-15049584D01*
X13951743Y-15068631D01*
X13961267Y-15106727D01*
X13961267Y-15154346D01*
X13951743Y-15192441D01*
X13942219Y-15211488D01*
X13932696Y-15221012D01*
X13913648Y-15230536D01*
X13894600Y-15230536D01*
X13875553Y-15221012D01*
X13866029Y-15211488D01*
X13856505Y-15192441D01*
X13846981Y-15154346D01*
X13846981Y-15106727D01*
X13856505Y-15068631D01*
X13866029Y-15049584D01*
X13875553Y-15040060D01*
X13894600Y-15030536D01*
X14027934Y-15030536D02*
X14151743Y-15030536D01*
X14085077Y-15106727D01*
X14113648Y-15106727D01*
X14132696Y-15116250D01*
X14142219Y-15125774D01*
X14151743Y-15144822D01*
X14151743Y-15192441D01*
X14142219Y-15211488D01*
X14132696Y-15221012D01*
X14113648Y-15230536D01*
X14056505Y-15230536D01*
X14037458Y-15221012D01*
X14027934Y-15211488D01*
X14218410Y-15030536D02*
X14351743Y-15030536D01*
X14266029Y-15230536D01*
X14513648Y-15097203D02*
X14513648Y-15230536D01*
X14466029Y-15021012D02*
X14418410Y-15163869D01*
X14542219Y-15163869D01*
X14608886Y-15030536D02*
X14608886Y-15068631D01*
X14685077Y-15030536D02*
X14685077Y-15068631D01*
X14980315Y-15306727D02*
X14970791Y-15297203D01*
X14951743Y-15268631D01*
X14942219Y-15249584D01*
X14932696Y-15221012D01*
X14923172Y-15173393D01*
X14923172Y-15135298D01*
X14932696Y-15087679D01*
X14942219Y-15059108D01*
X14951743Y-15040060D01*
X14970791Y-15011488D01*
X14980315Y-15001965D01*
X15142219Y-15030536D02*
X15104124Y-15030536D01*
X15085077Y-15040060D01*
X15075553Y-15049584D01*
X15056505Y-15078155D01*
X15046981Y-15116250D01*
X15046981Y-15192441D01*
X15056505Y-15211488D01*
X15066029Y-15221012D01*
X15085077Y-15230536D01*
X15123172Y-15230536D01*
X15142219Y-15221012D01*
X15151743Y-15211488D01*
X15161267Y-15192441D01*
X15161267Y-15144822D01*
X15151743Y-15125774D01*
X15142219Y-15116250D01*
X15123172Y-15106727D01*
X15085077Y-15106727D01*
X15066029Y-15116250D01*
X15056505Y-15125774D01*
X15046981Y-15144822D01*
X15399362Y-15230536D02*
X15399362Y-15030536D01*
X15485077Y-15230536D02*
X15485077Y-15125774D01*
X15475553Y-15106727D01*
X15456505Y-15097203D01*
X15427934Y-15097203D01*
X15408886Y-15106727D01*
X15399362Y-15116250D01*
X15608886Y-15230536D02*
X15589838Y-15221012D01*
X15580315Y-15211488D01*
X15570791Y-15192441D01*
X15570791Y-15135298D01*
X15580315Y-15116250D01*
X15589838Y-15106727D01*
X15608886Y-15097203D01*
X15637458Y-15097203D01*
X15656505Y-15106727D01*
X15666029Y-15116250D01*
X15675553Y-15135298D01*
X15675553Y-15192441D01*
X15666029Y-15211488D01*
X15656505Y-15221012D01*
X15637458Y-15230536D01*
X15608886Y-15230536D01*
X15789838Y-15230536D02*
X15770791Y-15221012D01*
X15761267Y-15201965D01*
X15761267Y-15030536D01*
X15942219Y-15221012D02*
X15923172Y-15230536D01*
X15885077Y-15230536D01*
X15866029Y-15221012D01*
X15856505Y-15201965D01*
X15856505Y-15125774D01*
X15866029Y-15106727D01*
X15885077Y-15097203D01*
X15923172Y-15097203D01*
X15942219Y-15106727D01*
X15951743Y-15125774D01*
X15951743Y-15144822D01*
X15856505Y-15163869D01*
X16027934Y-15221012D02*
X16046981Y-15230536D01*
X16085077Y-15230536D01*
X16104124Y-15221012D01*
X16113648Y-15201965D01*
X16113648Y-15192441D01*
X16104124Y-15173393D01*
X16085077Y-15163869D01*
X16056505Y-15163869D01*
X16037458Y-15154346D01*
X16027934Y-15135298D01*
X16027934Y-15125774D01*
X16037458Y-15106727D01*
X16056505Y-15097203D01*
X16085077Y-15097203D01*
X16104124Y-15106727D01*
X16180315Y-15306727D02*
X16189838Y-15297203D01*
X16208886Y-15268631D01*
X16218410Y-15249584D01*
X16227934Y-15221012D01*
X16237458Y-15173393D01*
X16237458Y-15135298D01*
X16227934Y-15087679D01*
X16218410Y-15059108D01*
X16208886Y-15040060D01*
X16189838Y-15011488D01*
X16180315Y-15001965D01*
D18*
X11278410Y-15339060D02*
X11408410Y-15469060D01*
X11408410Y-15339060D02*
X11278410Y-15469060D01*
X11343410Y-15339060D02*
X11343410Y-15469060D01*
X11278410Y-15404060D02*
X11408410Y-15404060D01*
D11*
X11770791Y-15494536D02*
X11656505Y-15494536D01*
X11713648Y-15494536D02*
X11713648Y-15294536D01*
X11694600Y-15323108D01*
X11675553Y-15342155D01*
X11656505Y-15351679D01*
X11856505Y-15475488D02*
X11866029Y-15485012D01*
X11856505Y-15494536D01*
X11846981Y-15485012D01*
X11856505Y-15475488D01*
X11856505Y-15494536D01*
X11932696Y-15294536D02*
X12056505Y-15294536D01*
X11989838Y-15370727D01*
X12018410Y-15370727D01*
X12037458Y-15380250D01*
X12046981Y-15389774D01*
X12056505Y-15408822D01*
X12056505Y-15456441D01*
X12046981Y-15475488D01*
X12037458Y-15485012D01*
X12018410Y-15494536D01*
X11961267Y-15494536D01*
X11942219Y-15485012D01*
X11932696Y-15475488D01*
X12180315Y-15294536D02*
X12199362Y-15294536D01*
X12218410Y-15304060D01*
X12227934Y-15313584D01*
X12237458Y-15332631D01*
X12246981Y-15370727D01*
X12246981Y-15418346D01*
X12237458Y-15456441D01*
X12227934Y-15475488D01*
X12218410Y-15485012D01*
X12199362Y-15494536D01*
X12180315Y-15494536D01*
X12161267Y-15485012D01*
X12151743Y-15475488D01*
X12142219Y-15456441D01*
X12132696Y-15418346D01*
X12132696Y-15370727D01*
X12142219Y-15332631D01*
X12151743Y-15313584D01*
X12161267Y-15304060D01*
X12180315Y-15294536D01*
X12370791Y-15294536D02*
X12389838Y-15294536D01*
X12408886Y-15304060D01*
X12418410Y-15313584D01*
X12427934Y-15332631D01*
X12437458Y-15370727D01*
X12437458Y-15418346D01*
X12427934Y-15456441D01*
X12418410Y-15475488D01*
X12408886Y-15485012D01*
X12389838Y-15494536D01*
X12370791Y-15494536D01*
X12351743Y-15485012D01*
X12342219Y-15475488D01*
X12332696Y-15456441D01*
X12323172Y-15418346D01*
X12323172Y-15370727D01*
X12332696Y-15332631D01*
X12342219Y-15313584D01*
X12351743Y-15304060D01*
X12370791Y-15294536D01*
X12523172Y-15494536D02*
X12523172Y-15361203D01*
X12523172Y-15380250D02*
X12532696Y-15370727D01*
X12551743Y-15361203D01*
X12580315Y-15361203D01*
X12599362Y-15370727D01*
X12608886Y-15389774D01*
X12608886Y-15494536D01*
X12608886Y-15389774D02*
X12618410Y-15370727D01*
X12637458Y-15361203D01*
X12666029Y-15361203D01*
X12685077Y-15370727D01*
X12694600Y-15389774D01*
X12694600Y-15494536D01*
X12789838Y-15494536D02*
X12789838Y-15361203D01*
X12789838Y-15380250D02*
X12799362Y-15370727D01*
X12818410Y-15361203D01*
X12846981Y-15361203D01*
X12866029Y-15370727D01*
X12875553Y-15389774D01*
X12875553Y-15494536D01*
X12875553Y-15389774D02*
X12885077Y-15370727D01*
X12904124Y-15361203D01*
X12932696Y-15361203D01*
X12951743Y-15370727D01*
X12961267Y-15389774D01*
X12961267Y-15494536D01*
X13351743Y-15285012D02*
X13180315Y-15542155D01*
X13608886Y-15294536D02*
X13627934Y-15294536D01*
X13646981Y-15304060D01*
X13656505Y-15313584D01*
X13666029Y-15332631D01*
X13675553Y-15370727D01*
X13675553Y-15418346D01*
X13666029Y-15456441D01*
X13656505Y-15475488D01*
X13646981Y-15485012D01*
X13627934Y-15494536D01*
X13608886Y-15494536D01*
X13589838Y-15485012D01*
X13580315Y-15475488D01*
X13570791Y-15456441D01*
X13561267Y-15418346D01*
X13561267Y-15370727D01*
X13570791Y-15332631D01*
X13580315Y-15313584D01*
X13589838Y-15304060D01*
X13608886Y-15294536D01*
X13761267Y-15475488D02*
X13770791Y-15485012D01*
X13761267Y-15494536D01*
X13751743Y-15485012D01*
X13761267Y-15475488D01*
X13761267Y-15494536D01*
X13894600Y-15294536D02*
X13913648Y-15294536D01*
X13932696Y-15304060D01*
X13942219Y-15313584D01*
X13951743Y-15332631D01*
X13961267Y-15370727D01*
X13961267Y-15418346D01*
X13951743Y-15456441D01*
X13942219Y-15475488D01*
X13932696Y-15485012D01*
X13913648Y-15494536D01*
X13894600Y-15494536D01*
X13875553Y-15485012D01*
X13866029Y-15475488D01*
X13856505Y-15456441D01*
X13846981Y-15418346D01*
X13846981Y-15370727D01*
X13856505Y-15332631D01*
X13866029Y-15313584D01*
X13875553Y-15304060D01*
X13894600Y-15294536D01*
X14142219Y-15294536D02*
X14046981Y-15294536D01*
X14037458Y-15389774D01*
X14046981Y-15380250D01*
X14066029Y-15370727D01*
X14113648Y-15370727D01*
X14132696Y-15380250D01*
X14142219Y-15389774D01*
X14151743Y-15408822D01*
X14151743Y-15456441D01*
X14142219Y-15475488D01*
X14132696Y-15485012D01*
X14113648Y-15494536D01*
X14066029Y-15494536D01*
X14046981Y-15485012D01*
X14037458Y-15475488D01*
X14342219Y-15494536D02*
X14227934Y-15494536D01*
X14285077Y-15494536D02*
X14285077Y-15294536D01*
X14266029Y-15323108D01*
X14246981Y-15342155D01*
X14227934Y-15351679D01*
X14418410Y-15313584D02*
X14427934Y-15304060D01*
X14446981Y-15294536D01*
X14494600Y-15294536D01*
X14513648Y-15304060D01*
X14523172Y-15313584D01*
X14532696Y-15332631D01*
X14532696Y-15351679D01*
X14523172Y-15380250D01*
X14408886Y-15494536D01*
X14532696Y-15494536D01*
X14608886Y-15294536D02*
X14608886Y-15332631D01*
X14685077Y-15294536D02*
X14685077Y-15332631D01*
X14980315Y-15570727D02*
X14970791Y-15561203D01*
X14951743Y-15532631D01*
X14942219Y-15513584D01*
X14932696Y-15485012D01*
X14923172Y-15437393D01*
X14923172Y-15399298D01*
X14932696Y-15351679D01*
X14942219Y-15323108D01*
X14951743Y-15304060D01*
X14970791Y-15275488D01*
X14980315Y-15265965D01*
X15094600Y-15294536D02*
X15113648Y-15294536D01*
X15132696Y-15304060D01*
X15142219Y-15313584D01*
X15151743Y-15332631D01*
X15161267Y-15370727D01*
X15161267Y-15418346D01*
X15151743Y-15456441D01*
X15142219Y-15475488D01*
X15132696Y-15485012D01*
X15113648Y-15494536D01*
X15094600Y-15494536D01*
X15075553Y-15485012D01*
X15066029Y-15475488D01*
X15056505Y-15456441D01*
X15046981Y-15418346D01*
X15046981Y-15370727D01*
X15056505Y-15332631D01*
X15066029Y-15313584D01*
X15075553Y-15304060D01*
X15094600Y-15294536D01*
X15399362Y-15494536D02*
X15399362Y-15294536D01*
X15485077Y-15494536D02*
X15485077Y-15389774D01*
X15475553Y-15370727D01*
X15456505Y-15361203D01*
X15427934Y-15361203D01*
X15408886Y-15370727D01*
X15399362Y-15380250D01*
X15608886Y-15494536D02*
X15589838Y-15485012D01*
X15580315Y-15475488D01*
X15570791Y-15456441D01*
X15570791Y-15399298D01*
X15580315Y-15380250D01*
X15589838Y-15370727D01*
X15608886Y-15361203D01*
X15637458Y-15361203D01*
X15656505Y-15370727D01*
X15666029Y-15380250D01*
X15675553Y-15399298D01*
X15675553Y-15456441D01*
X15666029Y-15475488D01*
X15656505Y-15485012D01*
X15637458Y-15494536D01*
X15608886Y-15494536D01*
X15789838Y-15494536D02*
X15770791Y-15485012D01*
X15761267Y-15465965D01*
X15761267Y-15294536D01*
X15942219Y-15485012D02*
X15923172Y-15494536D01*
X15885077Y-15494536D01*
X15866029Y-15485012D01*
X15856505Y-15465965D01*
X15856505Y-15389774D01*
X15866029Y-15370727D01*
X15885077Y-15361203D01*
X15923172Y-15361203D01*
X15942219Y-15370727D01*
X15951743Y-15389774D01*
X15951743Y-15408822D01*
X15856505Y-15427869D01*
X16027934Y-15485012D02*
X16046981Y-15494536D01*
X16085077Y-15494536D01*
X16104124Y-15485012D01*
X16113648Y-15465965D01*
X16113648Y-15456441D01*
X16104124Y-15437393D01*
X16085077Y-15427869D01*
X16056505Y-15427869D01*
X16037458Y-15418346D01*
X16027934Y-15399298D01*
X16027934Y-15389774D01*
X16037458Y-15370727D01*
X16056505Y-15361203D01*
X16085077Y-15361203D01*
X16104124Y-15370727D01*
X16351743Y-15418346D02*
X16504124Y-15418346D01*
X16427934Y-15494536D02*
X16427934Y-15342155D01*
X16732696Y-15294536D02*
X16856505Y-15294536D01*
X16789839Y-15370727D01*
X16818410Y-15370727D01*
X16837458Y-15380250D01*
X16846981Y-15389774D01*
X16856505Y-15408822D01*
X16856505Y-15456441D01*
X16846981Y-15475488D01*
X16837458Y-15485012D01*
X16818410Y-15494536D01*
X16761267Y-15494536D01*
X16742219Y-15485012D01*
X16732696Y-15475488D01*
X17085077Y-15485012D02*
X17104124Y-15494536D01*
X17142220Y-15494536D01*
X17161267Y-15485012D01*
X17170791Y-15465965D01*
X17170791Y-15456441D01*
X17161267Y-15437393D01*
X17142220Y-15427869D01*
X17113648Y-15427869D01*
X17094600Y-15418346D01*
X17085077Y-15399298D01*
X17085077Y-15389774D01*
X17094600Y-15370727D01*
X17113648Y-15361203D01*
X17142220Y-15361203D01*
X17161267Y-15370727D01*
X17285077Y-15494536D02*
X17266029Y-15485012D01*
X17256505Y-15465965D01*
X17256505Y-15294536D01*
X17389839Y-15494536D02*
X17370791Y-15485012D01*
X17361267Y-15475488D01*
X17351743Y-15456441D01*
X17351743Y-15399298D01*
X17361267Y-15380250D01*
X17370791Y-15370727D01*
X17389839Y-15361203D01*
X17418410Y-15361203D01*
X17437458Y-15370727D01*
X17446981Y-15380250D01*
X17456505Y-15399298D01*
X17456505Y-15456441D01*
X17446981Y-15475488D01*
X17437458Y-15485012D01*
X17418410Y-15494536D01*
X17389839Y-15494536D01*
X17513648Y-15361203D02*
X17589839Y-15361203D01*
X17542220Y-15294536D02*
X17542220Y-15465965D01*
X17551743Y-15485012D01*
X17570791Y-15494536D01*
X17589839Y-15494536D01*
X17646981Y-15485012D02*
X17666029Y-15494536D01*
X17704124Y-15494536D01*
X17723172Y-15485012D01*
X17732696Y-15465965D01*
X17732696Y-15456441D01*
X17723172Y-15437393D01*
X17704124Y-15427869D01*
X17675553Y-15427869D01*
X17656505Y-15418346D01*
X17646981Y-15399298D01*
X17646981Y-15389774D01*
X17656505Y-15370727D01*
X17675553Y-15361203D01*
X17704124Y-15361203D01*
X17723172Y-15370727D01*
X17799362Y-15570727D02*
X17808886Y-15561203D01*
X17827934Y-15532631D01*
X17837458Y-15513584D01*
X17846981Y-15485012D01*
X17856505Y-15437393D01*
X17856505Y-15399298D01*
X17846981Y-15351679D01*
X17837458Y-15323108D01*
X17827934Y-15304060D01*
X17808886Y-15275488D01*
X17799362Y-15265965D01*
M02*
