%TF.GenerationSoftware,KiCad,Pcbnew,(6.0.10-0)*%
%TF.CreationDate,2023-01-08T15:47:47+01:00*%
%TF.ProjectId,Leonardo_Rev3d,4c656f6e-6172-4646-9f5f-52657633642e,3d*%
%TF.SameCoordinates,Original*%
%TF.FileFunction,Legend,Bot*%
%TF.FilePolarity,Positive*%
%FSLAX46Y46*%
G04 Gerber Fmt 4.6, Leading zero omitted, Abs format (unit mm)*
G04 Created by KiCad (PCBNEW (6.0.10-0)) date 2023-01-08 15:47:47*
%MOMM*%
%LPD*%
G01*
G04 APERTURE LIST*
%ADD10C,0.304800*%
%ADD11C,0.120000*%
%ADD12C,0.142240*%
%ADD13C,0.150000*%
%ADD14C,0.152400*%
%ADD15C,0.121920*%
%ADD16C,0.170688*%
%ADD17C,0.251460*%
%ADD18C,0.022433*%
%ADD19C,0.081280*%
%ADD20C,0.140208*%
G04 APERTURE END LIST*
D10*
X178440000Y-84984000D02*
X178059000Y-85365000D01*
X175188000Y-84778000D02*
X174299000Y-85667000D01*
X178059000Y-85619000D02*
X178948000Y-84730000D01*
D11*
X137790000Y-91130000D02*
X142310000Y-91130000D01*
X142310000Y-91130000D02*
X142310000Y-92940000D01*
X142310000Y-92940000D02*
X137790000Y-92940000D01*
X137790000Y-92940000D02*
X137790000Y-91130000D01*
D10*
X177170000Y-84730000D02*
X178059000Y-85619000D01*
X175188000Y-85032000D02*
X175696000Y-85540000D01*
X175442000Y-85540000D02*
X174680000Y-85540000D01*
D11*
X142650000Y-117210000D02*
X142370000Y-119110000D01*
D10*
X174680000Y-85540000D02*
X175188000Y-85032000D01*
D11*
X142680000Y-115180000D02*
X142650000Y-117210000D01*
X122360000Y-112490000D02*
X122360000Y-109280000D01*
D10*
X175061000Y-85286000D02*
X175442000Y-85540000D01*
X178059000Y-85365000D02*
X177551000Y-84857000D01*
X174299000Y-85667000D02*
X176077000Y-85667000D01*
D11*
X122360000Y-109280000D02*
X125680000Y-109280000D01*
X142370000Y-119110000D02*
X140650000Y-119110000D01*
D10*
X177932000Y-84984000D02*
X178440000Y-84984000D01*
X178059000Y-85238000D02*
X178059000Y-85111000D01*
X177551000Y-84857000D02*
X178567000Y-84857000D01*
X178948000Y-84730000D02*
X177170000Y-84730000D01*
D11*
X140650000Y-119110000D02*
X140950000Y-116880000D01*
X125690000Y-112495000D02*
X125690000Y-109285000D01*
D10*
X176077000Y-85667000D02*
X175188000Y-84778000D01*
D12*
X175771520Y-89377424D02*
X175771520Y-88645904D01*
X174491360Y-89011664D02*
X175771520Y-89011664D01*
X175771520Y-88341104D02*
X174491360Y-87487664D01*
X175771520Y-87487664D02*
X174491360Y-88341104D01*
X174491360Y-86329424D02*
X174491360Y-87060944D01*
X174491360Y-86695184D02*
X175771520Y-86695184D01*
X175588640Y-86817104D01*
X175466720Y-86939024D01*
X175405760Y-87060944D01*
X141060160Y-85472184D02*
X141121120Y-85594104D01*
X141121120Y-85776984D01*
X141060160Y-85959864D01*
X140938240Y-86081784D01*
X140816320Y-86142744D01*
X140572480Y-86203704D01*
X140389600Y-86203704D01*
X140145760Y-86142744D01*
X140023840Y-86081784D01*
X139901920Y-85959864D01*
X139840960Y-85776984D01*
X139840960Y-85655064D01*
X139901920Y-85472184D01*
X139962880Y-85411224D01*
X140389600Y-85411224D01*
X140389600Y-85655064D01*
X139840960Y-84862584D02*
X141121120Y-84862584D01*
X139840960Y-84131064D01*
X141121120Y-84131064D01*
X139840960Y-83521464D02*
X141121120Y-83521464D01*
X141121120Y-83216664D01*
X141060160Y-83033784D01*
X140938240Y-82911864D01*
X140816320Y-82850904D01*
X140572480Y-82789944D01*
X140389600Y-82789944D01*
X140145760Y-82850904D01*
X140023840Y-82911864D01*
X139901920Y-83033784D01*
X139840960Y-83216664D01*
X139840960Y-83521464D01*
X146660960Y-126241224D02*
X147270560Y-126667944D01*
X146660960Y-126972744D02*
X147941120Y-126972744D01*
X147941120Y-126485064D01*
X147880160Y-126363144D01*
X147819200Y-126302184D01*
X147697280Y-126241224D01*
X147514400Y-126241224D01*
X147392480Y-126302184D01*
X147331520Y-126363144D01*
X147270560Y-126485064D01*
X147270560Y-126972744D01*
X146721920Y-125753544D02*
X146660960Y-125570664D01*
X146660960Y-125265864D01*
X146721920Y-125143944D01*
X146782880Y-125082984D01*
X146904800Y-125022024D01*
X147026720Y-125022024D01*
X147148640Y-125082984D01*
X147209600Y-125143944D01*
X147270560Y-125265864D01*
X147331520Y-125509704D01*
X147392480Y-125631624D01*
X147453440Y-125692584D01*
X147575360Y-125753544D01*
X147697280Y-125753544D01*
X147819200Y-125692584D01*
X147880160Y-125631624D01*
X147941120Y-125509704D01*
X147941120Y-125204904D01*
X147880160Y-125022024D01*
X147941120Y-124656264D02*
X147941120Y-123924744D01*
X146660960Y-124290504D02*
X147941120Y-124290504D01*
D13*
X141718571Y-117620952D02*
X141718571Y-116859047D01*
X141337619Y-117240000D02*
X142099523Y-117240000D01*
X142337619Y-116478095D02*
X142337619Y-115859047D01*
X141956666Y-116192380D01*
X141956666Y-116049523D01*
X141909047Y-115954285D01*
X141861428Y-115906666D01*
X141766190Y-115859047D01*
X141528095Y-115859047D01*
X141432857Y-115906666D01*
X141385238Y-115954285D01*
X141337619Y-116049523D01*
X141337619Y-116335238D01*
X141385238Y-116430476D01*
X141432857Y-116478095D01*
X141432857Y-115430476D02*
X141385238Y-115382857D01*
X141337619Y-115430476D01*
X141385238Y-115478095D01*
X141432857Y-115430476D01*
X141337619Y-115430476D01*
X142337619Y-115049523D02*
X142337619Y-114430476D01*
X141956666Y-114763809D01*
X141956666Y-114620952D01*
X141909047Y-114525714D01*
X141861428Y-114478095D01*
X141766190Y-114430476D01*
X141528095Y-114430476D01*
X141432857Y-114478095D01*
X141385238Y-114525714D01*
X141337619Y-114620952D01*
X141337619Y-114906666D01*
X141385238Y-115001904D01*
X141432857Y-115049523D01*
X142337619Y-114144761D02*
X141337619Y-113811428D01*
X142337619Y-113478095D01*
D14*
X172996780Y-83620564D02*
X173050000Y-83567345D01*
X173103219Y-83460907D01*
X173103219Y-83194812D01*
X173050000Y-83088374D01*
X172996780Y-83035155D01*
X172890342Y-82981936D01*
X172783904Y-82981936D01*
X172624247Y-83035155D01*
X171985619Y-83673783D01*
X171985619Y-82981936D01*
X167470685Y-83178374D02*
X166725619Y-83178374D01*
X167896438Y-83444469D02*
X167098152Y-83710564D01*
X167098152Y-83018717D01*
D15*
X168070451Y-127021973D02*
X167644698Y-127021973D01*
X168155601Y-127277424D02*
X167857574Y-126383344D01*
X167559548Y-127277424D01*
X166793193Y-127277424D02*
X167304096Y-127277424D01*
X167048645Y-127277424D02*
X167048645Y-126383344D01*
X167133795Y-126511070D01*
X167218946Y-126596220D01*
X167304096Y-126638796D01*
D14*
X178083219Y-83394469D02*
X178083219Y-83288031D01*
X178030000Y-83181593D01*
X177976780Y-83128374D01*
X177870342Y-83075155D01*
X177657466Y-83021936D01*
X177391371Y-83021936D01*
X177178495Y-83075155D01*
X177072057Y-83128374D01*
X177018838Y-83181593D01*
X176965619Y-83288031D01*
X176965619Y-83394469D01*
X177018838Y-83500907D01*
X177072057Y-83554126D01*
X177178495Y-83607345D01*
X177391371Y-83660564D01*
X177657466Y-83660564D01*
X177870342Y-83607345D01*
X177976780Y-83554126D01*
X178030000Y-83500907D01*
X178083219Y-83394469D01*
X150025619Y-84046317D02*
X150025619Y-84684945D01*
X150025619Y-84365631D02*
X151143219Y-84365631D01*
X150983561Y-84472069D01*
X150877123Y-84578507D01*
X150823904Y-84684945D01*
X151143219Y-83354469D02*
X151143219Y-83248031D01*
X151090000Y-83141593D01*
X151036780Y-83088374D01*
X150930342Y-83035155D01*
X150717466Y-82981936D01*
X150451371Y-82981936D01*
X150238495Y-83035155D01*
X150132057Y-83088374D01*
X150078838Y-83141593D01*
X150025619Y-83248031D01*
X150025619Y-83354469D01*
X150078838Y-83460907D01*
X150132057Y-83514126D01*
X150238495Y-83567345D01*
X150451371Y-83620564D01*
X150717466Y-83620564D01*
X150930342Y-83567345D01*
X151036780Y-83514126D01*
X151090000Y-83460907D01*
X151143219Y-83354469D01*
D12*
X150421120Y-127094664D02*
X150421120Y-126302184D01*
X149933440Y-126728904D01*
X149933440Y-126546024D01*
X149872480Y-126424104D01*
X149811520Y-126363144D01*
X149689600Y-126302184D01*
X149384800Y-126302184D01*
X149262880Y-126363144D01*
X149201920Y-126424104D01*
X149140960Y-126546024D01*
X149140960Y-126911784D01*
X149201920Y-127033704D01*
X149262880Y-127094664D01*
X150421120Y-125936424D02*
X149140960Y-125509704D01*
X150421120Y-125082984D01*
X150421120Y-124778184D02*
X150421120Y-123985704D01*
X149933440Y-124412424D01*
X149933440Y-124229544D01*
X149872480Y-124107624D01*
X149811520Y-124046664D01*
X149689600Y-123985704D01*
X149384800Y-123985704D01*
X149262880Y-124046664D01*
X149201920Y-124107624D01*
X149140960Y-124229544D01*
X149140960Y-124595304D01*
X149201920Y-124717224D01*
X149262880Y-124778184D01*
X132291920Y-86103704D02*
X132230960Y-85920824D01*
X132230960Y-85616024D01*
X132291920Y-85494104D01*
X132352880Y-85433144D01*
X132474800Y-85372184D01*
X132596720Y-85372184D01*
X132718640Y-85433144D01*
X132779600Y-85494104D01*
X132840560Y-85616024D01*
X132901520Y-85859864D01*
X132962480Y-85981784D01*
X133023440Y-86042744D01*
X133145360Y-86103704D01*
X133267280Y-86103704D01*
X133389200Y-86042744D01*
X133450160Y-85981784D01*
X133511120Y-85859864D01*
X133511120Y-85555064D01*
X133450160Y-85372184D01*
X132352880Y-84092024D02*
X132291920Y-84152984D01*
X132230960Y-84335864D01*
X132230960Y-84457784D01*
X132291920Y-84640664D01*
X132413840Y-84762584D01*
X132535760Y-84823544D01*
X132779600Y-84884504D01*
X132962480Y-84884504D01*
X133206320Y-84823544D01*
X133328240Y-84762584D01*
X133450160Y-84640664D01*
X133511120Y-84457784D01*
X133511120Y-84335864D01*
X133450160Y-84152984D01*
X133389200Y-84092024D01*
X132230960Y-82933784D02*
X132230960Y-83543384D01*
X133511120Y-83543384D01*
D14*
X145035619Y-84136317D02*
X145035619Y-84774945D01*
X145035619Y-84455631D02*
X146153219Y-84455631D01*
X145993561Y-84562069D01*
X145887123Y-84668507D01*
X145833904Y-84774945D01*
X146046780Y-83710564D02*
X146100000Y-83657345D01*
X146153219Y-83550907D01*
X146153219Y-83284812D01*
X146100000Y-83178374D01*
X146046780Y-83125155D01*
X145940342Y-83071936D01*
X145833904Y-83071936D01*
X145674247Y-83125155D01*
X145035619Y-83763783D01*
X145035619Y-83071936D01*
D12*
X134841920Y-86063704D02*
X134780960Y-85880824D01*
X134780960Y-85576024D01*
X134841920Y-85454104D01*
X134902880Y-85393144D01*
X135024800Y-85332184D01*
X135146720Y-85332184D01*
X135268640Y-85393144D01*
X135329600Y-85454104D01*
X135390560Y-85576024D01*
X135451520Y-85819864D01*
X135512480Y-85941784D01*
X135573440Y-86002744D01*
X135695360Y-86063704D01*
X135817280Y-86063704D01*
X135939200Y-86002744D01*
X136000160Y-85941784D01*
X136061120Y-85819864D01*
X136061120Y-85515064D01*
X136000160Y-85332184D01*
X134780960Y-84783544D02*
X136061120Y-84783544D01*
X136061120Y-84478744D01*
X136000160Y-84295864D01*
X135878240Y-84173944D01*
X135756320Y-84112984D01*
X135512480Y-84052024D01*
X135329600Y-84052024D01*
X135085760Y-84112984D01*
X134963840Y-84173944D01*
X134841920Y-84295864D01*
X134780960Y-84478744D01*
X134780960Y-84783544D01*
X135146720Y-83564344D02*
X135146720Y-82954744D01*
X134780960Y-83686264D02*
X136061120Y-83259544D01*
X134780960Y-82832824D01*
X177484960Y-88427224D02*
X178094560Y-88853944D01*
X177484960Y-89158744D02*
X178765120Y-89158744D01*
X178765120Y-88671064D01*
X178704160Y-88549144D01*
X178643200Y-88488184D01*
X178521280Y-88427224D01*
X178338400Y-88427224D01*
X178216480Y-88488184D01*
X178155520Y-88549144D01*
X178094560Y-88671064D01*
X178094560Y-89158744D01*
X178765120Y-88000504D02*
X177484960Y-87147064D01*
X178765120Y-87147064D02*
X177484960Y-88000504D01*
X177484960Y-85988824D02*
X177484960Y-86720344D01*
X177484960Y-86354584D02*
X178765120Y-86354584D01*
X178582240Y-86476504D01*
X178460320Y-86598424D01*
X178399360Y-86720344D01*
D14*
X142365619Y-84136317D02*
X142365619Y-84774945D01*
X142365619Y-84455631D02*
X143483219Y-84455631D01*
X143323561Y-84562069D01*
X143217123Y-84668507D01*
X143163904Y-84774945D01*
X143483219Y-83763783D02*
X143483219Y-83071936D01*
X143057466Y-83444469D01*
X143057466Y-83284812D01*
X143004247Y-83178374D01*
X142951028Y-83125155D01*
X142844590Y-83071936D01*
X142578495Y-83071936D01*
X142472057Y-83125155D01*
X142418838Y-83178374D01*
X142365619Y-83284812D01*
X142365619Y-83604126D01*
X142418838Y-83710564D01*
X142472057Y-83763783D01*
D16*
X153051317Y-126274972D02*
X153051317Y-126871026D01*
X152455264Y-126930631D01*
X152514869Y-126871026D01*
X152574474Y-126751815D01*
X152574474Y-126453788D01*
X152514869Y-126334578D01*
X152455264Y-126274972D01*
X152336053Y-126215367D01*
X152038026Y-126215367D01*
X151918816Y-126274972D01*
X151859210Y-126334578D01*
X151799605Y-126453788D01*
X151799605Y-126751815D01*
X151859210Y-126871026D01*
X151918816Y-126930631D01*
X153051317Y-125857735D02*
X151799605Y-125440498D01*
X153051317Y-125023260D01*
D15*
X178310451Y-127021973D02*
X177884698Y-127021973D01*
X178395601Y-127277424D02*
X178097574Y-126383344D01*
X177799548Y-127277424D01*
X177075769Y-126383344D02*
X177501521Y-126383344D01*
X177544096Y-126809097D01*
X177501521Y-126766521D01*
X177416371Y-126723946D01*
X177203494Y-126723946D01*
X177118344Y-126766521D01*
X177075769Y-126809097D01*
X177033193Y-126894247D01*
X177033193Y-127107123D01*
X177075769Y-127192274D01*
X177118344Y-127234849D01*
X177203494Y-127277424D01*
X177416371Y-127277424D01*
X177501521Y-127234849D01*
X177544096Y-127192274D01*
D13*
X141391904Y-91640000D02*
X141487142Y-91592380D01*
X141630000Y-91592380D01*
X141772857Y-91640000D01*
X141868095Y-91735238D01*
X141915714Y-91830476D01*
X141963333Y-92020952D01*
X141963333Y-92163809D01*
X141915714Y-92354285D01*
X141868095Y-92449523D01*
X141772857Y-92544761D01*
X141630000Y-92592380D01*
X141534761Y-92592380D01*
X141391904Y-92544761D01*
X141344285Y-92497142D01*
X141344285Y-92163809D01*
X141534761Y-92163809D01*
X140915714Y-92592380D02*
X140915714Y-91592380D01*
X140344285Y-92592380D01*
X140344285Y-91592380D01*
X139868095Y-92592380D02*
X139868095Y-91592380D01*
X139630000Y-91592380D01*
X139487142Y-91640000D01*
X139391904Y-91735238D01*
X139344285Y-91830476D01*
X139296666Y-92020952D01*
X139296666Y-92163809D01*
X139344285Y-92354285D01*
X139391904Y-92449523D01*
X139487142Y-92544761D01*
X139630000Y-92592380D01*
X139868095Y-92592380D01*
X125445714Y-113471428D02*
X124683809Y-113471428D01*
X125064761Y-113852380D02*
X125064761Y-113090476D01*
X123731428Y-112852380D02*
X124207619Y-112852380D01*
X124255238Y-113328571D01*
X124207619Y-113280952D01*
X124112380Y-113233333D01*
X123874285Y-113233333D01*
X123779047Y-113280952D01*
X123731428Y-113328571D01*
X123683809Y-113423809D01*
X123683809Y-113661904D01*
X123731428Y-113757142D01*
X123779047Y-113804761D01*
X123874285Y-113852380D01*
X124112380Y-113852380D01*
X124207619Y-113804761D01*
X124255238Y-113757142D01*
X123398095Y-112852380D02*
X123064761Y-113852380D01*
X122731428Y-112852380D01*
D14*
X174515619Y-83021936D02*
X174515619Y-83660564D01*
X174515619Y-83341250D02*
X175633219Y-83341250D01*
X175473561Y-83447688D01*
X175367123Y-83554126D01*
X175313904Y-83660564D01*
D15*
X173250451Y-126981973D02*
X172824698Y-126981973D01*
X173335601Y-127237424D02*
X173037574Y-126343344D01*
X172739548Y-127237424D01*
X172526672Y-126343344D02*
X171973193Y-126343344D01*
X172271220Y-126683946D01*
X172143494Y-126683946D01*
X172058344Y-126726521D01*
X172015769Y-126769097D01*
X171973193Y-126854247D01*
X171973193Y-127067123D01*
X172015769Y-127152274D01*
X172058344Y-127194849D01*
X172143494Y-127237424D01*
X172398946Y-127237424D01*
X172484096Y-127194849D01*
X172526672Y-127152274D01*
D16*
X155471712Y-126255367D02*
X155531317Y-126374578D01*
X155531317Y-126553394D01*
X155471712Y-126732210D01*
X155352501Y-126851420D01*
X155233290Y-126911026D01*
X154994869Y-126970631D01*
X154816053Y-126970631D01*
X154577632Y-126911026D01*
X154458421Y-126851420D01*
X154339210Y-126732210D01*
X154279605Y-126553394D01*
X154279605Y-126434183D01*
X154339210Y-126255367D01*
X154398816Y-126195762D01*
X154816053Y-126195762D01*
X154816053Y-126434183D01*
X154279605Y-125659314D02*
X155531317Y-125659314D01*
X154279605Y-124944050D01*
X155531317Y-124944050D01*
X154279605Y-124347996D02*
X155531317Y-124347996D01*
X155531317Y-124049970D01*
X155471712Y-123871154D01*
X155352501Y-123751943D01*
X155233290Y-123692338D01*
X154994869Y-123632732D01*
X154816053Y-123632732D01*
X154577632Y-123692338D01*
X154458421Y-123751943D01*
X154339210Y-123871154D01*
X154279605Y-124049970D01*
X154279605Y-124347996D01*
X160631317Y-126969842D02*
X159379605Y-126552604D01*
X160631317Y-126135367D01*
X159379605Y-125718130D02*
X160631317Y-125718130D01*
X159379605Y-125122076D02*
X160631317Y-125122076D01*
X159379605Y-124406812D01*
X160631317Y-124406812D01*
X158081712Y-126215367D02*
X158141317Y-126334578D01*
X158141317Y-126513394D01*
X158081712Y-126692210D01*
X157962501Y-126811420D01*
X157843290Y-126871026D01*
X157604869Y-126930631D01*
X157426053Y-126930631D01*
X157187632Y-126871026D01*
X157068421Y-126811420D01*
X156949210Y-126692210D01*
X156889605Y-126513394D01*
X156889605Y-126394183D01*
X156949210Y-126215367D01*
X157008816Y-126155762D01*
X157426053Y-126155762D01*
X157426053Y-126394183D01*
X156889605Y-125619314D02*
X158141317Y-125619314D01*
X156889605Y-124904050D01*
X158141317Y-124904050D01*
X156889605Y-124307996D02*
X158141317Y-124307996D01*
X158141317Y-124009970D01*
X158081712Y-123831154D01*
X157962501Y-123711943D01*
X157843290Y-123652338D01*
X157604869Y-123592732D01*
X157426053Y-123592732D01*
X157187632Y-123652338D01*
X157068421Y-123711943D01*
X156949210Y-123831154D01*
X156889605Y-124009970D01*
X156889605Y-124307996D01*
D12*
X137716720Y-87263704D02*
X137716720Y-86654104D01*
X137350960Y-87385624D02*
X138631120Y-86958904D01*
X137350960Y-86532184D01*
X137350960Y-85373944D02*
X137960560Y-85800664D01*
X137350960Y-86105464D02*
X138631120Y-86105464D01*
X138631120Y-85617784D01*
X138570160Y-85495864D01*
X138509200Y-85434904D01*
X138387280Y-85373944D01*
X138204400Y-85373944D01*
X138082480Y-85434904D01*
X138021520Y-85495864D01*
X137960560Y-85617784D01*
X137960560Y-86105464D01*
X138021520Y-84825304D02*
X138021520Y-84398584D01*
X137350960Y-84215704D02*
X137350960Y-84825304D01*
X138631120Y-84825304D01*
X138631120Y-84215704D01*
X138021520Y-83240344D02*
X138021520Y-83667064D01*
X137350960Y-83667064D02*
X138631120Y-83667064D01*
X138631120Y-83057464D01*
D14*
X165443219Y-82985155D02*
X165443219Y-83517345D01*
X164911028Y-83570564D01*
X164964247Y-83517345D01*
X165017466Y-83410907D01*
X165017466Y-83144812D01*
X164964247Y-83038374D01*
X164911028Y-82985155D01*
X164804590Y-82931936D01*
X164538495Y-82931936D01*
X164432057Y-82985155D01*
X164378838Y-83038374D01*
X164325619Y-83144812D01*
X164325619Y-83410907D01*
X164378838Y-83517345D01*
X164432057Y-83570564D01*
X147575619Y-84136317D02*
X147575619Y-84774945D01*
X147575619Y-84455631D02*
X148693219Y-84455631D01*
X148533561Y-84562069D01*
X148427123Y-84668507D01*
X148373904Y-84774945D01*
X147575619Y-83071936D02*
X147575619Y-83710564D01*
X147575619Y-83391250D02*
X148693219Y-83391250D01*
X148533561Y-83497688D01*
X148427123Y-83604126D01*
X148373904Y-83710564D01*
D15*
X175780451Y-126981973D02*
X175354698Y-126981973D01*
X175865601Y-127237424D02*
X175567574Y-126343344D01*
X175269548Y-127237424D01*
X174588344Y-126641371D02*
X174588344Y-127237424D01*
X174801220Y-126300769D02*
X175014096Y-126939398D01*
X174460618Y-126939398D01*
X170680451Y-127021973D02*
X170254698Y-127021973D01*
X170765601Y-127277424D02*
X170467574Y-126383344D01*
X170169548Y-127277424D01*
X169914096Y-126468495D02*
X169871521Y-126425920D01*
X169786371Y-126383344D01*
X169573494Y-126383344D01*
X169488344Y-126425920D01*
X169445769Y-126468495D01*
X169403193Y-126553645D01*
X169403193Y-126638796D01*
X169445769Y-126766521D01*
X169956672Y-127277424D01*
X169403193Y-127277424D01*
X165620451Y-126981973D02*
X165194698Y-126981973D01*
X165705601Y-127237424D02*
X165407574Y-126343344D01*
X165109548Y-127237424D01*
X164641220Y-126343344D02*
X164556070Y-126343344D01*
X164470919Y-126385920D01*
X164428344Y-126428495D01*
X164385769Y-126513645D01*
X164343193Y-126683946D01*
X164343193Y-126896822D01*
X164385769Y-127067123D01*
X164428344Y-127152274D01*
X164470919Y-127194849D01*
X164556070Y-127237424D01*
X164641220Y-127237424D01*
X164726371Y-127194849D01*
X164768946Y-127152274D01*
X164811521Y-127067123D01*
X164854096Y-126896822D01*
X164854096Y-126683946D01*
X164811521Y-126513645D01*
X164768946Y-126428495D01*
X164726371Y-126385920D01*
X164641220Y-126343344D01*
D12*
X144080960Y-126882744D02*
X145361120Y-126882744D01*
X145361120Y-126029304D02*
X145361120Y-125785464D01*
X145300160Y-125663544D01*
X145178240Y-125541624D01*
X144934400Y-125480664D01*
X144507680Y-125480664D01*
X144263840Y-125541624D01*
X144141920Y-125663544D01*
X144080960Y-125785464D01*
X144080960Y-126029304D01*
X144141920Y-126151224D01*
X144263840Y-126273144D01*
X144507680Y-126334104D01*
X144934400Y-126334104D01*
X145178240Y-126273144D01*
X145300160Y-126151224D01*
X145361120Y-126029304D01*
X144080960Y-124200504D02*
X144690560Y-124627224D01*
X144080960Y-124932024D02*
X145361120Y-124932024D01*
X145361120Y-124444344D01*
X145300160Y-124322424D01*
X145239200Y-124261464D01*
X145117280Y-124200504D01*
X144934400Y-124200504D01*
X144812480Y-124261464D01*
X144751520Y-124322424D01*
X144690560Y-124444344D01*
X144690560Y-124932024D01*
X144751520Y-123651864D02*
X144751520Y-123225144D01*
X144080960Y-123042264D02*
X144080960Y-123651864D01*
X145361120Y-123651864D01*
X145361120Y-123042264D01*
X144751520Y-122066904D02*
X144751520Y-122493624D01*
X144080960Y-122493624D02*
X145361120Y-122493624D01*
X145361120Y-121884024D01*
D14*
X160273219Y-83623783D02*
X160273219Y-82878717D01*
X159155619Y-83357688D01*
X152515619Y-83514126D02*
X152515619Y-83301250D01*
X152568838Y-83194812D01*
X152622057Y-83141593D01*
X152781714Y-83035155D01*
X152994590Y-82981936D01*
X153420342Y-82981936D01*
X153526780Y-83035155D01*
X153580000Y-83088374D01*
X153633219Y-83194812D01*
X153633219Y-83407688D01*
X153580000Y-83514126D01*
X153526780Y-83567345D01*
X153420342Y-83620564D01*
X153154247Y-83620564D01*
X153047809Y-83567345D01*
X152994590Y-83514126D01*
X152941371Y-83407688D01*
X152941371Y-83194812D01*
X152994590Y-83088374D01*
X153047809Y-83035155D01*
X153154247Y-82981936D01*
D13*
X177671547Y-92127380D02*
X177766785Y-92079761D01*
X177814404Y-92032142D01*
X177862023Y-91936904D01*
X177862023Y-91651190D01*
X177814404Y-91555952D01*
X177766785Y-91508333D01*
X177671547Y-91460714D01*
X177528690Y-91460714D01*
X177433452Y-91508333D01*
X177385833Y-91555952D01*
X177338214Y-91651190D01*
X177338214Y-91936904D01*
X177385833Y-92032142D01*
X177433452Y-92079761D01*
X177528690Y-92127380D01*
X177671547Y-92127380D01*
X176909642Y-92127380D02*
X176909642Y-91460714D01*
X176909642Y-91651190D02*
X176862023Y-91555952D01*
X176814404Y-91508333D01*
X176719166Y-91460714D01*
X176623928Y-91460714D01*
X176290595Y-92127380D02*
X176290595Y-91460714D01*
X176290595Y-91127380D02*
X176338214Y-91175000D01*
X176290595Y-91222619D01*
X176242976Y-91175000D01*
X176290595Y-91127380D01*
X176290595Y-91222619D01*
X175385833Y-91460714D02*
X175385833Y-92270238D01*
X175433452Y-92365476D01*
X175481071Y-92413095D01*
X175576309Y-92460714D01*
X175719166Y-92460714D01*
X175814404Y-92413095D01*
X175385833Y-92079761D02*
X175481071Y-92127380D01*
X175671547Y-92127380D01*
X175766785Y-92079761D01*
X175814404Y-92032142D01*
X175862023Y-91936904D01*
X175862023Y-91651190D01*
X175814404Y-91555952D01*
X175766785Y-91508333D01*
X175671547Y-91460714D01*
X175481071Y-91460714D01*
X175385833Y-91508333D01*
X174909642Y-92127380D02*
X174909642Y-91460714D01*
X174909642Y-91127380D02*
X174957261Y-91175000D01*
X174909642Y-91222619D01*
X174862023Y-91175000D01*
X174909642Y-91127380D01*
X174909642Y-91222619D01*
X174433452Y-91460714D02*
X174433452Y-92127380D01*
X174433452Y-91555952D02*
X174385833Y-91508333D01*
X174290595Y-91460714D01*
X174147738Y-91460714D01*
X174052500Y-91508333D01*
X174004880Y-91603571D01*
X174004880Y-92127380D01*
X173100119Y-92127380D02*
X173100119Y-91603571D01*
X173147738Y-91508333D01*
X173242976Y-91460714D01*
X173433452Y-91460714D01*
X173528690Y-91508333D01*
X173100119Y-92079761D02*
X173195357Y-92127380D01*
X173433452Y-92127380D01*
X173528690Y-92079761D01*
X173576309Y-91984523D01*
X173576309Y-91889285D01*
X173528690Y-91794047D01*
X173433452Y-91746428D01*
X173195357Y-91746428D01*
X173100119Y-91698809D01*
X172481071Y-92127380D02*
X172576309Y-92079761D01*
X172623928Y-91984523D01*
X172623928Y-91127380D01*
X170909642Y-92127380D02*
X170909642Y-91127380D01*
X170909642Y-92079761D02*
X171004880Y-92127380D01*
X171195357Y-92127380D01*
X171290595Y-92079761D01*
X171338214Y-92032142D01*
X171385833Y-91936904D01*
X171385833Y-91651190D01*
X171338214Y-91555952D01*
X171290595Y-91508333D01*
X171195357Y-91460714D01*
X171004880Y-91460714D01*
X170909642Y-91508333D01*
X170052500Y-92079761D02*
X170147738Y-92127380D01*
X170338214Y-92127380D01*
X170433452Y-92079761D01*
X170481071Y-91984523D01*
X170481071Y-91603571D01*
X170433452Y-91508333D01*
X170338214Y-91460714D01*
X170147738Y-91460714D01*
X170052500Y-91508333D01*
X170004880Y-91603571D01*
X170004880Y-91698809D01*
X170481071Y-91794047D01*
X169623928Y-92079761D02*
X169528690Y-92127380D01*
X169338214Y-92127380D01*
X169242976Y-92079761D01*
X169195357Y-91984523D01*
X169195357Y-91936904D01*
X169242976Y-91841666D01*
X169338214Y-91794047D01*
X169481071Y-91794047D01*
X169576309Y-91746428D01*
X169623928Y-91651190D01*
X169623928Y-91603571D01*
X169576309Y-91508333D01*
X169481071Y-91460714D01*
X169338214Y-91460714D01*
X169242976Y-91508333D01*
X168766785Y-92127380D02*
X168766785Y-91460714D01*
X168766785Y-91127380D02*
X168814404Y-91175000D01*
X168766785Y-91222619D01*
X168719166Y-91175000D01*
X168766785Y-91127380D01*
X168766785Y-91222619D01*
X167862023Y-91460714D02*
X167862023Y-92270238D01*
X167909642Y-92365476D01*
X167957261Y-92413095D01*
X168052500Y-92460714D01*
X168195357Y-92460714D01*
X168290595Y-92413095D01*
X167862023Y-92079761D02*
X167957261Y-92127380D01*
X168147738Y-92127380D01*
X168242976Y-92079761D01*
X168290595Y-92032142D01*
X168338214Y-91936904D01*
X168338214Y-91651190D01*
X168290595Y-91555952D01*
X168242976Y-91508333D01*
X168147738Y-91460714D01*
X167957261Y-91460714D01*
X167862023Y-91508333D01*
X167385833Y-91460714D02*
X167385833Y-92127380D01*
X167385833Y-91555952D02*
X167338214Y-91508333D01*
X167242976Y-91460714D01*
X167100119Y-91460714D01*
X167004880Y-91508333D01*
X166957261Y-91603571D01*
X166957261Y-92127380D01*
X166481071Y-92032142D02*
X166433452Y-92079761D01*
X166481071Y-92127380D01*
X166528690Y-92079761D01*
X166481071Y-92032142D01*
X166481071Y-92127380D01*
X166481071Y-91508333D02*
X166433452Y-91555952D01*
X166481071Y-91603571D01*
X166528690Y-91555952D01*
X166481071Y-91508333D01*
X166481071Y-91603571D01*
X177338214Y-93737380D02*
X177814404Y-93737380D01*
X177814404Y-92737380D01*
X176623928Y-93689761D02*
X176719166Y-93737380D01*
X176909642Y-93737380D01*
X177004880Y-93689761D01*
X177052500Y-93594523D01*
X177052500Y-93213571D01*
X177004880Y-93118333D01*
X176909642Y-93070714D01*
X176719166Y-93070714D01*
X176623928Y-93118333D01*
X176576309Y-93213571D01*
X176576309Y-93308809D01*
X177052500Y-93404047D01*
X176004880Y-93737380D02*
X176100119Y-93689761D01*
X176147738Y-93642142D01*
X176195357Y-93546904D01*
X176195357Y-93261190D01*
X176147738Y-93165952D01*
X176100119Y-93118333D01*
X176004880Y-93070714D01*
X175862023Y-93070714D01*
X175766785Y-93118333D01*
X175719166Y-93165952D01*
X175671547Y-93261190D01*
X175671547Y-93546904D01*
X175719166Y-93642142D01*
X175766785Y-93689761D01*
X175862023Y-93737380D01*
X176004880Y-93737380D01*
X175242976Y-93070714D02*
X175242976Y-93737380D01*
X175242976Y-93165952D02*
X175195357Y-93118333D01*
X175100119Y-93070714D01*
X174957261Y-93070714D01*
X174862023Y-93118333D01*
X174814404Y-93213571D01*
X174814404Y-93737380D01*
X173909642Y-93737380D02*
X173909642Y-93213571D01*
X173957261Y-93118333D01*
X174052500Y-93070714D01*
X174242976Y-93070714D01*
X174338214Y-93118333D01*
X173909642Y-93689761D02*
X174004880Y-93737380D01*
X174242976Y-93737380D01*
X174338214Y-93689761D01*
X174385833Y-93594523D01*
X174385833Y-93499285D01*
X174338214Y-93404047D01*
X174242976Y-93356428D01*
X174004880Y-93356428D01*
X173909642Y-93308809D01*
X173433452Y-93737380D02*
X173433452Y-93070714D01*
X173433452Y-93261190D02*
X173385833Y-93165952D01*
X173338214Y-93118333D01*
X173242976Y-93070714D01*
X173147738Y-93070714D01*
X172385833Y-93737380D02*
X172385833Y-92737380D01*
X172385833Y-93689761D02*
X172481071Y-93737380D01*
X172671547Y-93737380D01*
X172766785Y-93689761D01*
X172814404Y-93642142D01*
X172862023Y-93546904D01*
X172862023Y-93261190D01*
X172814404Y-93165952D01*
X172766785Y-93118333D01*
X172671547Y-93070714D01*
X172481071Y-93070714D01*
X172385833Y-93118333D01*
X171766785Y-93737380D02*
X171862023Y-93689761D01*
X171909642Y-93642142D01*
X171957261Y-93546904D01*
X171957261Y-93261190D01*
X171909642Y-93165952D01*
X171862023Y-93118333D01*
X171766785Y-93070714D01*
X171623928Y-93070714D01*
X171528690Y-93118333D01*
X171481071Y-93165952D01*
X171433452Y-93261190D01*
X171433452Y-93546904D01*
X171481071Y-93642142D01*
X171528690Y-93689761D01*
X171623928Y-93737380D01*
X171766785Y-93737380D01*
X170242976Y-93737380D02*
X170242976Y-92737380D01*
X170242976Y-93118333D02*
X170147738Y-93070714D01*
X169957261Y-93070714D01*
X169862023Y-93118333D01*
X169814404Y-93165952D01*
X169766785Y-93261190D01*
X169766785Y-93546904D01*
X169814404Y-93642142D01*
X169862023Y-93689761D01*
X169957261Y-93737380D01*
X170147738Y-93737380D01*
X170242976Y-93689761D01*
X169195357Y-93737380D02*
X169290595Y-93689761D01*
X169338214Y-93642142D01*
X169385833Y-93546904D01*
X169385833Y-93261190D01*
X169338214Y-93165952D01*
X169290595Y-93118333D01*
X169195357Y-93070714D01*
X169052500Y-93070714D01*
X168957261Y-93118333D01*
X168909642Y-93165952D01*
X168862023Y-93261190D01*
X168862023Y-93546904D01*
X168909642Y-93642142D01*
X168957261Y-93689761D01*
X169052500Y-93737380D01*
X169195357Y-93737380D01*
X168004880Y-93737380D02*
X168004880Y-93213571D01*
X168052500Y-93118333D01*
X168147738Y-93070714D01*
X168338214Y-93070714D01*
X168433452Y-93118333D01*
X168004880Y-93689761D02*
X168100119Y-93737380D01*
X168338214Y-93737380D01*
X168433452Y-93689761D01*
X168481071Y-93594523D01*
X168481071Y-93499285D01*
X168433452Y-93404047D01*
X168338214Y-93356428D01*
X168100119Y-93356428D01*
X168004880Y-93308809D01*
X167528690Y-93737380D02*
X167528690Y-93070714D01*
X167528690Y-93261190D02*
X167481071Y-93165952D01*
X167433452Y-93118333D01*
X167338214Y-93070714D01*
X167242976Y-93070714D01*
X166481071Y-93737380D02*
X166481071Y-92737380D01*
X166481071Y-93689761D02*
X166576309Y-93737380D01*
X166766785Y-93737380D01*
X166862023Y-93689761D01*
X166909642Y-93642142D01*
X166957261Y-93546904D01*
X166957261Y-93261190D01*
X166909642Y-93165952D01*
X166862023Y-93118333D01*
X166766785Y-93070714D01*
X166576309Y-93070714D01*
X166481071Y-93118333D01*
X165242976Y-93737380D02*
X165242976Y-93070714D01*
X165242976Y-93261190D02*
X165195357Y-93165952D01*
X165147738Y-93118333D01*
X165052500Y-93070714D01*
X164957261Y-93070714D01*
X164242976Y-93689761D02*
X164338214Y-93737380D01*
X164528690Y-93737380D01*
X164623928Y-93689761D01*
X164671547Y-93594523D01*
X164671547Y-93213571D01*
X164623928Y-93118333D01*
X164528690Y-93070714D01*
X164338214Y-93070714D01*
X164242976Y-93118333D01*
X164195357Y-93213571D01*
X164195357Y-93308809D01*
X164671547Y-93404047D01*
X163862023Y-93070714D02*
X163623928Y-93737380D01*
X163385833Y-93070714D01*
X163100119Y-92737380D02*
X162481071Y-92737380D01*
X162814404Y-93118333D01*
X162671547Y-93118333D01*
X162576309Y-93165952D01*
X162528690Y-93213571D01*
X162481071Y-93308809D01*
X162481071Y-93546904D01*
X162528690Y-93642142D01*
X162576309Y-93689761D01*
X162671547Y-93737380D01*
X162957261Y-93737380D01*
X163052500Y-93689761D01*
X163100119Y-93642142D01*
X161623928Y-93737380D02*
X161623928Y-92737380D01*
X161623928Y-93689761D02*
X161719166Y-93737380D01*
X161909642Y-93737380D01*
X162004880Y-93689761D01*
X162052500Y-93642142D01*
X162100119Y-93546904D01*
X162100119Y-93261190D01*
X162052500Y-93165952D01*
X162004880Y-93118333D01*
X161909642Y-93070714D01*
X161719166Y-93070714D01*
X161623928Y-93118333D01*
X159576309Y-92975476D02*
X159671547Y-92927857D01*
X159862023Y-92927857D01*
X159957261Y-92975476D01*
X160052500Y-93070714D01*
X160100119Y-93165952D01*
X160100119Y-93356428D01*
X160052500Y-93451666D01*
X159957261Y-93546904D01*
X159862023Y-93594523D01*
X159671547Y-93594523D01*
X159576309Y-93546904D01*
X159766785Y-92594523D02*
X160004880Y-92642142D01*
X160242976Y-92785000D01*
X160385833Y-93023095D01*
X160433452Y-93261190D01*
X160385833Y-93499285D01*
X160242976Y-93737380D01*
X160004880Y-93880238D01*
X159766785Y-93927857D01*
X159528690Y-93880238D01*
X159290595Y-93737380D01*
X159147738Y-93499285D01*
X159100119Y-93261190D01*
X159147738Y-93023095D01*
X159290595Y-92785000D01*
X159528690Y-92642142D01*
X159766785Y-92594523D01*
X157957261Y-93451666D02*
X157481071Y-93451666D01*
X158052500Y-93737380D02*
X157719166Y-92737380D01*
X157385833Y-93737380D01*
X157052500Y-93737380D02*
X157052500Y-93070714D01*
X157052500Y-93261190D02*
X157004880Y-93165952D01*
X156957261Y-93118333D01*
X156862023Y-93070714D01*
X156766785Y-93070714D01*
X156004880Y-93737380D02*
X156004880Y-92737380D01*
X156004880Y-93689761D02*
X156100119Y-93737380D01*
X156290595Y-93737380D01*
X156385833Y-93689761D01*
X156433452Y-93642142D01*
X156481071Y-93546904D01*
X156481071Y-93261190D01*
X156433452Y-93165952D01*
X156385833Y-93118333D01*
X156290595Y-93070714D01*
X156100119Y-93070714D01*
X156004880Y-93118333D01*
X155100119Y-93070714D02*
X155100119Y-93737380D01*
X155528690Y-93070714D02*
X155528690Y-93594523D01*
X155481071Y-93689761D01*
X155385833Y-93737380D01*
X155242976Y-93737380D01*
X155147738Y-93689761D01*
X155100119Y-93642142D01*
X154623928Y-93737380D02*
X154623928Y-93070714D01*
X154623928Y-92737380D02*
X154671547Y-92785000D01*
X154623928Y-92832619D01*
X154576309Y-92785000D01*
X154623928Y-92737380D01*
X154623928Y-92832619D01*
X154147738Y-93070714D02*
X154147738Y-93737380D01*
X154147738Y-93165952D02*
X154100119Y-93118333D01*
X154004880Y-93070714D01*
X153862023Y-93070714D01*
X153766785Y-93118333D01*
X153719166Y-93213571D01*
X153719166Y-93737380D01*
X153100119Y-93737380D02*
X153195357Y-93689761D01*
X153242976Y-93642142D01*
X153290595Y-93546904D01*
X153290595Y-93261190D01*
X153242976Y-93165952D01*
X153195357Y-93118333D01*
X153100119Y-93070714D01*
X152957261Y-93070714D01*
X152862023Y-93118333D01*
X152814404Y-93165952D01*
X152766785Y-93261190D01*
X152766785Y-93546904D01*
X152814404Y-93642142D01*
X152862023Y-93689761D01*
X152957261Y-93737380D01*
X153100119Y-93737380D01*
X151623928Y-93689761D02*
X151528690Y-93737380D01*
X151338214Y-93737380D01*
X151242976Y-93689761D01*
X151195357Y-93594523D01*
X151195357Y-93546904D01*
X151242976Y-93451666D01*
X151338214Y-93404047D01*
X151481071Y-93404047D01*
X151576309Y-93356428D01*
X151623928Y-93261190D01*
X151623928Y-93213571D01*
X151576309Y-93118333D01*
X151481071Y-93070714D01*
X151338214Y-93070714D01*
X151242976Y-93118333D01*
X150766785Y-93642142D02*
X150719166Y-93689761D01*
X150766785Y-93737380D01*
X150814404Y-93689761D01*
X150766785Y-93642142D01*
X150766785Y-93737380D01*
X150290595Y-93737380D02*
X150290595Y-93070714D01*
X150290595Y-93261190D02*
X150242976Y-93165952D01*
X150195357Y-93118333D01*
X150100119Y-93070714D01*
X150004880Y-93070714D01*
X149671547Y-93642142D02*
X149623928Y-93689761D01*
X149671547Y-93737380D01*
X149719166Y-93689761D01*
X149671547Y-93642142D01*
X149671547Y-93737380D01*
X149052500Y-93737380D02*
X149147738Y-93689761D01*
X149195357Y-93594523D01*
X149195357Y-92737380D01*
X148671547Y-93642142D02*
X148623928Y-93689761D01*
X148671547Y-93737380D01*
X148719166Y-93689761D01*
X148671547Y-93642142D01*
X148671547Y-93737380D01*
D17*
X175805133Y-125065020D02*
X175126591Y-125065020D01*
X175940842Y-125472145D02*
X175465862Y-124047205D01*
X174990882Y-125472145D01*
X174515902Y-125472145D02*
X174515902Y-124047205D01*
X173701651Y-125472145D01*
X173701651Y-124047205D01*
X173090962Y-125065020D02*
X172412419Y-125065020D01*
X173226671Y-125472145D02*
X172751691Y-124047205D01*
X172276711Y-125472145D01*
X171123188Y-125472145D02*
X171801731Y-125472145D01*
X171801731Y-124047205D01*
X170376791Y-124047205D02*
X170105373Y-124047205D01*
X169969665Y-124115060D01*
X169833956Y-124250768D01*
X169766102Y-124522185D01*
X169766102Y-124997165D01*
X169833956Y-125268582D01*
X169969665Y-125404291D01*
X170105373Y-125472145D01*
X170376791Y-125472145D01*
X170512499Y-125404291D01*
X170648208Y-125268582D01*
X170716062Y-124997165D01*
X170716062Y-124522185D01*
X170648208Y-124250768D01*
X170512499Y-124115060D01*
X170376791Y-124047205D01*
X168409016Y-124115060D02*
X168544725Y-124047205D01*
X168748288Y-124047205D01*
X168951851Y-124115060D01*
X169087559Y-124250768D01*
X169155413Y-124386477D01*
X169223268Y-124657894D01*
X169223268Y-124861457D01*
X169155413Y-125132874D01*
X169087559Y-125268582D01*
X168951851Y-125404291D01*
X168748288Y-125472145D01*
X168612579Y-125472145D01*
X168409016Y-125404291D01*
X168341162Y-125336437D01*
X168341162Y-124861457D01*
X168612579Y-124861457D01*
X166644805Y-125472145D02*
X166644805Y-124047205D01*
X165966262Y-125472145D02*
X165966262Y-124047205D01*
X165152011Y-125472145D01*
X165152011Y-124047205D01*
D14*
X162903219Y-83128374D02*
X162903219Y-83341250D01*
X162850000Y-83447688D01*
X162796780Y-83500907D01*
X162637123Y-83607345D01*
X162424247Y-83660564D01*
X161998495Y-83660564D01*
X161892057Y-83607345D01*
X161838838Y-83554126D01*
X161785619Y-83447688D01*
X161785619Y-83234812D01*
X161838838Y-83128374D01*
X161892057Y-83075155D01*
X161998495Y-83021936D01*
X162264590Y-83021936D01*
X162371028Y-83075155D01*
X162424247Y-83128374D01*
X162477466Y-83234812D01*
X162477466Y-83447688D01*
X162424247Y-83554126D01*
X162371028Y-83607345D01*
X162264590Y-83660564D01*
X155684247Y-83407688D02*
X155737466Y-83514126D01*
X155790685Y-83567345D01*
X155897123Y-83620564D01*
X155950342Y-83620564D01*
X156056780Y-83567345D01*
X156110000Y-83514126D01*
X156163219Y-83407688D01*
X156163219Y-83194812D01*
X156110000Y-83088374D01*
X156056780Y-83035155D01*
X155950342Y-82981936D01*
X155897123Y-82981936D01*
X155790685Y-83035155D01*
X155737466Y-83088374D01*
X155684247Y-83194812D01*
X155684247Y-83407688D01*
X155631028Y-83514126D01*
X155577809Y-83567345D01*
X155471371Y-83620564D01*
X155258495Y-83620564D01*
X155152057Y-83567345D01*
X155098838Y-83514126D01*
X155045619Y-83407688D01*
X155045619Y-83194812D01*
X155098838Y-83088374D01*
X155152057Y-83035155D01*
X155258495Y-82981936D01*
X155471371Y-82981936D01*
X155577809Y-83035155D01*
X155631028Y-83088374D01*
X155684247Y-83194812D01*
X170423219Y-83673783D02*
X170423219Y-82981936D01*
X169997466Y-83354469D01*
X169997466Y-83194812D01*
X169944247Y-83088374D01*
X169891028Y-83035155D01*
X169784590Y-82981936D01*
X169518495Y-82981936D01*
X169412057Y-83035155D01*
X169358838Y-83088374D01*
X169305619Y-83194812D01*
X169305619Y-83514126D01*
X169358838Y-83620564D01*
X169412057Y-83673783D01*
D18*
%TO.C,D+0*%
X120629288Y-91542337D02*
X120629288Y-91259970D01*
X120562058Y-91259970D01*
X120521719Y-91273416D01*
X120494827Y-91300308D01*
X120481381Y-91327200D01*
X120467935Y-91380984D01*
X120467935Y-91421323D01*
X120481381Y-91475107D01*
X120494827Y-91501999D01*
X120521719Y-91528891D01*
X120562058Y-91542337D01*
X120629288Y-91542337D01*
X120346921Y-91434769D02*
X120131784Y-91434769D01*
X120239352Y-91542337D02*
X120239352Y-91327200D01*
X119943539Y-91259970D02*
X119916647Y-91259970D01*
X119889755Y-91273416D01*
X119876309Y-91286862D01*
X119862863Y-91313754D01*
X119849417Y-91367538D01*
X119849417Y-91434769D01*
X119862863Y-91488553D01*
X119876309Y-91515445D01*
X119889755Y-91528891D01*
X119916647Y-91542337D01*
X119943539Y-91542337D01*
X119970431Y-91528891D01*
X119983878Y-91515445D01*
X119997324Y-91488553D01*
X120010770Y-91434769D01*
X120010770Y-91367538D01*
X119997324Y-91313754D01*
X119983878Y-91286862D01*
X119970431Y-91273416D01*
X119943539Y-91259970D01*
D19*
%TO.C,J1*%
X116657590Y-92229784D02*
X115722870Y-92229784D01*
X115722870Y-92585868D01*
X115767381Y-92674889D01*
X115811891Y-92719399D01*
X115900912Y-92763910D01*
X116034443Y-92763910D01*
X116123464Y-92719399D01*
X116167975Y-92674889D01*
X116212485Y-92585868D01*
X116212485Y-92229784D01*
X116568569Y-93698630D02*
X116613080Y-93654119D01*
X116657590Y-93520588D01*
X116657590Y-93431567D01*
X116613080Y-93298035D01*
X116524059Y-93209014D01*
X116435038Y-93164504D01*
X116256996Y-93119993D01*
X116123464Y-93119993D01*
X115945422Y-93164504D01*
X115856401Y-93209014D01*
X115767381Y-93298035D01*
X115722870Y-93431567D01*
X115722870Y-93520588D01*
X115767381Y-93654119D01*
X115811891Y-93698630D01*
X116167975Y-94410797D02*
X116212485Y-94544329D01*
X116256996Y-94588839D01*
X116346017Y-94633350D01*
X116479548Y-94633350D01*
X116568569Y-94588839D01*
X116613080Y-94544329D01*
X116657590Y-94455308D01*
X116657590Y-94099224D01*
X115722870Y-94099224D01*
X115722870Y-94410797D01*
X115767381Y-94499818D01*
X115811891Y-94544329D01*
X115900912Y-94588839D01*
X115989933Y-94588839D01*
X116078954Y-94544329D01*
X116123464Y-94499818D01*
X116167975Y-94410797D01*
X116167975Y-94099224D01*
D18*
%TO.C,GND0*%
X120490281Y-95079816D02*
X120517173Y-95066370D01*
X120557512Y-95066370D01*
X120597850Y-95079816D01*
X120624742Y-95106708D01*
X120638188Y-95133600D01*
X120651634Y-95187384D01*
X120651634Y-95227723D01*
X120638188Y-95281507D01*
X120624742Y-95308399D01*
X120597850Y-95335291D01*
X120557512Y-95348737D01*
X120530619Y-95348737D01*
X120490281Y-95335291D01*
X120476835Y-95321845D01*
X120476835Y-95227723D01*
X120530619Y-95227723D01*
X120355821Y-95348737D02*
X120355821Y-95066370D01*
X120194468Y-95348737D01*
X120194468Y-95066370D01*
X120060008Y-95348737D02*
X120060008Y-95066370D01*
X119992778Y-95066370D01*
X119952439Y-95079816D01*
X119925547Y-95106708D01*
X119912101Y-95133600D01*
X119898655Y-95187384D01*
X119898655Y-95227723D01*
X119912101Y-95281507D01*
X119925547Y-95308399D01*
X119952439Y-95335291D01*
X119992778Y-95348737D01*
X120060008Y-95348737D01*
X119723857Y-95066370D02*
X119696964Y-95066370D01*
X119670072Y-95079816D01*
X119656626Y-95093262D01*
X119643180Y-95120154D01*
X119629734Y-95173938D01*
X119629734Y-95241169D01*
X119643180Y-95294953D01*
X119656626Y-95321845D01*
X119670072Y-95335291D01*
X119696964Y-95348737D01*
X119723857Y-95348737D01*
X119750749Y-95335291D01*
X119764195Y-95321845D01*
X119777641Y-95294953D01*
X119791087Y-95241169D01*
X119791087Y-95173938D01*
X119777641Y-95120154D01*
X119764195Y-95093262D01*
X119750749Y-95079816D01*
X119723857Y-95066370D01*
%TO.C,D-0*%
X122638288Y-91542337D02*
X122638288Y-91259970D01*
X122571058Y-91259970D01*
X122530719Y-91273416D01*
X122503827Y-91300308D01*
X122490381Y-91327200D01*
X122476935Y-91380984D01*
X122476935Y-91421323D01*
X122490381Y-91475107D01*
X122503827Y-91501999D01*
X122530719Y-91528891D01*
X122571058Y-91542337D01*
X122638288Y-91542337D01*
X122355921Y-91434769D02*
X122140784Y-91434769D01*
X121952539Y-91259970D02*
X121925647Y-91259970D01*
X121898755Y-91273416D01*
X121885309Y-91286862D01*
X121871863Y-91313754D01*
X121858417Y-91367538D01*
X121858417Y-91434769D01*
X121871863Y-91488553D01*
X121885309Y-91515445D01*
X121898755Y-91528891D01*
X121925647Y-91542337D01*
X121952539Y-91542337D01*
X121979431Y-91528891D01*
X121992878Y-91515445D01*
X122006324Y-91488553D01*
X122019770Y-91434769D01*
X122019770Y-91367538D01*
X122006324Y-91313754D01*
X121992878Y-91286862D01*
X121979431Y-91273416D01*
X121952539Y-91259970D01*
%TO.C,VUSB0*%
X122678626Y-93799970D02*
X122584504Y-94082337D01*
X122490381Y-93799970D01*
X122396259Y-93799970D02*
X122396259Y-94028553D01*
X122382813Y-94055445D01*
X122369367Y-94068891D01*
X122342475Y-94082337D01*
X122288691Y-94082337D01*
X122261798Y-94068891D01*
X122248352Y-94055445D01*
X122234906Y-94028553D01*
X122234906Y-93799970D01*
X122113892Y-94068891D02*
X122073554Y-94082337D01*
X122006324Y-94082337D01*
X121979431Y-94068891D01*
X121965985Y-94055445D01*
X121952539Y-94028553D01*
X121952539Y-94001661D01*
X121965985Y-93974769D01*
X121979431Y-93961323D01*
X122006324Y-93947876D01*
X122060108Y-93934430D01*
X122087000Y-93920984D01*
X122100446Y-93907538D01*
X122113892Y-93880646D01*
X122113892Y-93853754D01*
X122100446Y-93826862D01*
X122087000Y-93813416D01*
X122060108Y-93799970D01*
X121992878Y-93799970D01*
X121952539Y-93813416D01*
X121737403Y-93934430D02*
X121697064Y-93947876D01*
X121683618Y-93961323D01*
X121670172Y-93988215D01*
X121670172Y-94028553D01*
X121683618Y-94055445D01*
X121697064Y-94068891D01*
X121723957Y-94082337D01*
X121831525Y-94082337D01*
X121831525Y-93799970D01*
X121737403Y-93799970D01*
X121710511Y-93813416D01*
X121697064Y-93826862D01*
X121683618Y-93853754D01*
X121683618Y-93880646D01*
X121697064Y-93907538D01*
X121710511Y-93920984D01*
X121737403Y-93934430D01*
X121831525Y-93934430D01*
X121495374Y-93799970D02*
X121468482Y-93799970D01*
X121441590Y-93813416D01*
X121428144Y-93826862D01*
X121414697Y-93853754D01*
X121401251Y-93907538D01*
X121401251Y-93974769D01*
X121414697Y-94028553D01*
X121428144Y-94055445D01*
X121441590Y-94068891D01*
X121468482Y-94082337D01*
X121495374Y-94082337D01*
X121522266Y-94068891D01*
X121535712Y-94055445D01*
X121549158Y-94028553D01*
X121562604Y-93974769D01*
X121562604Y-93907538D01*
X121549158Y-93853754D01*
X121535712Y-93826862D01*
X121522266Y-93813416D01*
X121495374Y-93799970D01*
D20*
%TO.C,R3*%
X167504191Y-117761109D02*
X167087147Y-117469179D01*
X167504191Y-117260657D02*
X166628399Y-117260657D01*
X166628399Y-117594292D01*
X166670104Y-117677700D01*
X166711808Y-117719405D01*
X166795217Y-117761109D01*
X166920330Y-117761109D01*
X167003739Y-117719405D01*
X167045443Y-117677700D01*
X167087147Y-117594292D01*
X167087147Y-117260657D01*
X166628399Y-118053040D02*
X166628399Y-118595197D01*
X166962034Y-118303266D01*
X166962034Y-118428379D01*
X167003739Y-118511788D01*
X167045443Y-118553492D01*
X167128852Y-118595197D01*
X167337374Y-118595197D01*
X167420782Y-118553492D01*
X167462487Y-118511788D01*
X167504191Y-118428379D01*
X167504191Y-118178153D01*
X167462487Y-118094744D01*
X167420782Y-118053040D01*
%TO.C,R2*%
X168574191Y-119037109D02*
X168157147Y-118745179D01*
X168574191Y-118536657D02*
X167698399Y-118536657D01*
X167698399Y-118870292D01*
X167740104Y-118953700D01*
X167781808Y-118995405D01*
X167865217Y-119037109D01*
X167990330Y-119037109D01*
X168073739Y-118995405D01*
X168115443Y-118953700D01*
X168157147Y-118870292D01*
X168157147Y-118536657D01*
X167781808Y-119370744D02*
X167740104Y-119412449D01*
X167698399Y-119495857D01*
X167698399Y-119704379D01*
X167740104Y-119787788D01*
X167781808Y-119829492D01*
X167865217Y-119871197D01*
X167948625Y-119871197D01*
X168073739Y-119829492D01*
X168574191Y-119329040D01*
X168574191Y-119871197D01*
%TD*%
M02*
