%TF.GenerationSoftware,KiCad,Pcbnew,8.0.4*%
%TF.CreationDate,2024-12-17T16:27:57+00:00*%
%TF.ProjectId,Leonardo_Rev3e,4c656f6e-6172-4646-9f5f-52657633652e,3d*%
%TF.SameCoordinates,Original*%
%TF.FileFunction,Drillmap*%
%TF.FilePolarity,Positive*%
%FSLAX45Y45*%
G04 Gerber Fmt 4.5, Leading zero omitted, Abs format (unit mm)*
G04 Created by KiCad (PCBNEW 8.0.4) date 2024-12-17 16:27:57*
%MOMM*%
%LPD*%
G01*
G04 APERTURE LIST*
%ADD10C,0.254000*%
%ADD11C,0.200000*%
%ADD12C,0.100000*%
%ADD13C,0.130000*%
G04 APERTURE END LIST*
D10*
X18025110Y-12913360D02*
X18025110Y-13067360D01*
X18025110Y-9128760D02*
X18279110Y-9382760D01*
X11421110Y-13067360D02*
X11421110Y-7933360D01*
X17872710Y-7833360D02*
X18025110Y-7985760D01*
X18279110Y-9382760D02*
X18279110Y-12659360D01*
X11521110Y-13167360D02*
G75*
G02*
X11421110Y-13067360I0J100000D01*
G01*
X18025110Y-7985760D02*
X18025110Y-9128760D01*
X11521110Y-7833360D02*
X17872710Y-7833360D01*
X17925110Y-13167360D02*
X11521110Y-13167360D01*
X11421110Y-7933360D02*
G75*
G02*
X11521110Y-7833360I100000J0D01*
G01*
X18025110Y-13067360D02*
G75*
G02*
X17925110Y-13167360I-100000J0D01*
G01*
X18279110Y-12659360D02*
X18025110Y-12913360D01*
D11*
D12*
X11712000Y-8850000D02*
X11752000Y-8890000D01*
X11752000Y-8850000D02*
X11712000Y-8890000D01*
X11737000Y-9925000D02*
X11777000Y-9965000D01*
X11777000Y-9925000D02*
X11737000Y-9965000D01*
X12144567Y-9487707D02*
X12184567Y-9527707D01*
X12184567Y-9487707D02*
X12144567Y-9527707D01*
X11570290Y-8840583D02*
G75*
G02*
X11520290Y-8840583I-25000J0D01*
G01*
X11520290Y-8840583D02*
G75*
G02*
X11570290Y-8840583I25000J0D01*
G01*
X11636610Y-8214360D02*
G75*
G02*
X11586610Y-8214360I-25000J0D01*
G01*
X11586610Y-8214360D02*
G75*
G02*
X11636610Y-8214360I25000J0D01*
G01*
X11636610Y-10119360D02*
G75*
G02*
X11586610Y-10119360I-25000J0D01*
G01*
X11586610Y-10119360D02*
G75*
G02*
X11636610Y-10119360I25000J0D01*
G01*
X11636610Y-10309860D02*
G75*
G02*
X11586610Y-10309860I-25000J0D01*
G01*
X11586610Y-10309860D02*
G75*
G02*
X11636610Y-10309860I25000J0D01*
G01*
X11732000Y-9110000D02*
G75*
G02*
X11682000Y-9110000I-25000J0D01*
G01*
X11682000Y-9110000D02*
G75*
G02*
X11732000Y-9110000I25000J0D01*
G01*
X11746000Y-9599000D02*
G75*
G02*
X11696000Y-9599000I-25000J0D01*
G01*
X11696000Y-9599000D02*
G75*
G02*
X11746000Y-9599000I25000J0D01*
G01*
X11991000Y-9848000D02*
G75*
G02*
X11941000Y-9848000I-25000J0D01*
G01*
X11941000Y-9848000D02*
G75*
G02*
X11991000Y-9848000I25000J0D01*
G01*
X12053000Y-8921000D02*
G75*
G02*
X12003000Y-8921000I-25000J0D01*
G01*
X12003000Y-8921000D02*
G75*
G02*
X12053000Y-8921000I25000J0D01*
G01*
X12186000Y-9355950D02*
G75*
G02*
X12136000Y-9355950I-25000J0D01*
G01*
X12136000Y-9355950D02*
G75*
G02*
X12186000Y-9355950I25000J0D01*
G01*
X12335110Y-11008360D02*
G75*
G02*
X12285110Y-11008360I-25000J0D01*
G01*
X12285110Y-11008360D02*
G75*
G02*
X12335110Y-11008360I25000J0D01*
G01*
X12335110Y-11198360D02*
G75*
G02*
X12285110Y-11198360I-25000J0D01*
G01*
X12285110Y-11198360D02*
G75*
G02*
X12335110Y-11198360I25000J0D01*
G01*
X12335110Y-11643860D02*
G75*
G02*
X12285110Y-11643860I-25000J0D01*
G01*
X12285110Y-11643860D02*
G75*
G02*
X12335110Y-11643860I25000J0D01*
G01*
X12335110Y-11833860D02*
G75*
G02*
X12285110Y-11833860I-25000J0D01*
G01*
X12285110Y-11833860D02*
G75*
G02*
X12335110Y-11833860I25000J0D01*
G01*
X12356110Y-9347360D02*
G75*
G02*
X12306110Y-9347360I-25000J0D01*
G01*
X12306110Y-9347360D02*
G75*
G02*
X12356110Y-9347360I25000J0D01*
G01*
X12398610Y-10246360D02*
G75*
G02*
X12348610Y-10246360I-25000J0D01*
G01*
X12348610Y-10246360D02*
G75*
G02*
X12398610Y-10246360I25000J0D01*
G01*
X12406110Y-9137360D02*
G75*
G02*
X12356110Y-9137360I-25000J0D01*
G01*
X12356110Y-9137360D02*
G75*
G02*
X12406110Y-9137360I25000J0D01*
G01*
X12462110Y-9801860D02*
G75*
G02*
X12412110Y-9801860I-25000J0D01*
G01*
X12412110Y-9801860D02*
G75*
G02*
X12462110Y-9801860I25000J0D01*
G01*
X12525110Y-11643860D02*
G75*
G02*
X12475110Y-11643860I-25000J0D01*
G01*
X12475110Y-11643860D02*
G75*
G02*
X12525110Y-11643860I25000J0D01*
G01*
X12525610Y-11008360D02*
G75*
G02*
X12475610Y-11008360I-25000J0D01*
G01*
X12475610Y-11008360D02*
G75*
G02*
X12525610Y-11008360I25000J0D01*
G01*
X12525610Y-11198360D02*
G75*
G02*
X12475610Y-11198360I-25000J0D01*
G01*
X12475610Y-11198360D02*
G75*
G02*
X12525610Y-11198360I25000J0D01*
G01*
X12525610Y-11833860D02*
G75*
G02*
X12475610Y-11833860I-25000J0D01*
G01*
X12475610Y-11833860D02*
G75*
G02*
X12525610Y-11833860I25000J0D01*
G01*
X12716110Y-11008360D02*
G75*
G02*
X12666110Y-11008360I-25000J0D01*
G01*
X12666110Y-11008360D02*
G75*
G02*
X12716110Y-11008360I25000J0D01*
G01*
X12716110Y-11833860D02*
G75*
G02*
X12666110Y-11833860I-25000J0D01*
G01*
X12666110Y-11833860D02*
G75*
G02*
X12716110Y-11833860I25000J0D01*
G01*
X12906610Y-9357360D02*
G75*
G02*
X12856610Y-9357360I-25000J0D01*
G01*
X12856610Y-9357360D02*
G75*
G02*
X12906610Y-9357360I25000J0D01*
G01*
X12906610Y-9547860D02*
G75*
G02*
X12856610Y-9547860I-25000J0D01*
G01*
X12856610Y-9547860D02*
G75*
G02*
X12906610Y-9547860I25000J0D01*
G01*
X12906610Y-11008360D02*
G75*
G02*
X12856610Y-11008360I-25000J0D01*
G01*
X12856610Y-11008360D02*
G75*
G02*
X12906610Y-11008360I25000J0D01*
G01*
X12906610Y-11833860D02*
G75*
G02*
X12856610Y-11833860I-25000J0D01*
G01*
X12856610Y-11833860D02*
G75*
G02*
X12906610Y-11833860I25000J0D01*
G01*
X13033610Y-11452860D02*
G75*
G02*
X12983610Y-11452860I-25000J0D01*
G01*
X12983610Y-11452860D02*
G75*
G02*
X13033610Y-11452860I25000J0D01*
G01*
X13224110Y-9166860D02*
G75*
G02*
X13174110Y-9166860I-25000J0D01*
G01*
X13174110Y-9166860D02*
G75*
G02*
X13224110Y-9166860I25000J0D01*
G01*
X13224110Y-9954260D02*
G75*
G02*
X13174110Y-9954260I-25000J0D01*
G01*
X13174110Y-9954260D02*
G75*
G02*
X13224110Y-9954260I25000J0D01*
G01*
X13224110Y-10106660D02*
G75*
G02*
X13174110Y-10106660I-25000J0D01*
G01*
X13174110Y-10106660D02*
G75*
G02*
X13224110Y-10106660I25000J0D01*
G01*
X13287610Y-8912860D02*
G75*
G02*
X13237610Y-8912860I-25000J0D01*
G01*
X13237610Y-8912860D02*
G75*
G02*
X13287610Y-8912860I25000J0D01*
G01*
X13355110Y-9484360D02*
G75*
G02*
X13305110Y-9484360I-25000J0D01*
G01*
X13305110Y-9484360D02*
G75*
G02*
X13355110Y-9484360I25000J0D01*
G01*
X13414610Y-11097260D02*
G75*
G02*
X13364610Y-11097260I-25000J0D01*
G01*
X13364610Y-11097260D02*
G75*
G02*
X13414610Y-11097260I25000J0D01*
G01*
X13579710Y-10754360D02*
G75*
G02*
X13529710Y-10754360I-25000J0D01*
G01*
X13529710Y-10754360D02*
G75*
G02*
X13579710Y-10754360I25000J0D01*
G01*
X13605110Y-8912860D02*
G75*
G02*
X13555110Y-8912860I-25000J0D01*
G01*
X13555110Y-8912860D02*
G75*
G02*
X13605110Y-8912860I25000J0D01*
G01*
X13630510Y-9725660D02*
G75*
G02*
X13580510Y-9725660I-25000J0D01*
G01*
X13580510Y-9725660D02*
G75*
G02*
X13630510Y-9725660I25000J0D01*
G01*
X13744810Y-9928860D02*
G75*
G02*
X13694810Y-9928860I-25000J0D01*
G01*
X13694810Y-9928860D02*
G75*
G02*
X13744810Y-9928860I25000J0D01*
G01*
X13795610Y-10754360D02*
G75*
G02*
X13745610Y-10754360I-25000J0D01*
G01*
X13745610Y-10754360D02*
G75*
G02*
X13795610Y-10754360I25000J0D01*
G01*
X13859110Y-12024360D02*
G75*
G02*
X13809110Y-12024360I-25000J0D01*
G01*
X13809110Y-12024360D02*
G75*
G02*
X13859110Y-12024360I25000J0D01*
G01*
X13871810Y-9204960D02*
G75*
G02*
X13821810Y-9204960I-25000J0D01*
G01*
X13821810Y-9204960D02*
G75*
G02*
X13871810Y-9204960I25000J0D01*
G01*
X14036910Y-12913360D02*
G75*
G02*
X13986910Y-12913360I-25000J0D01*
G01*
X13986910Y-12913360D02*
G75*
G02*
X14036910Y-12913360I25000J0D01*
G01*
X14176610Y-11833860D02*
G75*
G02*
X14126610Y-11833860I-25000J0D01*
G01*
X14126610Y-11833860D02*
G75*
G02*
X14176610Y-11833860I25000J0D01*
G01*
X14214710Y-11173460D02*
G75*
G02*
X14164710Y-11173460I-25000J0D01*
G01*
X14164710Y-11173460D02*
G75*
G02*
X14214710Y-11173460I25000J0D01*
G01*
X14240110Y-10119360D02*
G75*
G02*
X14190110Y-10119360I-25000J0D01*
G01*
X14190110Y-10119360D02*
G75*
G02*
X14240110Y-10119360I25000J0D01*
G01*
X14265510Y-9928860D02*
G75*
G02*
X14215510Y-9928860I-25000J0D01*
G01*
X14215510Y-9928860D02*
G75*
G02*
X14265510Y-9928860I25000J0D01*
G01*
X14367110Y-10477110D02*
G75*
G02*
X14317110Y-10477110I-25000J0D01*
G01*
X14317110Y-10477110D02*
G75*
G02*
X14367110Y-10477110I25000J0D01*
G01*
X14367110Y-11706860D02*
G75*
G02*
X14317110Y-11706860I-25000J0D01*
G01*
X14317110Y-11706860D02*
G75*
G02*
X14367110Y-11706860I25000J0D01*
G01*
X14443310Y-11859260D02*
G75*
G02*
X14393310Y-11859260I-25000J0D01*
G01*
X14393310Y-11859260D02*
G75*
G02*
X14443310Y-11859260I25000J0D01*
G01*
X14494110Y-9992360D02*
G75*
G02*
X14444110Y-9992360I-25000J0D01*
G01*
X14444110Y-9992360D02*
G75*
G02*
X14494110Y-9992360I25000J0D01*
G01*
X14557610Y-10500360D02*
G75*
G02*
X14507610Y-10500360I-25000J0D01*
G01*
X14507610Y-10500360D02*
G75*
G02*
X14557610Y-10500360I25000J0D01*
G01*
X14710010Y-10932160D02*
G75*
G02*
X14660010Y-10932160I-25000J0D01*
G01*
X14660010Y-10932160D02*
G75*
G02*
X14710010Y-10932160I25000J0D01*
G01*
X14748110Y-9992360D02*
G75*
G02*
X14698110Y-9992360I-25000J0D01*
G01*
X14698110Y-9992360D02*
G75*
G02*
X14748110Y-9992360I25000J0D01*
G01*
X14748110Y-10411890D02*
G75*
G02*
X14698110Y-10411890I-25000J0D01*
G01*
X14698110Y-10411890D02*
G75*
G02*
X14748110Y-10411890I25000J0D01*
G01*
X14748110Y-12024360D02*
G75*
G02*
X14698110Y-12024360I-25000J0D01*
G01*
X14698110Y-12024360D02*
G75*
G02*
X14748110Y-12024360I25000J0D01*
G01*
X14875110Y-10500360D02*
G75*
G02*
X14825110Y-10500360I-25000J0D01*
G01*
X14825110Y-10500360D02*
G75*
G02*
X14875110Y-10500360I25000J0D01*
G01*
X15002110Y-10438890D02*
G75*
G02*
X14952110Y-10438890I-25000J0D01*
G01*
X14952110Y-10438890D02*
G75*
G02*
X15002110Y-10438890I25000J0D01*
G01*
X15129110Y-10500360D02*
G75*
G02*
X15079110Y-10500360I-25000J0D01*
G01*
X15079110Y-10500360D02*
G75*
G02*
X15129110Y-10500360I25000J0D01*
G01*
X15192610Y-11452860D02*
G75*
G02*
X15142610Y-11452860I-25000J0D01*
G01*
X15142610Y-11452860D02*
G75*
G02*
X15192610Y-11452860I25000J0D01*
G01*
X15256110Y-10373360D02*
G75*
G02*
X15206110Y-10373360I-25000J0D01*
G01*
X15206110Y-10373360D02*
G75*
G02*
X15256110Y-10373360I25000J0D01*
G01*
X15319610Y-10627360D02*
G75*
G02*
X15269610Y-10627360I-25000J0D01*
G01*
X15269610Y-10627360D02*
G75*
G02*
X15319610Y-10627360I25000J0D01*
G01*
X15497410Y-10881360D02*
G75*
G02*
X15447410Y-10881360I-25000J0D01*
G01*
X15447410Y-10881360D02*
G75*
G02*
X15497410Y-10881360I25000J0D01*
G01*
X15510110Y-10373360D02*
G75*
G02*
X15460110Y-10373360I-25000J0D01*
G01*
X15460110Y-10373360D02*
G75*
G02*
X15510110Y-10373360I25000J0D01*
G01*
X15624410Y-10792460D02*
G75*
G02*
X15574410Y-10792460I-25000J0D01*
G01*
X15574410Y-10792460D02*
G75*
G02*
X15624410Y-10792460I25000J0D01*
G01*
X15624410Y-12037060D02*
G75*
G02*
X15574410Y-12037060I-25000J0D01*
G01*
X15574410Y-12037060D02*
G75*
G02*
X15624410Y-12037060I25000J0D01*
G01*
X15637110Y-9865360D02*
G75*
G02*
X15587110Y-9865360I-25000J0D01*
G01*
X15587110Y-9865360D02*
G75*
G02*
X15637110Y-9865360I25000J0D01*
G01*
X15637110Y-10119360D02*
G75*
G02*
X15587110Y-10119360I-25000J0D01*
G01*
X15587110Y-10119360D02*
G75*
G02*
X15637110Y-10119360I25000J0D01*
G01*
X15637110Y-12214860D02*
G75*
G02*
X15587110Y-12214860I-25000J0D01*
G01*
X15587110Y-12214860D02*
G75*
G02*
X15637110Y-12214860I25000J0D01*
G01*
X15637110Y-12405360D02*
G75*
G02*
X15587110Y-12405360I-25000J0D01*
G01*
X15587110Y-12405360D02*
G75*
G02*
X15637110Y-12405360I25000J0D01*
G01*
X15700610Y-10563860D02*
G75*
G02*
X15650610Y-10563860I-25000J0D01*
G01*
X15650610Y-10563860D02*
G75*
G02*
X15700610Y-10563860I25000J0D01*
G01*
X15814910Y-8087360D02*
G75*
G02*
X15764910Y-8087360I-25000J0D01*
G01*
X15764910Y-8087360D02*
G75*
G02*
X15814910Y-8087360I25000J0D01*
G01*
X15827610Y-10373360D02*
G75*
G02*
X15777610Y-10373360I-25000J0D01*
G01*
X15777610Y-10373360D02*
G75*
G02*
X15827610Y-10373360I25000J0D01*
G01*
X16272110Y-12913360D02*
G75*
G02*
X16222110Y-12913360I-25000J0D01*
G01*
X16222110Y-12913360D02*
G75*
G02*
X16272110Y-12913360I25000J0D01*
G01*
X16335610Y-11706860D02*
G75*
G02*
X16285610Y-11706860I-25000J0D01*
G01*
X16285610Y-11706860D02*
G75*
G02*
X16335610Y-11706860I25000J0D01*
G01*
X16485470Y-11897360D02*
G75*
G02*
X16435470Y-11897360I-25000J0D01*
G01*
X16435470Y-11897360D02*
G75*
G02*
X16485470Y-11897360I25000J0D01*
G01*
X16653110Y-10944860D02*
G75*
G02*
X16603110Y-10944860I-25000J0D01*
G01*
X16603110Y-10944860D02*
G75*
G02*
X16653110Y-10944860I25000J0D01*
G01*
X16843610Y-11994360D02*
G75*
G02*
X16793610Y-11994360I-25000J0D01*
G01*
X16793610Y-11994360D02*
G75*
G02*
X16843610Y-11994360I25000J0D01*
G01*
X16856310Y-10716260D02*
G75*
G02*
X16806310Y-10716260I-25000J0D01*
G01*
X16806310Y-10716260D02*
G75*
G02*
X16856310Y-10716260I25000J0D01*
G01*
X16970610Y-10182860D02*
G75*
G02*
X16920610Y-10182860I-25000J0D01*
G01*
X16920610Y-10182860D02*
G75*
G02*
X16970610Y-10182860I25000J0D01*
G01*
X17034110Y-11008360D02*
G75*
G02*
X16984110Y-11008360I-25000J0D01*
G01*
X16984110Y-11008360D02*
G75*
G02*
X17034110Y-11008360I25000J0D01*
G01*
X17034110Y-12214860D02*
G75*
G02*
X16984110Y-12214860I-25000J0D01*
G01*
X16984110Y-12214860D02*
G75*
G02*
X17034110Y-12214860I25000J0D01*
G01*
X17097610Y-10716260D02*
G75*
G02*
X17047610Y-10716260I-25000J0D01*
G01*
X17047610Y-10716260D02*
G75*
G02*
X17097610Y-10716260I25000J0D01*
G01*
X17161110Y-11988800D02*
G75*
G02*
X17111110Y-11988800I-25000J0D01*
G01*
X17111110Y-11988800D02*
G75*
G02*
X17161110Y-11988800I25000J0D01*
G01*
X17351610Y-11198860D02*
G75*
G02*
X17301610Y-11198860I-25000J0D01*
G01*
X17301610Y-11198860D02*
G75*
G02*
X17351610Y-11198860I25000J0D01*
G01*
X17351610Y-11516360D02*
G75*
G02*
X17301610Y-11516360I-25000J0D01*
G01*
X17301610Y-11516360D02*
G75*
G02*
X17351610Y-11516360I25000J0D01*
G01*
X17351610Y-11681460D02*
G75*
G02*
X17301610Y-11681460I-25000J0D01*
G01*
X17301610Y-11681460D02*
G75*
G02*
X17351610Y-11681460I25000J0D01*
G01*
X17351610Y-11833860D02*
G75*
G02*
X17301610Y-11833860I-25000J0D01*
G01*
X17301610Y-11833860D02*
G75*
G02*
X17351610Y-11833860I25000J0D01*
G01*
X17455750Y-11953240D02*
G75*
G02*
X17405750Y-11953240I-25000J0D01*
G01*
X17405750Y-11953240D02*
G75*
G02*
X17455750Y-11953240I25000J0D01*
G01*
X17529410Y-12087860D02*
G75*
G02*
X17479410Y-12087860I-25000J0D01*
G01*
X17479410Y-12087860D02*
G75*
G02*
X17529410Y-12087860I25000J0D01*
G01*
X17529410Y-12240260D02*
G75*
G02*
X17479410Y-12240260I-25000J0D01*
G01*
X17479410Y-12240260D02*
G75*
G02*
X17529410Y-12240260I25000J0D01*
G01*
X17669110Y-12532360D02*
G75*
G02*
X17619110Y-12532360I-25000J0D01*
G01*
X17619110Y-12532360D02*
G75*
G02*
X17669110Y-12532360I25000J0D01*
G01*
X17796110Y-11325860D02*
G75*
G02*
X17746110Y-11325860I-25000J0D01*
G01*
X17746110Y-11325860D02*
G75*
G02*
X17796110Y-11325860I25000J0D01*
G01*
X17796110Y-11833860D02*
G75*
G02*
X17746110Y-11833860I-25000J0D01*
G01*
X17746110Y-11833860D02*
G75*
G02*
X17796110Y-11833860I25000J0D01*
G01*
X17923110Y-9103360D02*
G75*
G02*
X17873110Y-9103360I-25000J0D01*
G01*
X17873110Y-9103360D02*
G75*
G02*
X17923110Y-9103360I25000J0D01*
G01*
X18050110Y-11325860D02*
G75*
G02*
X18000110Y-11325860I-25000J0D01*
G01*
X18000110Y-11325860D02*
G75*
G02*
X18050110Y-11325860I25000J0D01*
G01*
X18050110Y-11833860D02*
G75*
G02*
X18000110Y-11833860I-25000J0D01*
G01*
X18000110Y-11833860D02*
G75*
G02*
X18050110Y-11833860I25000J0D01*
G01*
X11594760Y-8978000D02*
X11594760Y-9038000D01*
X11564760Y-9008000D02*
X11624760Y-9008000D01*
X11565060Y-9038000D02*
X11624460Y-9038000D01*
X11624460Y-8978000D02*
G75*
G02*
X11624460Y-9038000I0J-30000D01*
G01*
X11624460Y-8978000D02*
X11565060Y-8978000D01*
X11565060Y-8978000D02*
G75*
G03*
X11565060Y-9038000I0J-30000D01*
G01*
X11594760Y-9678000D02*
X11594760Y-9738000D01*
X11564760Y-9708000D02*
X11624760Y-9708000D01*
X11565060Y-9738000D02*
X11624460Y-9738000D01*
X11624460Y-9678000D02*
G75*
G02*
X11624460Y-9738000I0J-30000D01*
G01*
X11624460Y-9678000D02*
X11565060Y-9678000D01*
X11565060Y-9678000D02*
G75*
G03*
X11565060Y-9738000I0J-30000D01*
G01*
X11862260Y-9078000D02*
X11862260Y-9138000D01*
X11832260Y-9108000D02*
X11892260Y-9108000D01*
X11832260Y-9093000D02*
X11832260Y-9123000D01*
X11892260Y-9123000D02*
G75*
G02*
X11832260Y-9123000I-30000J0D01*
G01*
X11892260Y-9123000D02*
X11892260Y-9093000D01*
X11892260Y-9093000D02*
G75*
G03*
X11832260Y-9093000I-30000J0D01*
G01*
X11862260Y-9578000D02*
X11862260Y-9638000D01*
X11832260Y-9608000D02*
X11892260Y-9608000D01*
X11832260Y-9593000D02*
X11832260Y-9623000D01*
X11892260Y-9623000D02*
G75*
G02*
X11832260Y-9623000I-30000J0D01*
G01*
X11892260Y-9623000D02*
X11892260Y-9593000D01*
X11892260Y-9593000D02*
G75*
G03*
X11832260Y-9593000I-30000J0D01*
G01*
X11873941Y-8707941D02*
X11873941Y-8654059D01*
X11820059Y-8654059D01*
X11820059Y-8707941D01*
X11873941Y-8707941D01*
X12127941Y-8707941D02*
X12127941Y-8654059D01*
X12074059Y-8654059D01*
X12074059Y-8707941D01*
X12127941Y-8707941D01*
X13300710Y-8129860D02*
X13343210Y-8087360D01*
X13300710Y-8044860D01*
X13258210Y-8087360D01*
X13300710Y-8129860D01*
X13554710Y-8129860D02*
X13597210Y-8087360D01*
X13554710Y-8044860D01*
X13512210Y-8087360D01*
X13554710Y-8129860D01*
X13808710Y-8129860D02*
X13851210Y-8087360D01*
X13808710Y-8044860D01*
X13766210Y-8087360D01*
X13808710Y-8129860D01*
X14062710Y-8129860D02*
X14105210Y-8087360D01*
X14062710Y-8044860D01*
X14020210Y-8087360D01*
X14062710Y-8129860D01*
X14215110Y-12955860D02*
X14257610Y-12913360D01*
X14215110Y-12870860D01*
X14172610Y-12913360D01*
X14215110Y-12955860D01*
X14316710Y-8129860D02*
X14359210Y-8087360D01*
X14316710Y-8044860D01*
X14274210Y-8087360D01*
X14316710Y-8129860D01*
X14469110Y-12955860D02*
X14511610Y-12913360D01*
X14469110Y-12870860D01*
X14426610Y-12913360D01*
X14469110Y-12955860D01*
X14570710Y-8129860D02*
X14613210Y-8087360D01*
X14570710Y-8044860D01*
X14528210Y-8087360D01*
X14570710Y-8129860D01*
X14723110Y-12955860D02*
X14765610Y-12913360D01*
X14723110Y-12870860D01*
X14680610Y-12913360D01*
X14723110Y-12955860D01*
X14824710Y-8129860D02*
X14867210Y-8087360D01*
X14824710Y-8044860D01*
X14782210Y-8087360D01*
X14824710Y-8129860D01*
X14977110Y-12955860D02*
X15019610Y-12913360D01*
X14977110Y-12870860D01*
X14934610Y-12913360D01*
X14977110Y-12955860D01*
X15078710Y-8129860D02*
X15121210Y-8087360D01*
X15078710Y-8044860D01*
X15036210Y-8087360D01*
X15078710Y-8129860D01*
X15231110Y-12955860D02*
X15273610Y-12913360D01*
X15231110Y-12870860D01*
X15188610Y-12913360D01*
X15231110Y-12955860D01*
X15332710Y-8129860D02*
X15375210Y-8087360D01*
X15332710Y-8044860D01*
X15290210Y-8087360D01*
X15332710Y-8129860D01*
X15485110Y-12955860D02*
X15527610Y-12913360D01*
X15485110Y-12870860D01*
X15442610Y-12913360D01*
X15485110Y-12955860D01*
X15586710Y-8129860D02*
X15629210Y-8087360D01*
X15586710Y-8044860D01*
X15544210Y-8087360D01*
X15586710Y-8129860D01*
X15739110Y-12955860D02*
X15781610Y-12913360D01*
X15739110Y-12870860D01*
X15696610Y-12913360D01*
X15739110Y-12955860D01*
X15993110Y-8129860D02*
X16035610Y-8087360D01*
X15993110Y-8044860D01*
X15950610Y-8087360D01*
X15993110Y-8129860D01*
X15993110Y-12955860D02*
X16035610Y-12913360D01*
X15993110Y-12870860D01*
X15950610Y-12913360D01*
X15993110Y-12955860D01*
X16247110Y-8129860D02*
X16289610Y-8087360D01*
X16247110Y-8044860D01*
X16204610Y-8087360D01*
X16247110Y-8129860D01*
X16501110Y-8129860D02*
X16543610Y-8087360D01*
X16501110Y-8044860D01*
X16458610Y-8087360D01*
X16501110Y-8129860D01*
X16501110Y-12955860D02*
X16543610Y-12913360D01*
X16501110Y-12870860D01*
X16458610Y-12913360D01*
X16501110Y-12955860D01*
X16755110Y-8129860D02*
X16797610Y-8087360D01*
X16755110Y-8044860D01*
X16712610Y-8087360D01*
X16755110Y-8129860D01*
X16755110Y-12955860D02*
X16797610Y-12913360D01*
X16755110Y-12870860D01*
X16712610Y-12913360D01*
X16755110Y-12955860D01*
X17009110Y-8129860D02*
X17051610Y-8087360D01*
X17009110Y-8044860D01*
X16966610Y-8087360D01*
X17009110Y-8129860D01*
X17009110Y-12955860D02*
X17051610Y-12913360D01*
X17009110Y-12870860D01*
X16966610Y-12913360D01*
X17009110Y-12955860D01*
X17263110Y-8129860D02*
X17305610Y-8087360D01*
X17263110Y-8044860D01*
X17220610Y-8087360D01*
X17263110Y-8129860D01*
X17263110Y-12955860D02*
X17305610Y-12913360D01*
X17263110Y-12870860D01*
X17220610Y-12913360D01*
X17263110Y-12955860D01*
X17517110Y-8129860D02*
X17559610Y-8087360D01*
X17517110Y-8044860D01*
X17474610Y-8087360D01*
X17517110Y-8129860D01*
X17517110Y-12955860D02*
X17559610Y-12913360D01*
X17517110Y-12870860D01*
X17474610Y-12913360D01*
X17517110Y-12955860D01*
X17771110Y-8129860D02*
X17813610Y-8087360D01*
X17771110Y-8044860D01*
X17728610Y-8087360D01*
X17771110Y-8129860D01*
X17771110Y-12955860D02*
X17813610Y-12913360D01*
X17771110Y-12870860D01*
X17728610Y-12913360D01*
X17771110Y-12955860D01*
X17736310Y-10071860D02*
X17831310Y-10166860D01*
X17831310Y-10071860D02*
X17736310Y-10166860D01*
X17831310Y-10119360D02*
G75*
G02*
X17736310Y-10119360I-47500J0D01*
G01*
X17736310Y-10119360D02*
G75*
G02*
X17831310Y-10119360I47500J0D01*
G01*
X17736310Y-10325860D02*
X17831310Y-10420860D01*
X17831310Y-10325860D02*
X17736310Y-10420860D01*
X17831310Y-10373360D02*
G75*
G02*
X17736310Y-10373360I-47500J0D01*
G01*
X17736310Y-10373360D02*
G75*
G02*
X17831310Y-10373360I47500J0D01*
G01*
X17736310Y-10579860D02*
X17831310Y-10674860D01*
X17831310Y-10579860D02*
X17736310Y-10674860D01*
X17831310Y-10627360D02*
G75*
G02*
X17736310Y-10627360I-47500J0D01*
G01*
X17736310Y-10627360D02*
G75*
G02*
X17831310Y-10627360I47500J0D01*
G01*
X17990310Y-10071860D02*
X18085310Y-10166860D01*
X18085310Y-10071860D02*
X17990310Y-10166860D01*
X18085310Y-10119360D02*
G75*
G02*
X17990310Y-10119360I-47500J0D01*
G01*
X17990310Y-10119360D02*
G75*
G02*
X18085310Y-10119360I47500J0D01*
G01*
X17990310Y-10325860D02*
X18085310Y-10420860D01*
X18085310Y-10325860D02*
X17990310Y-10420860D01*
X18085310Y-10373360D02*
G75*
G02*
X17990310Y-10373360I-47500J0D01*
G01*
X17990310Y-10373360D02*
G75*
G02*
X18085310Y-10373360I47500J0D01*
G01*
X17990310Y-10579860D02*
X18085310Y-10674860D01*
X18085310Y-10579860D02*
X17990310Y-10674860D01*
X18085310Y-10627360D02*
G75*
G02*
X17990310Y-10627360I-47500J0D01*
G01*
X17990310Y-10627360D02*
G75*
G02*
X18085310Y-10627360I47500J0D01*
G01*
D13*
X11925070Y-12271780D02*
X12055070Y-12401780D01*
X12055070Y-12271780D02*
X11925070Y-12401780D01*
X11990070Y-12271780D02*
X11990070Y-12401780D01*
X11925070Y-12336780D02*
X12055070Y-12336780D01*
D12*
X12055070Y-12412980D02*
X12055070Y-12260580D01*
X11925070Y-12260580D02*
G75*
G02*
X12055070Y-12260580I65000J0D01*
G01*
X11925070Y-12260580D02*
X11925070Y-12412980D01*
X11925070Y-12412980D02*
G75*
G03*
X12055070Y-12412980I65000J0D01*
G01*
D13*
X12224790Y-12772160D02*
X12354790Y-12902160D01*
X12354790Y-12772160D02*
X12224790Y-12902160D01*
X12289790Y-12772160D02*
X12289790Y-12902160D01*
X12224790Y-12837160D02*
X12354790Y-12837160D01*
D12*
X12365990Y-12772160D02*
X12213590Y-12772160D01*
X12213590Y-12902160D02*
G75*
G02*
X12213590Y-12772160I0J65000D01*
G01*
X12213590Y-12902160D02*
X12365990Y-12902160D01*
X12365990Y-12902160D02*
G75*
G03*
X12365990Y-12772160I0J65000D01*
G01*
D13*
X12524510Y-12271780D02*
X12654510Y-12401780D01*
X12654510Y-12271780D02*
X12524510Y-12401780D01*
X12589510Y-12271780D02*
X12589510Y-12401780D01*
X12524510Y-12336780D02*
X12654510Y-12336780D01*
D12*
X12654510Y-12412980D02*
X12654510Y-12260580D01*
X12524510Y-12260580D02*
G75*
G02*
X12654510Y-12260580I65000J0D01*
G01*
X12524510Y-12260580D02*
X12524510Y-12412980D01*
X12524510Y-12412980D02*
G75*
G03*
X12654510Y-12412980I65000J0D01*
G01*
D11*
X11669187Y-13491544D02*
X11669187Y-13291544D01*
X11669187Y-13291544D02*
X11716806Y-13291544D01*
X11716806Y-13291544D02*
X11745377Y-13301068D01*
X11745377Y-13301068D02*
X11764425Y-13320115D01*
X11764425Y-13320115D02*
X11773949Y-13339163D01*
X11773949Y-13339163D02*
X11783472Y-13377258D01*
X11783472Y-13377258D02*
X11783472Y-13405829D01*
X11783472Y-13405829D02*
X11773949Y-13443925D01*
X11773949Y-13443925D02*
X11764425Y-13462972D01*
X11764425Y-13462972D02*
X11745377Y-13482020D01*
X11745377Y-13482020D02*
X11716806Y-13491544D01*
X11716806Y-13491544D02*
X11669187Y-13491544D01*
X11869187Y-13491544D02*
X11869187Y-13358210D01*
X11869187Y-13396306D02*
X11878711Y-13377258D01*
X11878711Y-13377258D02*
X11888234Y-13367734D01*
X11888234Y-13367734D02*
X11907282Y-13358210D01*
X11907282Y-13358210D02*
X11926330Y-13358210D01*
X11992996Y-13491544D02*
X11992996Y-13358210D01*
X11992996Y-13291544D02*
X11983472Y-13301068D01*
X11983472Y-13301068D02*
X11992996Y-13310591D01*
X11992996Y-13310591D02*
X12002520Y-13301068D01*
X12002520Y-13301068D02*
X11992996Y-13291544D01*
X11992996Y-13291544D02*
X11992996Y-13310591D01*
X12116806Y-13491544D02*
X12097758Y-13482020D01*
X12097758Y-13482020D02*
X12088234Y-13462972D01*
X12088234Y-13462972D02*
X12088234Y-13291544D01*
X12221568Y-13491544D02*
X12202520Y-13482020D01*
X12202520Y-13482020D02*
X12192996Y-13462972D01*
X12192996Y-13462972D02*
X12192996Y-13291544D01*
X12450139Y-13491544D02*
X12450139Y-13291544D01*
X12450139Y-13291544D02*
X12516806Y-13434401D01*
X12516806Y-13434401D02*
X12583472Y-13291544D01*
X12583472Y-13291544D02*
X12583472Y-13491544D01*
X12764425Y-13491544D02*
X12764425Y-13386782D01*
X12764425Y-13386782D02*
X12754901Y-13367734D01*
X12754901Y-13367734D02*
X12735853Y-13358210D01*
X12735853Y-13358210D02*
X12697758Y-13358210D01*
X12697758Y-13358210D02*
X12678711Y-13367734D01*
X12764425Y-13482020D02*
X12745377Y-13491544D01*
X12745377Y-13491544D02*
X12697758Y-13491544D01*
X12697758Y-13491544D02*
X12678711Y-13482020D01*
X12678711Y-13482020D02*
X12669187Y-13462972D01*
X12669187Y-13462972D02*
X12669187Y-13443925D01*
X12669187Y-13443925D02*
X12678711Y-13424877D01*
X12678711Y-13424877D02*
X12697758Y-13415353D01*
X12697758Y-13415353D02*
X12745377Y-13415353D01*
X12745377Y-13415353D02*
X12764425Y-13405829D01*
X12859663Y-13358210D02*
X12859663Y-13558210D01*
X12859663Y-13367734D02*
X12878711Y-13358210D01*
X12878711Y-13358210D02*
X12916806Y-13358210D01*
X12916806Y-13358210D02*
X12935853Y-13367734D01*
X12935853Y-13367734D02*
X12945377Y-13377258D01*
X12945377Y-13377258D02*
X12954901Y-13396306D01*
X12954901Y-13396306D02*
X12954901Y-13453448D01*
X12954901Y-13453448D02*
X12945377Y-13472496D01*
X12945377Y-13472496D02*
X12935853Y-13482020D01*
X12935853Y-13482020D02*
X12916806Y-13491544D01*
X12916806Y-13491544D02*
X12878711Y-13491544D01*
X12878711Y-13491544D02*
X12859663Y-13482020D01*
X13040615Y-13472496D02*
X13050139Y-13482020D01*
X13050139Y-13482020D02*
X13040615Y-13491544D01*
X13040615Y-13491544D02*
X13031092Y-13482020D01*
X13031092Y-13482020D02*
X13040615Y-13472496D01*
X13040615Y-13472496D02*
X13040615Y-13491544D01*
X13040615Y-13367734D02*
X13050139Y-13377258D01*
X13050139Y-13377258D02*
X13040615Y-13386782D01*
X13040615Y-13386782D02*
X13031092Y-13377258D01*
X13031092Y-13377258D02*
X13040615Y-13367734D01*
X13040615Y-13367734D02*
X13040615Y-13386782D01*
D12*
X11368410Y-13800060D02*
X11408410Y-13840060D01*
X11408410Y-13800060D02*
X11368410Y-13840060D01*
D11*
X11707282Y-13711544D02*
X11726330Y-13711544D01*
X11726330Y-13711544D02*
X11745377Y-13721068D01*
X11745377Y-13721068D02*
X11754901Y-13730591D01*
X11754901Y-13730591D02*
X11764425Y-13749639D01*
X11764425Y-13749639D02*
X11773949Y-13787734D01*
X11773949Y-13787734D02*
X11773949Y-13835353D01*
X11773949Y-13835353D02*
X11764425Y-13873448D01*
X11764425Y-13873448D02*
X11754901Y-13892496D01*
X11754901Y-13892496D02*
X11745377Y-13902020D01*
X11745377Y-13902020D02*
X11726330Y-13911544D01*
X11726330Y-13911544D02*
X11707282Y-13911544D01*
X11707282Y-13911544D02*
X11688234Y-13902020D01*
X11688234Y-13902020D02*
X11678711Y-13892496D01*
X11678711Y-13892496D02*
X11669187Y-13873448D01*
X11669187Y-13873448D02*
X11659663Y-13835353D01*
X11659663Y-13835353D02*
X11659663Y-13787734D01*
X11659663Y-13787734D02*
X11669187Y-13749639D01*
X11669187Y-13749639D02*
X11678711Y-13730591D01*
X11678711Y-13730591D02*
X11688234Y-13721068D01*
X11688234Y-13721068D02*
X11707282Y-13711544D01*
X11859663Y-13892496D02*
X11869187Y-13902020D01*
X11869187Y-13902020D02*
X11859663Y-13911544D01*
X11859663Y-13911544D02*
X11850139Y-13902020D01*
X11850139Y-13902020D02*
X11859663Y-13892496D01*
X11859663Y-13892496D02*
X11859663Y-13911544D01*
X12040615Y-13778210D02*
X12040615Y-13911544D01*
X11992996Y-13702020D02*
X11945377Y-13844877D01*
X11945377Y-13844877D02*
X12069187Y-13844877D01*
X12183472Y-13711544D02*
X12202520Y-13711544D01*
X12202520Y-13711544D02*
X12221568Y-13721068D01*
X12221568Y-13721068D02*
X12231092Y-13730591D01*
X12231092Y-13730591D02*
X12240615Y-13749639D01*
X12240615Y-13749639D02*
X12250139Y-13787734D01*
X12250139Y-13787734D02*
X12250139Y-13835353D01*
X12250139Y-13835353D02*
X12240615Y-13873448D01*
X12240615Y-13873448D02*
X12231092Y-13892496D01*
X12231092Y-13892496D02*
X12221568Y-13902020D01*
X12221568Y-13902020D02*
X12202520Y-13911544D01*
X12202520Y-13911544D02*
X12183472Y-13911544D01*
X12183472Y-13911544D02*
X12164425Y-13902020D01*
X12164425Y-13902020D02*
X12154901Y-13892496D01*
X12154901Y-13892496D02*
X12145377Y-13873448D01*
X12145377Y-13873448D02*
X12135853Y-13835353D01*
X12135853Y-13835353D02*
X12135853Y-13787734D01*
X12135853Y-13787734D02*
X12145377Y-13749639D01*
X12145377Y-13749639D02*
X12154901Y-13730591D01*
X12154901Y-13730591D02*
X12164425Y-13721068D01*
X12164425Y-13721068D02*
X12183472Y-13711544D01*
X12373949Y-13711544D02*
X12392996Y-13711544D01*
X12392996Y-13711544D02*
X12412044Y-13721068D01*
X12412044Y-13721068D02*
X12421568Y-13730591D01*
X12421568Y-13730591D02*
X12431092Y-13749639D01*
X12431092Y-13749639D02*
X12440615Y-13787734D01*
X12440615Y-13787734D02*
X12440615Y-13835353D01*
X12440615Y-13835353D02*
X12431092Y-13873448D01*
X12431092Y-13873448D02*
X12421568Y-13892496D01*
X12421568Y-13892496D02*
X12412044Y-13902020D01*
X12412044Y-13902020D02*
X12392996Y-13911544D01*
X12392996Y-13911544D02*
X12373949Y-13911544D01*
X12373949Y-13911544D02*
X12354901Y-13902020D01*
X12354901Y-13902020D02*
X12345377Y-13892496D01*
X12345377Y-13892496D02*
X12335853Y-13873448D01*
X12335853Y-13873448D02*
X12326330Y-13835353D01*
X12326330Y-13835353D02*
X12326330Y-13787734D01*
X12326330Y-13787734D02*
X12335853Y-13749639D01*
X12335853Y-13749639D02*
X12345377Y-13730591D01*
X12345377Y-13730591D02*
X12354901Y-13721068D01*
X12354901Y-13721068D02*
X12373949Y-13711544D01*
X12526330Y-13911544D02*
X12526330Y-13778210D01*
X12526330Y-13797258D02*
X12535853Y-13787734D01*
X12535853Y-13787734D02*
X12554901Y-13778210D01*
X12554901Y-13778210D02*
X12583473Y-13778210D01*
X12583473Y-13778210D02*
X12602520Y-13787734D01*
X12602520Y-13787734D02*
X12612044Y-13806782D01*
X12612044Y-13806782D02*
X12612044Y-13911544D01*
X12612044Y-13806782D02*
X12621568Y-13787734D01*
X12621568Y-13787734D02*
X12640615Y-13778210D01*
X12640615Y-13778210D02*
X12669187Y-13778210D01*
X12669187Y-13778210D02*
X12688234Y-13787734D01*
X12688234Y-13787734D02*
X12697758Y-13806782D01*
X12697758Y-13806782D02*
X12697758Y-13911544D01*
X12792996Y-13911544D02*
X12792996Y-13778210D01*
X12792996Y-13797258D02*
X12802520Y-13787734D01*
X12802520Y-13787734D02*
X12821568Y-13778210D01*
X12821568Y-13778210D02*
X12850139Y-13778210D01*
X12850139Y-13778210D02*
X12869187Y-13787734D01*
X12869187Y-13787734D02*
X12878711Y-13806782D01*
X12878711Y-13806782D02*
X12878711Y-13911544D01*
X12878711Y-13806782D02*
X12888234Y-13787734D01*
X12888234Y-13787734D02*
X12907282Y-13778210D01*
X12907282Y-13778210D02*
X12935853Y-13778210D01*
X12935853Y-13778210D02*
X12954901Y-13787734D01*
X12954901Y-13787734D02*
X12964425Y-13806782D01*
X12964425Y-13806782D02*
X12964425Y-13911544D01*
X13354901Y-13702020D02*
X13183473Y-13959163D01*
X13612044Y-13711544D02*
X13631092Y-13711544D01*
X13631092Y-13711544D02*
X13650139Y-13721068D01*
X13650139Y-13721068D02*
X13659663Y-13730591D01*
X13659663Y-13730591D02*
X13669187Y-13749639D01*
X13669187Y-13749639D02*
X13678711Y-13787734D01*
X13678711Y-13787734D02*
X13678711Y-13835353D01*
X13678711Y-13835353D02*
X13669187Y-13873448D01*
X13669187Y-13873448D02*
X13659663Y-13892496D01*
X13659663Y-13892496D02*
X13650139Y-13902020D01*
X13650139Y-13902020D02*
X13631092Y-13911544D01*
X13631092Y-13911544D02*
X13612044Y-13911544D01*
X13612044Y-13911544D02*
X13592996Y-13902020D01*
X13592996Y-13902020D02*
X13583473Y-13892496D01*
X13583473Y-13892496D02*
X13573949Y-13873448D01*
X13573949Y-13873448D02*
X13564425Y-13835353D01*
X13564425Y-13835353D02*
X13564425Y-13787734D01*
X13564425Y-13787734D02*
X13573949Y-13749639D01*
X13573949Y-13749639D02*
X13583473Y-13730591D01*
X13583473Y-13730591D02*
X13592996Y-13721068D01*
X13592996Y-13721068D02*
X13612044Y-13711544D01*
X13764425Y-13892496D02*
X13773949Y-13902020D01*
X13773949Y-13902020D02*
X13764425Y-13911544D01*
X13764425Y-13911544D02*
X13754901Y-13902020D01*
X13754901Y-13902020D02*
X13764425Y-13892496D01*
X13764425Y-13892496D02*
X13764425Y-13911544D01*
X13897758Y-13711544D02*
X13916806Y-13711544D01*
X13916806Y-13711544D02*
X13935854Y-13721068D01*
X13935854Y-13721068D02*
X13945377Y-13730591D01*
X13945377Y-13730591D02*
X13954901Y-13749639D01*
X13954901Y-13749639D02*
X13964425Y-13787734D01*
X13964425Y-13787734D02*
X13964425Y-13835353D01*
X13964425Y-13835353D02*
X13954901Y-13873448D01*
X13954901Y-13873448D02*
X13945377Y-13892496D01*
X13945377Y-13892496D02*
X13935854Y-13902020D01*
X13935854Y-13902020D02*
X13916806Y-13911544D01*
X13916806Y-13911544D02*
X13897758Y-13911544D01*
X13897758Y-13911544D02*
X13878711Y-13902020D01*
X13878711Y-13902020D02*
X13869187Y-13892496D01*
X13869187Y-13892496D02*
X13859663Y-13873448D01*
X13859663Y-13873448D02*
X13850139Y-13835353D01*
X13850139Y-13835353D02*
X13850139Y-13787734D01*
X13850139Y-13787734D02*
X13859663Y-13749639D01*
X13859663Y-13749639D02*
X13869187Y-13730591D01*
X13869187Y-13730591D02*
X13878711Y-13721068D01*
X13878711Y-13721068D02*
X13897758Y-13711544D01*
X14154901Y-13911544D02*
X14040616Y-13911544D01*
X14097758Y-13911544D02*
X14097758Y-13711544D01*
X14097758Y-13711544D02*
X14078711Y-13740115D01*
X14078711Y-13740115D02*
X14059663Y-13759163D01*
X14059663Y-13759163D02*
X14040616Y-13768687D01*
X14335854Y-13711544D02*
X14240616Y-13711544D01*
X14240616Y-13711544D02*
X14231092Y-13806782D01*
X14231092Y-13806782D02*
X14240616Y-13797258D01*
X14240616Y-13797258D02*
X14259663Y-13787734D01*
X14259663Y-13787734D02*
X14307282Y-13787734D01*
X14307282Y-13787734D02*
X14326330Y-13797258D01*
X14326330Y-13797258D02*
X14335854Y-13806782D01*
X14335854Y-13806782D02*
X14345377Y-13825829D01*
X14345377Y-13825829D02*
X14345377Y-13873448D01*
X14345377Y-13873448D02*
X14335854Y-13892496D01*
X14335854Y-13892496D02*
X14326330Y-13902020D01*
X14326330Y-13902020D02*
X14307282Y-13911544D01*
X14307282Y-13911544D02*
X14259663Y-13911544D01*
X14259663Y-13911544D02*
X14240616Y-13902020D01*
X14240616Y-13902020D02*
X14231092Y-13892496D01*
X14412044Y-13711544D02*
X14545377Y-13711544D01*
X14545377Y-13711544D02*
X14459663Y-13911544D01*
X14612044Y-13711544D02*
X14612044Y-13749639D01*
X14688235Y-13711544D02*
X14688235Y-13749639D01*
X14983473Y-13987734D02*
X14973949Y-13978210D01*
X14973949Y-13978210D02*
X14954901Y-13949639D01*
X14954901Y-13949639D02*
X14945378Y-13930591D01*
X14945378Y-13930591D02*
X14935854Y-13902020D01*
X14935854Y-13902020D02*
X14926330Y-13854401D01*
X14926330Y-13854401D02*
X14926330Y-13816306D01*
X14926330Y-13816306D02*
X14935854Y-13768687D01*
X14935854Y-13768687D02*
X14945378Y-13740115D01*
X14945378Y-13740115D02*
X14954901Y-13721068D01*
X14954901Y-13721068D02*
X14973949Y-13692496D01*
X14973949Y-13692496D02*
X14983473Y-13682972D01*
X15040616Y-13711544D02*
X15164425Y-13711544D01*
X15164425Y-13711544D02*
X15097758Y-13787734D01*
X15097758Y-13787734D02*
X15126330Y-13787734D01*
X15126330Y-13787734D02*
X15145378Y-13797258D01*
X15145378Y-13797258D02*
X15154901Y-13806782D01*
X15154901Y-13806782D02*
X15164425Y-13825829D01*
X15164425Y-13825829D02*
X15164425Y-13873448D01*
X15164425Y-13873448D02*
X15154901Y-13892496D01*
X15154901Y-13892496D02*
X15145378Y-13902020D01*
X15145378Y-13902020D02*
X15126330Y-13911544D01*
X15126330Y-13911544D02*
X15069187Y-13911544D01*
X15069187Y-13911544D02*
X15050139Y-13902020D01*
X15050139Y-13902020D02*
X15040616Y-13892496D01*
X15402520Y-13911544D02*
X15402520Y-13711544D01*
X15488235Y-13911544D02*
X15488235Y-13806782D01*
X15488235Y-13806782D02*
X15478711Y-13787734D01*
X15478711Y-13787734D02*
X15459663Y-13778210D01*
X15459663Y-13778210D02*
X15431092Y-13778210D01*
X15431092Y-13778210D02*
X15412044Y-13787734D01*
X15412044Y-13787734D02*
X15402520Y-13797258D01*
X15612044Y-13911544D02*
X15592997Y-13902020D01*
X15592997Y-13902020D02*
X15583473Y-13892496D01*
X15583473Y-13892496D02*
X15573949Y-13873448D01*
X15573949Y-13873448D02*
X15573949Y-13816306D01*
X15573949Y-13816306D02*
X15583473Y-13797258D01*
X15583473Y-13797258D02*
X15592997Y-13787734D01*
X15592997Y-13787734D02*
X15612044Y-13778210D01*
X15612044Y-13778210D02*
X15640616Y-13778210D01*
X15640616Y-13778210D02*
X15659663Y-13787734D01*
X15659663Y-13787734D02*
X15669187Y-13797258D01*
X15669187Y-13797258D02*
X15678711Y-13816306D01*
X15678711Y-13816306D02*
X15678711Y-13873448D01*
X15678711Y-13873448D02*
X15669187Y-13892496D01*
X15669187Y-13892496D02*
X15659663Y-13902020D01*
X15659663Y-13902020D02*
X15640616Y-13911544D01*
X15640616Y-13911544D02*
X15612044Y-13911544D01*
X15792997Y-13911544D02*
X15773949Y-13902020D01*
X15773949Y-13902020D02*
X15764425Y-13882972D01*
X15764425Y-13882972D02*
X15764425Y-13711544D01*
X15945378Y-13902020D02*
X15926330Y-13911544D01*
X15926330Y-13911544D02*
X15888235Y-13911544D01*
X15888235Y-13911544D02*
X15869187Y-13902020D01*
X15869187Y-13902020D02*
X15859663Y-13882972D01*
X15859663Y-13882972D02*
X15859663Y-13806782D01*
X15859663Y-13806782D02*
X15869187Y-13787734D01*
X15869187Y-13787734D02*
X15888235Y-13778210D01*
X15888235Y-13778210D02*
X15926330Y-13778210D01*
X15926330Y-13778210D02*
X15945378Y-13787734D01*
X15945378Y-13787734D02*
X15954901Y-13806782D01*
X15954901Y-13806782D02*
X15954901Y-13825829D01*
X15954901Y-13825829D02*
X15859663Y-13844877D01*
X16031092Y-13902020D02*
X16050140Y-13911544D01*
X16050140Y-13911544D02*
X16088235Y-13911544D01*
X16088235Y-13911544D02*
X16107282Y-13902020D01*
X16107282Y-13902020D02*
X16116806Y-13882972D01*
X16116806Y-13882972D02*
X16116806Y-13873448D01*
X16116806Y-13873448D02*
X16107282Y-13854401D01*
X16107282Y-13854401D02*
X16088235Y-13844877D01*
X16088235Y-13844877D02*
X16059663Y-13844877D01*
X16059663Y-13844877D02*
X16040616Y-13835353D01*
X16040616Y-13835353D02*
X16031092Y-13816306D01*
X16031092Y-13816306D02*
X16031092Y-13806782D01*
X16031092Y-13806782D02*
X16040616Y-13787734D01*
X16040616Y-13787734D02*
X16059663Y-13778210D01*
X16059663Y-13778210D02*
X16088235Y-13778210D01*
X16088235Y-13778210D02*
X16107282Y-13787734D01*
X16183473Y-13987734D02*
X16192997Y-13978210D01*
X16192997Y-13978210D02*
X16212044Y-13949639D01*
X16212044Y-13949639D02*
X16221568Y-13930591D01*
X16221568Y-13930591D02*
X16231092Y-13902020D01*
X16231092Y-13902020D02*
X16240616Y-13854401D01*
X16240616Y-13854401D02*
X16240616Y-13816306D01*
X16240616Y-13816306D02*
X16231092Y-13768687D01*
X16231092Y-13768687D02*
X16221568Y-13740115D01*
X16221568Y-13740115D02*
X16212044Y-13721068D01*
X16212044Y-13721068D02*
X16192997Y-13692496D01*
X16192997Y-13692496D02*
X16183473Y-13682972D01*
D12*
X11408410Y-14084060D02*
G75*
G02*
X11358410Y-14084060I-25000J0D01*
G01*
X11358410Y-14084060D02*
G75*
G02*
X11408410Y-14084060I25000J0D01*
G01*
D11*
X11707282Y-13975544D02*
X11726330Y-13975544D01*
X11726330Y-13975544D02*
X11745377Y-13985068D01*
X11745377Y-13985068D02*
X11754901Y-13994591D01*
X11754901Y-13994591D02*
X11764425Y-14013639D01*
X11764425Y-14013639D02*
X11773949Y-14051734D01*
X11773949Y-14051734D02*
X11773949Y-14099353D01*
X11773949Y-14099353D02*
X11764425Y-14137448D01*
X11764425Y-14137448D02*
X11754901Y-14156496D01*
X11754901Y-14156496D02*
X11745377Y-14166020D01*
X11745377Y-14166020D02*
X11726330Y-14175544D01*
X11726330Y-14175544D02*
X11707282Y-14175544D01*
X11707282Y-14175544D02*
X11688234Y-14166020D01*
X11688234Y-14166020D02*
X11678711Y-14156496D01*
X11678711Y-14156496D02*
X11669187Y-14137448D01*
X11669187Y-14137448D02*
X11659663Y-14099353D01*
X11659663Y-14099353D02*
X11659663Y-14051734D01*
X11659663Y-14051734D02*
X11669187Y-14013639D01*
X11669187Y-14013639D02*
X11678711Y-13994591D01*
X11678711Y-13994591D02*
X11688234Y-13985068D01*
X11688234Y-13985068D02*
X11707282Y-13975544D01*
X11859663Y-14156496D02*
X11869187Y-14166020D01*
X11869187Y-14166020D02*
X11859663Y-14175544D01*
X11859663Y-14175544D02*
X11850139Y-14166020D01*
X11850139Y-14166020D02*
X11859663Y-14156496D01*
X11859663Y-14156496D02*
X11859663Y-14175544D01*
X12050139Y-13975544D02*
X11954901Y-13975544D01*
X11954901Y-13975544D02*
X11945377Y-14070782D01*
X11945377Y-14070782D02*
X11954901Y-14061258D01*
X11954901Y-14061258D02*
X11973949Y-14051734D01*
X11973949Y-14051734D02*
X12021568Y-14051734D01*
X12021568Y-14051734D02*
X12040615Y-14061258D01*
X12040615Y-14061258D02*
X12050139Y-14070782D01*
X12050139Y-14070782D02*
X12059663Y-14089829D01*
X12059663Y-14089829D02*
X12059663Y-14137448D01*
X12059663Y-14137448D02*
X12050139Y-14156496D01*
X12050139Y-14156496D02*
X12040615Y-14166020D01*
X12040615Y-14166020D02*
X12021568Y-14175544D01*
X12021568Y-14175544D02*
X11973949Y-14175544D01*
X11973949Y-14175544D02*
X11954901Y-14166020D01*
X11954901Y-14166020D02*
X11945377Y-14156496D01*
X12183472Y-13975544D02*
X12202520Y-13975544D01*
X12202520Y-13975544D02*
X12221568Y-13985068D01*
X12221568Y-13985068D02*
X12231092Y-13994591D01*
X12231092Y-13994591D02*
X12240615Y-14013639D01*
X12240615Y-14013639D02*
X12250139Y-14051734D01*
X12250139Y-14051734D02*
X12250139Y-14099353D01*
X12250139Y-14099353D02*
X12240615Y-14137448D01*
X12240615Y-14137448D02*
X12231092Y-14156496D01*
X12231092Y-14156496D02*
X12221568Y-14166020D01*
X12221568Y-14166020D02*
X12202520Y-14175544D01*
X12202520Y-14175544D02*
X12183472Y-14175544D01*
X12183472Y-14175544D02*
X12164425Y-14166020D01*
X12164425Y-14166020D02*
X12154901Y-14156496D01*
X12154901Y-14156496D02*
X12145377Y-14137448D01*
X12145377Y-14137448D02*
X12135853Y-14099353D01*
X12135853Y-14099353D02*
X12135853Y-14051734D01*
X12135853Y-14051734D02*
X12145377Y-14013639D01*
X12145377Y-14013639D02*
X12154901Y-13994591D01*
X12154901Y-13994591D02*
X12164425Y-13985068D01*
X12164425Y-13985068D02*
X12183472Y-13975544D01*
X12373949Y-13975544D02*
X12392996Y-13975544D01*
X12392996Y-13975544D02*
X12412044Y-13985068D01*
X12412044Y-13985068D02*
X12421568Y-13994591D01*
X12421568Y-13994591D02*
X12431092Y-14013639D01*
X12431092Y-14013639D02*
X12440615Y-14051734D01*
X12440615Y-14051734D02*
X12440615Y-14099353D01*
X12440615Y-14099353D02*
X12431092Y-14137448D01*
X12431092Y-14137448D02*
X12421568Y-14156496D01*
X12421568Y-14156496D02*
X12412044Y-14166020D01*
X12412044Y-14166020D02*
X12392996Y-14175544D01*
X12392996Y-14175544D02*
X12373949Y-14175544D01*
X12373949Y-14175544D02*
X12354901Y-14166020D01*
X12354901Y-14166020D02*
X12345377Y-14156496D01*
X12345377Y-14156496D02*
X12335853Y-14137448D01*
X12335853Y-14137448D02*
X12326330Y-14099353D01*
X12326330Y-14099353D02*
X12326330Y-14051734D01*
X12326330Y-14051734D02*
X12335853Y-14013639D01*
X12335853Y-14013639D02*
X12345377Y-13994591D01*
X12345377Y-13994591D02*
X12354901Y-13985068D01*
X12354901Y-13985068D02*
X12373949Y-13975544D01*
X12526330Y-14175544D02*
X12526330Y-14042210D01*
X12526330Y-14061258D02*
X12535853Y-14051734D01*
X12535853Y-14051734D02*
X12554901Y-14042210D01*
X12554901Y-14042210D02*
X12583473Y-14042210D01*
X12583473Y-14042210D02*
X12602520Y-14051734D01*
X12602520Y-14051734D02*
X12612044Y-14070782D01*
X12612044Y-14070782D02*
X12612044Y-14175544D01*
X12612044Y-14070782D02*
X12621568Y-14051734D01*
X12621568Y-14051734D02*
X12640615Y-14042210D01*
X12640615Y-14042210D02*
X12669187Y-14042210D01*
X12669187Y-14042210D02*
X12688234Y-14051734D01*
X12688234Y-14051734D02*
X12697758Y-14070782D01*
X12697758Y-14070782D02*
X12697758Y-14175544D01*
X12792996Y-14175544D02*
X12792996Y-14042210D01*
X12792996Y-14061258D02*
X12802520Y-14051734D01*
X12802520Y-14051734D02*
X12821568Y-14042210D01*
X12821568Y-14042210D02*
X12850139Y-14042210D01*
X12850139Y-14042210D02*
X12869187Y-14051734D01*
X12869187Y-14051734D02*
X12878711Y-14070782D01*
X12878711Y-14070782D02*
X12878711Y-14175544D01*
X12878711Y-14070782D02*
X12888234Y-14051734D01*
X12888234Y-14051734D02*
X12907282Y-14042210D01*
X12907282Y-14042210D02*
X12935853Y-14042210D01*
X12935853Y-14042210D02*
X12954901Y-14051734D01*
X12954901Y-14051734D02*
X12964425Y-14070782D01*
X12964425Y-14070782D02*
X12964425Y-14175544D01*
X13354901Y-13966020D02*
X13183473Y-14223163D01*
X13612044Y-13975544D02*
X13631092Y-13975544D01*
X13631092Y-13975544D02*
X13650139Y-13985068D01*
X13650139Y-13985068D02*
X13659663Y-13994591D01*
X13659663Y-13994591D02*
X13669187Y-14013639D01*
X13669187Y-14013639D02*
X13678711Y-14051734D01*
X13678711Y-14051734D02*
X13678711Y-14099353D01*
X13678711Y-14099353D02*
X13669187Y-14137448D01*
X13669187Y-14137448D02*
X13659663Y-14156496D01*
X13659663Y-14156496D02*
X13650139Y-14166020D01*
X13650139Y-14166020D02*
X13631092Y-14175544D01*
X13631092Y-14175544D02*
X13612044Y-14175544D01*
X13612044Y-14175544D02*
X13592996Y-14166020D01*
X13592996Y-14166020D02*
X13583473Y-14156496D01*
X13583473Y-14156496D02*
X13573949Y-14137448D01*
X13573949Y-14137448D02*
X13564425Y-14099353D01*
X13564425Y-14099353D02*
X13564425Y-14051734D01*
X13564425Y-14051734D02*
X13573949Y-14013639D01*
X13573949Y-14013639D02*
X13583473Y-13994591D01*
X13583473Y-13994591D02*
X13592996Y-13985068D01*
X13592996Y-13985068D02*
X13612044Y-13975544D01*
X13764425Y-14156496D02*
X13773949Y-14166020D01*
X13773949Y-14166020D02*
X13764425Y-14175544D01*
X13764425Y-14175544D02*
X13754901Y-14166020D01*
X13754901Y-14166020D02*
X13764425Y-14156496D01*
X13764425Y-14156496D02*
X13764425Y-14175544D01*
X13897758Y-13975544D02*
X13916806Y-13975544D01*
X13916806Y-13975544D02*
X13935854Y-13985068D01*
X13935854Y-13985068D02*
X13945377Y-13994591D01*
X13945377Y-13994591D02*
X13954901Y-14013639D01*
X13954901Y-14013639D02*
X13964425Y-14051734D01*
X13964425Y-14051734D02*
X13964425Y-14099353D01*
X13964425Y-14099353D02*
X13954901Y-14137448D01*
X13954901Y-14137448D02*
X13945377Y-14156496D01*
X13945377Y-14156496D02*
X13935854Y-14166020D01*
X13935854Y-14166020D02*
X13916806Y-14175544D01*
X13916806Y-14175544D02*
X13897758Y-14175544D01*
X13897758Y-14175544D02*
X13878711Y-14166020D01*
X13878711Y-14166020D02*
X13869187Y-14156496D01*
X13869187Y-14156496D02*
X13859663Y-14137448D01*
X13859663Y-14137448D02*
X13850139Y-14099353D01*
X13850139Y-14099353D02*
X13850139Y-14051734D01*
X13850139Y-14051734D02*
X13859663Y-14013639D01*
X13859663Y-14013639D02*
X13869187Y-13994591D01*
X13869187Y-13994591D02*
X13878711Y-13985068D01*
X13878711Y-13985068D02*
X13897758Y-13975544D01*
X14154901Y-14175544D02*
X14040616Y-14175544D01*
X14097758Y-14175544D02*
X14097758Y-13975544D01*
X14097758Y-13975544D02*
X14078711Y-14004115D01*
X14078711Y-14004115D02*
X14059663Y-14023163D01*
X14059663Y-14023163D02*
X14040616Y-14032687D01*
X14250139Y-14175544D02*
X14288235Y-14175544D01*
X14288235Y-14175544D02*
X14307282Y-14166020D01*
X14307282Y-14166020D02*
X14316806Y-14156496D01*
X14316806Y-14156496D02*
X14335854Y-14127925D01*
X14335854Y-14127925D02*
X14345377Y-14089829D01*
X14345377Y-14089829D02*
X14345377Y-14013639D01*
X14345377Y-14013639D02*
X14335854Y-13994591D01*
X14335854Y-13994591D02*
X14326330Y-13985068D01*
X14326330Y-13985068D02*
X14307282Y-13975544D01*
X14307282Y-13975544D02*
X14269187Y-13975544D01*
X14269187Y-13975544D02*
X14250139Y-13985068D01*
X14250139Y-13985068D02*
X14240616Y-13994591D01*
X14240616Y-13994591D02*
X14231092Y-14013639D01*
X14231092Y-14013639D02*
X14231092Y-14061258D01*
X14231092Y-14061258D02*
X14240616Y-14080306D01*
X14240616Y-14080306D02*
X14250139Y-14089829D01*
X14250139Y-14089829D02*
X14269187Y-14099353D01*
X14269187Y-14099353D02*
X14307282Y-14099353D01*
X14307282Y-14099353D02*
X14326330Y-14089829D01*
X14326330Y-14089829D02*
X14335854Y-14080306D01*
X14335854Y-14080306D02*
X14345377Y-14061258D01*
X14412044Y-13975544D02*
X14545377Y-13975544D01*
X14545377Y-13975544D02*
X14459663Y-14175544D01*
X14612044Y-13975544D02*
X14612044Y-14013639D01*
X14688235Y-13975544D02*
X14688235Y-14013639D01*
X14983473Y-14251734D02*
X14973949Y-14242210D01*
X14973949Y-14242210D02*
X14954901Y-14213639D01*
X14954901Y-14213639D02*
X14945378Y-14194591D01*
X14945378Y-14194591D02*
X14935854Y-14166020D01*
X14935854Y-14166020D02*
X14926330Y-14118401D01*
X14926330Y-14118401D02*
X14926330Y-14080306D01*
X14926330Y-14080306D02*
X14935854Y-14032687D01*
X14935854Y-14032687D02*
X14945378Y-14004115D01*
X14945378Y-14004115D02*
X14954901Y-13985068D01*
X14954901Y-13985068D02*
X14973949Y-13956496D01*
X14973949Y-13956496D02*
X14983473Y-13946972D01*
X15069187Y-14175544D02*
X15107282Y-14175544D01*
X15107282Y-14175544D02*
X15126330Y-14166020D01*
X15126330Y-14166020D02*
X15135854Y-14156496D01*
X15135854Y-14156496D02*
X15154901Y-14127925D01*
X15154901Y-14127925D02*
X15164425Y-14089829D01*
X15164425Y-14089829D02*
X15164425Y-14013639D01*
X15164425Y-14013639D02*
X15154901Y-13994591D01*
X15154901Y-13994591D02*
X15145378Y-13985068D01*
X15145378Y-13985068D02*
X15126330Y-13975544D01*
X15126330Y-13975544D02*
X15088235Y-13975544D01*
X15088235Y-13975544D02*
X15069187Y-13985068D01*
X15069187Y-13985068D02*
X15059663Y-13994591D01*
X15059663Y-13994591D02*
X15050139Y-14013639D01*
X15050139Y-14013639D02*
X15050139Y-14061258D01*
X15050139Y-14061258D02*
X15059663Y-14080306D01*
X15059663Y-14080306D02*
X15069187Y-14089829D01*
X15069187Y-14089829D02*
X15088235Y-14099353D01*
X15088235Y-14099353D02*
X15126330Y-14099353D01*
X15126330Y-14099353D02*
X15145378Y-14089829D01*
X15145378Y-14089829D02*
X15154901Y-14080306D01*
X15154901Y-14080306D02*
X15164425Y-14061258D01*
X15335854Y-13975544D02*
X15297758Y-13975544D01*
X15297758Y-13975544D02*
X15278711Y-13985068D01*
X15278711Y-13985068D02*
X15269187Y-13994591D01*
X15269187Y-13994591D02*
X15250139Y-14023163D01*
X15250139Y-14023163D02*
X15240616Y-14061258D01*
X15240616Y-14061258D02*
X15240616Y-14137448D01*
X15240616Y-14137448D02*
X15250139Y-14156496D01*
X15250139Y-14156496D02*
X15259663Y-14166020D01*
X15259663Y-14166020D02*
X15278711Y-14175544D01*
X15278711Y-14175544D02*
X15316806Y-14175544D01*
X15316806Y-14175544D02*
X15335854Y-14166020D01*
X15335854Y-14166020D02*
X15345378Y-14156496D01*
X15345378Y-14156496D02*
X15354901Y-14137448D01*
X15354901Y-14137448D02*
X15354901Y-14089829D01*
X15354901Y-14089829D02*
X15345378Y-14070782D01*
X15345378Y-14070782D02*
X15335854Y-14061258D01*
X15335854Y-14061258D02*
X15316806Y-14051734D01*
X15316806Y-14051734D02*
X15278711Y-14051734D01*
X15278711Y-14051734D02*
X15259663Y-14061258D01*
X15259663Y-14061258D02*
X15250139Y-14070782D01*
X15250139Y-14070782D02*
X15240616Y-14089829D01*
X15592997Y-14175544D02*
X15592997Y-13975544D01*
X15678711Y-14175544D02*
X15678711Y-14070782D01*
X15678711Y-14070782D02*
X15669187Y-14051734D01*
X15669187Y-14051734D02*
X15650140Y-14042210D01*
X15650140Y-14042210D02*
X15621568Y-14042210D01*
X15621568Y-14042210D02*
X15602520Y-14051734D01*
X15602520Y-14051734D02*
X15592997Y-14061258D01*
X15802520Y-14175544D02*
X15783473Y-14166020D01*
X15783473Y-14166020D02*
X15773949Y-14156496D01*
X15773949Y-14156496D02*
X15764425Y-14137448D01*
X15764425Y-14137448D02*
X15764425Y-14080306D01*
X15764425Y-14080306D02*
X15773949Y-14061258D01*
X15773949Y-14061258D02*
X15783473Y-14051734D01*
X15783473Y-14051734D02*
X15802520Y-14042210D01*
X15802520Y-14042210D02*
X15831092Y-14042210D01*
X15831092Y-14042210D02*
X15850140Y-14051734D01*
X15850140Y-14051734D02*
X15859663Y-14061258D01*
X15859663Y-14061258D02*
X15869187Y-14080306D01*
X15869187Y-14080306D02*
X15869187Y-14137448D01*
X15869187Y-14137448D02*
X15859663Y-14156496D01*
X15859663Y-14156496D02*
X15850140Y-14166020D01*
X15850140Y-14166020D02*
X15831092Y-14175544D01*
X15831092Y-14175544D02*
X15802520Y-14175544D01*
X15983473Y-14175544D02*
X15964425Y-14166020D01*
X15964425Y-14166020D02*
X15954901Y-14146972D01*
X15954901Y-14146972D02*
X15954901Y-13975544D01*
X16135854Y-14166020D02*
X16116806Y-14175544D01*
X16116806Y-14175544D02*
X16078711Y-14175544D01*
X16078711Y-14175544D02*
X16059663Y-14166020D01*
X16059663Y-14166020D02*
X16050140Y-14146972D01*
X16050140Y-14146972D02*
X16050140Y-14070782D01*
X16050140Y-14070782D02*
X16059663Y-14051734D01*
X16059663Y-14051734D02*
X16078711Y-14042210D01*
X16078711Y-14042210D02*
X16116806Y-14042210D01*
X16116806Y-14042210D02*
X16135854Y-14051734D01*
X16135854Y-14051734D02*
X16145378Y-14070782D01*
X16145378Y-14070782D02*
X16145378Y-14089829D01*
X16145378Y-14089829D02*
X16050140Y-14108877D01*
X16221568Y-14166020D02*
X16240616Y-14175544D01*
X16240616Y-14175544D02*
X16278711Y-14175544D01*
X16278711Y-14175544D02*
X16297759Y-14166020D01*
X16297759Y-14166020D02*
X16307282Y-14146972D01*
X16307282Y-14146972D02*
X16307282Y-14137448D01*
X16307282Y-14137448D02*
X16297759Y-14118401D01*
X16297759Y-14118401D02*
X16278711Y-14108877D01*
X16278711Y-14108877D02*
X16250140Y-14108877D01*
X16250140Y-14108877D02*
X16231092Y-14099353D01*
X16231092Y-14099353D02*
X16221568Y-14080306D01*
X16221568Y-14080306D02*
X16221568Y-14070782D01*
X16221568Y-14070782D02*
X16231092Y-14051734D01*
X16231092Y-14051734D02*
X16250140Y-14042210D01*
X16250140Y-14042210D02*
X16278711Y-14042210D01*
X16278711Y-14042210D02*
X16297759Y-14051734D01*
X16373949Y-14251734D02*
X16383473Y-14242210D01*
X16383473Y-14242210D02*
X16402521Y-14213639D01*
X16402521Y-14213639D02*
X16412044Y-14194591D01*
X16412044Y-14194591D02*
X16421568Y-14166020D01*
X16421568Y-14166020D02*
X16431092Y-14118401D01*
X16431092Y-14118401D02*
X16431092Y-14080306D01*
X16431092Y-14080306D02*
X16421568Y-14032687D01*
X16421568Y-14032687D02*
X16412044Y-14004115D01*
X16412044Y-14004115D02*
X16402521Y-13985068D01*
X16402521Y-13985068D02*
X16383473Y-13956496D01*
X16383473Y-13956496D02*
X16373949Y-13946972D01*
D12*
X11378410Y-14318060D02*
X11378410Y-14378060D01*
X11348410Y-14348060D02*
X11408410Y-14348060D01*
D11*
X11707282Y-14239544D02*
X11726330Y-14239544D01*
X11726330Y-14239544D02*
X11745377Y-14249068D01*
X11745377Y-14249068D02*
X11754901Y-14258591D01*
X11754901Y-14258591D02*
X11764425Y-14277639D01*
X11764425Y-14277639D02*
X11773949Y-14315734D01*
X11773949Y-14315734D02*
X11773949Y-14363353D01*
X11773949Y-14363353D02*
X11764425Y-14401448D01*
X11764425Y-14401448D02*
X11754901Y-14420496D01*
X11754901Y-14420496D02*
X11745377Y-14430020D01*
X11745377Y-14430020D02*
X11726330Y-14439544D01*
X11726330Y-14439544D02*
X11707282Y-14439544D01*
X11707282Y-14439544D02*
X11688234Y-14430020D01*
X11688234Y-14430020D02*
X11678711Y-14420496D01*
X11678711Y-14420496D02*
X11669187Y-14401448D01*
X11669187Y-14401448D02*
X11659663Y-14363353D01*
X11659663Y-14363353D02*
X11659663Y-14315734D01*
X11659663Y-14315734D02*
X11669187Y-14277639D01*
X11669187Y-14277639D02*
X11678711Y-14258591D01*
X11678711Y-14258591D02*
X11688234Y-14249068D01*
X11688234Y-14249068D02*
X11707282Y-14239544D01*
X11859663Y-14420496D02*
X11869187Y-14430020D01*
X11869187Y-14430020D02*
X11859663Y-14439544D01*
X11859663Y-14439544D02*
X11850139Y-14430020D01*
X11850139Y-14430020D02*
X11859663Y-14420496D01*
X11859663Y-14420496D02*
X11859663Y-14439544D01*
X12040615Y-14239544D02*
X12002520Y-14239544D01*
X12002520Y-14239544D02*
X11983472Y-14249068D01*
X11983472Y-14249068D02*
X11973949Y-14258591D01*
X11973949Y-14258591D02*
X11954901Y-14287163D01*
X11954901Y-14287163D02*
X11945377Y-14325258D01*
X11945377Y-14325258D02*
X11945377Y-14401448D01*
X11945377Y-14401448D02*
X11954901Y-14420496D01*
X11954901Y-14420496D02*
X11964425Y-14430020D01*
X11964425Y-14430020D02*
X11983472Y-14439544D01*
X11983472Y-14439544D02*
X12021568Y-14439544D01*
X12021568Y-14439544D02*
X12040615Y-14430020D01*
X12040615Y-14430020D02*
X12050139Y-14420496D01*
X12050139Y-14420496D02*
X12059663Y-14401448D01*
X12059663Y-14401448D02*
X12059663Y-14353829D01*
X12059663Y-14353829D02*
X12050139Y-14334782D01*
X12050139Y-14334782D02*
X12040615Y-14325258D01*
X12040615Y-14325258D02*
X12021568Y-14315734D01*
X12021568Y-14315734D02*
X11983472Y-14315734D01*
X11983472Y-14315734D02*
X11964425Y-14325258D01*
X11964425Y-14325258D02*
X11954901Y-14334782D01*
X11954901Y-14334782D02*
X11945377Y-14353829D01*
X12183472Y-14239544D02*
X12202520Y-14239544D01*
X12202520Y-14239544D02*
X12221568Y-14249068D01*
X12221568Y-14249068D02*
X12231092Y-14258591D01*
X12231092Y-14258591D02*
X12240615Y-14277639D01*
X12240615Y-14277639D02*
X12250139Y-14315734D01*
X12250139Y-14315734D02*
X12250139Y-14363353D01*
X12250139Y-14363353D02*
X12240615Y-14401448D01*
X12240615Y-14401448D02*
X12231092Y-14420496D01*
X12231092Y-14420496D02*
X12221568Y-14430020D01*
X12221568Y-14430020D02*
X12202520Y-14439544D01*
X12202520Y-14439544D02*
X12183472Y-14439544D01*
X12183472Y-14439544D02*
X12164425Y-14430020D01*
X12164425Y-14430020D02*
X12154901Y-14420496D01*
X12154901Y-14420496D02*
X12145377Y-14401448D01*
X12145377Y-14401448D02*
X12135853Y-14363353D01*
X12135853Y-14363353D02*
X12135853Y-14315734D01*
X12135853Y-14315734D02*
X12145377Y-14277639D01*
X12145377Y-14277639D02*
X12154901Y-14258591D01*
X12154901Y-14258591D02*
X12164425Y-14249068D01*
X12164425Y-14249068D02*
X12183472Y-14239544D01*
X12373949Y-14239544D02*
X12392996Y-14239544D01*
X12392996Y-14239544D02*
X12412044Y-14249068D01*
X12412044Y-14249068D02*
X12421568Y-14258591D01*
X12421568Y-14258591D02*
X12431092Y-14277639D01*
X12431092Y-14277639D02*
X12440615Y-14315734D01*
X12440615Y-14315734D02*
X12440615Y-14363353D01*
X12440615Y-14363353D02*
X12431092Y-14401448D01*
X12431092Y-14401448D02*
X12421568Y-14420496D01*
X12421568Y-14420496D02*
X12412044Y-14430020D01*
X12412044Y-14430020D02*
X12392996Y-14439544D01*
X12392996Y-14439544D02*
X12373949Y-14439544D01*
X12373949Y-14439544D02*
X12354901Y-14430020D01*
X12354901Y-14430020D02*
X12345377Y-14420496D01*
X12345377Y-14420496D02*
X12335853Y-14401448D01*
X12335853Y-14401448D02*
X12326330Y-14363353D01*
X12326330Y-14363353D02*
X12326330Y-14315734D01*
X12326330Y-14315734D02*
X12335853Y-14277639D01*
X12335853Y-14277639D02*
X12345377Y-14258591D01*
X12345377Y-14258591D02*
X12354901Y-14249068D01*
X12354901Y-14249068D02*
X12373949Y-14239544D01*
X12526330Y-14439544D02*
X12526330Y-14306210D01*
X12526330Y-14325258D02*
X12535853Y-14315734D01*
X12535853Y-14315734D02*
X12554901Y-14306210D01*
X12554901Y-14306210D02*
X12583473Y-14306210D01*
X12583473Y-14306210D02*
X12602520Y-14315734D01*
X12602520Y-14315734D02*
X12612044Y-14334782D01*
X12612044Y-14334782D02*
X12612044Y-14439544D01*
X12612044Y-14334782D02*
X12621568Y-14315734D01*
X12621568Y-14315734D02*
X12640615Y-14306210D01*
X12640615Y-14306210D02*
X12669187Y-14306210D01*
X12669187Y-14306210D02*
X12688234Y-14315734D01*
X12688234Y-14315734D02*
X12697758Y-14334782D01*
X12697758Y-14334782D02*
X12697758Y-14439544D01*
X12792996Y-14439544D02*
X12792996Y-14306210D01*
X12792996Y-14325258D02*
X12802520Y-14315734D01*
X12802520Y-14315734D02*
X12821568Y-14306210D01*
X12821568Y-14306210D02*
X12850139Y-14306210D01*
X12850139Y-14306210D02*
X12869187Y-14315734D01*
X12869187Y-14315734D02*
X12878711Y-14334782D01*
X12878711Y-14334782D02*
X12878711Y-14439544D01*
X12878711Y-14334782D02*
X12888234Y-14315734D01*
X12888234Y-14315734D02*
X12907282Y-14306210D01*
X12907282Y-14306210D02*
X12935853Y-14306210D01*
X12935853Y-14306210D02*
X12954901Y-14315734D01*
X12954901Y-14315734D02*
X12964425Y-14334782D01*
X12964425Y-14334782D02*
X12964425Y-14439544D01*
X13354901Y-14230020D02*
X13183473Y-14487163D01*
X13612044Y-14239544D02*
X13631092Y-14239544D01*
X13631092Y-14239544D02*
X13650139Y-14249068D01*
X13650139Y-14249068D02*
X13659663Y-14258591D01*
X13659663Y-14258591D02*
X13669187Y-14277639D01*
X13669187Y-14277639D02*
X13678711Y-14315734D01*
X13678711Y-14315734D02*
X13678711Y-14363353D01*
X13678711Y-14363353D02*
X13669187Y-14401448D01*
X13669187Y-14401448D02*
X13659663Y-14420496D01*
X13659663Y-14420496D02*
X13650139Y-14430020D01*
X13650139Y-14430020D02*
X13631092Y-14439544D01*
X13631092Y-14439544D02*
X13612044Y-14439544D01*
X13612044Y-14439544D02*
X13592996Y-14430020D01*
X13592996Y-14430020D02*
X13583473Y-14420496D01*
X13583473Y-14420496D02*
X13573949Y-14401448D01*
X13573949Y-14401448D02*
X13564425Y-14363353D01*
X13564425Y-14363353D02*
X13564425Y-14315734D01*
X13564425Y-14315734D02*
X13573949Y-14277639D01*
X13573949Y-14277639D02*
X13583473Y-14258591D01*
X13583473Y-14258591D02*
X13592996Y-14249068D01*
X13592996Y-14249068D02*
X13612044Y-14239544D01*
X13764425Y-14420496D02*
X13773949Y-14430020D01*
X13773949Y-14430020D02*
X13764425Y-14439544D01*
X13764425Y-14439544D02*
X13754901Y-14430020D01*
X13754901Y-14430020D02*
X13764425Y-14420496D01*
X13764425Y-14420496D02*
X13764425Y-14439544D01*
X13897758Y-14239544D02*
X13916806Y-14239544D01*
X13916806Y-14239544D02*
X13935854Y-14249068D01*
X13935854Y-14249068D02*
X13945377Y-14258591D01*
X13945377Y-14258591D02*
X13954901Y-14277639D01*
X13954901Y-14277639D02*
X13964425Y-14315734D01*
X13964425Y-14315734D02*
X13964425Y-14363353D01*
X13964425Y-14363353D02*
X13954901Y-14401448D01*
X13954901Y-14401448D02*
X13945377Y-14420496D01*
X13945377Y-14420496D02*
X13935854Y-14430020D01*
X13935854Y-14430020D02*
X13916806Y-14439544D01*
X13916806Y-14439544D02*
X13897758Y-14439544D01*
X13897758Y-14439544D02*
X13878711Y-14430020D01*
X13878711Y-14430020D02*
X13869187Y-14420496D01*
X13869187Y-14420496D02*
X13859663Y-14401448D01*
X13859663Y-14401448D02*
X13850139Y-14363353D01*
X13850139Y-14363353D02*
X13850139Y-14315734D01*
X13850139Y-14315734D02*
X13859663Y-14277639D01*
X13859663Y-14277639D02*
X13869187Y-14258591D01*
X13869187Y-14258591D02*
X13878711Y-14249068D01*
X13878711Y-14249068D02*
X13897758Y-14239544D01*
X14040616Y-14258591D02*
X14050139Y-14249068D01*
X14050139Y-14249068D02*
X14069187Y-14239544D01*
X14069187Y-14239544D02*
X14116806Y-14239544D01*
X14116806Y-14239544D02*
X14135854Y-14249068D01*
X14135854Y-14249068D02*
X14145377Y-14258591D01*
X14145377Y-14258591D02*
X14154901Y-14277639D01*
X14154901Y-14277639D02*
X14154901Y-14296687D01*
X14154901Y-14296687D02*
X14145377Y-14325258D01*
X14145377Y-14325258D02*
X14031092Y-14439544D01*
X14031092Y-14439544D02*
X14154901Y-14439544D01*
X14221568Y-14239544D02*
X14345377Y-14239544D01*
X14345377Y-14239544D02*
X14278711Y-14315734D01*
X14278711Y-14315734D02*
X14307282Y-14315734D01*
X14307282Y-14315734D02*
X14326330Y-14325258D01*
X14326330Y-14325258D02*
X14335854Y-14334782D01*
X14335854Y-14334782D02*
X14345377Y-14353829D01*
X14345377Y-14353829D02*
X14345377Y-14401448D01*
X14345377Y-14401448D02*
X14335854Y-14420496D01*
X14335854Y-14420496D02*
X14326330Y-14430020D01*
X14326330Y-14430020D02*
X14307282Y-14439544D01*
X14307282Y-14439544D02*
X14250139Y-14439544D01*
X14250139Y-14439544D02*
X14231092Y-14430020D01*
X14231092Y-14430020D02*
X14221568Y-14420496D01*
X14516806Y-14239544D02*
X14478711Y-14239544D01*
X14478711Y-14239544D02*
X14459663Y-14249068D01*
X14459663Y-14249068D02*
X14450139Y-14258591D01*
X14450139Y-14258591D02*
X14431092Y-14287163D01*
X14431092Y-14287163D02*
X14421568Y-14325258D01*
X14421568Y-14325258D02*
X14421568Y-14401448D01*
X14421568Y-14401448D02*
X14431092Y-14420496D01*
X14431092Y-14420496D02*
X14440616Y-14430020D01*
X14440616Y-14430020D02*
X14459663Y-14439544D01*
X14459663Y-14439544D02*
X14497758Y-14439544D01*
X14497758Y-14439544D02*
X14516806Y-14430020D01*
X14516806Y-14430020D02*
X14526330Y-14420496D01*
X14526330Y-14420496D02*
X14535854Y-14401448D01*
X14535854Y-14401448D02*
X14535854Y-14353829D01*
X14535854Y-14353829D02*
X14526330Y-14334782D01*
X14526330Y-14334782D02*
X14516806Y-14325258D01*
X14516806Y-14325258D02*
X14497758Y-14315734D01*
X14497758Y-14315734D02*
X14459663Y-14315734D01*
X14459663Y-14315734D02*
X14440616Y-14325258D01*
X14440616Y-14325258D02*
X14431092Y-14334782D01*
X14431092Y-14334782D02*
X14421568Y-14353829D01*
X14612044Y-14239544D02*
X14612044Y-14277639D01*
X14688235Y-14239544D02*
X14688235Y-14277639D01*
X14983473Y-14515734D02*
X14973949Y-14506210D01*
X14973949Y-14506210D02*
X14954901Y-14477639D01*
X14954901Y-14477639D02*
X14945378Y-14458591D01*
X14945378Y-14458591D02*
X14935854Y-14430020D01*
X14935854Y-14430020D02*
X14926330Y-14382401D01*
X14926330Y-14382401D02*
X14926330Y-14344306D01*
X14926330Y-14344306D02*
X14935854Y-14296687D01*
X14935854Y-14296687D02*
X14945378Y-14268115D01*
X14945378Y-14268115D02*
X14954901Y-14249068D01*
X14954901Y-14249068D02*
X14973949Y-14220496D01*
X14973949Y-14220496D02*
X14983473Y-14210972D01*
X15097758Y-14239544D02*
X15116806Y-14239544D01*
X15116806Y-14239544D02*
X15135854Y-14249068D01*
X15135854Y-14249068D02*
X15145378Y-14258591D01*
X15145378Y-14258591D02*
X15154901Y-14277639D01*
X15154901Y-14277639D02*
X15164425Y-14315734D01*
X15164425Y-14315734D02*
X15164425Y-14363353D01*
X15164425Y-14363353D02*
X15154901Y-14401448D01*
X15154901Y-14401448D02*
X15145378Y-14420496D01*
X15145378Y-14420496D02*
X15135854Y-14430020D01*
X15135854Y-14430020D02*
X15116806Y-14439544D01*
X15116806Y-14439544D02*
X15097758Y-14439544D01*
X15097758Y-14439544D02*
X15078711Y-14430020D01*
X15078711Y-14430020D02*
X15069187Y-14420496D01*
X15069187Y-14420496D02*
X15059663Y-14401448D01*
X15059663Y-14401448D02*
X15050139Y-14363353D01*
X15050139Y-14363353D02*
X15050139Y-14315734D01*
X15050139Y-14315734D02*
X15059663Y-14277639D01*
X15059663Y-14277639D02*
X15069187Y-14258591D01*
X15069187Y-14258591D02*
X15078711Y-14249068D01*
X15078711Y-14249068D02*
X15097758Y-14239544D01*
X15402520Y-14439544D02*
X15402520Y-14239544D01*
X15488235Y-14439544D02*
X15488235Y-14334782D01*
X15488235Y-14334782D02*
X15478711Y-14315734D01*
X15478711Y-14315734D02*
X15459663Y-14306210D01*
X15459663Y-14306210D02*
X15431092Y-14306210D01*
X15431092Y-14306210D02*
X15412044Y-14315734D01*
X15412044Y-14315734D02*
X15402520Y-14325258D01*
X15612044Y-14439544D02*
X15592997Y-14430020D01*
X15592997Y-14430020D02*
X15583473Y-14420496D01*
X15583473Y-14420496D02*
X15573949Y-14401448D01*
X15573949Y-14401448D02*
X15573949Y-14344306D01*
X15573949Y-14344306D02*
X15583473Y-14325258D01*
X15583473Y-14325258D02*
X15592997Y-14315734D01*
X15592997Y-14315734D02*
X15612044Y-14306210D01*
X15612044Y-14306210D02*
X15640616Y-14306210D01*
X15640616Y-14306210D02*
X15659663Y-14315734D01*
X15659663Y-14315734D02*
X15669187Y-14325258D01*
X15669187Y-14325258D02*
X15678711Y-14344306D01*
X15678711Y-14344306D02*
X15678711Y-14401448D01*
X15678711Y-14401448D02*
X15669187Y-14420496D01*
X15669187Y-14420496D02*
X15659663Y-14430020D01*
X15659663Y-14430020D02*
X15640616Y-14439544D01*
X15640616Y-14439544D02*
X15612044Y-14439544D01*
X15792997Y-14439544D02*
X15773949Y-14430020D01*
X15773949Y-14430020D02*
X15764425Y-14410972D01*
X15764425Y-14410972D02*
X15764425Y-14239544D01*
X15945378Y-14430020D02*
X15926330Y-14439544D01*
X15926330Y-14439544D02*
X15888235Y-14439544D01*
X15888235Y-14439544D02*
X15869187Y-14430020D01*
X15869187Y-14430020D02*
X15859663Y-14410972D01*
X15859663Y-14410972D02*
X15859663Y-14334782D01*
X15859663Y-14334782D02*
X15869187Y-14315734D01*
X15869187Y-14315734D02*
X15888235Y-14306210D01*
X15888235Y-14306210D02*
X15926330Y-14306210D01*
X15926330Y-14306210D02*
X15945378Y-14315734D01*
X15945378Y-14315734D02*
X15954901Y-14334782D01*
X15954901Y-14334782D02*
X15954901Y-14353829D01*
X15954901Y-14353829D02*
X15859663Y-14372877D01*
X16031092Y-14430020D02*
X16050140Y-14439544D01*
X16050140Y-14439544D02*
X16088235Y-14439544D01*
X16088235Y-14439544D02*
X16107282Y-14430020D01*
X16107282Y-14430020D02*
X16116806Y-14410972D01*
X16116806Y-14410972D02*
X16116806Y-14401448D01*
X16116806Y-14401448D02*
X16107282Y-14382401D01*
X16107282Y-14382401D02*
X16088235Y-14372877D01*
X16088235Y-14372877D02*
X16059663Y-14372877D01*
X16059663Y-14372877D02*
X16040616Y-14363353D01*
X16040616Y-14363353D02*
X16031092Y-14344306D01*
X16031092Y-14344306D02*
X16031092Y-14334782D01*
X16031092Y-14334782D02*
X16040616Y-14315734D01*
X16040616Y-14315734D02*
X16059663Y-14306210D01*
X16059663Y-14306210D02*
X16088235Y-14306210D01*
X16088235Y-14306210D02*
X16107282Y-14315734D01*
X16354902Y-14363353D02*
X16507283Y-14363353D01*
X16431092Y-14439544D02*
X16431092Y-14287163D01*
X16840616Y-14306210D02*
X16840616Y-14439544D01*
X16792997Y-14230020D02*
X16745378Y-14372877D01*
X16745378Y-14372877D02*
X16869187Y-14372877D01*
X17088235Y-14430020D02*
X17107283Y-14439544D01*
X17107283Y-14439544D02*
X17145378Y-14439544D01*
X17145378Y-14439544D02*
X17164426Y-14430020D01*
X17164426Y-14430020D02*
X17173949Y-14410972D01*
X17173949Y-14410972D02*
X17173949Y-14401448D01*
X17173949Y-14401448D02*
X17164426Y-14382401D01*
X17164426Y-14382401D02*
X17145378Y-14372877D01*
X17145378Y-14372877D02*
X17116806Y-14372877D01*
X17116806Y-14372877D02*
X17097759Y-14363353D01*
X17097759Y-14363353D02*
X17088235Y-14344306D01*
X17088235Y-14344306D02*
X17088235Y-14334782D01*
X17088235Y-14334782D02*
X17097759Y-14315734D01*
X17097759Y-14315734D02*
X17116806Y-14306210D01*
X17116806Y-14306210D02*
X17145378Y-14306210D01*
X17145378Y-14306210D02*
X17164426Y-14315734D01*
X17288235Y-14439544D02*
X17269187Y-14430020D01*
X17269187Y-14430020D02*
X17259664Y-14410972D01*
X17259664Y-14410972D02*
X17259664Y-14239544D01*
X17392997Y-14439544D02*
X17373949Y-14430020D01*
X17373949Y-14430020D02*
X17364426Y-14420496D01*
X17364426Y-14420496D02*
X17354902Y-14401448D01*
X17354902Y-14401448D02*
X17354902Y-14344306D01*
X17354902Y-14344306D02*
X17364426Y-14325258D01*
X17364426Y-14325258D02*
X17373949Y-14315734D01*
X17373949Y-14315734D02*
X17392997Y-14306210D01*
X17392997Y-14306210D02*
X17421568Y-14306210D01*
X17421568Y-14306210D02*
X17440616Y-14315734D01*
X17440616Y-14315734D02*
X17450140Y-14325258D01*
X17450140Y-14325258D02*
X17459664Y-14344306D01*
X17459664Y-14344306D02*
X17459664Y-14401448D01*
X17459664Y-14401448D02*
X17450140Y-14420496D01*
X17450140Y-14420496D02*
X17440616Y-14430020D01*
X17440616Y-14430020D02*
X17421568Y-14439544D01*
X17421568Y-14439544D02*
X17392997Y-14439544D01*
X17516807Y-14306210D02*
X17592997Y-14306210D01*
X17545378Y-14239544D02*
X17545378Y-14410972D01*
X17545378Y-14410972D02*
X17554902Y-14430020D01*
X17554902Y-14430020D02*
X17573949Y-14439544D01*
X17573949Y-14439544D02*
X17592997Y-14439544D01*
X17650140Y-14430020D02*
X17669187Y-14439544D01*
X17669187Y-14439544D02*
X17707283Y-14439544D01*
X17707283Y-14439544D02*
X17726330Y-14430020D01*
X17726330Y-14430020D02*
X17735854Y-14410972D01*
X17735854Y-14410972D02*
X17735854Y-14401448D01*
X17735854Y-14401448D02*
X17726330Y-14382401D01*
X17726330Y-14382401D02*
X17707283Y-14372877D01*
X17707283Y-14372877D02*
X17678711Y-14372877D01*
X17678711Y-14372877D02*
X17659664Y-14363353D01*
X17659664Y-14363353D02*
X17650140Y-14344306D01*
X17650140Y-14344306D02*
X17650140Y-14334782D01*
X17650140Y-14334782D02*
X17659664Y-14315734D01*
X17659664Y-14315734D02*
X17678711Y-14306210D01*
X17678711Y-14306210D02*
X17707283Y-14306210D01*
X17707283Y-14306210D02*
X17726330Y-14315734D01*
X17802521Y-14515734D02*
X17812045Y-14506210D01*
X17812045Y-14506210D02*
X17831092Y-14477639D01*
X17831092Y-14477639D02*
X17840616Y-14458591D01*
X17840616Y-14458591D02*
X17850140Y-14430020D01*
X17850140Y-14430020D02*
X17859664Y-14382401D01*
X17859664Y-14382401D02*
X17859664Y-14344306D01*
X17859664Y-14344306D02*
X17850140Y-14296687D01*
X17850140Y-14296687D02*
X17840616Y-14268115D01*
X17840616Y-14268115D02*
X17831092Y-14249068D01*
X17831092Y-14249068D02*
X17812045Y-14220496D01*
X17812045Y-14220496D02*
X17802521Y-14210972D01*
D12*
X11397251Y-14639001D02*
X11397251Y-14585119D01*
X11343369Y-14585119D01*
X11343369Y-14639001D01*
X11397251Y-14639001D01*
D11*
X11707282Y-14503544D02*
X11726330Y-14503544D01*
X11726330Y-14503544D02*
X11745377Y-14513068D01*
X11745377Y-14513068D02*
X11754901Y-14522591D01*
X11754901Y-14522591D02*
X11764425Y-14541639D01*
X11764425Y-14541639D02*
X11773949Y-14579734D01*
X11773949Y-14579734D02*
X11773949Y-14627353D01*
X11773949Y-14627353D02*
X11764425Y-14665448D01*
X11764425Y-14665448D02*
X11754901Y-14684496D01*
X11754901Y-14684496D02*
X11745377Y-14694020D01*
X11745377Y-14694020D02*
X11726330Y-14703544D01*
X11726330Y-14703544D02*
X11707282Y-14703544D01*
X11707282Y-14703544D02*
X11688234Y-14694020D01*
X11688234Y-14694020D02*
X11678711Y-14684496D01*
X11678711Y-14684496D02*
X11669187Y-14665448D01*
X11669187Y-14665448D02*
X11659663Y-14627353D01*
X11659663Y-14627353D02*
X11659663Y-14579734D01*
X11659663Y-14579734D02*
X11669187Y-14541639D01*
X11669187Y-14541639D02*
X11678711Y-14522591D01*
X11678711Y-14522591D02*
X11688234Y-14513068D01*
X11688234Y-14513068D02*
X11707282Y-14503544D01*
X11859663Y-14684496D02*
X11869187Y-14694020D01*
X11869187Y-14694020D02*
X11859663Y-14703544D01*
X11859663Y-14703544D02*
X11850139Y-14694020D01*
X11850139Y-14694020D02*
X11859663Y-14684496D01*
X11859663Y-14684496D02*
X11859663Y-14703544D01*
X11935853Y-14503544D02*
X12069187Y-14503544D01*
X12069187Y-14503544D02*
X11983472Y-14703544D01*
X12231092Y-14503544D02*
X12192996Y-14503544D01*
X12192996Y-14503544D02*
X12173949Y-14513068D01*
X12173949Y-14513068D02*
X12164425Y-14522591D01*
X12164425Y-14522591D02*
X12145377Y-14551163D01*
X12145377Y-14551163D02*
X12135853Y-14589258D01*
X12135853Y-14589258D02*
X12135853Y-14665448D01*
X12135853Y-14665448D02*
X12145377Y-14684496D01*
X12145377Y-14684496D02*
X12154901Y-14694020D01*
X12154901Y-14694020D02*
X12173949Y-14703544D01*
X12173949Y-14703544D02*
X12212044Y-14703544D01*
X12212044Y-14703544D02*
X12231092Y-14694020D01*
X12231092Y-14694020D02*
X12240615Y-14684496D01*
X12240615Y-14684496D02*
X12250139Y-14665448D01*
X12250139Y-14665448D02*
X12250139Y-14617829D01*
X12250139Y-14617829D02*
X12240615Y-14598782D01*
X12240615Y-14598782D02*
X12231092Y-14589258D01*
X12231092Y-14589258D02*
X12212044Y-14579734D01*
X12212044Y-14579734D02*
X12173949Y-14579734D01*
X12173949Y-14579734D02*
X12154901Y-14589258D01*
X12154901Y-14589258D02*
X12145377Y-14598782D01*
X12145377Y-14598782D02*
X12135853Y-14617829D01*
X12326330Y-14522591D02*
X12335853Y-14513068D01*
X12335853Y-14513068D02*
X12354901Y-14503544D01*
X12354901Y-14503544D02*
X12402520Y-14503544D01*
X12402520Y-14503544D02*
X12421568Y-14513068D01*
X12421568Y-14513068D02*
X12431092Y-14522591D01*
X12431092Y-14522591D02*
X12440615Y-14541639D01*
X12440615Y-14541639D02*
X12440615Y-14560687D01*
X12440615Y-14560687D02*
X12431092Y-14589258D01*
X12431092Y-14589258D02*
X12316806Y-14703544D01*
X12316806Y-14703544D02*
X12440615Y-14703544D01*
X12526330Y-14703544D02*
X12526330Y-14570210D01*
X12526330Y-14589258D02*
X12535853Y-14579734D01*
X12535853Y-14579734D02*
X12554901Y-14570210D01*
X12554901Y-14570210D02*
X12583473Y-14570210D01*
X12583473Y-14570210D02*
X12602520Y-14579734D01*
X12602520Y-14579734D02*
X12612044Y-14598782D01*
X12612044Y-14598782D02*
X12612044Y-14703544D01*
X12612044Y-14598782D02*
X12621568Y-14579734D01*
X12621568Y-14579734D02*
X12640615Y-14570210D01*
X12640615Y-14570210D02*
X12669187Y-14570210D01*
X12669187Y-14570210D02*
X12688234Y-14579734D01*
X12688234Y-14579734D02*
X12697758Y-14598782D01*
X12697758Y-14598782D02*
X12697758Y-14703544D01*
X12792996Y-14703544D02*
X12792996Y-14570210D01*
X12792996Y-14589258D02*
X12802520Y-14579734D01*
X12802520Y-14579734D02*
X12821568Y-14570210D01*
X12821568Y-14570210D02*
X12850139Y-14570210D01*
X12850139Y-14570210D02*
X12869187Y-14579734D01*
X12869187Y-14579734D02*
X12878711Y-14598782D01*
X12878711Y-14598782D02*
X12878711Y-14703544D01*
X12878711Y-14598782D02*
X12888234Y-14579734D01*
X12888234Y-14579734D02*
X12907282Y-14570210D01*
X12907282Y-14570210D02*
X12935853Y-14570210D01*
X12935853Y-14570210D02*
X12954901Y-14579734D01*
X12954901Y-14579734D02*
X12964425Y-14598782D01*
X12964425Y-14598782D02*
X12964425Y-14703544D01*
X13354901Y-14494020D02*
X13183473Y-14751163D01*
X13612044Y-14503544D02*
X13631092Y-14503544D01*
X13631092Y-14503544D02*
X13650139Y-14513068D01*
X13650139Y-14513068D02*
X13659663Y-14522591D01*
X13659663Y-14522591D02*
X13669187Y-14541639D01*
X13669187Y-14541639D02*
X13678711Y-14579734D01*
X13678711Y-14579734D02*
X13678711Y-14627353D01*
X13678711Y-14627353D02*
X13669187Y-14665448D01*
X13669187Y-14665448D02*
X13659663Y-14684496D01*
X13659663Y-14684496D02*
X13650139Y-14694020D01*
X13650139Y-14694020D02*
X13631092Y-14703544D01*
X13631092Y-14703544D02*
X13612044Y-14703544D01*
X13612044Y-14703544D02*
X13592996Y-14694020D01*
X13592996Y-14694020D02*
X13583473Y-14684496D01*
X13583473Y-14684496D02*
X13573949Y-14665448D01*
X13573949Y-14665448D02*
X13564425Y-14627353D01*
X13564425Y-14627353D02*
X13564425Y-14579734D01*
X13564425Y-14579734D02*
X13573949Y-14541639D01*
X13573949Y-14541639D02*
X13583473Y-14522591D01*
X13583473Y-14522591D02*
X13592996Y-14513068D01*
X13592996Y-14513068D02*
X13612044Y-14503544D01*
X13764425Y-14684496D02*
X13773949Y-14694020D01*
X13773949Y-14694020D02*
X13764425Y-14703544D01*
X13764425Y-14703544D02*
X13754901Y-14694020D01*
X13754901Y-14694020D02*
X13764425Y-14684496D01*
X13764425Y-14684496D02*
X13764425Y-14703544D01*
X13897758Y-14503544D02*
X13916806Y-14503544D01*
X13916806Y-14503544D02*
X13935854Y-14513068D01*
X13935854Y-14513068D02*
X13945377Y-14522591D01*
X13945377Y-14522591D02*
X13954901Y-14541639D01*
X13954901Y-14541639D02*
X13964425Y-14579734D01*
X13964425Y-14579734D02*
X13964425Y-14627353D01*
X13964425Y-14627353D02*
X13954901Y-14665448D01*
X13954901Y-14665448D02*
X13945377Y-14684496D01*
X13945377Y-14684496D02*
X13935854Y-14694020D01*
X13935854Y-14694020D02*
X13916806Y-14703544D01*
X13916806Y-14703544D02*
X13897758Y-14703544D01*
X13897758Y-14703544D02*
X13878711Y-14694020D01*
X13878711Y-14694020D02*
X13869187Y-14684496D01*
X13869187Y-14684496D02*
X13859663Y-14665448D01*
X13859663Y-14665448D02*
X13850139Y-14627353D01*
X13850139Y-14627353D02*
X13850139Y-14579734D01*
X13850139Y-14579734D02*
X13859663Y-14541639D01*
X13859663Y-14541639D02*
X13869187Y-14522591D01*
X13869187Y-14522591D02*
X13878711Y-14513068D01*
X13878711Y-14513068D02*
X13897758Y-14503544D01*
X14031092Y-14503544D02*
X14154901Y-14503544D01*
X14154901Y-14503544D02*
X14088235Y-14579734D01*
X14088235Y-14579734D02*
X14116806Y-14579734D01*
X14116806Y-14579734D02*
X14135854Y-14589258D01*
X14135854Y-14589258D02*
X14145377Y-14598782D01*
X14145377Y-14598782D02*
X14154901Y-14617829D01*
X14154901Y-14617829D02*
X14154901Y-14665448D01*
X14154901Y-14665448D02*
X14145377Y-14684496D01*
X14145377Y-14684496D02*
X14135854Y-14694020D01*
X14135854Y-14694020D02*
X14116806Y-14703544D01*
X14116806Y-14703544D02*
X14059663Y-14703544D01*
X14059663Y-14703544D02*
X14040616Y-14694020D01*
X14040616Y-14694020D02*
X14031092Y-14684496D01*
X14278711Y-14503544D02*
X14297758Y-14503544D01*
X14297758Y-14503544D02*
X14316806Y-14513068D01*
X14316806Y-14513068D02*
X14326330Y-14522591D01*
X14326330Y-14522591D02*
X14335854Y-14541639D01*
X14335854Y-14541639D02*
X14345377Y-14579734D01*
X14345377Y-14579734D02*
X14345377Y-14627353D01*
X14345377Y-14627353D02*
X14335854Y-14665448D01*
X14335854Y-14665448D02*
X14326330Y-14684496D01*
X14326330Y-14684496D02*
X14316806Y-14694020D01*
X14316806Y-14694020D02*
X14297758Y-14703544D01*
X14297758Y-14703544D02*
X14278711Y-14703544D01*
X14278711Y-14703544D02*
X14259663Y-14694020D01*
X14259663Y-14694020D02*
X14250139Y-14684496D01*
X14250139Y-14684496D02*
X14240616Y-14665448D01*
X14240616Y-14665448D02*
X14231092Y-14627353D01*
X14231092Y-14627353D02*
X14231092Y-14579734D01*
X14231092Y-14579734D02*
X14240616Y-14541639D01*
X14240616Y-14541639D02*
X14250139Y-14522591D01*
X14250139Y-14522591D02*
X14259663Y-14513068D01*
X14259663Y-14513068D02*
X14278711Y-14503544D01*
X14469187Y-14503544D02*
X14488235Y-14503544D01*
X14488235Y-14503544D02*
X14507282Y-14513068D01*
X14507282Y-14513068D02*
X14516806Y-14522591D01*
X14516806Y-14522591D02*
X14526330Y-14541639D01*
X14526330Y-14541639D02*
X14535854Y-14579734D01*
X14535854Y-14579734D02*
X14535854Y-14627353D01*
X14535854Y-14627353D02*
X14526330Y-14665448D01*
X14526330Y-14665448D02*
X14516806Y-14684496D01*
X14516806Y-14684496D02*
X14507282Y-14694020D01*
X14507282Y-14694020D02*
X14488235Y-14703544D01*
X14488235Y-14703544D02*
X14469187Y-14703544D01*
X14469187Y-14703544D02*
X14450139Y-14694020D01*
X14450139Y-14694020D02*
X14440616Y-14684496D01*
X14440616Y-14684496D02*
X14431092Y-14665448D01*
X14431092Y-14665448D02*
X14421568Y-14627353D01*
X14421568Y-14627353D02*
X14421568Y-14579734D01*
X14421568Y-14579734D02*
X14431092Y-14541639D01*
X14431092Y-14541639D02*
X14440616Y-14522591D01*
X14440616Y-14522591D02*
X14450139Y-14513068D01*
X14450139Y-14513068D02*
X14469187Y-14503544D01*
X14612044Y-14503544D02*
X14612044Y-14541639D01*
X14688235Y-14503544D02*
X14688235Y-14541639D01*
X14983473Y-14779734D02*
X14973949Y-14770210D01*
X14973949Y-14770210D02*
X14954901Y-14741639D01*
X14954901Y-14741639D02*
X14945378Y-14722591D01*
X14945378Y-14722591D02*
X14935854Y-14694020D01*
X14935854Y-14694020D02*
X14926330Y-14646401D01*
X14926330Y-14646401D02*
X14926330Y-14608306D01*
X14926330Y-14608306D02*
X14935854Y-14560687D01*
X14935854Y-14560687D02*
X14945378Y-14532115D01*
X14945378Y-14532115D02*
X14954901Y-14513068D01*
X14954901Y-14513068D02*
X14973949Y-14484496D01*
X14973949Y-14484496D02*
X14983473Y-14474972D01*
X15050139Y-14522591D02*
X15059663Y-14513068D01*
X15059663Y-14513068D02*
X15078711Y-14503544D01*
X15078711Y-14503544D02*
X15126330Y-14503544D01*
X15126330Y-14503544D02*
X15145378Y-14513068D01*
X15145378Y-14513068D02*
X15154901Y-14522591D01*
X15154901Y-14522591D02*
X15164425Y-14541639D01*
X15164425Y-14541639D02*
X15164425Y-14560687D01*
X15164425Y-14560687D02*
X15154901Y-14589258D01*
X15154901Y-14589258D02*
X15040616Y-14703544D01*
X15040616Y-14703544D02*
X15164425Y-14703544D01*
X15402520Y-14703544D02*
X15402520Y-14503544D01*
X15488235Y-14703544D02*
X15488235Y-14598782D01*
X15488235Y-14598782D02*
X15478711Y-14579734D01*
X15478711Y-14579734D02*
X15459663Y-14570210D01*
X15459663Y-14570210D02*
X15431092Y-14570210D01*
X15431092Y-14570210D02*
X15412044Y-14579734D01*
X15412044Y-14579734D02*
X15402520Y-14589258D01*
X15612044Y-14703544D02*
X15592997Y-14694020D01*
X15592997Y-14694020D02*
X15583473Y-14684496D01*
X15583473Y-14684496D02*
X15573949Y-14665448D01*
X15573949Y-14665448D02*
X15573949Y-14608306D01*
X15573949Y-14608306D02*
X15583473Y-14589258D01*
X15583473Y-14589258D02*
X15592997Y-14579734D01*
X15592997Y-14579734D02*
X15612044Y-14570210D01*
X15612044Y-14570210D02*
X15640616Y-14570210D01*
X15640616Y-14570210D02*
X15659663Y-14579734D01*
X15659663Y-14579734D02*
X15669187Y-14589258D01*
X15669187Y-14589258D02*
X15678711Y-14608306D01*
X15678711Y-14608306D02*
X15678711Y-14665448D01*
X15678711Y-14665448D02*
X15669187Y-14684496D01*
X15669187Y-14684496D02*
X15659663Y-14694020D01*
X15659663Y-14694020D02*
X15640616Y-14703544D01*
X15640616Y-14703544D02*
X15612044Y-14703544D01*
X15792997Y-14703544D02*
X15773949Y-14694020D01*
X15773949Y-14694020D02*
X15764425Y-14674972D01*
X15764425Y-14674972D02*
X15764425Y-14503544D01*
X15945378Y-14694020D02*
X15926330Y-14703544D01*
X15926330Y-14703544D02*
X15888235Y-14703544D01*
X15888235Y-14703544D02*
X15869187Y-14694020D01*
X15869187Y-14694020D02*
X15859663Y-14674972D01*
X15859663Y-14674972D02*
X15859663Y-14598782D01*
X15859663Y-14598782D02*
X15869187Y-14579734D01*
X15869187Y-14579734D02*
X15888235Y-14570210D01*
X15888235Y-14570210D02*
X15926330Y-14570210D01*
X15926330Y-14570210D02*
X15945378Y-14579734D01*
X15945378Y-14579734D02*
X15954901Y-14598782D01*
X15954901Y-14598782D02*
X15954901Y-14617829D01*
X15954901Y-14617829D02*
X15859663Y-14636877D01*
X16031092Y-14694020D02*
X16050140Y-14703544D01*
X16050140Y-14703544D02*
X16088235Y-14703544D01*
X16088235Y-14703544D02*
X16107282Y-14694020D01*
X16107282Y-14694020D02*
X16116806Y-14674972D01*
X16116806Y-14674972D02*
X16116806Y-14665448D01*
X16116806Y-14665448D02*
X16107282Y-14646401D01*
X16107282Y-14646401D02*
X16088235Y-14636877D01*
X16088235Y-14636877D02*
X16059663Y-14636877D01*
X16059663Y-14636877D02*
X16040616Y-14627353D01*
X16040616Y-14627353D02*
X16031092Y-14608306D01*
X16031092Y-14608306D02*
X16031092Y-14598782D01*
X16031092Y-14598782D02*
X16040616Y-14579734D01*
X16040616Y-14579734D02*
X16059663Y-14570210D01*
X16059663Y-14570210D02*
X16088235Y-14570210D01*
X16088235Y-14570210D02*
X16107282Y-14579734D01*
X16183473Y-14779734D02*
X16192997Y-14770210D01*
X16192997Y-14770210D02*
X16212044Y-14741639D01*
X16212044Y-14741639D02*
X16221568Y-14722591D01*
X16221568Y-14722591D02*
X16231092Y-14694020D01*
X16231092Y-14694020D02*
X16240616Y-14646401D01*
X16240616Y-14646401D02*
X16240616Y-14608306D01*
X16240616Y-14608306D02*
X16231092Y-14560687D01*
X16231092Y-14560687D02*
X16221568Y-14532115D01*
X16221568Y-14532115D02*
X16212044Y-14513068D01*
X16212044Y-14513068D02*
X16192997Y-14484496D01*
X16192997Y-14484496D02*
X16183473Y-14474972D01*
D12*
X11365910Y-14918560D02*
X11408410Y-14876060D01*
X11365910Y-14833560D01*
X11323410Y-14876060D01*
X11365910Y-14918560D01*
D11*
X11707282Y-14767544D02*
X11726330Y-14767544D01*
X11726330Y-14767544D02*
X11745377Y-14777068D01*
X11745377Y-14777068D02*
X11754901Y-14786591D01*
X11754901Y-14786591D02*
X11764425Y-14805639D01*
X11764425Y-14805639D02*
X11773949Y-14843734D01*
X11773949Y-14843734D02*
X11773949Y-14891353D01*
X11773949Y-14891353D02*
X11764425Y-14929448D01*
X11764425Y-14929448D02*
X11754901Y-14948496D01*
X11754901Y-14948496D02*
X11745377Y-14958020D01*
X11745377Y-14958020D02*
X11726330Y-14967544D01*
X11726330Y-14967544D02*
X11707282Y-14967544D01*
X11707282Y-14967544D02*
X11688234Y-14958020D01*
X11688234Y-14958020D02*
X11678711Y-14948496D01*
X11678711Y-14948496D02*
X11669187Y-14929448D01*
X11669187Y-14929448D02*
X11659663Y-14891353D01*
X11659663Y-14891353D02*
X11659663Y-14843734D01*
X11659663Y-14843734D02*
X11669187Y-14805639D01*
X11669187Y-14805639D02*
X11678711Y-14786591D01*
X11678711Y-14786591D02*
X11688234Y-14777068D01*
X11688234Y-14777068D02*
X11707282Y-14767544D01*
X11859663Y-14948496D02*
X11869187Y-14958020D01*
X11869187Y-14958020D02*
X11859663Y-14967544D01*
X11859663Y-14967544D02*
X11850139Y-14958020D01*
X11850139Y-14958020D02*
X11859663Y-14948496D01*
X11859663Y-14948496D02*
X11859663Y-14967544D01*
X11983472Y-14853258D02*
X11964425Y-14843734D01*
X11964425Y-14843734D02*
X11954901Y-14834210D01*
X11954901Y-14834210D02*
X11945377Y-14815163D01*
X11945377Y-14815163D02*
X11945377Y-14805639D01*
X11945377Y-14805639D02*
X11954901Y-14786591D01*
X11954901Y-14786591D02*
X11964425Y-14777068D01*
X11964425Y-14777068D02*
X11983472Y-14767544D01*
X11983472Y-14767544D02*
X12021568Y-14767544D01*
X12021568Y-14767544D02*
X12040615Y-14777068D01*
X12040615Y-14777068D02*
X12050139Y-14786591D01*
X12050139Y-14786591D02*
X12059663Y-14805639D01*
X12059663Y-14805639D02*
X12059663Y-14815163D01*
X12059663Y-14815163D02*
X12050139Y-14834210D01*
X12050139Y-14834210D02*
X12040615Y-14843734D01*
X12040615Y-14843734D02*
X12021568Y-14853258D01*
X12021568Y-14853258D02*
X11983472Y-14853258D01*
X11983472Y-14853258D02*
X11964425Y-14862782D01*
X11964425Y-14862782D02*
X11954901Y-14872306D01*
X11954901Y-14872306D02*
X11945377Y-14891353D01*
X11945377Y-14891353D02*
X11945377Y-14929448D01*
X11945377Y-14929448D02*
X11954901Y-14948496D01*
X11954901Y-14948496D02*
X11964425Y-14958020D01*
X11964425Y-14958020D02*
X11983472Y-14967544D01*
X11983472Y-14967544D02*
X12021568Y-14967544D01*
X12021568Y-14967544D02*
X12040615Y-14958020D01*
X12040615Y-14958020D02*
X12050139Y-14948496D01*
X12050139Y-14948496D02*
X12059663Y-14929448D01*
X12059663Y-14929448D02*
X12059663Y-14891353D01*
X12059663Y-14891353D02*
X12050139Y-14872306D01*
X12050139Y-14872306D02*
X12040615Y-14862782D01*
X12040615Y-14862782D02*
X12021568Y-14853258D01*
X12240615Y-14767544D02*
X12145377Y-14767544D01*
X12145377Y-14767544D02*
X12135853Y-14862782D01*
X12135853Y-14862782D02*
X12145377Y-14853258D01*
X12145377Y-14853258D02*
X12164425Y-14843734D01*
X12164425Y-14843734D02*
X12212044Y-14843734D01*
X12212044Y-14843734D02*
X12231092Y-14853258D01*
X12231092Y-14853258D02*
X12240615Y-14862782D01*
X12240615Y-14862782D02*
X12250139Y-14881829D01*
X12250139Y-14881829D02*
X12250139Y-14929448D01*
X12250139Y-14929448D02*
X12240615Y-14948496D01*
X12240615Y-14948496D02*
X12231092Y-14958020D01*
X12231092Y-14958020D02*
X12212044Y-14967544D01*
X12212044Y-14967544D02*
X12164425Y-14967544D01*
X12164425Y-14967544D02*
X12145377Y-14958020D01*
X12145377Y-14958020D02*
X12135853Y-14948496D01*
X12373949Y-14767544D02*
X12392996Y-14767544D01*
X12392996Y-14767544D02*
X12412044Y-14777068D01*
X12412044Y-14777068D02*
X12421568Y-14786591D01*
X12421568Y-14786591D02*
X12431092Y-14805639D01*
X12431092Y-14805639D02*
X12440615Y-14843734D01*
X12440615Y-14843734D02*
X12440615Y-14891353D01*
X12440615Y-14891353D02*
X12431092Y-14929448D01*
X12431092Y-14929448D02*
X12421568Y-14948496D01*
X12421568Y-14948496D02*
X12412044Y-14958020D01*
X12412044Y-14958020D02*
X12392996Y-14967544D01*
X12392996Y-14967544D02*
X12373949Y-14967544D01*
X12373949Y-14967544D02*
X12354901Y-14958020D01*
X12354901Y-14958020D02*
X12345377Y-14948496D01*
X12345377Y-14948496D02*
X12335853Y-14929448D01*
X12335853Y-14929448D02*
X12326330Y-14891353D01*
X12326330Y-14891353D02*
X12326330Y-14843734D01*
X12326330Y-14843734D02*
X12335853Y-14805639D01*
X12335853Y-14805639D02*
X12345377Y-14786591D01*
X12345377Y-14786591D02*
X12354901Y-14777068D01*
X12354901Y-14777068D02*
X12373949Y-14767544D01*
X12526330Y-14967544D02*
X12526330Y-14834210D01*
X12526330Y-14853258D02*
X12535853Y-14843734D01*
X12535853Y-14843734D02*
X12554901Y-14834210D01*
X12554901Y-14834210D02*
X12583473Y-14834210D01*
X12583473Y-14834210D02*
X12602520Y-14843734D01*
X12602520Y-14843734D02*
X12612044Y-14862782D01*
X12612044Y-14862782D02*
X12612044Y-14967544D01*
X12612044Y-14862782D02*
X12621568Y-14843734D01*
X12621568Y-14843734D02*
X12640615Y-14834210D01*
X12640615Y-14834210D02*
X12669187Y-14834210D01*
X12669187Y-14834210D02*
X12688234Y-14843734D01*
X12688234Y-14843734D02*
X12697758Y-14862782D01*
X12697758Y-14862782D02*
X12697758Y-14967544D01*
X12792996Y-14967544D02*
X12792996Y-14834210D01*
X12792996Y-14853258D02*
X12802520Y-14843734D01*
X12802520Y-14843734D02*
X12821568Y-14834210D01*
X12821568Y-14834210D02*
X12850139Y-14834210D01*
X12850139Y-14834210D02*
X12869187Y-14843734D01*
X12869187Y-14843734D02*
X12878711Y-14862782D01*
X12878711Y-14862782D02*
X12878711Y-14967544D01*
X12878711Y-14862782D02*
X12888234Y-14843734D01*
X12888234Y-14843734D02*
X12907282Y-14834210D01*
X12907282Y-14834210D02*
X12935853Y-14834210D01*
X12935853Y-14834210D02*
X12954901Y-14843734D01*
X12954901Y-14843734D02*
X12964425Y-14862782D01*
X12964425Y-14862782D02*
X12964425Y-14967544D01*
X13354901Y-14758020D02*
X13183473Y-15015163D01*
X13612044Y-14767544D02*
X13631092Y-14767544D01*
X13631092Y-14767544D02*
X13650139Y-14777068D01*
X13650139Y-14777068D02*
X13659663Y-14786591D01*
X13659663Y-14786591D02*
X13669187Y-14805639D01*
X13669187Y-14805639D02*
X13678711Y-14843734D01*
X13678711Y-14843734D02*
X13678711Y-14891353D01*
X13678711Y-14891353D02*
X13669187Y-14929448D01*
X13669187Y-14929448D02*
X13659663Y-14948496D01*
X13659663Y-14948496D02*
X13650139Y-14958020D01*
X13650139Y-14958020D02*
X13631092Y-14967544D01*
X13631092Y-14967544D02*
X13612044Y-14967544D01*
X13612044Y-14967544D02*
X13592996Y-14958020D01*
X13592996Y-14958020D02*
X13583473Y-14948496D01*
X13583473Y-14948496D02*
X13573949Y-14929448D01*
X13573949Y-14929448D02*
X13564425Y-14891353D01*
X13564425Y-14891353D02*
X13564425Y-14843734D01*
X13564425Y-14843734D02*
X13573949Y-14805639D01*
X13573949Y-14805639D02*
X13583473Y-14786591D01*
X13583473Y-14786591D02*
X13592996Y-14777068D01*
X13592996Y-14777068D02*
X13612044Y-14767544D01*
X13764425Y-14948496D02*
X13773949Y-14958020D01*
X13773949Y-14958020D02*
X13764425Y-14967544D01*
X13764425Y-14967544D02*
X13754901Y-14958020D01*
X13754901Y-14958020D02*
X13764425Y-14948496D01*
X13764425Y-14948496D02*
X13764425Y-14967544D01*
X13897758Y-14767544D02*
X13916806Y-14767544D01*
X13916806Y-14767544D02*
X13935854Y-14777068D01*
X13935854Y-14777068D02*
X13945377Y-14786591D01*
X13945377Y-14786591D02*
X13954901Y-14805639D01*
X13954901Y-14805639D02*
X13964425Y-14843734D01*
X13964425Y-14843734D02*
X13964425Y-14891353D01*
X13964425Y-14891353D02*
X13954901Y-14929448D01*
X13954901Y-14929448D02*
X13945377Y-14948496D01*
X13945377Y-14948496D02*
X13935854Y-14958020D01*
X13935854Y-14958020D02*
X13916806Y-14967544D01*
X13916806Y-14967544D02*
X13897758Y-14967544D01*
X13897758Y-14967544D02*
X13878711Y-14958020D01*
X13878711Y-14958020D02*
X13869187Y-14948496D01*
X13869187Y-14948496D02*
X13859663Y-14929448D01*
X13859663Y-14929448D02*
X13850139Y-14891353D01*
X13850139Y-14891353D02*
X13850139Y-14843734D01*
X13850139Y-14843734D02*
X13859663Y-14805639D01*
X13859663Y-14805639D02*
X13869187Y-14786591D01*
X13869187Y-14786591D02*
X13878711Y-14777068D01*
X13878711Y-14777068D02*
X13897758Y-14767544D01*
X14031092Y-14767544D02*
X14154901Y-14767544D01*
X14154901Y-14767544D02*
X14088235Y-14843734D01*
X14088235Y-14843734D02*
X14116806Y-14843734D01*
X14116806Y-14843734D02*
X14135854Y-14853258D01*
X14135854Y-14853258D02*
X14145377Y-14862782D01*
X14145377Y-14862782D02*
X14154901Y-14881829D01*
X14154901Y-14881829D02*
X14154901Y-14929448D01*
X14154901Y-14929448D02*
X14145377Y-14948496D01*
X14145377Y-14948496D02*
X14135854Y-14958020D01*
X14135854Y-14958020D02*
X14116806Y-14967544D01*
X14116806Y-14967544D02*
X14059663Y-14967544D01*
X14059663Y-14967544D02*
X14040616Y-14958020D01*
X14040616Y-14958020D02*
X14031092Y-14948496D01*
X14221568Y-14767544D02*
X14345377Y-14767544D01*
X14345377Y-14767544D02*
X14278711Y-14843734D01*
X14278711Y-14843734D02*
X14307282Y-14843734D01*
X14307282Y-14843734D02*
X14326330Y-14853258D01*
X14326330Y-14853258D02*
X14335854Y-14862782D01*
X14335854Y-14862782D02*
X14345377Y-14881829D01*
X14345377Y-14881829D02*
X14345377Y-14929448D01*
X14345377Y-14929448D02*
X14335854Y-14948496D01*
X14335854Y-14948496D02*
X14326330Y-14958020D01*
X14326330Y-14958020D02*
X14307282Y-14967544D01*
X14307282Y-14967544D02*
X14250139Y-14967544D01*
X14250139Y-14967544D02*
X14231092Y-14958020D01*
X14231092Y-14958020D02*
X14221568Y-14948496D01*
X14526330Y-14767544D02*
X14431092Y-14767544D01*
X14431092Y-14767544D02*
X14421568Y-14862782D01*
X14421568Y-14862782D02*
X14431092Y-14853258D01*
X14431092Y-14853258D02*
X14450139Y-14843734D01*
X14450139Y-14843734D02*
X14497758Y-14843734D01*
X14497758Y-14843734D02*
X14516806Y-14853258D01*
X14516806Y-14853258D02*
X14526330Y-14862782D01*
X14526330Y-14862782D02*
X14535854Y-14881829D01*
X14535854Y-14881829D02*
X14535854Y-14929448D01*
X14535854Y-14929448D02*
X14526330Y-14948496D01*
X14526330Y-14948496D02*
X14516806Y-14958020D01*
X14516806Y-14958020D02*
X14497758Y-14967544D01*
X14497758Y-14967544D02*
X14450139Y-14967544D01*
X14450139Y-14967544D02*
X14431092Y-14958020D01*
X14431092Y-14958020D02*
X14421568Y-14948496D01*
X14612044Y-14767544D02*
X14612044Y-14805639D01*
X14688235Y-14767544D02*
X14688235Y-14805639D01*
X14983473Y-15043734D02*
X14973949Y-15034210D01*
X14973949Y-15034210D02*
X14954901Y-15005639D01*
X14954901Y-15005639D02*
X14945378Y-14986591D01*
X14945378Y-14986591D02*
X14935854Y-14958020D01*
X14935854Y-14958020D02*
X14926330Y-14910401D01*
X14926330Y-14910401D02*
X14926330Y-14872306D01*
X14926330Y-14872306D02*
X14935854Y-14824687D01*
X14935854Y-14824687D02*
X14945378Y-14796115D01*
X14945378Y-14796115D02*
X14954901Y-14777068D01*
X14954901Y-14777068D02*
X14973949Y-14748496D01*
X14973949Y-14748496D02*
X14983473Y-14738972D01*
X15040616Y-14767544D02*
X15164425Y-14767544D01*
X15164425Y-14767544D02*
X15097758Y-14843734D01*
X15097758Y-14843734D02*
X15126330Y-14843734D01*
X15126330Y-14843734D02*
X15145378Y-14853258D01*
X15145378Y-14853258D02*
X15154901Y-14862782D01*
X15154901Y-14862782D02*
X15164425Y-14881829D01*
X15164425Y-14881829D02*
X15164425Y-14929448D01*
X15164425Y-14929448D02*
X15154901Y-14948496D01*
X15154901Y-14948496D02*
X15145378Y-14958020D01*
X15145378Y-14958020D02*
X15126330Y-14967544D01*
X15126330Y-14967544D02*
X15069187Y-14967544D01*
X15069187Y-14967544D02*
X15050139Y-14958020D01*
X15050139Y-14958020D02*
X15040616Y-14948496D01*
X15240616Y-14786591D02*
X15250139Y-14777068D01*
X15250139Y-14777068D02*
X15269187Y-14767544D01*
X15269187Y-14767544D02*
X15316806Y-14767544D01*
X15316806Y-14767544D02*
X15335854Y-14777068D01*
X15335854Y-14777068D02*
X15345378Y-14786591D01*
X15345378Y-14786591D02*
X15354901Y-14805639D01*
X15354901Y-14805639D02*
X15354901Y-14824687D01*
X15354901Y-14824687D02*
X15345378Y-14853258D01*
X15345378Y-14853258D02*
X15231092Y-14967544D01*
X15231092Y-14967544D02*
X15354901Y-14967544D01*
X15592997Y-14967544D02*
X15592997Y-14767544D01*
X15678711Y-14967544D02*
X15678711Y-14862782D01*
X15678711Y-14862782D02*
X15669187Y-14843734D01*
X15669187Y-14843734D02*
X15650140Y-14834210D01*
X15650140Y-14834210D02*
X15621568Y-14834210D01*
X15621568Y-14834210D02*
X15602520Y-14843734D01*
X15602520Y-14843734D02*
X15592997Y-14853258D01*
X15802520Y-14967544D02*
X15783473Y-14958020D01*
X15783473Y-14958020D02*
X15773949Y-14948496D01*
X15773949Y-14948496D02*
X15764425Y-14929448D01*
X15764425Y-14929448D02*
X15764425Y-14872306D01*
X15764425Y-14872306D02*
X15773949Y-14853258D01*
X15773949Y-14853258D02*
X15783473Y-14843734D01*
X15783473Y-14843734D02*
X15802520Y-14834210D01*
X15802520Y-14834210D02*
X15831092Y-14834210D01*
X15831092Y-14834210D02*
X15850140Y-14843734D01*
X15850140Y-14843734D02*
X15859663Y-14853258D01*
X15859663Y-14853258D02*
X15869187Y-14872306D01*
X15869187Y-14872306D02*
X15869187Y-14929448D01*
X15869187Y-14929448D02*
X15859663Y-14948496D01*
X15859663Y-14948496D02*
X15850140Y-14958020D01*
X15850140Y-14958020D02*
X15831092Y-14967544D01*
X15831092Y-14967544D02*
X15802520Y-14967544D01*
X15983473Y-14967544D02*
X15964425Y-14958020D01*
X15964425Y-14958020D02*
X15954901Y-14938972D01*
X15954901Y-14938972D02*
X15954901Y-14767544D01*
X16135854Y-14958020D02*
X16116806Y-14967544D01*
X16116806Y-14967544D02*
X16078711Y-14967544D01*
X16078711Y-14967544D02*
X16059663Y-14958020D01*
X16059663Y-14958020D02*
X16050140Y-14938972D01*
X16050140Y-14938972D02*
X16050140Y-14862782D01*
X16050140Y-14862782D02*
X16059663Y-14843734D01*
X16059663Y-14843734D02*
X16078711Y-14834210D01*
X16078711Y-14834210D02*
X16116806Y-14834210D01*
X16116806Y-14834210D02*
X16135854Y-14843734D01*
X16135854Y-14843734D02*
X16145378Y-14862782D01*
X16145378Y-14862782D02*
X16145378Y-14881829D01*
X16145378Y-14881829D02*
X16050140Y-14900877D01*
X16221568Y-14958020D02*
X16240616Y-14967544D01*
X16240616Y-14967544D02*
X16278711Y-14967544D01*
X16278711Y-14967544D02*
X16297759Y-14958020D01*
X16297759Y-14958020D02*
X16307282Y-14938972D01*
X16307282Y-14938972D02*
X16307282Y-14929448D01*
X16307282Y-14929448D02*
X16297759Y-14910401D01*
X16297759Y-14910401D02*
X16278711Y-14900877D01*
X16278711Y-14900877D02*
X16250140Y-14900877D01*
X16250140Y-14900877D02*
X16231092Y-14891353D01*
X16231092Y-14891353D02*
X16221568Y-14872306D01*
X16221568Y-14872306D02*
X16221568Y-14862782D01*
X16221568Y-14862782D02*
X16231092Y-14843734D01*
X16231092Y-14843734D02*
X16250140Y-14834210D01*
X16250140Y-14834210D02*
X16278711Y-14834210D01*
X16278711Y-14834210D02*
X16297759Y-14843734D01*
X16373949Y-15043734D02*
X16383473Y-15034210D01*
X16383473Y-15034210D02*
X16402521Y-15005639D01*
X16402521Y-15005639D02*
X16412044Y-14986591D01*
X16412044Y-14986591D02*
X16421568Y-14958020D01*
X16421568Y-14958020D02*
X16431092Y-14910401D01*
X16431092Y-14910401D02*
X16431092Y-14872306D01*
X16431092Y-14872306D02*
X16421568Y-14824687D01*
X16421568Y-14824687D02*
X16412044Y-14796115D01*
X16412044Y-14796115D02*
X16402521Y-14777068D01*
X16402521Y-14777068D02*
X16383473Y-14748496D01*
X16383473Y-14748496D02*
X16373949Y-14738972D01*
D12*
X11313410Y-15092560D02*
X11408410Y-15187560D01*
X11408410Y-15092560D02*
X11313410Y-15187560D01*
X11408410Y-15140060D02*
G75*
G02*
X11313410Y-15140060I-47500J0D01*
G01*
X11313410Y-15140060D02*
G75*
G02*
X11408410Y-15140060I47500J0D01*
G01*
D11*
X11707282Y-15031544D02*
X11726330Y-15031544D01*
X11726330Y-15031544D02*
X11745377Y-15041068D01*
X11745377Y-15041068D02*
X11754901Y-15050591D01*
X11754901Y-15050591D02*
X11764425Y-15069639D01*
X11764425Y-15069639D02*
X11773949Y-15107734D01*
X11773949Y-15107734D02*
X11773949Y-15155353D01*
X11773949Y-15155353D02*
X11764425Y-15193448D01*
X11764425Y-15193448D02*
X11754901Y-15212496D01*
X11754901Y-15212496D02*
X11745377Y-15222020D01*
X11745377Y-15222020D02*
X11726330Y-15231544D01*
X11726330Y-15231544D02*
X11707282Y-15231544D01*
X11707282Y-15231544D02*
X11688234Y-15222020D01*
X11688234Y-15222020D02*
X11678711Y-15212496D01*
X11678711Y-15212496D02*
X11669187Y-15193448D01*
X11669187Y-15193448D02*
X11659663Y-15155353D01*
X11659663Y-15155353D02*
X11659663Y-15107734D01*
X11659663Y-15107734D02*
X11669187Y-15069639D01*
X11669187Y-15069639D02*
X11678711Y-15050591D01*
X11678711Y-15050591D02*
X11688234Y-15041068D01*
X11688234Y-15041068D02*
X11707282Y-15031544D01*
X11859663Y-15212496D02*
X11869187Y-15222020D01*
X11869187Y-15222020D02*
X11859663Y-15231544D01*
X11859663Y-15231544D02*
X11850139Y-15222020D01*
X11850139Y-15222020D02*
X11859663Y-15212496D01*
X11859663Y-15212496D02*
X11859663Y-15231544D01*
X11964425Y-15231544D02*
X12002520Y-15231544D01*
X12002520Y-15231544D02*
X12021568Y-15222020D01*
X12021568Y-15222020D02*
X12031092Y-15212496D01*
X12031092Y-15212496D02*
X12050139Y-15183925D01*
X12050139Y-15183925D02*
X12059663Y-15145829D01*
X12059663Y-15145829D02*
X12059663Y-15069639D01*
X12059663Y-15069639D02*
X12050139Y-15050591D01*
X12050139Y-15050591D02*
X12040615Y-15041068D01*
X12040615Y-15041068D02*
X12021568Y-15031544D01*
X12021568Y-15031544D02*
X11983472Y-15031544D01*
X11983472Y-15031544D02*
X11964425Y-15041068D01*
X11964425Y-15041068D02*
X11954901Y-15050591D01*
X11954901Y-15050591D02*
X11945377Y-15069639D01*
X11945377Y-15069639D02*
X11945377Y-15117258D01*
X11945377Y-15117258D02*
X11954901Y-15136306D01*
X11954901Y-15136306D02*
X11964425Y-15145829D01*
X11964425Y-15145829D02*
X11983472Y-15155353D01*
X11983472Y-15155353D02*
X12021568Y-15155353D01*
X12021568Y-15155353D02*
X12040615Y-15145829D01*
X12040615Y-15145829D02*
X12050139Y-15136306D01*
X12050139Y-15136306D02*
X12059663Y-15117258D01*
X12240615Y-15031544D02*
X12145377Y-15031544D01*
X12145377Y-15031544D02*
X12135853Y-15126782D01*
X12135853Y-15126782D02*
X12145377Y-15117258D01*
X12145377Y-15117258D02*
X12164425Y-15107734D01*
X12164425Y-15107734D02*
X12212044Y-15107734D01*
X12212044Y-15107734D02*
X12231092Y-15117258D01*
X12231092Y-15117258D02*
X12240615Y-15126782D01*
X12240615Y-15126782D02*
X12250139Y-15145829D01*
X12250139Y-15145829D02*
X12250139Y-15193448D01*
X12250139Y-15193448D02*
X12240615Y-15212496D01*
X12240615Y-15212496D02*
X12231092Y-15222020D01*
X12231092Y-15222020D02*
X12212044Y-15231544D01*
X12212044Y-15231544D02*
X12164425Y-15231544D01*
X12164425Y-15231544D02*
X12145377Y-15222020D01*
X12145377Y-15222020D02*
X12135853Y-15212496D01*
X12373949Y-15031544D02*
X12392996Y-15031544D01*
X12392996Y-15031544D02*
X12412044Y-15041068D01*
X12412044Y-15041068D02*
X12421568Y-15050591D01*
X12421568Y-15050591D02*
X12431092Y-15069639D01*
X12431092Y-15069639D02*
X12440615Y-15107734D01*
X12440615Y-15107734D02*
X12440615Y-15155353D01*
X12440615Y-15155353D02*
X12431092Y-15193448D01*
X12431092Y-15193448D02*
X12421568Y-15212496D01*
X12421568Y-15212496D02*
X12412044Y-15222020D01*
X12412044Y-15222020D02*
X12392996Y-15231544D01*
X12392996Y-15231544D02*
X12373949Y-15231544D01*
X12373949Y-15231544D02*
X12354901Y-15222020D01*
X12354901Y-15222020D02*
X12345377Y-15212496D01*
X12345377Y-15212496D02*
X12335853Y-15193448D01*
X12335853Y-15193448D02*
X12326330Y-15155353D01*
X12326330Y-15155353D02*
X12326330Y-15107734D01*
X12326330Y-15107734D02*
X12335853Y-15069639D01*
X12335853Y-15069639D02*
X12345377Y-15050591D01*
X12345377Y-15050591D02*
X12354901Y-15041068D01*
X12354901Y-15041068D02*
X12373949Y-15031544D01*
X12526330Y-15231544D02*
X12526330Y-15098210D01*
X12526330Y-15117258D02*
X12535853Y-15107734D01*
X12535853Y-15107734D02*
X12554901Y-15098210D01*
X12554901Y-15098210D02*
X12583473Y-15098210D01*
X12583473Y-15098210D02*
X12602520Y-15107734D01*
X12602520Y-15107734D02*
X12612044Y-15126782D01*
X12612044Y-15126782D02*
X12612044Y-15231544D01*
X12612044Y-15126782D02*
X12621568Y-15107734D01*
X12621568Y-15107734D02*
X12640615Y-15098210D01*
X12640615Y-15098210D02*
X12669187Y-15098210D01*
X12669187Y-15098210D02*
X12688234Y-15107734D01*
X12688234Y-15107734D02*
X12697758Y-15126782D01*
X12697758Y-15126782D02*
X12697758Y-15231544D01*
X12792996Y-15231544D02*
X12792996Y-15098210D01*
X12792996Y-15117258D02*
X12802520Y-15107734D01*
X12802520Y-15107734D02*
X12821568Y-15098210D01*
X12821568Y-15098210D02*
X12850139Y-15098210D01*
X12850139Y-15098210D02*
X12869187Y-15107734D01*
X12869187Y-15107734D02*
X12878711Y-15126782D01*
X12878711Y-15126782D02*
X12878711Y-15231544D01*
X12878711Y-15126782D02*
X12888234Y-15107734D01*
X12888234Y-15107734D02*
X12907282Y-15098210D01*
X12907282Y-15098210D02*
X12935853Y-15098210D01*
X12935853Y-15098210D02*
X12954901Y-15107734D01*
X12954901Y-15107734D02*
X12964425Y-15126782D01*
X12964425Y-15126782D02*
X12964425Y-15231544D01*
X13354901Y-15022020D02*
X13183473Y-15279163D01*
X13612044Y-15031544D02*
X13631092Y-15031544D01*
X13631092Y-15031544D02*
X13650139Y-15041068D01*
X13650139Y-15041068D02*
X13659663Y-15050591D01*
X13659663Y-15050591D02*
X13669187Y-15069639D01*
X13669187Y-15069639D02*
X13678711Y-15107734D01*
X13678711Y-15107734D02*
X13678711Y-15155353D01*
X13678711Y-15155353D02*
X13669187Y-15193448D01*
X13669187Y-15193448D02*
X13659663Y-15212496D01*
X13659663Y-15212496D02*
X13650139Y-15222020D01*
X13650139Y-15222020D02*
X13631092Y-15231544D01*
X13631092Y-15231544D02*
X13612044Y-15231544D01*
X13612044Y-15231544D02*
X13592996Y-15222020D01*
X13592996Y-15222020D02*
X13583473Y-15212496D01*
X13583473Y-15212496D02*
X13573949Y-15193448D01*
X13573949Y-15193448D02*
X13564425Y-15155353D01*
X13564425Y-15155353D02*
X13564425Y-15107734D01*
X13564425Y-15107734D02*
X13573949Y-15069639D01*
X13573949Y-15069639D02*
X13583473Y-15050591D01*
X13583473Y-15050591D02*
X13592996Y-15041068D01*
X13592996Y-15041068D02*
X13612044Y-15031544D01*
X13764425Y-15212496D02*
X13773949Y-15222020D01*
X13773949Y-15222020D02*
X13764425Y-15231544D01*
X13764425Y-15231544D02*
X13754901Y-15222020D01*
X13754901Y-15222020D02*
X13764425Y-15212496D01*
X13764425Y-15212496D02*
X13764425Y-15231544D01*
X13897758Y-15031544D02*
X13916806Y-15031544D01*
X13916806Y-15031544D02*
X13935854Y-15041068D01*
X13935854Y-15041068D02*
X13945377Y-15050591D01*
X13945377Y-15050591D02*
X13954901Y-15069639D01*
X13954901Y-15069639D02*
X13964425Y-15107734D01*
X13964425Y-15107734D02*
X13964425Y-15155353D01*
X13964425Y-15155353D02*
X13954901Y-15193448D01*
X13954901Y-15193448D02*
X13945377Y-15212496D01*
X13945377Y-15212496D02*
X13935854Y-15222020D01*
X13935854Y-15222020D02*
X13916806Y-15231544D01*
X13916806Y-15231544D02*
X13897758Y-15231544D01*
X13897758Y-15231544D02*
X13878711Y-15222020D01*
X13878711Y-15222020D02*
X13869187Y-15212496D01*
X13869187Y-15212496D02*
X13859663Y-15193448D01*
X13859663Y-15193448D02*
X13850139Y-15155353D01*
X13850139Y-15155353D02*
X13850139Y-15107734D01*
X13850139Y-15107734D02*
X13859663Y-15069639D01*
X13859663Y-15069639D02*
X13869187Y-15050591D01*
X13869187Y-15050591D02*
X13878711Y-15041068D01*
X13878711Y-15041068D02*
X13897758Y-15031544D01*
X14031092Y-15031544D02*
X14154901Y-15031544D01*
X14154901Y-15031544D02*
X14088235Y-15107734D01*
X14088235Y-15107734D02*
X14116806Y-15107734D01*
X14116806Y-15107734D02*
X14135854Y-15117258D01*
X14135854Y-15117258D02*
X14145377Y-15126782D01*
X14145377Y-15126782D02*
X14154901Y-15145829D01*
X14154901Y-15145829D02*
X14154901Y-15193448D01*
X14154901Y-15193448D02*
X14145377Y-15212496D01*
X14145377Y-15212496D02*
X14135854Y-15222020D01*
X14135854Y-15222020D02*
X14116806Y-15231544D01*
X14116806Y-15231544D02*
X14059663Y-15231544D01*
X14059663Y-15231544D02*
X14040616Y-15222020D01*
X14040616Y-15222020D02*
X14031092Y-15212496D01*
X14221568Y-15031544D02*
X14354901Y-15031544D01*
X14354901Y-15031544D02*
X14269187Y-15231544D01*
X14516806Y-15098210D02*
X14516806Y-15231544D01*
X14469187Y-15022020D02*
X14421568Y-15164877D01*
X14421568Y-15164877D02*
X14545377Y-15164877D01*
X14612044Y-15031544D02*
X14612044Y-15069639D01*
X14688235Y-15031544D02*
X14688235Y-15069639D01*
X14983473Y-15307734D02*
X14973949Y-15298210D01*
X14973949Y-15298210D02*
X14954901Y-15269639D01*
X14954901Y-15269639D02*
X14945378Y-15250591D01*
X14945378Y-15250591D02*
X14935854Y-15222020D01*
X14935854Y-15222020D02*
X14926330Y-15174401D01*
X14926330Y-15174401D02*
X14926330Y-15136306D01*
X14926330Y-15136306D02*
X14935854Y-15088687D01*
X14935854Y-15088687D02*
X14945378Y-15060115D01*
X14945378Y-15060115D02*
X14954901Y-15041068D01*
X14954901Y-15041068D02*
X14973949Y-15012496D01*
X14973949Y-15012496D02*
X14983473Y-15002972D01*
X15145378Y-15031544D02*
X15107282Y-15031544D01*
X15107282Y-15031544D02*
X15088235Y-15041068D01*
X15088235Y-15041068D02*
X15078711Y-15050591D01*
X15078711Y-15050591D02*
X15059663Y-15079163D01*
X15059663Y-15079163D02*
X15050139Y-15117258D01*
X15050139Y-15117258D02*
X15050139Y-15193448D01*
X15050139Y-15193448D02*
X15059663Y-15212496D01*
X15059663Y-15212496D02*
X15069187Y-15222020D01*
X15069187Y-15222020D02*
X15088235Y-15231544D01*
X15088235Y-15231544D02*
X15126330Y-15231544D01*
X15126330Y-15231544D02*
X15145378Y-15222020D01*
X15145378Y-15222020D02*
X15154901Y-15212496D01*
X15154901Y-15212496D02*
X15164425Y-15193448D01*
X15164425Y-15193448D02*
X15164425Y-15145829D01*
X15164425Y-15145829D02*
X15154901Y-15126782D01*
X15154901Y-15126782D02*
X15145378Y-15117258D01*
X15145378Y-15117258D02*
X15126330Y-15107734D01*
X15126330Y-15107734D02*
X15088235Y-15107734D01*
X15088235Y-15107734D02*
X15069187Y-15117258D01*
X15069187Y-15117258D02*
X15059663Y-15126782D01*
X15059663Y-15126782D02*
X15050139Y-15145829D01*
X15402520Y-15231544D02*
X15402520Y-15031544D01*
X15488235Y-15231544D02*
X15488235Y-15126782D01*
X15488235Y-15126782D02*
X15478711Y-15107734D01*
X15478711Y-15107734D02*
X15459663Y-15098210D01*
X15459663Y-15098210D02*
X15431092Y-15098210D01*
X15431092Y-15098210D02*
X15412044Y-15107734D01*
X15412044Y-15107734D02*
X15402520Y-15117258D01*
X15612044Y-15231544D02*
X15592997Y-15222020D01*
X15592997Y-15222020D02*
X15583473Y-15212496D01*
X15583473Y-15212496D02*
X15573949Y-15193448D01*
X15573949Y-15193448D02*
X15573949Y-15136306D01*
X15573949Y-15136306D02*
X15583473Y-15117258D01*
X15583473Y-15117258D02*
X15592997Y-15107734D01*
X15592997Y-15107734D02*
X15612044Y-15098210D01*
X15612044Y-15098210D02*
X15640616Y-15098210D01*
X15640616Y-15098210D02*
X15659663Y-15107734D01*
X15659663Y-15107734D02*
X15669187Y-15117258D01*
X15669187Y-15117258D02*
X15678711Y-15136306D01*
X15678711Y-15136306D02*
X15678711Y-15193448D01*
X15678711Y-15193448D02*
X15669187Y-15212496D01*
X15669187Y-15212496D02*
X15659663Y-15222020D01*
X15659663Y-15222020D02*
X15640616Y-15231544D01*
X15640616Y-15231544D02*
X15612044Y-15231544D01*
X15792997Y-15231544D02*
X15773949Y-15222020D01*
X15773949Y-15222020D02*
X15764425Y-15202972D01*
X15764425Y-15202972D02*
X15764425Y-15031544D01*
X15945378Y-15222020D02*
X15926330Y-15231544D01*
X15926330Y-15231544D02*
X15888235Y-15231544D01*
X15888235Y-15231544D02*
X15869187Y-15222020D01*
X15869187Y-15222020D02*
X15859663Y-15202972D01*
X15859663Y-15202972D02*
X15859663Y-15126782D01*
X15859663Y-15126782D02*
X15869187Y-15107734D01*
X15869187Y-15107734D02*
X15888235Y-15098210D01*
X15888235Y-15098210D02*
X15926330Y-15098210D01*
X15926330Y-15098210D02*
X15945378Y-15107734D01*
X15945378Y-15107734D02*
X15954901Y-15126782D01*
X15954901Y-15126782D02*
X15954901Y-15145829D01*
X15954901Y-15145829D02*
X15859663Y-15164877D01*
X16031092Y-15222020D02*
X16050140Y-15231544D01*
X16050140Y-15231544D02*
X16088235Y-15231544D01*
X16088235Y-15231544D02*
X16107282Y-15222020D01*
X16107282Y-15222020D02*
X16116806Y-15202972D01*
X16116806Y-15202972D02*
X16116806Y-15193448D01*
X16116806Y-15193448D02*
X16107282Y-15174401D01*
X16107282Y-15174401D02*
X16088235Y-15164877D01*
X16088235Y-15164877D02*
X16059663Y-15164877D01*
X16059663Y-15164877D02*
X16040616Y-15155353D01*
X16040616Y-15155353D02*
X16031092Y-15136306D01*
X16031092Y-15136306D02*
X16031092Y-15126782D01*
X16031092Y-15126782D02*
X16040616Y-15107734D01*
X16040616Y-15107734D02*
X16059663Y-15098210D01*
X16059663Y-15098210D02*
X16088235Y-15098210D01*
X16088235Y-15098210D02*
X16107282Y-15107734D01*
X16183473Y-15307734D02*
X16192997Y-15298210D01*
X16192997Y-15298210D02*
X16212044Y-15269639D01*
X16212044Y-15269639D02*
X16221568Y-15250591D01*
X16221568Y-15250591D02*
X16231092Y-15222020D01*
X16231092Y-15222020D02*
X16240616Y-15174401D01*
X16240616Y-15174401D02*
X16240616Y-15136306D01*
X16240616Y-15136306D02*
X16231092Y-15088687D01*
X16231092Y-15088687D02*
X16221568Y-15060115D01*
X16221568Y-15060115D02*
X16212044Y-15041068D01*
X16212044Y-15041068D02*
X16192997Y-15012496D01*
X16192997Y-15012496D02*
X16183473Y-15002972D01*
D13*
X11278410Y-15339060D02*
X11408410Y-15469060D01*
X11408410Y-15339060D02*
X11278410Y-15469060D01*
X11343410Y-15339060D02*
X11343410Y-15469060D01*
X11278410Y-15404060D02*
X11408410Y-15404060D01*
D11*
X11773949Y-15495544D02*
X11659663Y-15495544D01*
X11716806Y-15495544D02*
X11716806Y-15295544D01*
X11716806Y-15295544D02*
X11697758Y-15324115D01*
X11697758Y-15324115D02*
X11678711Y-15343163D01*
X11678711Y-15343163D02*
X11659663Y-15352687D01*
X11859663Y-15476496D02*
X11869187Y-15486020D01*
X11869187Y-15486020D02*
X11859663Y-15495544D01*
X11859663Y-15495544D02*
X11850139Y-15486020D01*
X11850139Y-15486020D02*
X11859663Y-15476496D01*
X11859663Y-15476496D02*
X11859663Y-15495544D01*
X11935853Y-15295544D02*
X12059663Y-15295544D01*
X12059663Y-15295544D02*
X11992996Y-15371734D01*
X11992996Y-15371734D02*
X12021568Y-15371734D01*
X12021568Y-15371734D02*
X12040615Y-15381258D01*
X12040615Y-15381258D02*
X12050139Y-15390782D01*
X12050139Y-15390782D02*
X12059663Y-15409829D01*
X12059663Y-15409829D02*
X12059663Y-15457448D01*
X12059663Y-15457448D02*
X12050139Y-15476496D01*
X12050139Y-15476496D02*
X12040615Y-15486020D01*
X12040615Y-15486020D02*
X12021568Y-15495544D01*
X12021568Y-15495544D02*
X11964425Y-15495544D01*
X11964425Y-15495544D02*
X11945377Y-15486020D01*
X11945377Y-15486020D02*
X11935853Y-15476496D01*
X12183472Y-15295544D02*
X12202520Y-15295544D01*
X12202520Y-15295544D02*
X12221568Y-15305068D01*
X12221568Y-15305068D02*
X12231092Y-15314591D01*
X12231092Y-15314591D02*
X12240615Y-15333639D01*
X12240615Y-15333639D02*
X12250139Y-15371734D01*
X12250139Y-15371734D02*
X12250139Y-15419353D01*
X12250139Y-15419353D02*
X12240615Y-15457448D01*
X12240615Y-15457448D02*
X12231092Y-15476496D01*
X12231092Y-15476496D02*
X12221568Y-15486020D01*
X12221568Y-15486020D02*
X12202520Y-15495544D01*
X12202520Y-15495544D02*
X12183472Y-15495544D01*
X12183472Y-15495544D02*
X12164425Y-15486020D01*
X12164425Y-15486020D02*
X12154901Y-15476496D01*
X12154901Y-15476496D02*
X12145377Y-15457448D01*
X12145377Y-15457448D02*
X12135853Y-15419353D01*
X12135853Y-15419353D02*
X12135853Y-15371734D01*
X12135853Y-15371734D02*
X12145377Y-15333639D01*
X12145377Y-15333639D02*
X12154901Y-15314591D01*
X12154901Y-15314591D02*
X12164425Y-15305068D01*
X12164425Y-15305068D02*
X12183472Y-15295544D01*
X12373949Y-15295544D02*
X12392996Y-15295544D01*
X12392996Y-15295544D02*
X12412044Y-15305068D01*
X12412044Y-15305068D02*
X12421568Y-15314591D01*
X12421568Y-15314591D02*
X12431092Y-15333639D01*
X12431092Y-15333639D02*
X12440615Y-15371734D01*
X12440615Y-15371734D02*
X12440615Y-15419353D01*
X12440615Y-15419353D02*
X12431092Y-15457448D01*
X12431092Y-15457448D02*
X12421568Y-15476496D01*
X12421568Y-15476496D02*
X12412044Y-15486020D01*
X12412044Y-15486020D02*
X12392996Y-15495544D01*
X12392996Y-15495544D02*
X12373949Y-15495544D01*
X12373949Y-15495544D02*
X12354901Y-15486020D01*
X12354901Y-15486020D02*
X12345377Y-15476496D01*
X12345377Y-15476496D02*
X12335853Y-15457448D01*
X12335853Y-15457448D02*
X12326330Y-15419353D01*
X12326330Y-15419353D02*
X12326330Y-15371734D01*
X12326330Y-15371734D02*
X12335853Y-15333639D01*
X12335853Y-15333639D02*
X12345377Y-15314591D01*
X12345377Y-15314591D02*
X12354901Y-15305068D01*
X12354901Y-15305068D02*
X12373949Y-15295544D01*
X12526330Y-15495544D02*
X12526330Y-15362210D01*
X12526330Y-15381258D02*
X12535853Y-15371734D01*
X12535853Y-15371734D02*
X12554901Y-15362210D01*
X12554901Y-15362210D02*
X12583473Y-15362210D01*
X12583473Y-15362210D02*
X12602520Y-15371734D01*
X12602520Y-15371734D02*
X12612044Y-15390782D01*
X12612044Y-15390782D02*
X12612044Y-15495544D01*
X12612044Y-15390782D02*
X12621568Y-15371734D01*
X12621568Y-15371734D02*
X12640615Y-15362210D01*
X12640615Y-15362210D02*
X12669187Y-15362210D01*
X12669187Y-15362210D02*
X12688234Y-15371734D01*
X12688234Y-15371734D02*
X12697758Y-15390782D01*
X12697758Y-15390782D02*
X12697758Y-15495544D01*
X12792996Y-15495544D02*
X12792996Y-15362210D01*
X12792996Y-15381258D02*
X12802520Y-15371734D01*
X12802520Y-15371734D02*
X12821568Y-15362210D01*
X12821568Y-15362210D02*
X12850139Y-15362210D01*
X12850139Y-15362210D02*
X12869187Y-15371734D01*
X12869187Y-15371734D02*
X12878711Y-15390782D01*
X12878711Y-15390782D02*
X12878711Y-15495544D01*
X12878711Y-15390782D02*
X12888234Y-15371734D01*
X12888234Y-15371734D02*
X12907282Y-15362210D01*
X12907282Y-15362210D02*
X12935853Y-15362210D01*
X12935853Y-15362210D02*
X12954901Y-15371734D01*
X12954901Y-15371734D02*
X12964425Y-15390782D01*
X12964425Y-15390782D02*
X12964425Y-15495544D01*
X13354901Y-15286020D02*
X13183473Y-15543163D01*
X13612044Y-15295544D02*
X13631092Y-15295544D01*
X13631092Y-15295544D02*
X13650139Y-15305068D01*
X13650139Y-15305068D02*
X13659663Y-15314591D01*
X13659663Y-15314591D02*
X13669187Y-15333639D01*
X13669187Y-15333639D02*
X13678711Y-15371734D01*
X13678711Y-15371734D02*
X13678711Y-15419353D01*
X13678711Y-15419353D02*
X13669187Y-15457448D01*
X13669187Y-15457448D02*
X13659663Y-15476496D01*
X13659663Y-15476496D02*
X13650139Y-15486020D01*
X13650139Y-15486020D02*
X13631092Y-15495544D01*
X13631092Y-15495544D02*
X13612044Y-15495544D01*
X13612044Y-15495544D02*
X13592996Y-15486020D01*
X13592996Y-15486020D02*
X13583473Y-15476496D01*
X13583473Y-15476496D02*
X13573949Y-15457448D01*
X13573949Y-15457448D02*
X13564425Y-15419353D01*
X13564425Y-15419353D02*
X13564425Y-15371734D01*
X13564425Y-15371734D02*
X13573949Y-15333639D01*
X13573949Y-15333639D02*
X13583473Y-15314591D01*
X13583473Y-15314591D02*
X13592996Y-15305068D01*
X13592996Y-15305068D02*
X13612044Y-15295544D01*
X13764425Y-15476496D02*
X13773949Y-15486020D01*
X13773949Y-15486020D02*
X13764425Y-15495544D01*
X13764425Y-15495544D02*
X13754901Y-15486020D01*
X13754901Y-15486020D02*
X13764425Y-15476496D01*
X13764425Y-15476496D02*
X13764425Y-15495544D01*
X13897758Y-15295544D02*
X13916806Y-15295544D01*
X13916806Y-15295544D02*
X13935854Y-15305068D01*
X13935854Y-15305068D02*
X13945377Y-15314591D01*
X13945377Y-15314591D02*
X13954901Y-15333639D01*
X13954901Y-15333639D02*
X13964425Y-15371734D01*
X13964425Y-15371734D02*
X13964425Y-15419353D01*
X13964425Y-15419353D02*
X13954901Y-15457448D01*
X13954901Y-15457448D02*
X13945377Y-15476496D01*
X13945377Y-15476496D02*
X13935854Y-15486020D01*
X13935854Y-15486020D02*
X13916806Y-15495544D01*
X13916806Y-15495544D02*
X13897758Y-15495544D01*
X13897758Y-15495544D02*
X13878711Y-15486020D01*
X13878711Y-15486020D02*
X13869187Y-15476496D01*
X13869187Y-15476496D02*
X13859663Y-15457448D01*
X13859663Y-15457448D02*
X13850139Y-15419353D01*
X13850139Y-15419353D02*
X13850139Y-15371734D01*
X13850139Y-15371734D02*
X13859663Y-15333639D01*
X13859663Y-15333639D02*
X13869187Y-15314591D01*
X13869187Y-15314591D02*
X13878711Y-15305068D01*
X13878711Y-15305068D02*
X13897758Y-15295544D01*
X14145377Y-15295544D02*
X14050139Y-15295544D01*
X14050139Y-15295544D02*
X14040616Y-15390782D01*
X14040616Y-15390782D02*
X14050139Y-15381258D01*
X14050139Y-15381258D02*
X14069187Y-15371734D01*
X14069187Y-15371734D02*
X14116806Y-15371734D01*
X14116806Y-15371734D02*
X14135854Y-15381258D01*
X14135854Y-15381258D02*
X14145377Y-15390782D01*
X14145377Y-15390782D02*
X14154901Y-15409829D01*
X14154901Y-15409829D02*
X14154901Y-15457448D01*
X14154901Y-15457448D02*
X14145377Y-15476496D01*
X14145377Y-15476496D02*
X14135854Y-15486020D01*
X14135854Y-15486020D02*
X14116806Y-15495544D01*
X14116806Y-15495544D02*
X14069187Y-15495544D01*
X14069187Y-15495544D02*
X14050139Y-15486020D01*
X14050139Y-15486020D02*
X14040616Y-15476496D01*
X14345377Y-15495544D02*
X14231092Y-15495544D01*
X14288235Y-15495544D02*
X14288235Y-15295544D01*
X14288235Y-15295544D02*
X14269187Y-15324115D01*
X14269187Y-15324115D02*
X14250139Y-15343163D01*
X14250139Y-15343163D02*
X14231092Y-15352687D01*
X14421568Y-15314591D02*
X14431092Y-15305068D01*
X14431092Y-15305068D02*
X14450139Y-15295544D01*
X14450139Y-15295544D02*
X14497758Y-15295544D01*
X14497758Y-15295544D02*
X14516806Y-15305068D01*
X14516806Y-15305068D02*
X14526330Y-15314591D01*
X14526330Y-15314591D02*
X14535854Y-15333639D01*
X14535854Y-15333639D02*
X14535854Y-15352687D01*
X14535854Y-15352687D02*
X14526330Y-15381258D01*
X14526330Y-15381258D02*
X14412044Y-15495544D01*
X14412044Y-15495544D02*
X14535854Y-15495544D01*
X14612044Y-15295544D02*
X14612044Y-15333639D01*
X14688235Y-15295544D02*
X14688235Y-15333639D01*
X14983473Y-15571734D02*
X14973949Y-15562210D01*
X14973949Y-15562210D02*
X14954901Y-15533639D01*
X14954901Y-15533639D02*
X14945378Y-15514591D01*
X14945378Y-15514591D02*
X14935854Y-15486020D01*
X14935854Y-15486020D02*
X14926330Y-15438401D01*
X14926330Y-15438401D02*
X14926330Y-15400306D01*
X14926330Y-15400306D02*
X14935854Y-15352687D01*
X14935854Y-15352687D02*
X14945378Y-15324115D01*
X14945378Y-15324115D02*
X14954901Y-15305068D01*
X14954901Y-15305068D02*
X14973949Y-15276496D01*
X14973949Y-15276496D02*
X14983473Y-15266972D01*
X15097758Y-15295544D02*
X15116806Y-15295544D01*
X15116806Y-15295544D02*
X15135854Y-15305068D01*
X15135854Y-15305068D02*
X15145378Y-15314591D01*
X15145378Y-15314591D02*
X15154901Y-15333639D01*
X15154901Y-15333639D02*
X15164425Y-15371734D01*
X15164425Y-15371734D02*
X15164425Y-15419353D01*
X15164425Y-15419353D02*
X15154901Y-15457448D01*
X15154901Y-15457448D02*
X15145378Y-15476496D01*
X15145378Y-15476496D02*
X15135854Y-15486020D01*
X15135854Y-15486020D02*
X15116806Y-15495544D01*
X15116806Y-15495544D02*
X15097758Y-15495544D01*
X15097758Y-15495544D02*
X15078711Y-15486020D01*
X15078711Y-15486020D02*
X15069187Y-15476496D01*
X15069187Y-15476496D02*
X15059663Y-15457448D01*
X15059663Y-15457448D02*
X15050139Y-15419353D01*
X15050139Y-15419353D02*
X15050139Y-15371734D01*
X15050139Y-15371734D02*
X15059663Y-15333639D01*
X15059663Y-15333639D02*
X15069187Y-15314591D01*
X15069187Y-15314591D02*
X15078711Y-15305068D01*
X15078711Y-15305068D02*
X15097758Y-15295544D01*
X15402520Y-15495544D02*
X15402520Y-15295544D01*
X15488235Y-15495544D02*
X15488235Y-15390782D01*
X15488235Y-15390782D02*
X15478711Y-15371734D01*
X15478711Y-15371734D02*
X15459663Y-15362210D01*
X15459663Y-15362210D02*
X15431092Y-15362210D01*
X15431092Y-15362210D02*
X15412044Y-15371734D01*
X15412044Y-15371734D02*
X15402520Y-15381258D01*
X15612044Y-15495544D02*
X15592997Y-15486020D01*
X15592997Y-15486020D02*
X15583473Y-15476496D01*
X15583473Y-15476496D02*
X15573949Y-15457448D01*
X15573949Y-15457448D02*
X15573949Y-15400306D01*
X15573949Y-15400306D02*
X15583473Y-15381258D01*
X15583473Y-15381258D02*
X15592997Y-15371734D01*
X15592997Y-15371734D02*
X15612044Y-15362210D01*
X15612044Y-15362210D02*
X15640616Y-15362210D01*
X15640616Y-15362210D02*
X15659663Y-15371734D01*
X15659663Y-15371734D02*
X15669187Y-15381258D01*
X15669187Y-15381258D02*
X15678711Y-15400306D01*
X15678711Y-15400306D02*
X15678711Y-15457448D01*
X15678711Y-15457448D02*
X15669187Y-15476496D01*
X15669187Y-15476496D02*
X15659663Y-15486020D01*
X15659663Y-15486020D02*
X15640616Y-15495544D01*
X15640616Y-15495544D02*
X15612044Y-15495544D01*
X15792997Y-15495544D02*
X15773949Y-15486020D01*
X15773949Y-15486020D02*
X15764425Y-15466972D01*
X15764425Y-15466972D02*
X15764425Y-15295544D01*
X15945378Y-15486020D02*
X15926330Y-15495544D01*
X15926330Y-15495544D02*
X15888235Y-15495544D01*
X15888235Y-15495544D02*
X15869187Y-15486020D01*
X15869187Y-15486020D02*
X15859663Y-15466972D01*
X15859663Y-15466972D02*
X15859663Y-15390782D01*
X15859663Y-15390782D02*
X15869187Y-15371734D01*
X15869187Y-15371734D02*
X15888235Y-15362210D01*
X15888235Y-15362210D02*
X15926330Y-15362210D01*
X15926330Y-15362210D02*
X15945378Y-15371734D01*
X15945378Y-15371734D02*
X15954901Y-15390782D01*
X15954901Y-15390782D02*
X15954901Y-15409829D01*
X15954901Y-15409829D02*
X15859663Y-15428877D01*
X16031092Y-15486020D02*
X16050140Y-15495544D01*
X16050140Y-15495544D02*
X16088235Y-15495544D01*
X16088235Y-15495544D02*
X16107282Y-15486020D01*
X16107282Y-15486020D02*
X16116806Y-15466972D01*
X16116806Y-15466972D02*
X16116806Y-15457448D01*
X16116806Y-15457448D02*
X16107282Y-15438401D01*
X16107282Y-15438401D02*
X16088235Y-15428877D01*
X16088235Y-15428877D02*
X16059663Y-15428877D01*
X16059663Y-15428877D02*
X16040616Y-15419353D01*
X16040616Y-15419353D02*
X16031092Y-15400306D01*
X16031092Y-15400306D02*
X16031092Y-15390782D01*
X16031092Y-15390782D02*
X16040616Y-15371734D01*
X16040616Y-15371734D02*
X16059663Y-15362210D01*
X16059663Y-15362210D02*
X16088235Y-15362210D01*
X16088235Y-15362210D02*
X16107282Y-15371734D01*
X16354902Y-15419353D02*
X16507283Y-15419353D01*
X16431092Y-15495544D02*
X16431092Y-15343163D01*
X16735854Y-15295544D02*
X16859664Y-15295544D01*
X16859664Y-15295544D02*
X16792997Y-15371734D01*
X16792997Y-15371734D02*
X16821568Y-15371734D01*
X16821568Y-15371734D02*
X16840616Y-15381258D01*
X16840616Y-15381258D02*
X16850140Y-15390782D01*
X16850140Y-15390782D02*
X16859664Y-15409829D01*
X16859664Y-15409829D02*
X16859664Y-15457448D01*
X16859664Y-15457448D02*
X16850140Y-15476496D01*
X16850140Y-15476496D02*
X16840616Y-15486020D01*
X16840616Y-15486020D02*
X16821568Y-15495544D01*
X16821568Y-15495544D02*
X16764425Y-15495544D01*
X16764425Y-15495544D02*
X16745378Y-15486020D01*
X16745378Y-15486020D02*
X16735854Y-15476496D01*
X17088235Y-15486020D02*
X17107283Y-15495544D01*
X17107283Y-15495544D02*
X17145378Y-15495544D01*
X17145378Y-15495544D02*
X17164426Y-15486020D01*
X17164426Y-15486020D02*
X17173949Y-15466972D01*
X17173949Y-15466972D02*
X17173949Y-15457448D01*
X17173949Y-15457448D02*
X17164426Y-15438401D01*
X17164426Y-15438401D02*
X17145378Y-15428877D01*
X17145378Y-15428877D02*
X17116806Y-15428877D01*
X17116806Y-15428877D02*
X17097759Y-15419353D01*
X17097759Y-15419353D02*
X17088235Y-15400306D01*
X17088235Y-15400306D02*
X17088235Y-15390782D01*
X17088235Y-15390782D02*
X17097759Y-15371734D01*
X17097759Y-15371734D02*
X17116806Y-15362210D01*
X17116806Y-15362210D02*
X17145378Y-15362210D01*
X17145378Y-15362210D02*
X17164426Y-15371734D01*
X17288235Y-15495544D02*
X17269187Y-15486020D01*
X17269187Y-15486020D02*
X17259664Y-15466972D01*
X17259664Y-15466972D02*
X17259664Y-15295544D01*
X17392997Y-15495544D02*
X17373949Y-15486020D01*
X17373949Y-15486020D02*
X17364426Y-15476496D01*
X17364426Y-15476496D02*
X17354902Y-15457448D01*
X17354902Y-15457448D02*
X17354902Y-15400306D01*
X17354902Y-15400306D02*
X17364426Y-15381258D01*
X17364426Y-15381258D02*
X17373949Y-15371734D01*
X17373949Y-15371734D02*
X17392997Y-15362210D01*
X17392997Y-15362210D02*
X17421568Y-15362210D01*
X17421568Y-15362210D02*
X17440616Y-15371734D01*
X17440616Y-15371734D02*
X17450140Y-15381258D01*
X17450140Y-15381258D02*
X17459664Y-15400306D01*
X17459664Y-15400306D02*
X17459664Y-15457448D01*
X17459664Y-15457448D02*
X17450140Y-15476496D01*
X17450140Y-15476496D02*
X17440616Y-15486020D01*
X17440616Y-15486020D02*
X17421568Y-15495544D01*
X17421568Y-15495544D02*
X17392997Y-15495544D01*
X17516807Y-15362210D02*
X17592997Y-15362210D01*
X17545378Y-15295544D02*
X17545378Y-15466972D01*
X17545378Y-15466972D02*
X17554902Y-15486020D01*
X17554902Y-15486020D02*
X17573949Y-15495544D01*
X17573949Y-15495544D02*
X17592997Y-15495544D01*
X17650140Y-15486020D02*
X17669187Y-15495544D01*
X17669187Y-15495544D02*
X17707283Y-15495544D01*
X17707283Y-15495544D02*
X17726330Y-15486020D01*
X17726330Y-15486020D02*
X17735854Y-15466972D01*
X17735854Y-15466972D02*
X17735854Y-15457448D01*
X17735854Y-15457448D02*
X17726330Y-15438401D01*
X17726330Y-15438401D02*
X17707283Y-15428877D01*
X17707283Y-15428877D02*
X17678711Y-15428877D01*
X17678711Y-15428877D02*
X17659664Y-15419353D01*
X17659664Y-15419353D02*
X17650140Y-15400306D01*
X17650140Y-15400306D02*
X17650140Y-15390782D01*
X17650140Y-15390782D02*
X17659664Y-15371734D01*
X17659664Y-15371734D02*
X17678711Y-15362210D01*
X17678711Y-15362210D02*
X17707283Y-15362210D01*
X17707283Y-15362210D02*
X17726330Y-15371734D01*
X17802521Y-15571734D02*
X17812045Y-15562210D01*
X17812045Y-15562210D02*
X17831092Y-15533639D01*
X17831092Y-15533639D02*
X17840616Y-15514591D01*
X17840616Y-15514591D02*
X17850140Y-15486020D01*
X17850140Y-15486020D02*
X17859664Y-15438401D01*
X17859664Y-15438401D02*
X17859664Y-15400306D01*
X17859664Y-15400306D02*
X17850140Y-15352687D01*
X17850140Y-15352687D02*
X17840616Y-15324115D01*
X17840616Y-15324115D02*
X17831092Y-15305068D01*
X17831092Y-15305068D02*
X17812045Y-15276496D01*
X17812045Y-15276496D02*
X17802521Y-15266972D01*
M02*
