G04 #@! TF.GenerationSoftware,KiCad,Pcbnew,(7.0.0-0)*
G04 #@! TF.CreationDate,2023-02-27T08:41:08+01:00*
G04 #@! TF.ProjectId,Leonardo_Rev3e,4c656f6e-6172-4646-9f5f-52657633652e,3d*
G04 #@! TF.SameCoordinates,Original*
G04 #@! TF.FileFunction,Soldermask,Bot*
G04 #@! TF.FilePolarity,Negative*
%FSLAX46Y46*%
G04 Gerber Fmt 4.6, Leading zero omitted, Abs format (unit mm)*
G04 Created by KiCad (PCBNEW (7.0.0-0)) date 2023-02-27 08:41:08*
%MOMM*%
%LPD*%
G01*
G04 APERTURE LIST*
G04 Aperture macros list*
%AMRoundRect*
0 Rectangle with rounded corners*
0 $1 Rounding radius*
0 $2 $3 $4 $5 $6 $7 $8 $9 X,Y pos of 4 corners*
0 Add a 4 corners polygon primitive as box body*
4,1,4,$2,$3,$4,$5,$6,$7,$8,$9,$2,$3,0*
0 Add four circle primitives for the rounded corners*
1,1,$1+$1,$2,$3*
1,1,$1+$1,$4,$5*
1,1,$1+$1,$6,$7*
1,1,$1+$1,$8,$9*
0 Add four rect primitives between the rounded corners*
20,1,$1+$1,$2,$3,$4,$5,0*
20,1,$1+$1,$4,$5,$6,$7,0*
20,1,$1+$1,$6,$7,$8,$9,0*
20,1,$1+$1,$8,$9,$2,$3,0*%
%AMFreePoly0*
4,1,17,0.356937,0.810921,0.810921,0.356937,0.825800,0.321016,0.825800,-0.321016,0.810921,-0.356937,0.356937,-0.810921,0.321016,-0.825800,-0.321016,-0.825800,-0.356937,-0.810921,-0.810921,-0.356937,-0.825800,-0.321016,-0.825800,0.321016,-0.810921,0.356937,-0.356937,0.810921,-0.321016,0.825800,0.321016,0.825800,0.356937,0.810921,0.356937,0.810921,$1*%
%AMFreePoly1*
4,1,17,0.864348,2.035921,2.035921,0.864348,2.050800,0.828427,2.050800,-0.828427,2.035921,-0.864348,0.864348,-2.035921,0.828427,-2.050800,-0.828427,-2.050800,-0.864348,-2.035921,-2.035921,-0.864348,-2.050800,-0.828427,-2.050800,0.828427,-2.035921,0.864348,-0.864348,2.035921,-0.828427,2.050800,0.828427,2.050800,0.864348,2.035921,0.864348,2.035921,$1*%
G04 Aperture macros list end*
%ADD10C,3.200000*%
%ADD11C,1.524000*%
%ADD12O,1.524000X2.946400*%
%ADD13RoundRect,0.550800X0.000000X0.000000X0.000000X0.000000X0.000000X0.000000X0.000000X0.000000X0*%
%ADD14O,1.651000X1.016000*%
%ADD15O,1.016000X1.295400*%
%ADD16FreePoly0,270.000000*%
%ADD17FreePoly1,180.000000*%
%ADD18FreePoly1,90.000000*%
%ADD19RoundRect,0.050800X2.000000X-2.000000X2.000000X2.000000X-2.000000X2.000000X-2.000000X-2.000000X0*%
%ADD20C,2.051600*%
%ADD21RoundRect,0.365800X0.135000X-0.035000X0.135000X0.035000X-0.135000X0.035000X-0.135000X-0.035000X0*%
G04 APERTURE END LIST*
D10*
X180251100Y-96113600D03*
D11*
X118470000Y-86810000D03*
X121010000Y-86810000D03*
D12*
X165011099Y-129133599D03*
X167551099Y-129133599D03*
X170091099Y-129133599D03*
X172631099Y-129133599D03*
X175171099Y-129133599D03*
X177711099Y-129133599D03*
X142151099Y-129133599D03*
X144691099Y-129133599D03*
X147231099Y-129133599D03*
X149771099Y-129133599D03*
X152311099Y-129133599D03*
X154851099Y-129133599D03*
X157391099Y-129133599D03*
X159931099Y-129133599D03*
X177711099Y-80873599D03*
X175171099Y-80873599D03*
X172631099Y-80873599D03*
X170091099Y-80873599D03*
X167551099Y-80873599D03*
X165011099Y-80873599D03*
X162471099Y-80873599D03*
X159931099Y-80873599D03*
D13*
X120711100Y-92303600D03*
D10*
X128181100Y-129133600D03*
D14*
X115947598Y-90079999D03*
X115947598Y-97080000D03*
D15*
X118622599Y-91079999D03*
X118622599Y-96079999D03*
D12*
X155867099Y-80873599D03*
X153327099Y-80873599D03*
X150787099Y-80873599D03*
X148247099Y-80873599D03*
X145707099Y-80873599D03*
X143167099Y-80873599D03*
X140627099Y-80873599D03*
X138087099Y-80873599D03*
X135547099Y-80873599D03*
X133007099Y-80873599D03*
D13*
X120720000Y-96110000D03*
D10*
X129451100Y-80873600D03*
D16*
X177838100Y-101193600D03*
X180378100Y-101193600D03*
X177838100Y-103733600D03*
X180378100Y-103733600D03*
X177838100Y-106273600D03*
X180378100Y-106273600D03*
D13*
X122720100Y-92303600D03*
D17*
X122897900Y-128371600D03*
D18*
X125895100Y-123367800D03*
D19*
X119900700Y-123367800D03*
D20*
X123659900Y-128371600D03*
X122135900Y-128371600D03*
X119900700Y-124129800D03*
X119900700Y-122605800D03*
X125895100Y-124129800D03*
X125895100Y-122605800D03*
D10*
X180251100Y-124053600D03*
D13*
X122720100Y-94843600D03*
D21*
X169140000Y-117230000D03*
X169140000Y-115930000D03*
X170210000Y-117998000D03*
X170210000Y-116698000D03*
M02*
