%TF.GenerationSoftware,KiCad,Pcbnew,(7.0.0-0)*%
%TF.CreationDate,2023-02-27T08:41:11+01:00*%
%TF.ProjectId,Leonardo_Rev3e,4c656f6e-6172-4646-9f5f-52657633652e,3d*%
%TF.SameCoordinates,Original*%
%TF.FileFunction,Drillmap*%
%TF.FilePolarity,Positive*%
%FSLAX45Y45*%
G04 Gerber Fmt 4.5, Leading zero omitted, Abs format (unit mm)*
G04 Created by KiCad (PCBNEW (7.0.0-0)) date 2023-02-27 08:41:11*
%MOMM*%
%LPD*%
G01*
G04 APERTURE LIST*
%ADD10C,0.254000*%
%ADD11C,0.200000*%
%ADD12C,0.040000*%
%ADD13C,0.050000*%
%ADD14C,0.060000*%
%ADD15C,0.076200*%
%ADD16C,0.085000*%
%ADD17C,0.095000*%
%ADD18C,0.130000*%
G04 APERTURE END LIST*
D10*
X18025110Y-12913360D02*
X18025110Y-13067360D01*
X18025110Y-9128760D02*
X18279110Y-9382760D01*
X11421110Y-13067360D02*
X11421110Y-7933360D01*
X17872710Y-7833360D02*
X18025110Y-7985760D01*
X18279110Y-9382760D02*
X18279110Y-12659360D01*
X11421110Y-13067360D02*
G75*
G03*
X11521110Y-13167360I100000J0D01*
G01*
X18025110Y-7985760D02*
X18025110Y-9128760D01*
X11521110Y-7833360D02*
X17872710Y-7833360D01*
X17925110Y-13167360D02*
X11521110Y-13167360D01*
X11521110Y-7833360D02*
G75*
G03*
X11421110Y-7933360I0J-100000D01*
G01*
X17925110Y-13167360D02*
G75*
G03*
X18025110Y-13067360I0J100000D01*
G01*
X18279110Y-12659360D02*
X18025110Y-12913360D01*
D11*
D12*
X11712000Y-8850000D02*
X11752000Y-8890000D01*
X11752000Y-8850000D02*
X11712000Y-8890000D01*
X11737000Y-9925000D02*
X11777000Y-9965000D01*
X11777000Y-9925000D02*
X11737000Y-9965000D01*
X12144567Y-9487707D02*
X12184567Y-9527707D01*
X12184567Y-9487707D02*
X12144567Y-9527707D01*
D13*
X11570290Y-8840583D02*
G75*
G03*
X11570290Y-8840583I-25000J0D01*
G01*
X11636610Y-8214360D02*
G75*
G03*
X11636610Y-8214360I-25000J0D01*
G01*
X11636610Y-10119360D02*
G75*
G03*
X11636610Y-10119360I-25000J0D01*
G01*
X11636610Y-10309860D02*
G75*
G03*
X11636610Y-10309860I-25000J0D01*
G01*
X11732000Y-9110000D02*
G75*
G03*
X11732000Y-9110000I-25000J0D01*
G01*
X11746000Y-9599000D02*
G75*
G03*
X11746000Y-9599000I-25000J0D01*
G01*
X11991000Y-9848000D02*
G75*
G03*
X11991000Y-9848000I-25000J0D01*
G01*
X12053000Y-8921000D02*
G75*
G03*
X12053000Y-8921000I-25000J0D01*
G01*
X12186000Y-9355950D02*
G75*
G03*
X12186000Y-9355950I-25000J0D01*
G01*
X12335110Y-11008360D02*
G75*
G03*
X12335110Y-11008360I-25000J0D01*
G01*
X12335110Y-11198360D02*
G75*
G03*
X12335110Y-11198360I-25000J0D01*
G01*
X12335110Y-11643860D02*
G75*
G03*
X12335110Y-11643860I-25000J0D01*
G01*
X12335110Y-11833860D02*
G75*
G03*
X12335110Y-11833860I-25000J0D01*
G01*
X12356110Y-9347360D02*
G75*
G03*
X12356110Y-9347360I-25000J0D01*
G01*
X12398610Y-10246360D02*
G75*
G03*
X12398610Y-10246360I-25000J0D01*
G01*
X12406110Y-9137360D02*
G75*
G03*
X12406110Y-9137360I-25000J0D01*
G01*
X12462110Y-9801860D02*
G75*
G03*
X12462110Y-9801860I-25000J0D01*
G01*
X12525110Y-11643860D02*
G75*
G03*
X12525110Y-11643860I-25000J0D01*
G01*
X12525610Y-11008360D02*
G75*
G03*
X12525610Y-11008360I-25000J0D01*
G01*
X12525610Y-11198360D02*
G75*
G03*
X12525610Y-11198360I-25000J0D01*
G01*
X12525610Y-11833860D02*
G75*
G03*
X12525610Y-11833860I-25000J0D01*
G01*
X12716110Y-11008360D02*
G75*
G03*
X12716110Y-11008360I-25000J0D01*
G01*
X12716110Y-11833860D02*
G75*
G03*
X12716110Y-11833860I-25000J0D01*
G01*
X12906610Y-9357360D02*
G75*
G03*
X12906610Y-9357360I-25000J0D01*
G01*
X12906610Y-9547860D02*
G75*
G03*
X12906610Y-9547860I-25000J0D01*
G01*
X12906610Y-11008360D02*
G75*
G03*
X12906610Y-11008360I-25000J0D01*
G01*
X12906610Y-11833860D02*
G75*
G03*
X12906610Y-11833860I-25000J0D01*
G01*
X13033610Y-11452860D02*
G75*
G03*
X13033610Y-11452860I-25000J0D01*
G01*
X13224110Y-9166860D02*
G75*
G03*
X13224110Y-9166860I-25000J0D01*
G01*
X13224110Y-9954260D02*
G75*
G03*
X13224110Y-9954260I-25000J0D01*
G01*
X13224110Y-10106660D02*
G75*
G03*
X13224110Y-10106660I-25000J0D01*
G01*
X13287610Y-8912860D02*
G75*
G03*
X13287610Y-8912860I-25000J0D01*
G01*
X13355110Y-9484360D02*
G75*
G03*
X13355110Y-9484360I-25000J0D01*
G01*
X13414610Y-11097260D02*
G75*
G03*
X13414610Y-11097260I-25000J0D01*
G01*
X13579710Y-10754360D02*
G75*
G03*
X13579710Y-10754360I-25000J0D01*
G01*
X13605110Y-8912860D02*
G75*
G03*
X13605110Y-8912860I-25000J0D01*
G01*
X13630510Y-9725660D02*
G75*
G03*
X13630510Y-9725660I-25000J0D01*
G01*
X13744810Y-9928860D02*
G75*
G03*
X13744810Y-9928860I-25000J0D01*
G01*
X13795610Y-10754360D02*
G75*
G03*
X13795610Y-10754360I-25000J0D01*
G01*
X13859110Y-12024360D02*
G75*
G03*
X13859110Y-12024360I-25000J0D01*
G01*
X13871810Y-9204960D02*
G75*
G03*
X13871810Y-9204960I-25000J0D01*
G01*
X14036910Y-12913360D02*
G75*
G03*
X14036910Y-12913360I-25000J0D01*
G01*
X14176610Y-11833860D02*
G75*
G03*
X14176610Y-11833860I-25000J0D01*
G01*
X14214710Y-11173460D02*
G75*
G03*
X14214710Y-11173460I-25000J0D01*
G01*
X14240110Y-10119360D02*
G75*
G03*
X14240110Y-10119360I-25000J0D01*
G01*
X14265510Y-9928860D02*
G75*
G03*
X14265510Y-9928860I-25000J0D01*
G01*
X14367110Y-10477110D02*
G75*
G03*
X14367110Y-10477110I-25000J0D01*
G01*
X14367110Y-11706860D02*
G75*
G03*
X14367110Y-11706860I-25000J0D01*
G01*
X14443310Y-11859260D02*
G75*
G03*
X14443310Y-11859260I-25000J0D01*
G01*
X14494110Y-9992360D02*
G75*
G03*
X14494110Y-9992360I-25000J0D01*
G01*
X14557610Y-10500360D02*
G75*
G03*
X14557610Y-10500360I-25000J0D01*
G01*
X14710010Y-10932160D02*
G75*
G03*
X14710010Y-10932160I-25000J0D01*
G01*
X14748110Y-9992360D02*
G75*
G03*
X14748110Y-9992360I-25000J0D01*
G01*
X14748110Y-10411890D02*
G75*
G03*
X14748110Y-10411890I-25000J0D01*
G01*
X14748110Y-12024360D02*
G75*
G03*
X14748110Y-12024360I-25000J0D01*
G01*
X14875110Y-10500360D02*
G75*
G03*
X14875110Y-10500360I-25000J0D01*
G01*
X15002110Y-10438890D02*
G75*
G03*
X15002110Y-10438890I-25000J0D01*
G01*
X15129110Y-10500360D02*
G75*
G03*
X15129110Y-10500360I-25000J0D01*
G01*
X15192610Y-11452860D02*
G75*
G03*
X15192610Y-11452860I-25000J0D01*
G01*
X15256110Y-10373360D02*
G75*
G03*
X15256110Y-10373360I-25000J0D01*
G01*
X15319610Y-10627360D02*
G75*
G03*
X15319610Y-10627360I-25000J0D01*
G01*
X15497410Y-10881360D02*
G75*
G03*
X15497410Y-10881360I-25000J0D01*
G01*
X15510110Y-10373360D02*
G75*
G03*
X15510110Y-10373360I-25000J0D01*
G01*
X15624410Y-10792460D02*
G75*
G03*
X15624410Y-10792460I-25000J0D01*
G01*
X15624410Y-12037060D02*
G75*
G03*
X15624410Y-12037060I-25000J0D01*
G01*
X15637110Y-9865360D02*
G75*
G03*
X15637110Y-9865360I-25000J0D01*
G01*
X15637110Y-10119360D02*
G75*
G03*
X15637110Y-10119360I-25000J0D01*
G01*
X15637110Y-12214860D02*
G75*
G03*
X15637110Y-12214860I-25000J0D01*
G01*
X15637110Y-12405360D02*
G75*
G03*
X15637110Y-12405360I-25000J0D01*
G01*
X15700610Y-10563860D02*
G75*
G03*
X15700610Y-10563860I-25000J0D01*
G01*
X15814910Y-8087360D02*
G75*
G03*
X15814910Y-8087360I-25000J0D01*
G01*
X15827610Y-10373360D02*
G75*
G03*
X15827610Y-10373360I-25000J0D01*
G01*
X16272110Y-12913360D02*
G75*
G03*
X16272110Y-12913360I-25000J0D01*
G01*
X16335610Y-11706860D02*
G75*
G03*
X16335610Y-11706860I-25000J0D01*
G01*
X16485470Y-11897360D02*
G75*
G03*
X16485470Y-11897360I-25000J0D01*
G01*
X16653110Y-10944860D02*
G75*
G03*
X16653110Y-10944860I-25000J0D01*
G01*
X16843610Y-11994360D02*
G75*
G03*
X16843610Y-11994360I-25000J0D01*
G01*
X16856310Y-10716260D02*
G75*
G03*
X16856310Y-10716260I-25000J0D01*
G01*
X16970610Y-10182860D02*
G75*
G03*
X16970610Y-10182860I-25000J0D01*
G01*
X17034110Y-11008360D02*
G75*
G03*
X17034110Y-11008360I-25000J0D01*
G01*
X17034110Y-12214860D02*
G75*
G03*
X17034110Y-12214860I-25000J0D01*
G01*
X17097610Y-10716260D02*
G75*
G03*
X17097610Y-10716260I-25000J0D01*
G01*
X17161110Y-11988800D02*
G75*
G03*
X17161110Y-11988800I-25000J0D01*
G01*
X17351610Y-11198860D02*
G75*
G03*
X17351610Y-11198860I-25000J0D01*
G01*
X17351610Y-11516360D02*
G75*
G03*
X17351610Y-11516360I-25000J0D01*
G01*
X17351610Y-11681460D02*
G75*
G03*
X17351610Y-11681460I-25000J0D01*
G01*
X17351610Y-11833860D02*
G75*
G03*
X17351610Y-11833860I-25000J0D01*
G01*
X17455750Y-11953240D02*
G75*
G03*
X17455750Y-11953240I-25000J0D01*
G01*
X17529410Y-12087860D02*
G75*
G03*
X17529410Y-12087860I-25000J0D01*
G01*
X17529410Y-12240260D02*
G75*
G03*
X17529410Y-12240260I-25000J0D01*
G01*
X17669110Y-12532360D02*
G75*
G03*
X17669110Y-12532360I-25000J0D01*
G01*
X17796110Y-11325860D02*
G75*
G03*
X17796110Y-11325860I-25000J0D01*
G01*
X17796110Y-11833860D02*
G75*
G03*
X17796110Y-11833860I-25000J0D01*
G01*
X17923110Y-9103360D02*
G75*
G03*
X17923110Y-9103360I-25000J0D01*
G01*
X18050110Y-11325860D02*
G75*
G03*
X18050110Y-11325860I-25000J0D01*
G01*
X18050110Y-11833860D02*
G75*
G03*
X18050110Y-11833860I-25000J0D01*
G01*
D14*
X11594760Y-8978000D02*
X11594760Y-9038000D01*
X11564760Y-9008000D02*
X11624760Y-9008000D01*
D11*
X11565060Y-9038000D02*
X11624460Y-9038000D01*
X11624460Y-9038000D02*
G75*
G03*
X11624460Y-8978000I0J30000D01*
G01*
X11624460Y-8978000D02*
X11565060Y-8978000D01*
X11565060Y-8978000D02*
G75*
G03*
X11565060Y-9038000I0J-30000D01*
G01*
D14*
X11594760Y-9678000D02*
X11594760Y-9738000D01*
X11564760Y-9708000D02*
X11624760Y-9708000D01*
D11*
X11565060Y-9738000D02*
X11624460Y-9738000D01*
X11624460Y-9738000D02*
G75*
G03*
X11624460Y-9678000I0J30000D01*
G01*
X11624460Y-9678000D02*
X11565060Y-9678000D01*
X11565060Y-9678000D02*
G75*
G03*
X11565060Y-9738000I0J-30000D01*
G01*
D14*
X11862260Y-9078000D02*
X11862260Y-9138000D01*
X11832260Y-9108000D02*
X11892260Y-9108000D01*
D11*
X11832260Y-9093000D02*
X11832260Y-9123000D01*
X11832260Y-9123000D02*
G75*
G03*
X11892260Y-9123000I30000J0D01*
G01*
X11892260Y-9123000D02*
X11892260Y-9093000D01*
X11892260Y-9093000D02*
G75*
G03*
X11832260Y-9093000I-30000J0D01*
G01*
D14*
X11862260Y-9578000D02*
X11862260Y-9638000D01*
X11832260Y-9608000D02*
X11892260Y-9608000D01*
D11*
X11832260Y-9593000D02*
X11832260Y-9623000D01*
X11832260Y-9623000D02*
G75*
G03*
X11892260Y-9623000I30000J0D01*
G01*
X11892260Y-9623000D02*
X11892260Y-9593000D01*
X11892260Y-9593000D02*
G75*
G03*
X11832260Y-9593000I-30000J0D01*
G01*
D15*
X11873941Y-8707941D02*
X11873941Y-8654059D01*
X11820059Y-8654059D01*
X11820059Y-8707941D01*
X11873941Y-8707941D01*
X12127941Y-8707941D02*
X12127941Y-8654059D01*
X12074059Y-8654059D01*
X12074059Y-8707941D01*
X12127941Y-8707941D01*
D16*
X13300710Y-8129860D02*
X13343210Y-8087360D01*
X13300710Y-8044860D01*
X13258210Y-8087360D01*
X13300710Y-8129860D01*
X13554710Y-8129860D02*
X13597210Y-8087360D01*
X13554710Y-8044860D01*
X13512210Y-8087360D01*
X13554710Y-8129860D01*
X13808710Y-8129860D02*
X13851210Y-8087360D01*
X13808710Y-8044860D01*
X13766210Y-8087360D01*
X13808710Y-8129860D01*
X14062710Y-8129860D02*
X14105210Y-8087360D01*
X14062710Y-8044860D01*
X14020210Y-8087360D01*
X14062710Y-8129860D01*
X14215110Y-12955860D02*
X14257610Y-12913360D01*
X14215110Y-12870860D01*
X14172610Y-12913360D01*
X14215110Y-12955860D01*
X14316710Y-8129860D02*
X14359210Y-8087360D01*
X14316710Y-8044860D01*
X14274210Y-8087360D01*
X14316710Y-8129860D01*
X14469110Y-12955860D02*
X14511610Y-12913360D01*
X14469110Y-12870860D01*
X14426610Y-12913360D01*
X14469110Y-12955860D01*
X14570710Y-8129860D02*
X14613210Y-8087360D01*
X14570710Y-8044860D01*
X14528210Y-8087360D01*
X14570710Y-8129860D01*
X14723110Y-12955860D02*
X14765610Y-12913360D01*
X14723110Y-12870860D01*
X14680610Y-12913360D01*
X14723110Y-12955860D01*
X14824710Y-8129860D02*
X14867210Y-8087360D01*
X14824710Y-8044860D01*
X14782210Y-8087360D01*
X14824710Y-8129860D01*
X14977110Y-12955860D02*
X15019610Y-12913360D01*
X14977110Y-12870860D01*
X14934610Y-12913360D01*
X14977110Y-12955860D01*
X15078710Y-8129860D02*
X15121210Y-8087360D01*
X15078710Y-8044860D01*
X15036210Y-8087360D01*
X15078710Y-8129860D01*
X15231110Y-12955860D02*
X15273610Y-12913360D01*
X15231110Y-12870860D01*
X15188610Y-12913360D01*
X15231110Y-12955860D01*
X15332710Y-8129860D02*
X15375210Y-8087360D01*
X15332710Y-8044860D01*
X15290210Y-8087360D01*
X15332710Y-8129860D01*
X15485110Y-12955860D02*
X15527610Y-12913360D01*
X15485110Y-12870860D01*
X15442610Y-12913360D01*
X15485110Y-12955860D01*
X15586710Y-8129860D02*
X15629210Y-8087360D01*
X15586710Y-8044860D01*
X15544210Y-8087360D01*
X15586710Y-8129860D01*
X15739110Y-12955860D02*
X15781610Y-12913360D01*
X15739110Y-12870860D01*
X15696610Y-12913360D01*
X15739110Y-12955860D01*
X15993110Y-8129860D02*
X16035610Y-8087360D01*
X15993110Y-8044860D01*
X15950610Y-8087360D01*
X15993110Y-8129860D01*
X15993110Y-12955860D02*
X16035610Y-12913360D01*
X15993110Y-12870860D01*
X15950610Y-12913360D01*
X15993110Y-12955860D01*
X16247110Y-8129860D02*
X16289610Y-8087360D01*
X16247110Y-8044860D01*
X16204610Y-8087360D01*
X16247110Y-8129860D01*
X16501110Y-8129860D02*
X16543610Y-8087360D01*
X16501110Y-8044860D01*
X16458610Y-8087360D01*
X16501110Y-8129860D01*
X16501110Y-12955860D02*
X16543610Y-12913360D01*
X16501110Y-12870860D01*
X16458610Y-12913360D01*
X16501110Y-12955860D01*
X16755110Y-8129860D02*
X16797610Y-8087360D01*
X16755110Y-8044860D01*
X16712610Y-8087360D01*
X16755110Y-8129860D01*
X16755110Y-12955860D02*
X16797610Y-12913360D01*
X16755110Y-12870860D01*
X16712610Y-12913360D01*
X16755110Y-12955860D01*
X17009110Y-8129860D02*
X17051610Y-8087360D01*
X17009110Y-8044860D01*
X16966610Y-8087360D01*
X17009110Y-8129860D01*
X17009110Y-12955860D02*
X17051610Y-12913360D01*
X17009110Y-12870860D01*
X16966610Y-12913360D01*
X17009110Y-12955860D01*
X17263110Y-8129860D02*
X17305610Y-8087360D01*
X17263110Y-8044860D01*
X17220610Y-8087360D01*
X17263110Y-8129860D01*
X17263110Y-12955860D02*
X17305610Y-12913360D01*
X17263110Y-12870860D01*
X17220610Y-12913360D01*
X17263110Y-12955860D01*
X17517110Y-8129860D02*
X17559610Y-8087360D01*
X17517110Y-8044860D01*
X17474610Y-8087360D01*
X17517110Y-8129860D01*
X17517110Y-12955860D02*
X17559610Y-12913360D01*
X17517110Y-12870860D01*
X17474610Y-12913360D01*
X17517110Y-12955860D01*
X17771110Y-8129860D02*
X17813610Y-8087360D01*
X17771110Y-8044860D01*
X17728610Y-8087360D01*
X17771110Y-8129860D01*
X17771110Y-12955860D02*
X17813610Y-12913360D01*
X17771110Y-12870860D01*
X17728610Y-12913360D01*
X17771110Y-12955860D01*
D17*
X17736310Y-10071860D02*
X17831310Y-10166860D01*
X17831310Y-10071860D02*
X17736310Y-10166860D01*
X17831310Y-10119360D02*
G75*
G03*
X17831310Y-10119360I-47500J0D01*
G01*
X17736310Y-10325860D02*
X17831310Y-10420860D01*
X17831310Y-10325860D02*
X17736310Y-10420860D01*
X17831310Y-10373360D02*
G75*
G03*
X17831310Y-10373360I-47500J0D01*
G01*
X17736310Y-10579860D02*
X17831310Y-10674860D01*
X17831310Y-10579860D02*
X17736310Y-10674860D01*
X17831310Y-10627360D02*
G75*
G03*
X17831310Y-10627360I-47500J0D01*
G01*
X17990310Y-10071860D02*
X18085310Y-10166860D01*
X18085310Y-10071860D02*
X17990310Y-10166860D01*
X18085310Y-10119360D02*
G75*
G03*
X18085310Y-10119360I-47500J0D01*
G01*
X17990310Y-10325860D02*
X18085310Y-10420860D01*
X18085310Y-10325860D02*
X17990310Y-10420860D01*
X18085310Y-10373360D02*
G75*
G03*
X18085310Y-10373360I-47500J0D01*
G01*
X17990310Y-10579860D02*
X18085310Y-10674860D01*
X18085310Y-10579860D02*
X17990310Y-10674860D01*
X18085310Y-10627360D02*
G75*
G03*
X18085310Y-10627360I-47500J0D01*
G01*
D18*
X11925070Y-12195580D02*
X12055070Y-12325580D01*
X12055070Y-12195580D02*
X11925070Y-12325580D01*
X11990070Y-12195580D02*
X11990070Y-12325580D01*
X11925070Y-12260580D02*
X12055070Y-12260580D01*
X11925070Y-12271780D02*
X12055070Y-12401780D01*
X12055070Y-12271780D02*
X11925070Y-12401780D01*
X11990070Y-12271780D02*
X11990070Y-12401780D01*
X11925070Y-12336780D02*
X12055070Y-12336780D01*
X11925070Y-12347980D02*
X12055070Y-12477980D01*
X12055070Y-12347980D02*
X11925070Y-12477980D01*
X11990070Y-12347980D02*
X11990070Y-12477980D01*
X11925070Y-12412980D02*
X12055070Y-12412980D01*
X12148590Y-12772160D02*
X12278590Y-12902160D01*
X12278590Y-12772160D02*
X12148590Y-12902160D01*
X12213590Y-12772160D02*
X12213590Y-12902160D01*
X12148590Y-12837160D02*
X12278590Y-12837160D01*
X12224790Y-12772160D02*
X12354790Y-12902160D01*
X12354790Y-12772160D02*
X12224790Y-12902160D01*
X12289790Y-12772160D02*
X12289790Y-12902160D01*
X12224790Y-12837160D02*
X12354790Y-12837160D01*
X12300990Y-12772160D02*
X12430990Y-12902160D01*
X12430990Y-12772160D02*
X12300990Y-12902160D01*
X12365990Y-12772160D02*
X12365990Y-12902160D01*
X12300990Y-12837160D02*
X12430990Y-12837160D01*
X12524510Y-12195580D02*
X12654510Y-12325580D01*
X12654510Y-12195580D02*
X12524510Y-12325580D01*
X12589510Y-12195580D02*
X12589510Y-12325580D01*
X12524510Y-12260580D02*
X12654510Y-12260580D01*
X12524510Y-12271780D02*
X12654510Y-12401780D01*
X12654510Y-12271780D02*
X12524510Y-12401780D01*
X12589510Y-12271780D02*
X12589510Y-12401780D01*
X12524510Y-12336780D02*
X12654510Y-12336780D01*
X12524510Y-12347980D02*
X12654510Y-12477980D01*
X12654510Y-12347980D02*
X12524510Y-12477980D01*
X12589510Y-12347980D02*
X12589510Y-12477980D01*
X12524510Y-12412980D02*
X12654510Y-12412980D01*
D11*
X11656029Y-13473536D02*
X11656029Y-13273536D01*
X11656029Y-13273536D02*
X11703648Y-13273536D01*
X11703648Y-13273536D02*
X11732219Y-13283060D01*
X11732219Y-13283060D02*
X11751267Y-13302108D01*
X11751267Y-13302108D02*
X11760791Y-13321155D01*
X11760791Y-13321155D02*
X11770315Y-13359250D01*
X11770315Y-13359250D02*
X11770315Y-13387822D01*
X11770315Y-13387822D02*
X11760791Y-13425917D01*
X11760791Y-13425917D02*
X11751267Y-13444965D01*
X11751267Y-13444965D02*
X11732219Y-13464012D01*
X11732219Y-13464012D02*
X11703648Y-13473536D01*
X11703648Y-13473536D02*
X11656029Y-13473536D01*
X11856029Y-13473536D02*
X11856029Y-13340203D01*
X11856029Y-13378298D02*
X11865553Y-13359250D01*
X11865553Y-13359250D02*
X11875077Y-13349727D01*
X11875077Y-13349727D02*
X11894124Y-13340203D01*
X11894124Y-13340203D02*
X11913172Y-13340203D01*
X11979838Y-13473536D02*
X11979838Y-13340203D01*
X11979838Y-13273536D02*
X11970315Y-13283060D01*
X11970315Y-13283060D02*
X11979838Y-13292584D01*
X11979838Y-13292584D02*
X11989362Y-13283060D01*
X11989362Y-13283060D02*
X11979838Y-13273536D01*
X11979838Y-13273536D02*
X11979838Y-13292584D01*
X12103648Y-13473536D02*
X12084600Y-13464012D01*
X12084600Y-13464012D02*
X12075077Y-13444965D01*
X12075077Y-13444965D02*
X12075077Y-13273536D01*
X12208410Y-13473536D02*
X12189362Y-13464012D01*
X12189362Y-13464012D02*
X12179838Y-13444965D01*
X12179838Y-13444965D02*
X12179838Y-13273536D01*
X12404600Y-13473536D02*
X12404600Y-13273536D01*
X12404600Y-13273536D02*
X12471267Y-13416393D01*
X12471267Y-13416393D02*
X12537934Y-13273536D01*
X12537934Y-13273536D02*
X12537934Y-13473536D01*
X12718886Y-13473536D02*
X12718886Y-13368774D01*
X12718886Y-13368774D02*
X12709362Y-13349727D01*
X12709362Y-13349727D02*
X12690315Y-13340203D01*
X12690315Y-13340203D02*
X12652219Y-13340203D01*
X12652219Y-13340203D02*
X12633172Y-13349727D01*
X12718886Y-13464012D02*
X12699838Y-13473536D01*
X12699838Y-13473536D02*
X12652219Y-13473536D01*
X12652219Y-13473536D02*
X12633172Y-13464012D01*
X12633172Y-13464012D02*
X12623648Y-13444965D01*
X12623648Y-13444965D02*
X12623648Y-13425917D01*
X12623648Y-13425917D02*
X12633172Y-13406869D01*
X12633172Y-13406869D02*
X12652219Y-13397346D01*
X12652219Y-13397346D02*
X12699838Y-13397346D01*
X12699838Y-13397346D02*
X12718886Y-13387822D01*
X12814124Y-13340203D02*
X12814124Y-13540203D01*
X12814124Y-13349727D02*
X12833172Y-13340203D01*
X12833172Y-13340203D02*
X12871267Y-13340203D01*
X12871267Y-13340203D02*
X12890315Y-13349727D01*
X12890315Y-13349727D02*
X12899838Y-13359250D01*
X12899838Y-13359250D02*
X12909362Y-13378298D01*
X12909362Y-13378298D02*
X12909362Y-13435441D01*
X12909362Y-13435441D02*
X12899838Y-13454488D01*
X12899838Y-13454488D02*
X12890315Y-13464012D01*
X12890315Y-13464012D02*
X12871267Y-13473536D01*
X12871267Y-13473536D02*
X12833172Y-13473536D01*
X12833172Y-13473536D02*
X12814124Y-13464012D01*
X12995077Y-13454488D02*
X13004600Y-13464012D01*
X13004600Y-13464012D02*
X12995077Y-13473536D01*
X12995077Y-13473536D02*
X12985553Y-13464012D01*
X12985553Y-13464012D02*
X12995077Y-13454488D01*
X12995077Y-13454488D02*
X12995077Y-13473536D01*
X12995077Y-13349727D02*
X13004600Y-13359250D01*
X13004600Y-13359250D02*
X12995077Y-13368774D01*
X12995077Y-13368774D02*
X12985553Y-13359250D01*
X12985553Y-13359250D02*
X12995077Y-13349727D01*
X12995077Y-13349727D02*
X12995077Y-13368774D01*
D12*
X11368410Y-13800060D02*
X11408410Y-13840060D01*
X11408410Y-13800060D02*
X11368410Y-13840060D01*
D11*
X11694124Y-13693536D02*
X11713172Y-13693536D01*
X11713172Y-13693536D02*
X11732219Y-13703060D01*
X11732219Y-13703060D02*
X11741743Y-13712584D01*
X11741743Y-13712584D02*
X11751267Y-13731631D01*
X11751267Y-13731631D02*
X11760791Y-13769727D01*
X11760791Y-13769727D02*
X11760791Y-13817346D01*
X11760791Y-13817346D02*
X11751267Y-13855441D01*
X11751267Y-13855441D02*
X11741743Y-13874488D01*
X11741743Y-13874488D02*
X11732219Y-13884012D01*
X11732219Y-13884012D02*
X11713172Y-13893536D01*
X11713172Y-13893536D02*
X11694124Y-13893536D01*
X11694124Y-13893536D02*
X11675077Y-13884012D01*
X11675077Y-13884012D02*
X11665553Y-13874488D01*
X11665553Y-13874488D02*
X11656029Y-13855441D01*
X11656029Y-13855441D02*
X11646505Y-13817346D01*
X11646505Y-13817346D02*
X11646505Y-13769727D01*
X11646505Y-13769727D02*
X11656029Y-13731631D01*
X11656029Y-13731631D02*
X11665553Y-13712584D01*
X11665553Y-13712584D02*
X11675077Y-13703060D01*
X11675077Y-13703060D02*
X11694124Y-13693536D01*
X11846505Y-13874488D02*
X11856029Y-13884012D01*
X11856029Y-13884012D02*
X11846505Y-13893536D01*
X11846505Y-13893536D02*
X11836981Y-13884012D01*
X11836981Y-13884012D02*
X11846505Y-13874488D01*
X11846505Y-13874488D02*
X11846505Y-13893536D01*
X12027458Y-13760203D02*
X12027458Y-13893536D01*
X11979838Y-13684012D02*
X11932219Y-13826869D01*
X11932219Y-13826869D02*
X12056029Y-13826869D01*
X12170315Y-13693536D02*
X12189362Y-13693536D01*
X12189362Y-13693536D02*
X12208410Y-13703060D01*
X12208410Y-13703060D02*
X12217934Y-13712584D01*
X12217934Y-13712584D02*
X12227458Y-13731631D01*
X12227458Y-13731631D02*
X12236981Y-13769727D01*
X12236981Y-13769727D02*
X12236981Y-13817346D01*
X12236981Y-13817346D02*
X12227458Y-13855441D01*
X12227458Y-13855441D02*
X12217934Y-13874488D01*
X12217934Y-13874488D02*
X12208410Y-13884012D01*
X12208410Y-13884012D02*
X12189362Y-13893536D01*
X12189362Y-13893536D02*
X12170315Y-13893536D01*
X12170315Y-13893536D02*
X12151267Y-13884012D01*
X12151267Y-13884012D02*
X12141743Y-13874488D01*
X12141743Y-13874488D02*
X12132219Y-13855441D01*
X12132219Y-13855441D02*
X12122696Y-13817346D01*
X12122696Y-13817346D02*
X12122696Y-13769727D01*
X12122696Y-13769727D02*
X12132219Y-13731631D01*
X12132219Y-13731631D02*
X12141743Y-13712584D01*
X12141743Y-13712584D02*
X12151267Y-13703060D01*
X12151267Y-13703060D02*
X12170315Y-13693536D01*
X12360791Y-13693536D02*
X12379839Y-13693536D01*
X12379839Y-13693536D02*
X12398886Y-13703060D01*
X12398886Y-13703060D02*
X12408410Y-13712584D01*
X12408410Y-13712584D02*
X12417934Y-13731631D01*
X12417934Y-13731631D02*
X12427458Y-13769727D01*
X12427458Y-13769727D02*
X12427458Y-13817346D01*
X12427458Y-13817346D02*
X12417934Y-13855441D01*
X12417934Y-13855441D02*
X12408410Y-13874488D01*
X12408410Y-13874488D02*
X12398886Y-13884012D01*
X12398886Y-13884012D02*
X12379839Y-13893536D01*
X12379839Y-13893536D02*
X12360791Y-13893536D01*
X12360791Y-13893536D02*
X12341743Y-13884012D01*
X12341743Y-13884012D02*
X12332219Y-13874488D01*
X12332219Y-13874488D02*
X12322696Y-13855441D01*
X12322696Y-13855441D02*
X12313172Y-13817346D01*
X12313172Y-13817346D02*
X12313172Y-13769727D01*
X12313172Y-13769727D02*
X12322696Y-13731631D01*
X12322696Y-13731631D02*
X12332219Y-13712584D01*
X12332219Y-13712584D02*
X12341743Y-13703060D01*
X12341743Y-13703060D02*
X12360791Y-13693536D01*
X12513172Y-13893536D02*
X12513172Y-13760203D01*
X12513172Y-13779250D02*
X12522696Y-13769727D01*
X12522696Y-13769727D02*
X12541743Y-13760203D01*
X12541743Y-13760203D02*
X12570315Y-13760203D01*
X12570315Y-13760203D02*
X12589362Y-13769727D01*
X12589362Y-13769727D02*
X12598886Y-13788774D01*
X12598886Y-13788774D02*
X12598886Y-13893536D01*
X12598886Y-13788774D02*
X12608410Y-13769727D01*
X12608410Y-13769727D02*
X12627458Y-13760203D01*
X12627458Y-13760203D02*
X12656029Y-13760203D01*
X12656029Y-13760203D02*
X12675077Y-13769727D01*
X12675077Y-13769727D02*
X12684600Y-13788774D01*
X12684600Y-13788774D02*
X12684600Y-13893536D01*
X12779839Y-13893536D02*
X12779839Y-13760203D01*
X12779839Y-13779250D02*
X12789362Y-13769727D01*
X12789362Y-13769727D02*
X12808410Y-13760203D01*
X12808410Y-13760203D02*
X12836981Y-13760203D01*
X12836981Y-13760203D02*
X12856029Y-13769727D01*
X12856029Y-13769727D02*
X12865553Y-13788774D01*
X12865553Y-13788774D02*
X12865553Y-13893536D01*
X12865553Y-13788774D02*
X12875077Y-13769727D01*
X12875077Y-13769727D02*
X12894124Y-13760203D01*
X12894124Y-13760203D02*
X12922696Y-13760203D01*
X12922696Y-13760203D02*
X12941743Y-13769727D01*
X12941743Y-13769727D02*
X12951267Y-13788774D01*
X12951267Y-13788774D02*
X12951267Y-13893536D01*
X13309362Y-13684012D02*
X13137934Y-13941155D01*
X13534124Y-13693536D02*
X13553172Y-13693536D01*
X13553172Y-13693536D02*
X13572220Y-13703060D01*
X13572220Y-13703060D02*
X13581743Y-13712584D01*
X13581743Y-13712584D02*
X13591267Y-13731631D01*
X13591267Y-13731631D02*
X13600791Y-13769727D01*
X13600791Y-13769727D02*
X13600791Y-13817346D01*
X13600791Y-13817346D02*
X13591267Y-13855441D01*
X13591267Y-13855441D02*
X13581743Y-13874488D01*
X13581743Y-13874488D02*
X13572220Y-13884012D01*
X13572220Y-13884012D02*
X13553172Y-13893536D01*
X13553172Y-13893536D02*
X13534124Y-13893536D01*
X13534124Y-13893536D02*
X13515077Y-13884012D01*
X13515077Y-13884012D02*
X13505553Y-13874488D01*
X13505553Y-13874488D02*
X13496029Y-13855441D01*
X13496029Y-13855441D02*
X13486505Y-13817346D01*
X13486505Y-13817346D02*
X13486505Y-13769727D01*
X13486505Y-13769727D02*
X13496029Y-13731631D01*
X13496029Y-13731631D02*
X13505553Y-13712584D01*
X13505553Y-13712584D02*
X13515077Y-13703060D01*
X13515077Y-13703060D02*
X13534124Y-13693536D01*
X13686505Y-13874488D02*
X13696029Y-13884012D01*
X13696029Y-13884012D02*
X13686505Y-13893536D01*
X13686505Y-13893536D02*
X13676981Y-13884012D01*
X13676981Y-13884012D02*
X13686505Y-13874488D01*
X13686505Y-13874488D02*
X13686505Y-13893536D01*
X13819839Y-13693536D02*
X13838886Y-13693536D01*
X13838886Y-13693536D02*
X13857934Y-13703060D01*
X13857934Y-13703060D02*
X13867458Y-13712584D01*
X13867458Y-13712584D02*
X13876981Y-13731631D01*
X13876981Y-13731631D02*
X13886505Y-13769727D01*
X13886505Y-13769727D02*
X13886505Y-13817346D01*
X13886505Y-13817346D02*
X13876981Y-13855441D01*
X13876981Y-13855441D02*
X13867458Y-13874488D01*
X13867458Y-13874488D02*
X13857934Y-13884012D01*
X13857934Y-13884012D02*
X13838886Y-13893536D01*
X13838886Y-13893536D02*
X13819839Y-13893536D01*
X13819839Y-13893536D02*
X13800791Y-13884012D01*
X13800791Y-13884012D02*
X13791267Y-13874488D01*
X13791267Y-13874488D02*
X13781743Y-13855441D01*
X13781743Y-13855441D02*
X13772220Y-13817346D01*
X13772220Y-13817346D02*
X13772220Y-13769727D01*
X13772220Y-13769727D02*
X13781743Y-13731631D01*
X13781743Y-13731631D02*
X13791267Y-13712584D01*
X13791267Y-13712584D02*
X13800791Y-13703060D01*
X13800791Y-13703060D02*
X13819839Y-13693536D01*
X14076981Y-13893536D02*
X13962696Y-13893536D01*
X14019839Y-13893536D02*
X14019839Y-13693536D01*
X14019839Y-13693536D02*
X14000791Y-13722108D01*
X14000791Y-13722108D02*
X13981743Y-13741155D01*
X13981743Y-13741155D02*
X13962696Y-13750679D01*
X14257934Y-13693536D02*
X14162696Y-13693536D01*
X14162696Y-13693536D02*
X14153172Y-13788774D01*
X14153172Y-13788774D02*
X14162696Y-13779250D01*
X14162696Y-13779250D02*
X14181743Y-13769727D01*
X14181743Y-13769727D02*
X14229362Y-13769727D01*
X14229362Y-13769727D02*
X14248410Y-13779250D01*
X14248410Y-13779250D02*
X14257934Y-13788774D01*
X14257934Y-13788774D02*
X14267458Y-13807822D01*
X14267458Y-13807822D02*
X14267458Y-13855441D01*
X14267458Y-13855441D02*
X14257934Y-13874488D01*
X14257934Y-13874488D02*
X14248410Y-13884012D01*
X14248410Y-13884012D02*
X14229362Y-13893536D01*
X14229362Y-13893536D02*
X14181743Y-13893536D01*
X14181743Y-13893536D02*
X14162696Y-13884012D01*
X14162696Y-13884012D02*
X14153172Y-13874488D01*
X14334124Y-13693536D02*
X14467458Y-13693536D01*
X14467458Y-13693536D02*
X14381743Y-13893536D01*
X14534124Y-13693536D02*
X14534124Y-13731631D01*
X14610315Y-13693536D02*
X14610315Y-13731631D01*
X14873172Y-13969727D02*
X14863648Y-13960203D01*
X14863648Y-13960203D02*
X14844601Y-13931631D01*
X14844601Y-13931631D02*
X14835077Y-13912584D01*
X14835077Y-13912584D02*
X14825553Y-13884012D01*
X14825553Y-13884012D02*
X14816029Y-13836393D01*
X14816029Y-13836393D02*
X14816029Y-13798298D01*
X14816029Y-13798298D02*
X14825553Y-13750679D01*
X14825553Y-13750679D02*
X14835077Y-13722108D01*
X14835077Y-13722108D02*
X14844601Y-13703060D01*
X14844601Y-13703060D02*
X14863648Y-13674488D01*
X14863648Y-13674488D02*
X14873172Y-13664965D01*
X14930315Y-13693536D02*
X15054124Y-13693536D01*
X15054124Y-13693536D02*
X14987458Y-13769727D01*
X14987458Y-13769727D02*
X15016029Y-13769727D01*
X15016029Y-13769727D02*
X15035077Y-13779250D01*
X15035077Y-13779250D02*
X15044601Y-13788774D01*
X15044601Y-13788774D02*
X15054124Y-13807822D01*
X15054124Y-13807822D02*
X15054124Y-13855441D01*
X15054124Y-13855441D02*
X15044601Y-13874488D01*
X15044601Y-13874488D02*
X15035077Y-13884012D01*
X15035077Y-13884012D02*
X15016029Y-13893536D01*
X15016029Y-13893536D02*
X14958886Y-13893536D01*
X14958886Y-13893536D02*
X14939839Y-13884012D01*
X14939839Y-13884012D02*
X14930315Y-13874488D01*
X15259839Y-13893536D02*
X15259839Y-13693536D01*
X15345553Y-13893536D02*
X15345553Y-13788774D01*
X15345553Y-13788774D02*
X15336029Y-13769727D01*
X15336029Y-13769727D02*
X15316982Y-13760203D01*
X15316982Y-13760203D02*
X15288410Y-13760203D01*
X15288410Y-13760203D02*
X15269362Y-13769727D01*
X15269362Y-13769727D02*
X15259839Y-13779250D01*
X15469362Y-13893536D02*
X15450315Y-13884012D01*
X15450315Y-13884012D02*
X15440791Y-13874488D01*
X15440791Y-13874488D02*
X15431267Y-13855441D01*
X15431267Y-13855441D02*
X15431267Y-13798298D01*
X15431267Y-13798298D02*
X15440791Y-13779250D01*
X15440791Y-13779250D02*
X15450315Y-13769727D01*
X15450315Y-13769727D02*
X15469362Y-13760203D01*
X15469362Y-13760203D02*
X15497934Y-13760203D01*
X15497934Y-13760203D02*
X15516982Y-13769727D01*
X15516982Y-13769727D02*
X15526505Y-13779250D01*
X15526505Y-13779250D02*
X15536029Y-13798298D01*
X15536029Y-13798298D02*
X15536029Y-13855441D01*
X15536029Y-13855441D02*
X15526505Y-13874488D01*
X15526505Y-13874488D02*
X15516982Y-13884012D01*
X15516982Y-13884012D02*
X15497934Y-13893536D01*
X15497934Y-13893536D02*
X15469362Y-13893536D01*
X15650315Y-13893536D02*
X15631267Y-13884012D01*
X15631267Y-13884012D02*
X15621743Y-13864965D01*
X15621743Y-13864965D02*
X15621743Y-13693536D01*
X15802696Y-13884012D02*
X15783648Y-13893536D01*
X15783648Y-13893536D02*
X15745553Y-13893536D01*
X15745553Y-13893536D02*
X15726505Y-13884012D01*
X15726505Y-13884012D02*
X15716982Y-13864965D01*
X15716982Y-13864965D02*
X15716982Y-13788774D01*
X15716982Y-13788774D02*
X15726505Y-13769727D01*
X15726505Y-13769727D02*
X15745553Y-13760203D01*
X15745553Y-13760203D02*
X15783648Y-13760203D01*
X15783648Y-13760203D02*
X15802696Y-13769727D01*
X15802696Y-13769727D02*
X15812220Y-13788774D01*
X15812220Y-13788774D02*
X15812220Y-13807822D01*
X15812220Y-13807822D02*
X15716982Y-13826869D01*
X15888410Y-13884012D02*
X15907458Y-13893536D01*
X15907458Y-13893536D02*
X15945553Y-13893536D01*
X15945553Y-13893536D02*
X15964601Y-13884012D01*
X15964601Y-13884012D02*
X15974124Y-13864965D01*
X15974124Y-13864965D02*
X15974124Y-13855441D01*
X15974124Y-13855441D02*
X15964601Y-13836393D01*
X15964601Y-13836393D02*
X15945553Y-13826869D01*
X15945553Y-13826869D02*
X15916982Y-13826869D01*
X15916982Y-13826869D02*
X15897934Y-13817346D01*
X15897934Y-13817346D02*
X15888410Y-13798298D01*
X15888410Y-13798298D02*
X15888410Y-13788774D01*
X15888410Y-13788774D02*
X15897934Y-13769727D01*
X15897934Y-13769727D02*
X15916982Y-13760203D01*
X15916982Y-13760203D02*
X15945553Y-13760203D01*
X15945553Y-13760203D02*
X15964601Y-13769727D01*
X16040791Y-13969727D02*
X16050315Y-13960203D01*
X16050315Y-13960203D02*
X16069363Y-13931631D01*
X16069363Y-13931631D02*
X16078886Y-13912584D01*
X16078886Y-13912584D02*
X16088410Y-13884012D01*
X16088410Y-13884012D02*
X16097934Y-13836393D01*
X16097934Y-13836393D02*
X16097934Y-13798298D01*
X16097934Y-13798298D02*
X16088410Y-13750679D01*
X16088410Y-13750679D02*
X16078886Y-13722108D01*
X16078886Y-13722108D02*
X16069363Y-13703060D01*
X16069363Y-13703060D02*
X16050315Y-13674488D01*
X16050315Y-13674488D02*
X16040791Y-13664965D01*
D13*
X11408410Y-14084060D02*
G75*
G03*
X11408410Y-14084060I-25000J0D01*
G01*
D11*
X11694124Y-13957536D02*
X11713172Y-13957536D01*
X11713172Y-13957536D02*
X11732219Y-13967060D01*
X11732219Y-13967060D02*
X11741743Y-13976584D01*
X11741743Y-13976584D02*
X11751267Y-13995631D01*
X11751267Y-13995631D02*
X11760791Y-14033727D01*
X11760791Y-14033727D02*
X11760791Y-14081346D01*
X11760791Y-14081346D02*
X11751267Y-14119441D01*
X11751267Y-14119441D02*
X11741743Y-14138488D01*
X11741743Y-14138488D02*
X11732219Y-14148012D01*
X11732219Y-14148012D02*
X11713172Y-14157536D01*
X11713172Y-14157536D02*
X11694124Y-14157536D01*
X11694124Y-14157536D02*
X11675077Y-14148012D01*
X11675077Y-14148012D02*
X11665553Y-14138488D01*
X11665553Y-14138488D02*
X11656029Y-14119441D01*
X11656029Y-14119441D02*
X11646505Y-14081346D01*
X11646505Y-14081346D02*
X11646505Y-14033727D01*
X11646505Y-14033727D02*
X11656029Y-13995631D01*
X11656029Y-13995631D02*
X11665553Y-13976584D01*
X11665553Y-13976584D02*
X11675077Y-13967060D01*
X11675077Y-13967060D02*
X11694124Y-13957536D01*
X11846505Y-14138488D02*
X11856029Y-14148012D01*
X11856029Y-14148012D02*
X11846505Y-14157536D01*
X11846505Y-14157536D02*
X11836981Y-14148012D01*
X11836981Y-14148012D02*
X11846505Y-14138488D01*
X11846505Y-14138488D02*
X11846505Y-14157536D01*
X12036981Y-13957536D02*
X11941743Y-13957536D01*
X11941743Y-13957536D02*
X11932219Y-14052774D01*
X11932219Y-14052774D02*
X11941743Y-14043250D01*
X11941743Y-14043250D02*
X11960791Y-14033727D01*
X11960791Y-14033727D02*
X12008410Y-14033727D01*
X12008410Y-14033727D02*
X12027458Y-14043250D01*
X12027458Y-14043250D02*
X12036981Y-14052774D01*
X12036981Y-14052774D02*
X12046505Y-14071822D01*
X12046505Y-14071822D02*
X12046505Y-14119441D01*
X12046505Y-14119441D02*
X12036981Y-14138488D01*
X12036981Y-14138488D02*
X12027458Y-14148012D01*
X12027458Y-14148012D02*
X12008410Y-14157536D01*
X12008410Y-14157536D02*
X11960791Y-14157536D01*
X11960791Y-14157536D02*
X11941743Y-14148012D01*
X11941743Y-14148012D02*
X11932219Y-14138488D01*
X12170315Y-13957536D02*
X12189362Y-13957536D01*
X12189362Y-13957536D02*
X12208410Y-13967060D01*
X12208410Y-13967060D02*
X12217934Y-13976584D01*
X12217934Y-13976584D02*
X12227458Y-13995631D01*
X12227458Y-13995631D02*
X12236981Y-14033727D01*
X12236981Y-14033727D02*
X12236981Y-14081346D01*
X12236981Y-14081346D02*
X12227458Y-14119441D01*
X12227458Y-14119441D02*
X12217934Y-14138488D01*
X12217934Y-14138488D02*
X12208410Y-14148012D01*
X12208410Y-14148012D02*
X12189362Y-14157536D01*
X12189362Y-14157536D02*
X12170315Y-14157536D01*
X12170315Y-14157536D02*
X12151267Y-14148012D01*
X12151267Y-14148012D02*
X12141743Y-14138488D01*
X12141743Y-14138488D02*
X12132219Y-14119441D01*
X12132219Y-14119441D02*
X12122696Y-14081346D01*
X12122696Y-14081346D02*
X12122696Y-14033727D01*
X12122696Y-14033727D02*
X12132219Y-13995631D01*
X12132219Y-13995631D02*
X12141743Y-13976584D01*
X12141743Y-13976584D02*
X12151267Y-13967060D01*
X12151267Y-13967060D02*
X12170315Y-13957536D01*
X12360791Y-13957536D02*
X12379839Y-13957536D01*
X12379839Y-13957536D02*
X12398886Y-13967060D01*
X12398886Y-13967060D02*
X12408410Y-13976584D01*
X12408410Y-13976584D02*
X12417934Y-13995631D01*
X12417934Y-13995631D02*
X12427458Y-14033727D01*
X12427458Y-14033727D02*
X12427458Y-14081346D01*
X12427458Y-14081346D02*
X12417934Y-14119441D01*
X12417934Y-14119441D02*
X12408410Y-14138488D01*
X12408410Y-14138488D02*
X12398886Y-14148012D01*
X12398886Y-14148012D02*
X12379839Y-14157536D01*
X12379839Y-14157536D02*
X12360791Y-14157536D01*
X12360791Y-14157536D02*
X12341743Y-14148012D01*
X12341743Y-14148012D02*
X12332219Y-14138488D01*
X12332219Y-14138488D02*
X12322696Y-14119441D01*
X12322696Y-14119441D02*
X12313172Y-14081346D01*
X12313172Y-14081346D02*
X12313172Y-14033727D01*
X12313172Y-14033727D02*
X12322696Y-13995631D01*
X12322696Y-13995631D02*
X12332219Y-13976584D01*
X12332219Y-13976584D02*
X12341743Y-13967060D01*
X12341743Y-13967060D02*
X12360791Y-13957536D01*
X12513172Y-14157536D02*
X12513172Y-14024203D01*
X12513172Y-14043250D02*
X12522696Y-14033727D01*
X12522696Y-14033727D02*
X12541743Y-14024203D01*
X12541743Y-14024203D02*
X12570315Y-14024203D01*
X12570315Y-14024203D02*
X12589362Y-14033727D01*
X12589362Y-14033727D02*
X12598886Y-14052774D01*
X12598886Y-14052774D02*
X12598886Y-14157536D01*
X12598886Y-14052774D02*
X12608410Y-14033727D01*
X12608410Y-14033727D02*
X12627458Y-14024203D01*
X12627458Y-14024203D02*
X12656029Y-14024203D01*
X12656029Y-14024203D02*
X12675077Y-14033727D01*
X12675077Y-14033727D02*
X12684600Y-14052774D01*
X12684600Y-14052774D02*
X12684600Y-14157536D01*
X12779839Y-14157536D02*
X12779839Y-14024203D01*
X12779839Y-14043250D02*
X12789362Y-14033727D01*
X12789362Y-14033727D02*
X12808410Y-14024203D01*
X12808410Y-14024203D02*
X12836981Y-14024203D01*
X12836981Y-14024203D02*
X12856029Y-14033727D01*
X12856029Y-14033727D02*
X12865553Y-14052774D01*
X12865553Y-14052774D02*
X12865553Y-14157536D01*
X12865553Y-14052774D02*
X12875077Y-14033727D01*
X12875077Y-14033727D02*
X12894124Y-14024203D01*
X12894124Y-14024203D02*
X12922696Y-14024203D01*
X12922696Y-14024203D02*
X12941743Y-14033727D01*
X12941743Y-14033727D02*
X12951267Y-14052774D01*
X12951267Y-14052774D02*
X12951267Y-14157536D01*
X13309362Y-13948012D02*
X13137934Y-14205155D01*
X13534124Y-13957536D02*
X13553172Y-13957536D01*
X13553172Y-13957536D02*
X13572220Y-13967060D01*
X13572220Y-13967060D02*
X13581743Y-13976584D01*
X13581743Y-13976584D02*
X13591267Y-13995631D01*
X13591267Y-13995631D02*
X13600791Y-14033727D01*
X13600791Y-14033727D02*
X13600791Y-14081346D01*
X13600791Y-14081346D02*
X13591267Y-14119441D01*
X13591267Y-14119441D02*
X13581743Y-14138488D01*
X13581743Y-14138488D02*
X13572220Y-14148012D01*
X13572220Y-14148012D02*
X13553172Y-14157536D01*
X13553172Y-14157536D02*
X13534124Y-14157536D01*
X13534124Y-14157536D02*
X13515077Y-14148012D01*
X13515077Y-14148012D02*
X13505553Y-14138488D01*
X13505553Y-14138488D02*
X13496029Y-14119441D01*
X13496029Y-14119441D02*
X13486505Y-14081346D01*
X13486505Y-14081346D02*
X13486505Y-14033727D01*
X13486505Y-14033727D02*
X13496029Y-13995631D01*
X13496029Y-13995631D02*
X13505553Y-13976584D01*
X13505553Y-13976584D02*
X13515077Y-13967060D01*
X13515077Y-13967060D02*
X13534124Y-13957536D01*
X13686505Y-14138488D02*
X13696029Y-14148012D01*
X13696029Y-14148012D02*
X13686505Y-14157536D01*
X13686505Y-14157536D02*
X13676981Y-14148012D01*
X13676981Y-14148012D02*
X13686505Y-14138488D01*
X13686505Y-14138488D02*
X13686505Y-14157536D01*
X13819839Y-13957536D02*
X13838886Y-13957536D01*
X13838886Y-13957536D02*
X13857934Y-13967060D01*
X13857934Y-13967060D02*
X13867458Y-13976584D01*
X13867458Y-13976584D02*
X13876981Y-13995631D01*
X13876981Y-13995631D02*
X13886505Y-14033727D01*
X13886505Y-14033727D02*
X13886505Y-14081346D01*
X13886505Y-14081346D02*
X13876981Y-14119441D01*
X13876981Y-14119441D02*
X13867458Y-14138488D01*
X13867458Y-14138488D02*
X13857934Y-14148012D01*
X13857934Y-14148012D02*
X13838886Y-14157536D01*
X13838886Y-14157536D02*
X13819839Y-14157536D01*
X13819839Y-14157536D02*
X13800791Y-14148012D01*
X13800791Y-14148012D02*
X13791267Y-14138488D01*
X13791267Y-14138488D02*
X13781743Y-14119441D01*
X13781743Y-14119441D02*
X13772220Y-14081346D01*
X13772220Y-14081346D02*
X13772220Y-14033727D01*
X13772220Y-14033727D02*
X13781743Y-13995631D01*
X13781743Y-13995631D02*
X13791267Y-13976584D01*
X13791267Y-13976584D02*
X13800791Y-13967060D01*
X13800791Y-13967060D02*
X13819839Y-13957536D01*
X14076981Y-14157536D02*
X13962696Y-14157536D01*
X14019839Y-14157536D02*
X14019839Y-13957536D01*
X14019839Y-13957536D02*
X14000791Y-13986108D01*
X14000791Y-13986108D02*
X13981743Y-14005155D01*
X13981743Y-14005155D02*
X13962696Y-14014679D01*
X14172220Y-14157536D02*
X14210315Y-14157536D01*
X14210315Y-14157536D02*
X14229362Y-14148012D01*
X14229362Y-14148012D02*
X14238886Y-14138488D01*
X14238886Y-14138488D02*
X14257934Y-14109917D01*
X14257934Y-14109917D02*
X14267458Y-14071822D01*
X14267458Y-14071822D02*
X14267458Y-13995631D01*
X14267458Y-13995631D02*
X14257934Y-13976584D01*
X14257934Y-13976584D02*
X14248410Y-13967060D01*
X14248410Y-13967060D02*
X14229362Y-13957536D01*
X14229362Y-13957536D02*
X14191267Y-13957536D01*
X14191267Y-13957536D02*
X14172220Y-13967060D01*
X14172220Y-13967060D02*
X14162696Y-13976584D01*
X14162696Y-13976584D02*
X14153172Y-13995631D01*
X14153172Y-13995631D02*
X14153172Y-14043250D01*
X14153172Y-14043250D02*
X14162696Y-14062298D01*
X14162696Y-14062298D02*
X14172220Y-14071822D01*
X14172220Y-14071822D02*
X14191267Y-14081346D01*
X14191267Y-14081346D02*
X14229362Y-14081346D01*
X14229362Y-14081346D02*
X14248410Y-14071822D01*
X14248410Y-14071822D02*
X14257934Y-14062298D01*
X14257934Y-14062298D02*
X14267458Y-14043250D01*
X14334124Y-13957536D02*
X14467458Y-13957536D01*
X14467458Y-13957536D02*
X14381743Y-14157536D01*
X14534124Y-13957536D02*
X14534124Y-13995631D01*
X14610315Y-13957536D02*
X14610315Y-13995631D01*
X14873172Y-14233727D02*
X14863648Y-14224203D01*
X14863648Y-14224203D02*
X14844601Y-14195631D01*
X14844601Y-14195631D02*
X14835077Y-14176584D01*
X14835077Y-14176584D02*
X14825553Y-14148012D01*
X14825553Y-14148012D02*
X14816029Y-14100393D01*
X14816029Y-14100393D02*
X14816029Y-14062298D01*
X14816029Y-14062298D02*
X14825553Y-14014679D01*
X14825553Y-14014679D02*
X14835077Y-13986108D01*
X14835077Y-13986108D02*
X14844601Y-13967060D01*
X14844601Y-13967060D02*
X14863648Y-13938488D01*
X14863648Y-13938488D02*
X14873172Y-13928965D01*
X14958886Y-14157536D02*
X14996981Y-14157536D01*
X14996981Y-14157536D02*
X15016029Y-14148012D01*
X15016029Y-14148012D02*
X15025553Y-14138488D01*
X15025553Y-14138488D02*
X15044601Y-14109917D01*
X15044601Y-14109917D02*
X15054124Y-14071822D01*
X15054124Y-14071822D02*
X15054124Y-13995631D01*
X15054124Y-13995631D02*
X15044601Y-13976584D01*
X15044601Y-13976584D02*
X15035077Y-13967060D01*
X15035077Y-13967060D02*
X15016029Y-13957536D01*
X15016029Y-13957536D02*
X14977934Y-13957536D01*
X14977934Y-13957536D02*
X14958886Y-13967060D01*
X14958886Y-13967060D02*
X14949362Y-13976584D01*
X14949362Y-13976584D02*
X14939839Y-13995631D01*
X14939839Y-13995631D02*
X14939839Y-14043250D01*
X14939839Y-14043250D02*
X14949362Y-14062298D01*
X14949362Y-14062298D02*
X14958886Y-14071822D01*
X14958886Y-14071822D02*
X14977934Y-14081346D01*
X14977934Y-14081346D02*
X15016029Y-14081346D01*
X15016029Y-14081346D02*
X15035077Y-14071822D01*
X15035077Y-14071822D02*
X15044601Y-14062298D01*
X15044601Y-14062298D02*
X15054124Y-14043250D01*
X15225553Y-13957536D02*
X15187458Y-13957536D01*
X15187458Y-13957536D02*
X15168410Y-13967060D01*
X15168410Y-13967060D02*
X15158886Y-13976584D01*
X15158886Y-13976584D02*
X15139839Y-14005155D01*
X15139839Y-14005155D02*
X15130315Y-14043250D01*
X15130315Y-14043250D02*
X15130315Y-14119441D01*
X15130315Y-14119441D02*
X15139839Y-14138488D01*
X15139839Y-14138488D02*
X15149362Y-14148012D01*
X15149362Y-14148012D02*
X15168410Y-14157536D01*
X15168410Y-14157536D02*
X15206505Y-14157536D01*
X15206505Y-14157536D02*
X15225553Y-14148012D01*
X15225553Y-14148012D02*
X15235077Y-14138488D01*
X15235077Y-14138488D02*
X15244601Y-14119441D01*
X15244601Y-14119441D02*
X15244601Y-14071822D01*
X15244601Y-14071822D02*
X15235077Y-14052774D01*
X15235077Y-14052774D02*
X15225553Y-14043250D01*
X15225553Y-14043250D02*
X15206505Y-14033727D01*
X15206505Y-14033727D02*
X15168410Y-14033727D01*
X15168410Y-14033727D02*
X15149362Y-14043250D01*
X15149362Y-14043250D02*
X15139839Y-14052774D01*
X15139839Y-14052774D02*
X15130315Y-14071822D01*
X15450315Y-14157536D02*
X15450315Y-13957536D01*
X15536029Y-14157536D02*
X15536029Y-14052774D01*
X15536029Y-14052774D02*
X15526505Y-14033727D01*
X15526505Y-14033727D02*
X15507458Y-14024203D01*
X15507458Y-14024203D02*
X15478886Y-14024203D01*
X15478886Y-14024203D02*
X15459839Y-14033727D01*
X15459839Y-14033727D02*
X15450315Y-14043250D01*
X15659839Y-14157536D02*
X15640791Y-14148012D01*
X15640791Y-14148012D02*
X15631267Y-14138488D01*
X15631267Y-14138488D02*
X15621743Y-14119441D01*
X15621743Y-14119441D02*
X15621743Y-14062298D01*
X15621743Y-14062298D02*
X15631267Y-14043250D01*
X15631267Y-14043250D02*
X15640791Y-14033727D01*
X15640791Y-14033727D02*
X15659839Y-14024203D01*
X15659839Y-14024203D02*
X15688410Y-14024203D01*
X15688410Y-14024203D02*
X15707458Y-14033727D01*
X15707458Y-14033727D02*
X15716982Y-14043250D01*
X15716982Y-14043250D02*
X15726505Y-14062298D01*
X15726505Y-14062298D02*
X15726505Y-14119441D01*
X15726505Y-14119441D02*
X15716982Y-14138488D01*
X15716982Y-14138488D02*
X15707458Y-14148012D01*
X15707458Y-14148012D02*
X15688410Y-14157536D01*
X15688410Y-14157536D02*
X15659839Y-14157536D01*
X15840791Y-14157536D02*
X15821743Y-14148012D01*
X15821743Y-14148012D02*
X15812220Y-14128965D01*
X15812220Y-14128965D02*
X15812220Y-13957536D01*
X15993172Y-14148012D02*
X15974124Y-14157536D01*
X15974124Y-14157536D02*
X15936029Y-14157536D01*
X15936029Y-14157536D02*
X15916982Y-14148012D01*
X15916982Y-14148012D02*
X15907458Y-14128965D01*
X15907458Y-14128965D02*
X15907458Y-14052774D01*
X15907458Y-14052774D02*
X15916982Y-14033727D01*
X15916982Y-14033727D02*
X15936029Y-14024203D01*
X15936029Y-14024203D02*
X15974124Y-14024203D01*
X15974124Y-14024203D02*
X15993172Y-14033727D01*
X15993172Y-14033727D02*
X16002696Y-14052774D01*
X16002696Y-14052774D02*
X16002696Y-14071822D01*
X16002696Y-14071822D02*
X15907458Y-14090869D01*
X16078886Y-14148012D02*
X16097934Y-14157536D01*
X16097934Y-14157536D02*
X16136029Y-14157536D01*
X16136029Y-14157536D02*
X16155077Y-14148012D01*
X16155077Y-14148012D02*
X16164601Y-14128965D01*
X16164601Y-14128965D02*
X16164601Y-14119441D01*
X16164601Y-14119441D02*
X16155077Y-14100393D01*
X16155077Y-14100393D02*
X16136029Y-14090869D01*
X16136029Y-14090869D02*
X16107458Y-14090869D01*
X16107458Y-14090869D02*
X16088410Y-14081346D01*
X16088410Y-14081346D02*
X16078886Y-14062298D01*
X16078886Y-14062298D02*
X16078886Y-14052774D01*
X16078886Y-14052774D02*
X16088410Y-14033727D01*
X16088410Y-14033727D02*
X16107458Y-14024203D01*
X16107458Y-14024203D02*
X16136029Y-14024203D01*
X16136029Y-14024203D02*
X16155077Y-14033727D01*
X16231267Y-14233727D02*
X16240791Y-14224203D01*
X16240791Y-14224203D02*
X16259839Y-14195631D01*
X16259839Y-14195631D02*
X16269363Y-14176584D01*
X16269363Y-14176584D02*
X16278886Y-14148012D01*
X16278886Y-14148012D02*
X16288410Y-14100393D01*
X16288410Y-14100393D02*
X16288410Y-14062298D01*
X16288410Y-14062298D02*
X16278886Y-14014679D01*
X16278886Y-14014679D02*
X16269363Y-13986108D01*
X16269363Y-13986108D02*
X16259839Y-13967060D01*
X16259839Y-13967060D02*
X16240791Y-13938488D01*
X16240791Y-13938488D02*
X16231267Y-13928965D01*
D14*
X11378410Y-14318060D02*
X11378410Y-14378060D01*
X11348410Y-14348060D02*
X11408410Y-14348060D01*
D11*
X11694124Y-14221536D02*
X11713172Y-14221536D01*
X11713172Y-14221536D02*
X11732219Y-14231060D01*
X11732219Y-14231060D02*
X11741743Y-14240584D01*
X11741743Y-14240584D02*
X11751267Y-14259631D01*
X11751267Y-14259631D02*
X11760791Y-14297727D01*
X11760791Y-14297727D02*
X11760791Y-14345346D01*
X11760791Y-14345346D02*
X11751267Y-14383441D01*
X11751267Y-14383441D02*
X11741743Y-14402488D01*
X11741743Y-14402488D02*
X11732219Y-14412012D01*
X11732219Y-14412012D02*
X11713172Y-14421536D01*
X11713172Y-14421536D02*
X11694124Y-14421536D01*
X11694124Y-14421536D02*
X11675077Y-14412012D01*
X11675077Y-14412012D02*
X11665553Y-14402488D01*
X11665553Y-14402488D02*
X11656029Y-14383441D01*
X11656029Y-14383441D02*
X11646505Y-14345346D01*
X11646505Y-14345346D02*
X11646505Y-14297727D01*
X11646505Y-14297727D02*
X11656029Y-14259631D01*
X11656029Y-14259631D02*
X11665553Y-14240584D01*
X11665553Y-14240584D02*
X11675077Y-14231060D01*
X11675077Y-14231060D02*
X11694124Y-14221536D01*
X11846505Y-14402488D02*
X11856029Y-14412012D01*
X11856029Y-14412012D02*
X11846505Y-14421536D01*
X11846505Y-14421536D02*
X11836981Y-14412012D01*
X11836981Y-14412012D02*
X11846505Y-14402488D01*
X11846505Y-14402488D02*
X11846505Y-14421536D01*
X12027458Y-14221536D02*
X11989362Y-14221536D01*
X11989362Y-14221536D02*
X11970315Y-14231060D01*
X11970315Y-14231060D02*
X11960791Y-14240584D01*
X11960791Y-14240584D02*
X11941743Y-14269155D01*
X11941743Y-14269155D02*
X11932219Y-14307250D01*
X11932219Y-14307250D02*
X11932219Y-14383441D01*
X11932219Y-14383441D02*
X11941743Y-14402488D01*
X11941743Y-14402488D02*
X11951267Y-14412012D01*
X11951267Y-14412012D02*
X11970315Y-14421536D01*
X11970315Y-14421536D02*
X12008410Y-14421536D01*
X12008410Y-14421536D02*
X12027458Y-14412012D01*
X12027458Y-14412012D02*
X12036981Y-14402488D01*
X12036981Y-14402488D02*
X12046505Y-14383441D01*
X12046505Y-14383441D02*
X12046505Y-14335822D01*
X12046505Y-14335822D02*
X12036981Y-14316774D01*
X12036981Y-14316774D02*
X12027458Y-14307250D01*
X12027458Y-14307250D02*
X12008410Y-14297727D01*
X12008410Y-14297727D02*
X11970315Y-14297727D01*
X11970315Y-14297727D02*
X11951267Y-14307250D01*
X11951267Y-14307250D02*
X11941743Y-14316774D01*
X11941743Y-14316774D02*
X11932219Y-14335822D01*
X12170315Y-14221536D02*
X12189362Y-14221536D01*
X12189362Y-14221536D02*
X12208410Y-14231060D01*
X12208410Y-14231060D02*
X12217934Y-14240584D01*
X12217934Y-14240584D02*
X12227458Y-14259631D01*
X12227458Y-14259631D02*
X12236981Y-14297727D01*
X12236981Y-14297727D02*
X12236981Y-14345346D01*
X12236981Y-14345346D02*
X12227458Y-14383441D01*
X12227458Y-14383441D02*
X12217934Y-14402488D01*
X12217934Y-14402488D02*
X12208410Y-14412012D01*
X12208410Y-14412012D02*
X12189362Y-14421536D01*
X12189362Y-14421536D02*
X12170315Y-14421536D01*
X12170315Y-14421536D02*
X12151267Y-14412012D01*
X12151267Y-14412012D02*
X12141743Y-14402488D01*
X12141743Y-14402488D02*
X12132219Y-14383441D01*
X12132219Y-14383441D02*
X12122696Y-14345346D01*
X12122696Y-14345346D02*
X12122696Y-14297727D01*
X12122696Y-14297727D02*
X12132219Y-14259631D01*
X12132219Y-14259631D02*
X12141743Y-14240584D01*
X12141743Y-14240584D02*
X12151267Y-14231060D01*
X12151267Y-14231060D02*
X12170315Y-14221536D01*
X12360791Y-14221536D02*
X12379839Y-14221536D01*
X12379839Y-14221536D02*
X12398886Y-14231060D01*
X12398886Y-14231060D02*
X12408410Y-14240584D01*
X12408410Y-14240584D02*
X12417934Y-14259631D01*
X12417934Y-14259631D02*
X12427458Y-14297727D01*
X12427458Y-14297727D02*
X12427458Y-14345346D01*
X12427458Y-14345346D02*
X12417934Y-14383441D01*
X12417934Y-14383441D02*
X12408410Y-14402488D01*
X12408410Y-14402488D02*
X12398886Y-14412012D01*
X12398886Y-14412012D02*
X12379839Y-14421536D01*
X12379839Y-14421536D02*
X12360791Y-14421536D01*
X12360791Y-14421536D02*
X12341743Y-14412012D01*
X12341743Y-14412012D02*
X12332219Y-14402488D01*
X12332219Y-14402488D02*
X12322696Y-14383441D01*
X12322696Y-14383441D02*
X12313172Y-14345346D01*
X12313172Y-14345346D02*
X12313172Y-14297727D01*
X12313172Y-14297727D02*
X12322696Y-14259631D01*
X12322696Y-14259631D02*
X12332219Y-14240584D01*
X12332219Y-14240584D02*
X12341743Y-14231060D01*
X12341743Y-14231060D02*
X12360791Y-14221536D01*
X12513172Y-14421536D02*
X12513172Y-14288203D01*
X12513172Y-14307250D02*
X12522696Y-14297727D01*
X12522696Y-14297727D02*
X12541743Y-14288203D01*
X12541743Y-14288203D02*
X12570315Y-14288203D01*
X12570315Y-14288203D02*
X12589362Y-14297727D01*
X12589362Y-14297727D02*
X12598886Y-14316774D01*
X12598886Y-14316774D02*
X12598886Y-14421536D01*
X12598886Y-14316774D02*
X12608410Y-14297727D01*
X12608410Y-14297727D02*
X12627458Y-14288203D01*
X12627458Y-14288203D02*
X12656029Y-14288203D01*
X12656029Y-14288203D02*
X12675077Y-14297727D01*
X12675077Y-14297727D02*
X12684600Y-14316774D01*
X12684600Y-14316774D02*
X12684600Y-14421536D01*
X12779839Y-14421536D02*
X12779839Y-14288203D01*
X12779839Y-14307250D02*
X12789362Y-14297727D01*
X12789362Y-14297727D02*
X12808410Y-14288203D01*
X12808410Y-14288203D02*
X12836981Y-14288203D01*
X12836981Y-14288203D02*
X12856029Y-14297727D01*
X12856029Y-14297727D02*
X12865553Y-14316774D01*
X12865553Y-14316774D02*
X12865553Y-14421536D01*
X12865553Y-14316774D02*
X12875077Y-14297727D01*
X12875077Y-14297727D02*
X12894124Y-14288203D01*
X12894124Y-14288203D02*
X12922696Y-14288203D01*
X12922696Y-14288203D02*
X12941743Y-14297727D01*
X12941743Y-14297727D02*
X12951267Y-14316774D01*
X12951267Y-14316774D02*
X12951267Y-14421536D01*
X13309362Y-14212012D02*
X13137934Y-14469155D01*
X13534124Y-14221536D02*
X13553172Y-14221536D01*
X13553172Y-14221536D02*
X13572220Y-14231060D01*
X13572220Y-14231060D02*
X13581743Y-14240584D01*
X13581743Y-14240584D02*
X13591267Y-14259631D01*
X13591267Y-14259631D02*
X13600791Y-14297727D01*
X13600791Y-14297727D02*
X13600791Y-14345346D01*
X13600791Y-14345346D02*
X13591267Y-14383441D01*
X13591267Y-14383441D02*
X13581743Y-14402488D01*
X13581743Y-14402488D02*
X13572220Y-14412012D01*
X13572220Y-14412012D02*
X13553172Y-14421536D01*
X13553172Y-14421536D02*
X13534124Y-14421536D01*
X13534124Y-14421536D02*
X13515077Y-14412012D01*
X13515077Y-14412012D02*
X13505553Y-14402488D01*
X13505553Y-14402488D02*
X13496029Y-14383441D01*
X13496029Y-14383441D02*
X13486505Y-14345346D01*
X13486505Y-14345346D02*
X13486505Y-14297727D01*
X13486505Y-14297727D02*
X13496029Y-14259631D01*
X13496029Y-14259631D02*
X13505553Y-14240584D01*
X13505553Y-14240584D02*
X13515077Y-14231060D01*
X13515077Y-14231060D02*
X13534124Y-14221536D01*
X13686505Y-14402488D02*
X13696029Y-14412012D01*
X13696029Y-14412012D02*
X13686505Y-14421536D01*
X13686505Y-14421536D02*
X13676981Y-14412012D01*
X13676981Y-14412012D02*
X13686505Y-14402488D01*
X13686505Y-14402488D02*
X13686505Y-14421536D01*
X13819839Y-14221536D02*
X13838886Y-14221536D01*
X13838886Y-14221536D02*
X13857934Y-14231060D01*
X13857934Y-14231060D02*
X13867458Y-14240584D01*
X13867458Y-14240584D02*
X13876981Y-14259631D01*
X13876981Y-14259631D02*
X13886505Y-14297727D01*
X13886505Y-14297727D02*
X13886505Y-14345346D01*
X13886505Y-14345346D02*
X13876981Y-14383441D01*
X13876981Y-14383441D02*
X13867458Y-14402488D01*
X13867458Y-14402488D02*
X13857934Y-14412012D01*
X13857934Y-14412012D02*
X13838886Y-14421536D01*
X13838886Y-14421536D02*
X13819839Y-14421536D01*
X13819839Y-14421536D02*
X13800791Y-14412012D01*
X13800791Y-14412012D02*
X13791267Y-14402488D01*
X13791267Y-14402488D02*
X13781743Y-14383441D01*
X13781743Y-14383441D02*
X13772220Y-14345346D01*
X13772220Y-14345346D02*
X13772220Y-14297727D01*
X13772220Y-14297727D02*
X13781743Y-14259631D01*
X13781743Y-14259631D02*
X13791267Y-14240584D01*
X13791267Y-14240584D02*
X13800791Y-14231060D01*
X13800791Y-14231060D02*
X13819839Y-14221536D01*
X13962696Y-14240584D02*
X13972220Y-14231060D01*
X13972220Y-14231060D02*
X13991267Y-14221536D01*
X13991267Y-14221536D02*
X14038886Y-14221536D01*
X14038886Y-14221536D02*
X14057934Y-14231060D01*
X14057934Y-14231060D02*
X14067458Y-14240584D01*
X14067458Y-14240584D02*
X14076981Y-14259631D01*
X14076981Y-14259631D02*
X14076981Y-14278679D01*
X14076981Y-14278679D02*
X14067458Y-14307250D01*
X14067458Y-14307250D02*
X13953172Y-14421536D01*
X13953172Y-14421536D02*
X14076981Y-14421536D01*
X14143648Y-14221536D02*
X14267458Y-14221536D01*
X14267458Y-14221536D02*
X14200791Y-14297727D01*
X14200791Y-14297727D02*
X14229362Y-14297727D01*
X14229362Y-14297727D02*
X14248410Y-14307250D01*
X14248410Y-14307250D02*
X14257934Y-14316774D01*
X14257934Y-14316774D02*
X14267458Y-14335822D01*
X14267458Y-14335822D02*
X14267458Y-14383441D01*
X14267458Y-14383441D02*
X14257934Y-14402488D01*
X14257934Y-14402488D02*
X14248410Y-14412012D01*
X14248410Y-14412012D02*
X14229362Y-14421536D01*
X14229362Y-14421536D02*
X14172220Y-14421536D01*
X14172220Y-14421536D02*
X14153172Y-14412012D01*
X14153172Y-14412012D02*
X14143648Y-14402488D01*
X14438886Y-14221536D02*
X14400791Y-14221536D01*
X14400791Y-14221536D02*
X14381743Y-14231060D01*
X14381743Y-14231060D02*
X14372220Y-14240584D01*
X14372220Y-14240584D02*
X14353172Y-14269155D01*
X14353172Y-14269155D02*
X14343648Y-14307250D01*
X14343648Y-14307250D02*
X14343648Y-14383441D01*
X14343648Y-14383441D02*
X14353172Y-14402488D01*
X14353172Y-14402488D02*
X14362696Y-14412012D01*
X14362696Y-14412012D02*
X14381743Y-14421536D01*
X14381743Y-14421536D02*
X14419839Y-14421536D01*
X14419839Y-14421536D02*
X14438886Y-14412012D01*
X14438886Y-14412012D02*
X14448410Y-14402488D01*
X14448410Y-14402488D02*
X14457934Y-14383441D01*
X14457934Y-14383441D02*
X14457934Y-14335822D01*
X14457934Y-14335822D02*
X14448410Y-14316774D01*
X14448410Y-14316774D02*
X14438886Y-14307250D01*
X14438886Y-14307250D02*
X14419839Y-14297727D01*
X14419839Y-14297727D02*
X14381743Y-14297727D01*
X14381743Y-14297727D02*
X14362696Y-14307250D01*
X14362696Y-14307250D02*
X14353172Y-14316774D01*
X14353172Y-14316774D02*
X14343648Y-14335822D01*
X14534124Y-14221536D02*
X14534124Y-14259631D01*
X14610315Y-14221536D02*
X14610315Y-14259631D01*
X14873172Y-14497727D02*
X14863648Y-14488203D01*
X14863648Y-14488203D02*
X14844601Y-14459631D01*
X14844601Y-14459631D02*
X14835077Y-14440584D01*
X14835077Y-14440584D02*
X14825553Y-14412012D01*
X14825553Y-14412012D02*
X14816029Y-14364393D01*
X14816029Y-14364393D02*
X14816029Y-14326298D01*
X14816029Y-14326298D02*
X14825553Y-14278679D01*
X14825553Y-14278679D02*
X14835077Y-14250108D01*
X14835077Y-14250108D02*
X14844601Y-14231060D01*
X14844601Y-14231060D02*
X14863648Y-14202488D01*
X14863648Y-14202488D02*
X14873172Y-14192965D01*
X14987458Y-14221536D02*
X15006505Y-14221536D01*
X15006505Y-14221536D02*
X15025553Y-14231060D01*
X15025553Y-14231060D02*
X15035077Y-14240584D01*
X15035077Y-14240584D02*
X15044601Y-14259631D01*
X15044601Y-14259631D02*
X15054124Y-14297727D01*
X15054124Y-14297727D02*
X15054124Y-14345346D01*
X15054124Y-14345346D02*
X15044601Y-14383441D01*
X15044601Y-14383441D02*
X15035077Y-14402488D01*
X15035077Y-14402488D02*
X15025553Y-14412012D01*
X15025553Y-14412012D02*
X15006505Y-14421536D01*
X15006505Y-14421536D02*
X14987458Y-14421536D01*
X14987458Y-14421536D02*
X14968410Y-14412012D01*
X14968410Y-14412012D02*
X14958886Y-14402488D01*
X14958886Y-14402488D02*
X14949362Y-14383441D01*
X14949362Y-14383441D02*
X14939839Y-14345346D01*
X14939839Y-14345346D02*
X14939839Y-14297727D01*
X14939839Y-14297727D02*
X14949362Y-14259631D01*
X14949362Y-14259631D02*
X14958886Y-14240584D01*
X14958886Y-14240584D02*
X14968410Y-14231060D01*
X14968410Y-14231060D02*
X14987458Y-14221536D01*
X15259839Y-14421536D02*
X15259839Y-14221536D01*
X15345553Y-14421536D02*
X15345553Y-14316774D01*
X15345553Y-14316774D02*
X15336029Y-14297727D01*
X15336029Y-14297727D02*
X15316982Y-14288203D01*
X15316982Y-14288203D02*
X15288410Y-14288203D01*
X15288410Y-14288203D02*
X15269362Y-14297727D01*
X15269362Y-14297727D02*
X15259839Y-14307250D01*
X15469362Y-14421536D02*
X15450315Y-14412012D01*
X15450315Y-14412012D02*
X15440791Y-14402488D01*
X15440791Y-14402488D02*
X15431267Y-14383441D01*
X15431267Y-14383441D02*
X15431267Y-14326298D01*
X15431267Y-14326298D02*
X15440791Y-14307250D01*
X15440791Y-14307250D02*
X15450315Y-14297727D01*
X15450315Y-14297727D02*
X15469362Y-14288203D01*
X15469362Y-14288203D02*
X15497934Y-14288203D01*
X15497934Y-14288203D02*
X15516982Y-14297727D01*
X15516982Y-14297727D02*
X15526505Y-14307250D01*
X15526505Y-14307250D02*
X15536029Y-14326298D01*
X15536029Y-14326298D02*
X15536029Y-14383441D01*
X15536029Y-14383441D02*
X15526505Y-14402488D01*
X15526505Y-14402488D02*
X15516982Y-14412012D01*
X15516982Y-14412012D02*
X15497934Y-14421536D01*
X15497934Y-14421536D02*
X15469362Y-14421536D01*
X15650315Y-14421536D02*
X15631267Y-14412012D01*
X15631267Y-14412012D02*
X15621743Y-14392965D01*
X15621743Y-14392965D02*
X15621743Y-14221536D01*
X15802696Y-14412012D02*
X15783648Y-14421536D01*
X15783648Y-14421536D02*
X15745553Y-14421536D01*
X15745553Y-14421536D02*
X15726505Y-14412012D01*
X15726505Y-14412012D02*
X15716982Y-14392965D01*
X15716982Y-14392965D02*
X15716982Y-14316774D01*
X15716982Y-14316774D02*
X15726505Y-14297727D01*
X15726505Y-14297727D02*
X15745553Y-14288203D01*
X15745553Y-14288203D02*
X15783648Y-14288203D01*
X15783648Y-14288203D02*
X15802696Y-14297727D01*
X15802696Y-14297727D02*
X15812220Y-14316774D01*
X15812220Y-14316774D02*
X15812220Y-14335822D01*
X15812220Y-14335822D02*
X15716982Y-14354869D01*
X15888410Y-14412012D02*
X15907458Y-14421536D01*
X15907458Y-14421536D02*
X15945553Y-14421536D01*
X15945553Y-14421536D02*
X15964601Y-14412012D01*
X15964601Y-14412012D02*
X15974124Y-14392965D01*
X15974124Y-14392965D02*
X15974124Y-14383441D01*
X15974124Y-14383441D02*
X15964601Y-14364393D01*
X15964601Y-14364393D02*
X15945553Y-14354869D01*
X15945553Y-14354869D02*
X15916982Y-14354869D01*
X15916982Y-14354869D02*
X15897934Y-14345346D01*
X15897934Y-14345346D02*
X15888410Y-14326298D01*
X15888410Y-14326298D02*
X15888410Y-14316774D01*
X15888410Y-14316774D02*
X15897934Y-14297727D01*
X15897934Y-14297727D02*
X15916982Y-14288203D01*
X15916982Y-14288203D02*
X15945553Y-14288203D01*
X15945553Y-14288203D02*
X15964601Y-14297727D01*
X16179839Y-14345346D02*
X16332220Y-14345346D01*
X16256029Y-14421536D02*
X16256029Y-14269155D01*
X16633172Y-14288203D02*
X16633172Y-14421536D01*
X16585553Y-14212012D02*
X16537934Y-14354869D01*
X16537934Y-14354869D02*
X16661743Y-14354869D01*
X16848410Y-14412012D02*
X16867458Y-14421536D01*
X16867458Y-14421536D02*
X16905553Y-14421536D01*
X16905553Y-14421536D02*
X16924601Y-14412012D01*
X16924601Y-14412012D02*
X16934125Y-14392965D01*
X16934125Y-14392965D02*
X16934125Y-14383441D01*
X16934125Y-14383441D02*
X16924601Y-14364393D01*
X16924601Y-14364393D02*
X16905553Y-14354869D01*
X16905553Y-14354869D02*
X16876982Y-14354869D01*
X16876982Y-14354869D02*
X16857934Y-14345346D01*
X16857934Y-14345346D02*
X16848410Y-14326298D01*
X16848410Y-14326298D02*
X16848410Y-14316774D01*
X16848410Y-14316774D02*
X16857934Y-14297727D01*
X16857934Y-14297727D02*
X16876982Y-14288203D01*
X16876982Y-14288203D02*
X16905553Y-14288203D01*
X16905553Y-14288203D02*
X16924601Y-14297727D01*
X17048410Y-14421536D02*
X17029363Y-14412012D01*
X17029363Y-14412012D02*
X17019839Y-14392965D01*
X17019839Y-14392965D02*
X17019839Y-14221536D01*
X17153172Y-14421536D02*
X17134125Y-14412012D01*
X17134125Y-14412012D02*
X17124601Y-14402488D01*
X17124601Y-14402488D02*
X17115077Y-14383441D01*
X17115077Y-14383441D02*
X17115077Y-14326298D01*
X17115077Y-14326298D02*
X17124601Y-14307250D01*
X17124601Y-14307250D02*
X17134125Y-14297727D01*
X17134125Y-14297727D02*
X17153172Y-14288203D01*
X17153172Y-14288203D02*
X17181744Y-14288203D01*
X17181744Y-14288203D02*
X17200791Y-14297727D01*
X17200791Y-14297727D02*
X17210315Y-14307250D01*
X17210315Y-14307250D02*
X17219839Y-14326298D01*
X17219839Y-14326298D02*
X17219839Y-14383441D01*
X17219839Y-14383441D02*
X17210315Y-14402488D01*
X17210315Y-14402488D02*
X17200791Y-14412012D01*
X17200791Y-14412012D02*
X17181744Y-14421536D01*
X17181744Y-14421536D02*
X17153172Y-14421536D01*
X17276982Y-14288203D02*
X17353172Y-14288203D01*
X17305553Y-14221536D02*
X17305553Y-14392965D01*
X17305553Y-14392965D02*
X17315077Y-14412012D01*
X17315077Y-14412012D02*
X17334125Y-14421536D01*
X17334125Y-14421536D02*
X17353172Y-14421536D01*
X17410315Y-14412012D02*
X17429363Y-14421536D01*
X17429363Y-14421536D02*
X17467458Y-14421536D01*
X17467458Y-14421536D02*
X17486506Y-14412012D01*
X17486506Y-14412012D02*
X17496029Y-14392965D01*
X17496029Y-14392965D02*
X17496029Y-14383441D01*
X17496029Y-14383441D02*
X17486506Y-14364393D01*
X17486506Y-14364393D02*
X17467458Y-14354869D01*
X17467458Y-14354869D02*
X17438886Y-14354869D01*
X17438886Y-14354869D02*
X17419839Y-14345346D01*
X17419839Y-14345346D02*
X17410315Y-14326298D01*
X17410315Y-14326298D02*
X17410315Y-14316774D01*
X17410315Y-14316774D02*
X17419839Y-14297727D01*
X17419839Y-14297727D02*
X17438886Y-14288203D01*
X17438886Y-14288203D02*
X17467458Y-14288203D01*
X17467458Y-14288203D02*
X17486506Y-14297727D01*
X17562696Y-14497727D02*
X17572220Y-14488203D01*
X17572220Y-14488203D02*
X17591267Y-14459631D01*
X17591267Y-14459631D02*
X17600791Y-14440584D01*
X17600791Y-14440584D02*
X17610315Y-14412012D01*
X17610315Y-14412012D02*
X17619839Y-14364393D01*
X17619839Y-14364393D02*
X17619839Y-14326298D01*
X17619839Y-14326298D02*
X17610315Y-14278679D01*
X17610315Y-14278679D02*
X17600791Y-14250108D01*
X17600791Y-14250108D02*
X17591267Y-14231060D01*
X17591267Y-14231060D02*
X17572220Y-14202488D01*
X17572220Y-14202488D02*
X17562696Y-14192965D01*
D15*
X11397251Y-14639001D02*
X11397251Y-14585119D01*
X11343369Y-14585119D01*
X11343369Y-14639001D01*
X11397251Y-14639001D01*
D11*
X11694124Y-14485536D02*
X11713172Y-14485536D01*
X11713172Y-14485536D02*
X11732219Y-14495060D01*
X11732219Y-14495060D02*
X11741743Y-14504584D01*
X11741743Y-14504584D02*
X11751267Y-14523631D01*
X11751267Y-14523631D02*
X11760791Y-14561727D01*
X11760791Y-14561727D02*
X11760791Y-14609346D01*
X11760791Y-14609346D02*
X11751267Y-14647441D01*
X11751267Y-14647441D02*
X11741743Y-14666488D01*
X11741743Y-14666488D02*
X11732219Y-14676012D01*
X11732219Y-14676012D02*
X11713172Y-14685536D01*
X11713172Y-14685536D02*
X11694124Y-14685536D01*
X11694124Y-14685536D02*
X11675077Y-14676012D01*
X11675077Y-14676012D02*
X11665553Y-14666488D01*
X11665553Y-14666488D02*
X11656029Y-14647441D01*
X11656029Y-14647441D02*
X11646505Y-14609346D01*
X11646505Y-14609346D02*
X11646505Y-14561727D01*
X11646505Y-14561727D02*
X11656029Y-14523631D01*
X11656029Y-14523631D02*
X11665553Y-14504584D01*
X11665553Y-14504584D02*
X11675077Y-14495060D01*
X11675077Y-14495060D02*
X11694124Y-14485536D01*
X11846505Y-14666488D02*
X11856029Y-14676012D01*
X11856029Y-14676012D02*
X11846505Y-14685536D01*
X11846505Y-14685536D02*
X11836981Y-14676012D01*
X11836981Y-14676012D02*
X11846505Y-14666488D01*
X11846505Y-14666488D02*
X11846505Y-14685536D01*
X11922696Y-14485536D02*
X12056029Y-14485536D01*
X12056029Y-14485536D02*
X11970315Y-14685536D01*
X12217934Y-14485536D02*
X12179838Y-14485536D01*
X12179838Y-14485536D02*
X12160791Y-14495060D01*
X12160791Y-14495060D02*
X12151267Y-14504584D01*
X12151267Y-14504584D02*
X12132219Y-14533155D01*
X12132219Y-14533155D02*
X12122696Y-14571250D01*
X12122696Y-14571250D02*
X12122696Y-14647441D01*
X12122696Y-14647441D02*
X12132219Y-14666488D01*
X12132219Y-14666488D02*
X12141743Y-14676012D01*
X12141743Y-14676012D02*
X12160791Y-14685536D01*
X12160791Y-14685536D02*
X12198886Y-14685536D01*
X12198886Y-14685536D02*
X12217934Y-14676012D01*
X12217934Y-14676012D02*
X12227458Y-14666488D01*
X12227458Y-14666488D02*
X12236981Y-14647441D01*
X12236981Y-14647441D02*
X12236981Y-14599822D01*
X12236981Y-14599822D02*
X12227458Y-14580774D01*
X12227458Y-14580774D02*
X12217934Y-14571250D01*
X12217934Y-14571250D02*
X12198886Y-14561727D01*
X12198886Y-14561727D02*
X12160791Y-14561727D01*
X12160791Y-14561727D02*
X12141743Y-14571250D01*
X12141743Y-14571250D02*
X12132219Y-14580774D01*
X12132219Y-14580774D02*
X12122696Y-14599822D01*
X12313172Y-14504584D02*
X12322696Y-14495060D01*
X12322696Y-14495060D02*
X12341743Y-14485536D01*
X12341743Y-14485536D02*
X12389362Y-14485536D01*
X12389362Y-14485536D02*
X12408410Y-14495060D01*
X12408410Y-14495060D02*
X12417934Y-14504584D01*
X12417934Y-14504584D02*
X12427458Y-14523631D01*
X12427458Y-14523631D02*
X12427458Y-14542679D01*
X12427458Y-14542679D02*
X12417934Y-14571250D01*
X12417934Y-14571250D02*
X12303648Y-14685536D01*
X12303648Y-14685536D02*
X12427458Y-14685536D01*
X12513172Y-14685536D02*
X12513172Y-14552203D01*
X12513172Y-14571250D02*
X12522696Y-14561727D01*
X12522696Y-14561727D02*
X12541743Y-14552203D01*
X12541743Y-14552203D02*
X12570315Y-14552203D01*
X12570315Y-14552203D02*
X12589362Y-14561727D01*
X12589362Y-14561727D02*
X12598886Y-14580774D01*
X12598886Y-14580774D02*
X12598886Y-14685536D01*
X12598886Y-14580774D02*
X12608410Y-14561727D01*
X12608410Y-14561727D02*
X12627458Y-14552203D01*
X12627458Y-14552203D02*
X12656029Y-14552203D01*
X12656029Y-14552203D02*
X12675077Y-14561727D01*
X12675077Y-14561727D02*
X12684600Y-14580774D01*
X12684600Y-14580774D02*
X12684600Y-14685536D01*
X12779839Y-14685536D02*
X12779839Y-14552203D01*
X12779839Y-14571250D02*
X12789362Y-14561727D01*
X12789362Y-14561727D02*
X12808410Y-14552203D01*
X12808410Y-14552203D02*
X12836981Y-14552203D01*
X12836981Y-14552203D02*
X12856029Y-14561727D01*
X12856029Y-14561727D02*
X12865553Y-14580774D01*
X12865553Y-14580774D02*
X12865553Y-14685536D01*
X12865553Y-14580774D02*
X12875077Y-14561727D01*
X12875077Y-14561727D02*
X12894124Y-14552203D01*
X12894124Y-14552203D02*
X12922696Y-14552203D01*
X12922696Y-14552203D02*
X12941743Y-14561727D01*
X12941743Y-14561727D02*
X12951267Y-14580774D01*
X12951267Y-14580774D02*
X12951267Y-14685536D01*
X13309362Y-14476012D02*
X13137934Y-14733155D01*
X13534124Y-14485536D02*
X13553172Y-14485536D01*
X13553172Y-14485536D02*
X13572220Y-14495060D01*
X13572220Y-14495060D02*
X13581743Y-14504584D01*
X13581743Y-14504584D02*
X13591267Y-14523631D01*
X13591267Y-14523631D02*
X13600791Y-14561727D01*
X13600791Y-14561727D02*
X13600791Y-14609346D01*
X13600791Y-14609346D02*
X13591267Y-14647441D01*
X13591267Y-14647441D02*
X13581743Y-14666488D01*
X13581743Y-14666488D02*
X13572220Y-14676012D01*
X13572220Y-14676012D02*
X13553172Y-14685536D01*
X13553172Y-14685536D02*
X13534124Y-14685536D01*
X13534124Y-14685536D02*
X13515077Y-14676012D01*
X13515077Y-14676012D02*
X13505553Y-14666488D01*
X13505553Y-14666488D02*
X13496029Y-14647441D01*
X13496029Y-14647441D02*
X13486505Y-14609346D01*
X13486505Y-14609346D02*
X13486505Y-14561727D01*
X13486505Y-14561727D02*
X13496029Y-14523631D01*
X13496029Y-14523631D02*
X13505553Y-14504584D01*
X13505553Y-14504584D02*
X13515077Y-14495060D01*
X13515077Y-14495060D02*
X13534124Y-14485536D01*
X13686505Y-14666488D02*
X13696029Y-14676012D01*
X13696029Y-14676012D02*
X13686505Y-14685536D01*
X13686505Y-14685536D02*
X13676981Y-14676012D01*
X13676981Y-14676012D02*
X13686505Y-14666488D01*
X13686505Y-14666488D02*
X13686505Y-14685536D01*
X13819839Y-14485536D02*
X13838886Y-14485536D01*
X13838886Y-14485536D02*
X13857934Y-14495060D01*
X13857934Y-14495060D02*
X13867458Y-14504584D01*
X13867458Y-14504584D02*
X13876981Y-14523631D01*
X13876981Y-14523631D02*
X13886505Y-14561727D01*
X13886505Y-14561727D02*
X13886505Y-14609346D01*
X13886505Y-14609346D02*
X13876981Y-14647441D01*
X13876981Y-14647441D02*
X13867458Y-14666488D01*
X13867458Y-14666488D02*
X13857934Y-14676012D01*
X13857934Y-14676012D02*
X13838886Y-14685536D01*
X13838886Y-14685536D02*
X13819839Y-14685536D01*
X13819839Y-14685536D02*
X13800791Y-14676012D01*
X13800791Y-14676012D02*
X13791267Y-14666488D01*
X13791267Y-14666488D02*
X13781743Y-14647441D01*
X13781743Y-14647441D02*
X13772220Y-14609346D01*
X13772220Y-14609346D02*
X13772220Y-14561727D01*
X13772220Y-14561727D02*
X13781743Y-14523631D01*
X13781743Y-14523631D02*
X13791267Y-14504584D01*
X13791267Y-14504584D02*
X13800791Y-14495060D01*
X13800791Y-14495060D02*
X13819839Y-14485536D01*
X13953172Y-14485536D02*
X14076981Y-14485536D01*
X14076981Y-14485536D02*
X14010315Y-14561727D01*
X14010315Y-14561727D02*
X14038886Y-14561727D01*
X14038886Y-14561727D02*
X14057934Y-14571250D01*
X14057934Y-14571250D02*
X14067458Y-14580774D01*
X14067458Y-14580774D02*
X14076981Y-14599822D01*
X14076981Y-14599822D02*
X14076981Y-14647441D01*
X14076981Y-14647441D02*
X14067458Y-14666488D01*
X14067458Y-14666488D02*
X14057934Y-14676012D01*
X14057934Y-14676012D02*
X14038886Y-14685536D01*
X14038886Y-14685536D02*
X13981743Y-14685536D01*
X13981743Y-14685536D02*
X13962696Y-14676012D01*
X13962696Y-14676012D02*
X13953172Y-14666488D01*
X14200791Y-14485536D02*
X14219839Y-14485536D01*
X14219839Y-14485536D02*
X14238886Y-14495060D01*
X14238886Y-14495060D02*
X14248410Y-14504584D01*
X14248410Y-14504584D02*
X14257934Y-14523631D01*
X14257934Y-14523631D02*
X14267458Y-14561727D01*
X14267458Y-14561727D02*
X14267458Y-14609346D01*
X14267458Y-14609346D02*
X14257934Y-14647441D01*
X14257934Y-14647441D02*
X14248410Y-14666488D01*
X14248410Y-14666488D02*
X14238886Y-14676012D01*
X14238886Y-14676012D02*
X14219839Y-14685536D01*
X14219839Y-14685536D02*
X14200791Y-14685536D01*
X14200791Y-14685536D02*
X14181743Y-14676012D01*
X14181743Y-14676012D02*
X14172220Y-14666488D01*
X14172220Y-14666488D02*
X14162696Y-14647441D01*
X14162696Y-14647441D02*
X14153172Y-14609346D01*
X14153172Y-14609346D02*
X14153172Y-14561727D01*
X14153172Y-14561727D02*
X14162696Y-14523631D01*
X14162696Y-14523631D02*
X14172220Y-14504584D01*
X14172220Y-14504584D02*
X14181743Y-14495060D01*
X14181743Y-14495060D02*
X14200791Y-14485536D01*
X14391267Y-14485536D02*
X14410315Y-14485536D01*
X14410315Y-14485536D02*
X14429362Y-14495060D01*
X14429362Y-14495060D02*
X14438886Y-14504584D01*
X14438886Y-14504584D02*
X14448410Y-14523631D01*
X14448410Y-14523631D02*
X14457934Y-14561727D01*
X14457934Y-14561727D02*
X14457934Y-14609346D01*
X14457934Y-14609346D02*
X14448410Y-14647441D01*
X14448410Y-14647441D02*
X14438886Y-14666488D01*
X14438886Y-14666488D02*
X14429362Y-14676012D01*
X14429362Y-14676012D02*
X14410315Y-14685536D01*
X14410315Y-14685536D02*
X14391267Y-14685536D01*
X14391267Y-14685536D02*
X14372220Y-14676012D01*
X14372220Y-14676012D02*
X14362696Y-14666488D01*
X14362696Y-14666488D02*
X14353172Y-14647441D01*
X14353172Y-14647441D02*
X14343648Y-14609346D01*
X14343648Y-14609346D02*
X14343648Y-14561727D01*
X14343648Y-14561727D02*
X14353172Y-14523631D01*
X14353172Y-14523631D02*
X14362696Y-14504584D01*
X14362696Y-14504584D02*
X14372220Y-14495060D01*
X14372220Y-14495060D02*
X14391267Y-14485536D01*
X14534124Y-14485536D02*
X14534124Y-14523631D01*
X14610315Y-14485536D02*
X14610315Y-14523631D01*
X14873172Y-14761727D02*
X14863648Y-14752203D01*
X14863648Y-14752203D02*
X14844601Y-14723631D01*
X14844601Y-14723631D02*
X14835077Y-14704584D01*
X14835077Y-14704584D02*
X14825553Y-14676012D01*
X14825553Y-14676012D02*
X14816029Y-14628393D01*
X14816029Y-14628393D02*
X14816029Y-14590298D01*
X14816029Y-14590298D02*
X14825553Y-14542679D01*
X14825553Y-14542679D02*
X14835077Y-14514108D01*
X14835077Y-14514108D02*
X14844601Y-14495060D01*
X14844601Y-14495060D02*
X14863648Y-14466488D01*
X14863648Y-14466488D02*
X14873172Y-14456965D01*
X14939839Y-14504584D02*
X14949362Y-14495060D01*
X14949362Y-14495060D02*
X14968410Y-14485536D01*
X14968410Y-14485536D02*
X15016029Y-14485536D01*
X15016029Y-14485536D02*
X15035077Y-14495060D01*
X15035077Y-14495060D02*
X15044601Y-14504584D01*
X15044601Y-14504584D02*
X15054124Y-14523631D01*
X15054124Y-14523631D02*
X15054124Y-14542679D01*
X15054124Y-14542679D02*
X15044601Y-14571250D01*
X15044601Y-14571250D02*
X14930315Y-14685536D01*
X14930315Y-14685536D02*
X15054124Y-14685536D01*
X15259839Y-14685536D02*
X15259839Y-14485536D01*
X15345553Y-14685536D02*
X15345553Y-14580774D01*
X15345553Y-14580774D02*
X15336029Y-14561727D01*
X15336029Y-14561727D02*
X15316982Y-14552203D01*
X15316982Y-14552203D02*
X15288410Y-14552203D01*
X15288410Y-14552203D02*
X15269362Y-14561727D01*
X15269362Y-14561727D02*
X15259839Y-14571250D01*
X15469362Y-14685536D02*
X15450315Y-14676012D01*
X15450315Y-14676012D02*
X15440791Y-14666488D01*
X15440791Y-14666488D02*
X15431267Y-14647441D01*
X15431267Y-14647441D02*
X15431267Y-14590298D01*
X15431267Y-14590298D02*
X15440791Y-14571250D01*
X15440791Y-14571250D02*
X15450315Y-14561727D01*
X15450315Y-14561727D02*
X15469362Y-14552203D01*
X15469362Y-14552203D02*
X15497934Y-14552203D01*
X15497934Y-14552203D02*
X15516982Y-14561727D01*
X15516982Y-14561727D02*
X15526505Y-14571250D01*
X15526505Y-14571250D02*
X15536029Y-14590298D01*
X15536029Y-14590298D02*
X15536029Y-14647441D01*
X15536029Y-14647441D02*
X15526505Y-14666488D01*
X15526505Y-14666488D02*
X15516982Y-14676012D01*
X15516982Y-14676012D02*
X15497934Y-14685536D01*
X15497934Y-14685536D02*
X15469362Y-14685536D01*
X15650315Y-14685536D02*
X15631267Y-14676012D01*
X15631267Y-14676012D02*
X15621743Y-14656965D01*
X15621743Y-14656965D02*
X15621743Y-14485536D01*
X15802696Y-14676012D02*
X15783648Y-14685536D01*
X15783648Y-14685536D02*
X15745553Y-14685536D01*
X15745553Y-14685536D02*
X15726505Y-14676012D01*
X15726505Y-14676012D02*
X15716982Y-14656965D01*
X15716982Y-14656965D02*
X15716982Y-14580774D01*
X15716982Y-14580774D02*
X15726505Y-14561727D01*
X15726505Y-14561727D02*
X15745553Y-14552203D01*
X15745553Y-14552203D02*
X15783648Y-14552203D01*
X15783648Y-14552203D02*
X15802696Y-14561727D01*
X15802696Y-14561727D02*
X15812220Y-14580774D01*
X15812220Y-14580774D02*
X15812220Y-14599822D01*
X15812220Y-14599822D02*
X15716982Y-14618869D01*
X15888410Y-14676012D02*
X15907458Y-14685536D01*
X15907458Y-14685536D02*
X15945553Y-14685536D01*
X15945553Y-14685536D02*
X15964601Y-14676012D01*
X15964601Y-14676012D02*
X15974124Y-14656965D01*
X15974124Y-14656965D02*
X15974124Y-14647441D01*
X15974124Y-14647441D02*
X15964601Y-14628393D01*
X15964601Y-14628393D02*
X15945553Y-14618869D01*
X15945553Y-14618869D02*
X15916982Y-14618869D01*
X15916982Y-14618869D02*
X15897934Y-14609346D01*
X15897934Y-14609346D02*
X15888410Y-14590298D01*
X15888410Y-14590298D02*
X15888410Y-14580774D01*
X15888410Y-14580774D02*
X15897934Y-14561727D01*
X15897934Y-14561727D02*
X15916982Y-14552203D01*
X15916982Y-14552203D02*
X15945553Y-14552203D01*
X15945553Y-14552203D02*
X15964601Y-14561727D01*
X16040791Y-14761727D02*
X16050315Y-14752203D01*
X16050315Y-14752203D02*
X16069363Y-14723631D01*
X16069363Y-14723631D02*
X16078886Y-14704584D01*
X16078886Y-14704584D02*
X16088410Y-14676012D01*
X16088410Y-14676012D02*
X16097934Y-14628393D01*
X16097934Y-14628393D02*
X16097934Y-14590298D01*
X16097934Y-14590298D02*
X16088410Y-14542679D01*
X16088410Y-14542679D02*
X16078886Y-14514108D01*
X16078886Y-14514108D02*
X16069363Y-14495060D01*
X16069363Y-14495060D02*
X16050315Y-14466488D01*
X16050315Y-14466488D02*
X16040791Y-14456965D01*
D16*
X11365910Y-14918560D02*
X11408410Y-14876060D01*
X11365910Y-14833560D01*
X11323410Y-14876060D01*
X11365910Y-14918560D01*
D11*
X11694124Y-14749536D02*
X11713172Y-14749536D01*
X11713172Y-14749536D02*
X11732219Y-14759060D01*
X11732219Y-14759060D02*
X11741743Y-14768584D01*
X11741743Y-14768584D02*
X11751267Y-14787631D01*
X11751267Y-14787631D02*
X11760791Y-14825727D01*
X11760791Y-14825727D02*
X11760791Y-14873346D01*
X11760791Y-14873346D02*
X11751267Y-14911441D01*
X11751267Y-14911441D02*
X11741743Y-14930488D01*
X11741743Y-14930488D02*
X11732219Y-14940012D01*
X11732219Y-14940012D02*
X11713172Y-14949536D01*
X11713172Y-14949536D02*
X11694124Y-14949536D01*
X11694124Y-14949536D02*
X11675077Y-14940012D01*
X11675077Y-14940012D02*
X11665553Y-14930488D01*
X11665553Y-14930488D02*
X11656029Y-14911441D01*
X11656029Y-14911441D02*
X11646505Y-14873346D01*
X11646505Y-14873346D02*
X11646505Y-14825727D01*
X11646505Y-14825727D02*
X11656029Y-14787631D01*
X11656029Y-14787631D02*
X11665553Y-14768584D01*
X11665553Y-14768584D02*
X11675077Y-14759060D01*
X11675077Y-14759060D02*
X11694124Y-14749536D01*
X11846505Y-14930488D02*
X11856029Y-14940012D01*
X11856029Y-14940012D02*
X11846505Y-14949536D01*
X11846505Y-14949536D02*
X11836981Y-14940012D01*
X11836981Y-14940012D02*
X11846505Y-14930488D01*
X11846505Y-14930488D02*
X11846505Y-14949536D01*
X11970315Y-14835250D02*
X11951267Y-14825727D01*
X11951267Y-14825727D02*
X11941743Y-14816203D01*
X11941743Y-14816203D02*
X11932219Y-14797155D01*
X11932219Y-14797155D02*
X11932219Y-14787631D01*
X11932219Y-14787631D02*
X11941743Y-14768584D01*
X11941743Y-14768584D02*
X11951267Y-14759060D01*
X11951267Y-14759060D02*
X11970315Y-14749536D01*
X11970315Y-14749536D02*
X12008410Y-14749536D01*
X12008410Y-14749536D02*
X12027458Y-14759060D01*
X12027458Y-14759060D02*
X12036981Y-14768584D01*
X12036981Y-14768584D02*
X12046505Y-14787631D01*
X12046505Y-14787631D02*
X12046505Y-14797155D01*
X12046505Y-14797155D02*
X12036981Y-14816203D01*
X12036981Y-14816203D02*
X12027458Y-14825727D01*
X12027458Y-14825727D02*
X12008410Y-14835250D01*
X12008410Y-14835250D02*
X11970315Y-14835250D01*
X11970315Y-14835250D02*
X11951267Y-14844774D01*
X11951267Y-14844774D02*
X11941743Y-14854298D01*
X11941743Y-14854298D02*
X11932219Y-14873346D01*
X11932219Y-14873346D02*
X11932219Y-14911441D01*
X11932219Y-14911441D02*
X11941743Y-14930488D01*
X11941743Y-14930488D02*
X11951267Y-14940012D01*
X11951267Y-14940012D02*
X11970315Y-14949536D01*
X11970315Y-14949536D02*
X12008410Y-14949536D01*
X12008410Y-14949536D02*
X12027458Y-14940012D01*
X12027458Y-14940012D02*
X12036981Y-14930488D01*
X12036981Y-14930488D02*
X12046505Y-14911441D01*
X12046505Y-14911441D02*
X12046505Y-14873346D01*
X12046505Y-14873346D02*
X12036981Y-14854298D01*
X12036981Y-14854298D02*
X12027458Y-14844774D01*
X12027458Y-14844774D02*
X12008410Y-14835250D01*
X12227458Y-14749536D02*
X12132219Y-14749536D01*
X12132219Y-14749536D02*
X12122696Y-14844774D01*
X12122696Y-14844774D02*
X12132219Y-14835250D01*
X12132219Y-14835250D02*
X12151267Y-14825727D01*
X12151267Y-14825727D02*
X12198886Y-14825727D01*
X12198886Y-14825727D02*
X12217934Y-14835250D01*
X12217934Y-14835250D02*
X12227458Y-14844774D01*
X12227458Y-14844774D02*
X12236981Y-14863822D01*
X12236981Y-14863822D02*
X12236981Y-14911441D01*
X12236981Y-14911441D02*
X12227458Y-14930488D01*
X12227458Y-14930488D02*
X12217934Y-14940012D01*
X12217934Y-14940012D02*
X12198886Y-14949536D01*
X12198886Y-14949536D02*
X12151267Y-14949536D01*
X12151267Y-14949536D02*
X12132219Y-14940012D01*
X12132219Y-14940012D02*
X12122696Y-14930488D01*
X12360791Y-14749536D02*
X12379839Y-14749536D01*
X12379839Y-14749536D02*
X12398886Y-14759060D01*
X12398886Y-14759060D02*
X12408410Y-14768584D01*
X12408410Y-14768584D02*
X12417934Y-14787631D01*
X12417934Y-14787631D02*
X12427458Y-14825727D01*
X12427458Y-14825727D02*
X12427458Y-14873346D01*
X12427458Y-14873346D02*
X12417934Y-14911441D01*
X12417934Y-14911441D02*
X12408410Y-14930488D01*
X12408410Y-14930488D02*
X12398886Y-14940012D01*
X12398886Y-14940012D02*
X12379839Y-14949536D01*
X12379839Y-14949536D02*
X12360791Y-14949536D01*
X12360791Y-14949536D02*
X12341743Y-14940012D01*
X12341743Y-14940012D02*
X12332219Y-14930488D01*
X12332219Y-14930488D02*
X12322696Y-14911441D01*
X12322696Y-14911441D02*
X12313172Y-14873346D01*
X12313172Y-14873346D02*
X12313172Y-14825727D01*
X12313172Y-14825727D02*
X12322696Y-14787631D01*
X12322696Y-14787631D02*
X12332219Y-14768584D01*
X12332219Y-14768584D02*
X12341743Y-14759060D01*
X12341743Y-14759060D02*
X12360791Y-14749536D01*
X12513172Y-14949536D02*
X12513172Y-14816203D01*
X12513172Y-14835250D02*
X12522696Y-14825727D01*
X12522696Y-14825727D02*
X12541743Y-14816203D01*
X12541743Y-14816203D02*
X12570315Y-14816203D01*
X12570315Y-14816203D02*
X12589362Y-14825727D01*
X12589362Y-14825727D02*
X12598886Y-14844774D01*
X12598886Y-14844774D02*
X12598886Y-14949536D01*
X12598886Y-14844774D02*
X12608410Y-14825727D01*
X12608410Y-14825727D02*
X12627458Y-14816203D01*
X12627458Y-14816203D02*
X12656029Y-14816203D01*
X12656029Y-14816203D02*
X12675077Y-14825727D01*
X12675077Y-14825727D02*
X12684600Y-14844774D01*
X12684600Y-14844774D02*
X12684600Y-14949536D01*
X12779839Y-14949536D02*
X12779839Y-14816203D01*
X12779839Y-14835250D02*
X12789362Y-14825727D01*
X12789362Y-14825727D02*
X12808410Y-14816203D01*
X12808410Y-14816203D02*
X12836981Y-14816203D01*
X12836981Y-14816203D02*
X12856029Y-14825727D01*
X12856029Y-14825727D02*
X12865553Y-14844774D01*
X12865553Y-14844774D02*
X12865553Y-14949536D01*
X12865553Y-14844774D02*
X12875077Y-14825727D01*
X12875077Y-14825727D02*
X12894124Y-14816203D01*
X12894124Y-14816203D02*
X12922696Y-14816203D01*
X12922696Y-14816203D02*
X12941743Y-14825727D01*
X12941743Y-14825727D02*
X12951267Y-14844774D01*
X12951267Y-14844774D02*
X12951267Y-14949536D01*
X13309362Y-14740012D02*
X13137934Y-14997155D01*
X13534124Y-14749536D02*
X13553172Y-14749536D01*
X13553172Y-14749536D02*
X13572220Y-14759060D01*
X13572220Y-14759060D02*
X13581743Y-14768584D01*
X13581743Y-14768584D02*
X13591267Y-14787631D01*
X13591267Y-14787631D02*
X13600791Y-14825727D01*
X13600791Y-14825727D02*
X13600791Y-14873346D01*
X13600791Y-14873346D02*
X13591267Y-14911441D01*
X13591267Y-14911441D02*
X13581743Y-14930488D01*
X13581743Y-14930488D02*
X13572220Y-14940012D01*
X13572220Y-14940012D02*
X13553172Y-14949536D01*
X13553172Y-14949536D02*
X13534124Y-14949536D01*
X13534124Y-14949536D02*
X13515077Y-14940012D01*
X13515077Y-14940012D02*
X13505553Y-14930488D01*
X13505553Y-14930488D02*
X13496029Y-14911441D01*
X13496029Y-14911441D02*
X13486505Y-14873346D01*
X13486505Y-14873346D02*
X13486505Y-14825727D01*
X13486505Y-14825727D02*
X13496029Y-14787631D01*
X13496029Y-14787631D02*
X13505553Y-14768584D01*
X13505553Y-14768584D02*
X13515077Y-14759060D01*
X13515077Y-14759060D02*
X13534124Y-14749536D01*
X13686505Y-14930488D02*
X13696029Y-14940012D01*
X13696029Y-14940012D02*
X13686505Y-14949536D01*
X13686505Y-14949536D02*
X13676981Y-14940012D01*
X13676981Y-14940012D02*
X13686505Y-14930488D01*
X13686505Y-14930488D02*
X13686505Y-14949536D01*
X13819839Y-14749536D02*
X13838886Y-14749536D01*
X13838886Y-14749536D02*
X13857934Y-14759060D01*
X13857934Y-14759060D02*
X13867458Y-14768584D01*
X13867458Y-14768584D02*
X13876981Y-14787631D01*
X13876981Y-14787631D02*
X13886505Y-14825727D01*
X13886505Y-14825727D02*
X13886505Y-14873346D01*
X13886505Y-14873346D02*
X13876981Y-14911441D01*
X13876981Y-14911441D02*
X13867458Y-14930488D01*
X13867458Y-14930488D02*
X13857934Y-14940012D01*
X13857934Y-14940012D02*
X13838886Y-14949536D01*
X13838886Y-14949536D02*
X13819839Y-14949536D01*
X13819839Y-14949536D02*
X13800791Y-14940012D01*
X13800791Y-14940012D02*
X13791267Y-14930488D01*
X13791267Y-14930488D02*
X13781743Y-14911441D01*
X13781743Y-14911441D02*
X13772220Y-14873346D01*
X13772220Y-14873346D02*
X13772220Y-14825727D01*
X13772220Y-14825727D02*
X13781743Y-14787631D01*
X13781743Y-14787631D02*
X13791267Y-14768584D01*
X13791267Y-14768584D02*
X13800791Y-14759060D01*
X13800791Y-14759060D02*
X13819839Y-14749536D01*
X13953172Y-14749536D02*
X14076981Y-14749536D01*
X14076981Y-14749536D02*
X14010315Y-14825727D01*
X14010315Y-14825727D02*
X14038886Y-14825727D01*
X14038886Y-14825727D02*
X14057934Y-14835250D01*
X14057934Y-14835250D02*
X14067458Y-14844774D01*
X14067458Y-14844774D02*
X14076981Y-14863822D01*
X14076981Y-14863822D02*
X14076981Y-14911441D01*
X14076981Y-14911441D02*
X14067458Y-14930488D01*
X14067458Y-14930488D02*
X14057934Y-14940012D01*
X14057934Y-14940012D02*
X14038886Y-14949536D01*
X14038886Y-14949536D02*
X13981743Y-14949536D01*
X13981743Y-14949536D02*
X13962696Y-14940012D01*
X13962696Y-14940012D02*
X13953172Y-14930488D01*
X14143648Y-14749536D02*
X14267458Y-14749536D01*
X14267458Y-14749536D02*
X14200791Y-14825727D01*
X14200791Y-14825727D02*
X14229362Y-14825727D01*
X14229362Y-14825727D02*
X14248410Y-14835250D01*
X14248410Y-14835250D02*
X14257934Y-14844774D01*
X14257934Y-14844774D02*
X14267458Y-14863822D01*
X14267458Y-14863822D02*
X14267458Y-14911441D01*
X14267458Y-14911441D02*
X14257934Y-14930488D01*
X14257934Y-14930488D02*
X14248410Y-14940012D01*
X14248410Y-14940012D02*
X14229362Y-14949536D01*
X14229362Y-14949536D02*
X14172220Y-14949536D01*
X14172220Y-14949536D02*
X14153172Y-14940012D01*
X14153172Y-14940012D02*
X14143648Y-14930488D01*
X14448410Y-14749536D02*
X14353172Y-14749536D01*
X14353172Y-14749536D02*
X14343648Y-14844774D01*
X14343648Y-14844774D02*
X14353172Y-14835250D01*
X14353172Y-14835250D02*
X14372220Y-14825727D01*
X14372220Y-14825727D02*
X14419839Y-14825727D01*
X14419839Y-14825727D02*
X14438886Y-14835250D01*
X14438886Y-14835250D02*
X14448410Y-14844774D01*
X14448410Y-14844774D02*
X14457934Y-14863822D01*
X14457934Y-14863822D02*
X14457934Y-14911441D01*
X14457934Y-14911441D02*
X14448410Y-14930488D01*
X14448410Y-14930488D02*
X14438886Y-14940012D01*
X14438886Y-14940012D02*
X14419839Y-14949536D01*
X14419839Y-14949536D02*
X14372220Y-14949536D01*
X14372220Y-14949536D02*
X14353172Y-14940012D01*
X14353172Y-14940012D02*
X14343648Y-14930488D01*
X14534124Y-14749536D02*
X14534124Y-14787631D01*
X14610315Y-14749536D02*
X14610315Y-14787631D01*
X14873172Y-15025727D02*
X14863648Y-15016203D01*
X14863648Y-15016203D02*
X14844601Y-14987631D01*
X14844601Y-14987631D02*
X14835077Y-14968584D01*
X14835077Y-14968584D02*
X14825553Y-14940012D01*
X14825553Y-14940012D02*
X14816029Y-14892393D01*
X14816029Y-14892393D02*
X14816029Y-14854298D01*
X14816029Y-14854298D02*
X14825553Y-14806679D01*
X14825553Y-14806679D02*
X14835077Y-14778108D01*
X14835077Y-14778108D02*
X14844601Y-14759060D01*
X14844601Y-14759060D02*
X14863648Y-14730488D01*
X14863648Y-14730488D02*
X14873172Y-14720965D01*
X14930315Y-14749536D02*
X15054124Y-14749536D01*
X15054124Y-14749536D02*
X14987458Y-14825727D01*
X14987458Y-14825727D02*
X15016029Y-14825727D01*
X15016029Y-14825727D02*
X15035077Y-14835250D01*
X15035077Y-14835250D02*
X15044601Y-14844774D01*
X15044601Y-14844774D02*
X15054124Y-14863822D01*
X15054124Y-14863822D02*
X15054124Y-14911441D01*
X15054124Y-14911441D02*
X15044601Y-14930488D01*
X15044601Y-14930488D02*
X15035077Y-14940012D01*
X15035077Y-14940012D02*
X15016029Y-14949536D01*
X15016029Y-14949536D02*
X14958886Y-14949536D01*
X14958886Y-14949536D02*
X14939839Y-14940012D01*
X14939839Y-14940012D02*
X14930315Y-14930488D01*
X15130315Y-14768584D02*
X15139839Y-14759060D01*
X15139839Y-14759060D02*
X15158886Y-14749536D01*
X15158886Y-14749536D02*
X15206505Y-14749536D01*
X15206505Y-14749536D02*
X15225553Y-14759060D01*
X15225553Y-14759060D02*
X15235077Y-14768584D01*
X15235077Y-14768584D02*
X15244601Y-14787631D01*
X15244601Y-14787631D02*
X15244601Y-14806679D01*
X15244601Y-14806679D02*
X15235077Y-14835250D01*
X15235077Y-14835250D02*
X15120791Y-14949536D01*
X15120791Y-14949536D02*
X15244601Y-14949536D01*
X15450315Y-14949536D02*
X15450315Y-14749536D01*
X15536029Y-14949536D02*
X15536029Y-14844774D01*
X15536029Y-14844774D02*
X15526505Y-14825727D01*
X15526505Y-14825727D02*
X15507458Y-14816203D01*
X15507458Y-14816203D02*
X15478886Y-14816203D01*
X15478886Y-14816203D02*
X15459839Y-14825727D01*
X15459839Y-14825727D02*
X15450315Y-14835250D01*
X15659839Y-14949536D02*
X15640791Y-14940012D01*
X15640791Y-14940012D02*
X15631267Y-14930488D01*
X15631267Y-14930488D02*
X15621743Y-14911441D01*
X15621743Y-14911441D02*
X15621743Y-14854298D01*
X15621743Y-14854298D02*
X15631267Y-14835250D01*
X15631267Y-14835250D02*
X15640791Y-14825727D01*
X15640791Y-14825727D02*
X15659839Y-14816203D01*
X15659839Y-14816203D02*
X15688410Y-14816203D01*
X15688410Y-14816203D02*
X15707458Y-14825727D01*
X15707458Y-14825727D02*
X15716982Y-14835250D01*
X15716982Y-14835250D02*
X15726505Y-14854298D01*
X15726505Y-14854298D02*
X15726505Y-14911441D01*
X15726505Y-14911441D02*
X15716982Y-14930488D01*
X15716982Y-14930488D02*
X15707458Y-14940012D01*
X15707458Y-14940012D02*
X15688410Y-14949536D01*
X15688410Y-14949536D02*
X15659839Y-14949536D01*
X15840791Y-14949536D02*
X15821743Y-14940012D01*
X15821743Y-14940012D02*
X15812220Y-14920965D01*
X15812220Y-14920965D02*
X15812220Y-14749536D01*
X15993172Y-14940012D02*
X15974124Y-14949536D01*
X15974124Y-14949536D02*
X15936029Y-14949536D01*
X15936029Y-14949536D02*
X15916982Y-14940012D01*
X15916982Y-14940012D02*
X15907458Y-14920965D01*
X15907458Y-14920965D02*
X15907458Y-14844774D01*
X15907458Y-14844774D02*
X15916982Y-14825727D01*
X15916982Y-14825727D02*
X15936029Y-14816203D01*
X15936029Y-14816203D02*
X15974124Y-14816203D01*
X15974124Y-14816203D02*
X15993172Y-14825727D01*
X15993172Y-14825727D02*
X16002696Y-14844774D01*
X16002696Y-14844774D02*
X16002696Y-14863822D01*
X16002696Y-14863822D02*
X15907458Y-14882869D01*
X16078886Y-14940012D02*
X16097934Y-14949536D01*
X16097934Y-14949536D02*
X16136029Y-14949536D01*
X16136029Y-14949536D02*
X16155077Y-14940012D01*
X16155077Y-14940012D02*
X16164601Y-14920965D01*
X16164601Y-14920965D02*
X16164601Y-14911441D01*
X16164601Y-14911441D02*
X16155077Y-14892393D01*
X16155077Y-14892393D02*
X16136029Y-14882869D01*
X16136029Y-14882869D02*
X16107458Y-14882869D01*
X16107458Y-14882869D02*
X16088410Y-14873346D01*
X16088410Y-14873346D02*
X16078886Y-14854298D01*
X16078886Y-14854298D02*
X16078886Y-14844774D01*
X16078886Y-14844774D02*
X16088410Y-14825727D01*
X16088410Y-14825727D02*
X16107458Y-14816203D01*
X16107458Y-14816203D02*
X16136029Y-14816203D01*
X16136029Y-14816203D02*
X16155077Y-14825727D01*
X16231267Y-15025727D02*
X16240791Y-15016203D01*
X16240791Y-15016203D02*
X16259839Y-14987631D01*
X16259839Y-14987631D02*
X16269363Y-14968584D01*
X16269363Y-14968584D02*
X16278886Y-14940012D01*
X16278886Y-14940012D02*
X16288410Y-14892393D01*
X16288410Y-14892393D02*
X16288410Y-14854298D01*
X16288410Y-14854298D02*
X16278886Y-14806679D01*
X16278886Y-14806679D02*
X16269363Y-14778108D01*
X16269363Y-14778108D02*
X16259839Y-14759060D01*
X16259839Y-14759060D02*
X16240791Y-14730488D01*
X16240791Y-14730488D02*
X16231267Y-14720965D01*
D17*
X11313410Y-15092560D02*
X11408410Y-15187560D01*
X11408410Y-15092560D02*
X11313410Y-15187560D01*
X11408410Y-15140060D02*
G75*
G03*
X11408410Y-15140060I-47500J0D01*
G01*
D11*
X11694124Y-15013536D02*
X11713172Y-15013536D01*
X11713172Y-15013536D02*
X11732219Y-15023060D01*
X11732219Y-15023060D02*
X11741743Y-15032584D01*
X11741743Y-15032584D02*
X11751267Y-15051631D01*
X11751267Y-15051631D02*
X11760791Y-15089727D01*
X11760791Y-15089727D02*
X11760791Y-15137346D01*
X11760791Y-15137346D02*
X11751267Y-15175441D01*
X11751267Y-15175441D02*
X11741743Y-15194488D01*
X11741743Y-15194488D02*
X11732219Y-15204012D01*
X11732219Y-15204012D02*
X11713172Y-15213536D01*
X11713172Y-15213536D02*
X11694124Y-15213536D01*
X11694124Y-15213536D02*
X11675077Y-15204012D01*
X11675077Y-15204012D02*
X11665553Y-15194488D01*
X11665553Y-15194488D02*
X11656029Y-15175441D01*
X11656029Y-15175441D02*
X11646505Y-15137346D01*
X11646505Y-15137346D02*
X11646505Y-15089727D01*
X11646505Y-15089727D02*
X11656029Y-15051631D01*
X11656029Y-15051631D02*
X11665553Y-15032584D01*
X11665553Y-15032584D02*
X11675077Y-15023060D01*
X11675077Y-15023060D02*
X11694124Y-15013536D01*
X11846505Y-15194488D02*
X11856029Y-15204012D01*
X11856029Y-15204012D02*
X11846505Y-15213536D01*
X11846505Y-15213536D02*
X11836981Y-15204012D01*
X11836981Y-15204012D02*
X11846505Y-15194488D01*
X11846505Y-15194488D02*
X11846505Y-15213536D01*
X11951267Y-15213536D02*
X11989362Y-15213536D01*
X11989362Y-15213536D02*
X12008410Y-15204012D01*
X12008410Y-15204012D02*
X12017934Y-15194488D01*
X12017934Y-15194488D02*
X12036981Y-15165917D01*
X12036981Y-15165917D02*
X12046505Y-15127822D01*
X12046505Y-15127822D02*
X12046505Y-15051631D01*
X12046505Y-15051631D02*
X12036981Y-15032584D01*
X12036981Y-15032584D02*
X12027458Y-15023060D01*
X12027458Y-15023060D02*
X12008410Y-15013536D01*
X12008410Y-15013536D02*
X11970315Y-15013536D01*
X11970315Y-15013536D02*
X11951267Y-15023060D01*
X11951267Y-15023060D02*
X11941743Y-15032584D01*
X11941743Y-15032584D02*
X11932219Y-15051631D01*
X11932219Y-15051631D02*
X11932219Y-15099250D01*
X11932219Y-15099250D02*
X11941743Y-15118298D01*
X11941743Y-15118298D02*
X11951267Y-15127822D01*
X11951267Y-15127822D02*
X11970315Y-15137346D01*
X11970315Y-15137346D02*
X12008410Y-15137346D01*
X12008410Y-15137346D02*
X12027458Y-15127822D01*
X12027458Y-15127822D02*
X12036981Y-15118298D01*
X12036981Y-15118298D02*
X12046505Y-15099250D01*
X12227458Y-15013536D02*
X12132219Y-15013536D01*
X12132219Y-15013536D02*
X12122696Y-15108774D01*
X12122696Y-15108774D02*
X12132219Y-15099250D01*
X12132219Y-15099250D02*
X12151267Y-15089727D01*
X12151267Y-15089727D02*
X12198886Y-15089727D01*
X12198886Y-15089727D02*
X12217934Y-15099250D01*
X12217934Y-15099250D02*
X12227458Y-15108774D01*
X12227458Y-15108774D02*
X12236981Y-15127822D01*
X12236981Y-15127822D02*
X12236981Y-15175441D01*
X12236981Y-15175441D02*
X12227458Y-15194488D01*
X12227458Y-15194488D02*
X12217934Y-15204012D01*
X12217934Y-15204012D02*
X12198886Y-15213536D01*
X12198886Y-15213536D02*
X12151267Y-15213536D01*
X12151267Y-15213536D02*
X12132219Y-15204012D01*
X12132219Y-15204012D02*
X12122696Y-15194488D01*
X12360791Y-15013536D02*
X12379839Y-15013536D01*
X12379839Y-15013536D02*
X12398886Y-15023060D01*
X12398886Y-15023060D02*
X12408410Y-15032584D01*
X12408410Y-15032584D02*
X12417934Y-15051631D01*
X12417934Y-15051631D02*
X12427458Y-15089727D01*
X12427458Y-15089727D02*
X12427458Y-15137346D01*
X12427458Y-15137346D02*
X12417934Y-15175441D01*
X12417934Y-15175441D02*
X12408410Y-15194488D01*
X12408410Y-15194488D02*
X12398886Y-15204012D01*
X12398886Y-15204012D02*
X12379839Y-15213536D01*
X12379839Y-15213536D02*
X12360791Y-15213536D01*
X12360791Y-15213536D02*
X12341743Y-15204012D01*
X12341743Y-15204012D02*
X12332219Y-15194488D01*
X12332219Y-15194488D02*
X12322696Y-15175441D01*
X12322696Y-15175441D02*
X12313172Y-15137346D01*
X12313172Y-15137346D02*
X12313172Y-15089727D01*
X12313172Y-15089727D02*
X12322696Y-15051631D01*
X12322696Y-15051631D02*
X12332219Y-15032584D01*
X12332219Y-15032584D02*
X12341743Y-15023060D01*
X12341743Y-15023060D02*
X12360791Y-15013536D01*
X12513172Y-15213536D02*
X12513172Y-15080203D01*
X12513172Y-15099250D02*
X12522696Y-15089727D01*
X12522696Y-15089727D02*
X12541743Y-15080203D01*
X12541743Y-15080203D02*
X12570315Y-15080203D01*
X12570315Y-15080203D02*
X12589362Y-15089727D01*
X12589362Y-15089727D02*
X12598886Y-15108774D01*
X12598886Y-15108774D02*
X12598886Y-15213536D01*
X12598886Y-15108774D02*
X12608410Y-15089727D01*
X12608410Y-15089727D02*
X12627458Y-15080203D01*
X12627458Y-15080203D02*
X12656029Y-15080203D01*
X12656029Y-15080203D02*
X12675077Y-15089727D01*
X12675077Y-15089727D02*
X12684600Y-15108774D01*
X12684600Y-15108774D02*
X12684600Y-15213536D01*
X12779839Y-15213536D02*
X12779839Y-15080203D01*
X12779839Y-15099250D02*
X12789362Y-15089727D01*
X12789362Y-15089727D02*
X12808410Y-15080203D01*
X12808410Y-15080203D02*
X12836981Y-15080203D01*
X12836981Y-15080203D02*
X12856029Y-15089727D01*
X12856029Y-15089727D02*
X12865553Y-15108774D01*
X12865553Y-15108774D02*
X12865553Y-15213536D01*
X12865553Y-15108774D02*
X12875077Y-15089727D01*
X12875077Y-15089727D02*
X12894124Y-15080203D01*
X12894124Y-15080203D02*
X12922696Y-15080203D01*
X12922696Y-15080203D02*
X12941743Y-15089727D01*
X12941743Y-15089727D02*
X12951267Y-15108774D01*
X12951267Y-15108774D02*
X12951267Y-15213536D01*
X13309362Y-15004012D02*
X13137934Y-15261155D01*
X13534124Y-15013536D02*
X13553172Y-15013536D01*
X13553172Y-15013536D02*
X13572220Y-15023060D01*
X13572220Y-15023060D02*
X13581743Y-15032584D01*
X13581743Y-15032584D02*
X13591267Y-15051631D01*
X13591267Y-15051631D02*
X13600791Y-15089727D01*
X13600791Y-15089727D02*
X13600791Y-15137346D01*
X13600791Y-15137346D02*
X13591267Y-15175441D01*
X13591267Y-15175441D02*
X13581743Y-15194488D01*
X13581743Y-15194488D02*
X13572220Y-15204012D01*
X13572220Y-15204012D02*
X13553172Y-15213536D01*
X13553172Y-15213536D02*
X13534124Y-15213536D01*
X13534124Y-15213536D02*
X13515077Y-15204012D01*
X13515077Y-15204012D02*
X13505553Y-15194488D01*
X13505553Y-15194488D02*
X13496029Y-15175441D01*
X13496029Y-15175441D02*
X13486505Y-15137346D01*
X13486505Y-15137346D02*
X13486505Y-15089727D01*
X13486505Y-15089727D02*
X13496029Y-15051631D01*
X13496029Y-15051631D02*
X13505553Y-15032584D01*
X13505553Y-15032584D02*
X13515077Y-15023060D01*
X13515077Y-15023060D02*
X13534124Y-15013536D01*
X13686505Y-15194488D02*
X13696029Y-15204012D01*
X13696029Y-15204012D02*
X13686505Y-15213536D01*
X13686505Y-15213536D02*
X13676981Y-15204012D01*
X13676981Y-15204012D02*
X13686505Y-15194488D01*
X13686505Y-15194488D02*
X13686505Y-15213536D01*
X13819839Y-15013536D02*
X13838886Y-15013536D01*
X13838886Y-15013536D02*
X13857934Y-15023060D01*
X13857934Y-15023060D02*
X13867458Y-15032584D01*
X13867458Y-15032584D02*
X13876981Y-15051631D01*
X13876981Y-15051631D02*
X13886505Y-15089727D01*
X13886505Y-15089727D02*
X13886505Y-15137346D01*
X13886505Y-15137346D02*
X13876981Y-15175441D01*
X13876981Y-15175441D02*
X13867458Y-15194488D01*
X13867458Y-15194488D02*
X13857934Y-15204012D01*
X13857934Y-15204012D02*
X13838886Y-15213536D01*
X13838886Y-15213536D02*
X13819839Y-15213536D01*
X13819839Y-15213536D02*
X13800791Y-15204012D01*
X13800791Y-15204012D02*
X13791267Y-15194488D01*
X13791267Y-15194488D02*
X13781743Y-15175441D01*
X13781743Y-15175441D02*
X13772220Y-15137346D01*
X13772220Y-15137346D02*
X13772220Y-15089727D01*
X13772220Y-15089727D02*
X13781743Y-15051631D01*
X13781743Y-15051631D02*
X13791267Y-15032584D01*
X13791267Y-15032584D02*
X13800791Y-15023060D01*
X13800791Y-15023060D02*
X13819839Y-15013536D01*
X13953172Y-15013536D02*
X14076981Y-15013536D01*
X14076981Y-15013536D02*
X14010315Y-15089727D01*
X14010315Y-15089727D02*
X14038886Y-15089727D01*
X14038886Y-15089727D02*
X14057934Y-15099250D01*
X14057934Y-15099250D02*
X14067458Y-15108774D01*
X14067458Y-15108774D02*
X14076981Y-15127822D01*
X14076981Y-15127822D02*
X14076981Y-15175441D01*
X14076981Y-15175441D02*
X14067458Y-15194488D01*
X14067458Y-15194488D02*
X14057934Y-15204012D01*
X14057934Y-15204012D02*
X14038886Y-15213536D01*
X14038886Y-15213536D02*
X13981743Y-15213536D01*
X13981743Y-15213536D02*
X13962696Y-15204012D01*
X13962696Y-15204012D02*
X13953172Y-15194488D01*
X14143648Y-15013536D02*
X14276981Y-15013536D01*
X14276981Y-15013536D02*
X14191267Y-15213536D01*
X14438886Y-15080203D02*
X14438886Y-15213536D01*
X14391267Y-15004012D02*
X14343648Y-15146869D01*
X14343648Y-15146869D02*
X14467458Y-15146869D01*
X14534124Y-15013536D02*
X14534124Y-15051631D01*
X14610315Y-15013536D02*
X14610315Y-15051631D01*
X14873172Y-15289727D02*
X14863648Y-15280203D01*
X14863648Y-15280203D02*
X14844601Y-15251631D01*
X14844601Y-15251631D02*
X14835077Y-15232584D01*
X14835077Y-15232584D02*
X14825553Y-15204012D01*
X14825553Y-15204012D02*
X14816029Y-15156393D01*
X14816029Y-15156393D02*
X14816029Y-15118298D01*
X14816029Y-15118298D02*
X14825553Y-15070679D01*
X14825553Y-15070679D02*
X14835077Y-15042108D01*
X14835077Y-15042108D02*
X14844601Y-15023060D01*
X14844601Y-15023060D02*
X14863648Y-14994488D01*
X14863648Y-14994488D02*
X14873172Y-14984965D01*
X15035077Y-15013536D02*
X14996981Y-15013536D01*
X14996981Y-15013536D02*
X14977934Y-15023060D01*
X14977934Y-15023060D02*
X14968410Y-15032584D01*
X14968410Y-15032584D02*
X14949362Y-15061155D01*
X14949362Y-15061155D02*
X14939839Y-15099250D01*
X14939839Y-15099250D02*
X14939839Y-15175441D01*
X14939839Y-15175441D02*
X14949362Y-15194488D01*
X14949362Y-15194488D02*
X14958886Y-15204012D01*
X14958886Y-15204012D02*
X14977934Y-15213536D01*
X14977934Y-15213536D02*
X15016029Y-15213536D01*
X15016029Y-15213536D02*
X15035077Y-15204012D01*
X15035077Y-15204012D02*
X15044601Y-15194488D01*
X15044601Y-15194488D02*
X15054124Y-15175441D01*
X15054124Y-15175441D02*
X15054124Y-15127822D01*
X15054124Y-15127822D02*
X15044601Y-15108774D01*
X15044601Y-15108774D02*
X15035077Y-15099250D01*
X15035077Y-15099250D02*
X15016029Y-15089727D01*
X15016029Y-15089727D02*
X14977934Y-15089727D01*
X14977934Y-15089727D02*
X14958886Y-15099250D01*
X14958886Y-15099250D02*
X14949362Y-15108774D01*
X14949362Y-15108774D02*
X14939839Y-15127822D01*
X15259839Y-15213536D02*
X15259839Y-15013536D01*
X15345553Y-15213536D02*
X15345553Y-15108774D01*
X15345553Y-15108774D02*
X15336029Y-15089727D01*
X15336029Y-15089727D02*
X15316982Y-15080203D01*
X15316982Y-15080203D02*
X15288410Y-15080203D01*
X15288410Y-15080203D02*
X15269362Y-15089727D01*
X15269362Y-15089727D02*
X15259839Y-15099250D01*
X15469362Y-15213536D02*
X15450315Y-15204012D01*
X15450315Y-15204012D02*
X15440791Y-15194488D01*
X15440791Y-15194488D02*
X15431267Y-15175441D01*
X15431267Y-15175441D02*
X15431267Y-15118298D01*
X15431267Y-15118298D02*
X15440791Y-15099250D01*
X15440791Y-15099250D02*
X15450315Y-15089727D01*
X15450315Y-15089727D02*
X15469362Y-15080203D01*
X15469362Y-15080203D02*
X15497934Y-15080203D01*
X15497934Y-15080203D02*
X15516982Y-15089727D01*
X15516982Y-15089727D02*
X15526505Y-15099250D01*
X15526505Y-15099250D02*
X15536029Y-15118298D01*
X15536029Y-15118298D02*
X15536029Y-15175441D01*
X15536029Y-15175441D02*
X15526505Y-15194488D01*
X15526505Y-15194488D02*
X15516982Y-15204012D01*
X15516982Y-15204012D02*
X15497934Y-15213536D01*
X15497934Y-15213536D02*
X15469362Y-15213536D01*
X15650315Y-15213536D02*
X15631267Y-15204012D01*
X15631267Y-15204012D02*
X15621743Y-15184965D01*
X15621743Y-15184965D02*
X15621743Y-15013536D01*
X15802696Y-15204012D02*
X15783648Y-15213536D01*
X15783648Y-15213536D02*
X15745553Y-15213536D01*
X15745553Y-15213536D02*
X15726505Y-15204012D01*
X15726505Y-15204012D02*
X15716982Y-15184965D01*
X15716982Y-15184965D02*
X15716982Y-15108774D01*
X15716982Y-15108774D02*
X15726505Y-15089727D01*
X15726505Y-15089727D02*
X15745553Y-15080203D01*
X15745553Y-15080203D02*
X15783648Y-15080203D01*
X15783648Y-15080203D02*
X15802696Y-15089727D01*
X15802696Y-15089727D02*
X15812220Y-15108774D01*
X15812220Y-15108774D02*
X15812220Y-15127822D01*
X15812220Y-15127822D02*
X15716982Y-15146869D01*
X15888410Y-15204012D02*
X15907458Y-15213536D01*
X15907458Y-15213536D02*
X15945553Y-15213536D01*
X15945553Y-15213536D02*
X15964601Y-15204012D01*
X15964601Y-15204012D02*
X15974124Y-15184965D01*
X15974124Y-15184965D02*
X15974124Y-15175441D01*
X15974124Y-15175441D02*
X15964601Y-15156393D01*
X15964601Y-15156393D02*
X15945553Y-15146869D01*
X15945553Y-15146869D02*
X15916982Y-15146869D01*
X15916982Y-15146869D02*
X15897934Y-15137346D01*
X15897934Y-15137346D02*
X15888410Y-15118298D01*
X15888410Y-15118298D02*
X15888410Y-15108774D01*
X15888410Y-15108774D02*
X15897934Y-15089727D01*
X15897934Y-15089727D02*
X15916982Y-15080203D01*
X15916982Y-15080203D02*
X15945553Y-15080203D01*
X15945553Y-15080203D02*
X15964601Y-15089727D01*
X16040791Y-15289727D02*
X16050315Y-15280203D01*
X16050315Y-15280203D02*
X16069363Y-15251631D01*
X16069363Y-15251631D02*
X16078886Y-15232584D01*
X16078886Y-15232584D02*
X16088410Y-15204012D01*
X16088410Y-15204012D02*
X16097934Y-15156393D01*
X16097934Y-15156393D02*
X16097934Y-15118298D01*
X16097934Y-15118298D02*
X16088410Y-15070679D01*
X16088410Y-15070679D02*
X16078886Y-15042108D01*
X16078886Y-15042108D02*
X16069363Y-15023060D01*
X16069363Y-15023060D02*
X16050315Y-14994488D01*
X16050315Y-14994488D02*
X16040791Y-14984965D01*
D18*
X11278410Y-15339060D02*
X11408410Y-15469060D01*
X11408410Y-15339060D02*
X11278410Y-15469060D01*
X11343410Y-15339060D02*
X11343410Y-15469060D01*
X11278410Y-15404060D02*
X11408410Y-15404060D01*
D11*
X11760791Y-15477536D02*
X11646505Y-15477536D01*
X11703648Y-15477536D02*
X11703648Y-15277536D01*
X11703648Y-15277536D02*
X11684600Y-15306108D01*
X11684600Y-15306108D02*
X11665553Y-15325155D01*
X11665553Y-15325155D02*
X11646505Y-15334679D01*
X11846505Y-15458488D02*
X11856029Y-15468012D01*
X11856029Y-15468012D02*
X11846505Y-15477536D01*
X11846505Y-15477536D02*
X11836981Y-15468012D01*
X11836981Y-15468012D02*
X11846505Y-15458488D01*
X11846505Y-15458488D02*
X11846505Y-15477536D01*
X11922696Y-15277536D02*
X12046505Y-15277536D01*
X12046505Y-15277536D02*
X11979838Y-15353727D01*
X11979838Y-15353727D02*
X12008410Y-15353727D01*
X12008410Y-15353727D02*
X12027458Y-15363250D01*
X12027458Y-15363250D02*
X12036981Y-15372774D01*
X12036981Y-15372774D02*
X12046505Y-15391822D01*
X12046505Y-15391822D02*
X12046505Y-15439441D01*
X12046505Y-15439441D02*
X12036981Y-15458488D01*
X12036981Y-15458488D02*
X12027458Y-15468012D01*
X12027458Y-15468012D02*
X12008410Y-15477536D01*
X12008410Y-15477536D02*
X11951267Y-15477536D01*
X11951267Y-15477536D02*
X11932219Y-15468012D01*
X11932219Y-15468012D02*
X11922696Y-15458488D01*
X12170315Y-15277536D02*
X12189362Y-15277536D01*
X12189362Y-15277536D02*
X12208410Y-15287060D01*
X12208410Y-15287060D02*
X12217934Y-15296584D01*
X12217934Y-15296584D02*
X12227458Y-15315631D01*
X12227458Y-15315631D02*
X12236981Y-15353727D01*
X12236981Y-15353727D02*
X12236981Y-15401346D01*
X12236981Y-15401346D02*
X12227458Y-15439441D01*
X12227458Y-15439441D02*
X12217934Y-15458488D01*
X12217934Y-15458488D02*
X12208410Y-15468012D01*
X12208410Y-15468012D02*
X12189362Y-15477536D01*
X12189362Y-15477536D02*
X12170315Y-15477536D01*
X12170315Y-15477536D02*
X12151267Y-15468012D01*
X12151267Y-15468012D02*
X12141743Y-15458488D01*
X12141743Y-15458488D02*
X12132219Y-15439441D01*
X12132219Y-15439441D02*
X12122696Y-15401346D01*
X12122696Y-15401346D02*
X12122696Y-15353727D01*
X12122696Y-15353727D02*
X12132219Y-15315631D01*
X12132219Y-15315631D02*
X12141743Y-15296584D01*
X12141743Y-15296584D02*
X12151267Y-15287060D01*
X12151267Y-15287060D02*
X12170315Y-15277536D01*
X12360791Y-15277536D02*
X12379839Y-15277536D01*
X12379839Y-15277536D02*
X12398886Y-15287060D01*
X12398886Y-15287060D02*
X12408410Y-15296584D01*
X12408410Y-15296584D02*
X12417934Y-15315631D01*
X12417934Y-15315631D02*
X12427458Y-15353727D01*
X12427458Y-15353727D02*
X12427458Y-15401346D01*
X12427458Y-15401346D02*
X12417934Y-15439441D01*
X12417934Y-15439441D02*
X12408410Y-15458488D01*
X12408410Y-15458488D02*
X12398886Y-15468012D01*
X12398886Y-15468012D02*
X12379839Y-15477536D01*
X12379839Y-15477536D02*
X12360791Y-15477536D01*
X12360791Y-15477536D02*
X12341743Y-15468012D01*
X12341743Y-15468012D02*
X12332219Y-15458488D01*
X12332219Y-15458488D02*
X12322696Y-15439441D01*
X12322696Y-15439441D02*
X12313172Y-15401346D01*
X12313172Y-15401346D02*
X12313172Y-15353727D01*
X12313172Y-15353727D02*
X12322696Y-15315631D01*
X12322696Y-15315631D02*
X12332219Y-15296584D01*
X12332219Y-15296584D02*
X12341743Y-15287060D01*
X12341743Y-15287060D02*
X12360791Y-15277536D01*
X12513172Y-15477536D02*
X12513172Y-15344203D01*
X12513172Y-15363250D02*
X12522696Y-15353727D01*
X12522696Y-15353727D02*
X12541743Y-15344203D01*
X12541743Y-15344203D02*
X12570315Y-15344203D01*
X12570315Y-15344203D02*
X12589362Y-15353727D01*
X12589362Y-15353727D02*
X12598886Y-15372774D01*
X12598886Y-15372774D02*
X12598886Y-15477536D01*
X12598886Y-15372774D02*
X12608410Y-15353727D01*
X12608410Y-15353727D02*
X12627458Y-15344203D01*
X12627458Y-15344203D02*
X12656029Y-15344203D01*
X12656029Y-15344203D02*
X12675077Y-15353727D01*
X12675077Y-15353727D02*
X12684600Y-15372774D01*
X12684600Y-15372774D02*
X12684600Y-15477536D01*
X12779839Y-15477536D02*
X12779839Y-15344203D01*
X12779839Y-15363250D02*
X12789362Y-15353727D01*
X12789362Y-15353727D02*
X12808410Y-15344203D01*
X12808410Y-15344203D02*
X12836981Y-15344203D01*
X12836981Y-15344203D02*
X12856029Y-15353727D01*
X12856029Y-15353727D02*
X12865553Y-15372774D01*
X12865553Y-15372774D02*
X12865553Y-15477536D01*
X12865553Y-15372774D02*
X12875077Y-15353727D01*
X12875077Y-15353727D02*
X12894124Y-15344203D01*
X12894124Y-15344203D02*
X12922696Y-15344203D01*
X12922696Y-15344203D02*
X12941743Y-15353727D01*
X12941743Y-15353727D02*
X12951267Y-15372774D01*
X12951267Y-15372774D02*
X12951267Y-15477536D01*
X13309362Y-15268012D02*
X13137934Y-15525155D01*
X13534124Y-15277536D02*
X13553172Y-15277536D01*
X13553172Y-15277536D02*
X13572220Y-15287060D01*
X13572220Y-15287060D02*
X13581743Y-15296584D01*
X13581743Y-15296584D02*
X13591267Y-15315631D01*
X13591267Y-15315631D02*
X13600791Y-15353727D01*
X13600791Y-15353727D02*
X13600791Y-15401346D01*
X13600791Y-15401346D02*
X13591267Y-15439441D01*
X13591267Y-15439441D02*
X13581743Y-15458488D01*
X13581743Y-15458488D02*
X13572220Y-15468012D01*
X13572220Y-15468012D02*
X13553172Y-15477536D01*
X13553172Y-15477536D02*
X13534124Y-15477536D01*
X13534124Y-15477536D02*
X13515077Y-15468012D01*
X13515077Y-15468012D02*
X13505553Y-15458488D01*
X13505553Y-15458488D02*
X13496029Y-15439441D01*
X13496029Y-15439441D02*
X13486505Y-15401346D01*
X13486505Y-15401346D02*
X13486505Y-15353727D01*
X13486505Y-15353727D02*
X13496029Y-15315631D01*
X13496029Y-15315631D02*
X13505553Y-15296584D01*
X13505553Y-15296584D02*
X13515077Y-15287060D01*
X13515077Y-15287060D02*
X13534124Y-15277536D01*
X13686505Y-15458488D02*
X13696029Y-15468012D01*
X13696029Y-15468012D02*
X13686505Y-15477536D01*
X13686505Y-15477536D02*
X13676981Y-15468012D01*
X13676981Y-15468012D02*
X13686505Y-15458488D01*
X13686505Y-15458488D02*
X13686505Y-15477536D01*
X13819839Y-15277536D02*
X13838886Y-15277536D01*
X13838886Y-15277536D02*
X13857934Y-15287060D01*
X13857934Y-15287060D02*
X13867458Y-15296584D01*
X13867458Y-15296584D02*
X13876981Y-15315631D01*
X13876981Y-15315631D02*
X13886505Y-15353727D01*
X13886505Y-15353727D02*
X13886505Y-15401346D01*
X13886505Y-15401346D02*
X13876981Y-15439441D01*
X13876981Y-15439441D02*
X13867458Y-15458488D01*
X13867458Y-15458488D02*
X13857934Y-15468012D01*
X13857934Y-15468012D02*
X13838886Y-15477536D01*
X13838886Y-15477536D02*
X13819839Y-15477536D01*
X13819839Y-15477536D02*
X13800791Y-15468012D01*
X13800791Y-15468012D02*
X13791267Y-15458488D01*
X13791267Y-15458488D02*
X13781743Y-15439441D01*
X13781743Y-15439441D02*
X13772220Y-15401346D01*
X13772220Y-15401346D02*
X13772220Y-15353727D01*
X13772220Y-15353727D02*
X13781743Y-15315631D01*
X13781743Y-15315631D02*
X13791267Y-15296584D01*
X13791267Y-15296584D02*
X13800791Y-15287060D01*
X13800791Y-15287060D02*
X13819839Y-15277536D01*
X14067458Y-15277536D02*
X13972220Y-15277536D01*
X13972220Y-15277536D02*
X13962696Y-15372774D01*
X13962696Y-15372774D02*
X13972220Y-15363250D01*
X13972220Y-15363250D02*
X13991267Y-15353727D01*
X13991267Y-15353727D02*
X14038886Y-15353727D01*
X14038886Y-15353727D02*
X14057934Y-15363250D01*
X14057934Y-15363250D02*
X14067458Y-15372774D01*
X14067458Y-15372774D02*
X14076981Y-15391822D01*
X14076981Y-15391822D02*
X14076981Y-15439441D01*
X14076981Y-15439441D02*
X14067458Y-15458488D01*
X14067458Y-15458488D02*
X14057934Y-15468012D01*
X14057934Y-15468012D02*
X14038886Y-15477536D01*
X14038886Y-15477536D02*
X13991267Y-15477536D01*
X13991267Y-15477536D02*
X13972220Y-15468012D01*
X13972220Y-15468012D02*
X13962696Y-15458488D01*
X14267458Y-15477536D02*
X14153172Y-15477536D01*
X14210315Y-15477536D02*
X14210315Y-15277536D01*
X14210315Y-15277536D02*
X14191267Y-15306108D01*
X14191267Y-15306108D02*
X14172220Y-15325155D01*
X14172220Y-15325155D02*
X14153172Y-15334679D01*
X14343648Y-15296584D02*
X14353172Y-15287060D01*
X14353172Y-15287060D02*
X14372220Y-15277536D01*
X14372220Y-15277536D02*
X14419839Y-15277536D01*
X14419839Y-15277536D02*
X14438886Y-15287060D01*
X14438886Y-15287060D02*
X14448410Y-15296584D01*
X14448410Y-15296584D02*
X14457934Y-15315631D01*
X14457934Y-15315631D02*
X14457934Y-15334679D01*
X14457934Y-15334679D02*
X14448410Y-15363250D01*
X14448410Y-15363250D02*
X14334124Y-15477536D01*
X14334124Y-15477536D02*
X14457934Y-15477536D01*
X14534124Y-15277536D02*
X14534124Y-15315631D01*
X14610315Y-15277536D02*
X14610315Y-15315631D01*
X14873172Y-15553727D02*
X14863648Y-15544203D01*
X14863648Y-15544203D02*
X14844601Y-15515631D01*
X14844601Y-15515631D02*
X14835077Y-15496584D01*
X14835077Y-15496584D02*
X14825553Y-15468012D01*
X14825553Y-15468012D02*
X14816029Y-15420393D01*
X14816029Y-15420393D02*
X14816029Y-15382298D01*
X14816029Y-15382298D02*
X14825553Y-15334679D01*
X14825553Y-15334679D02*
X14835077Y-15306108D01*
X14835077Y-15306108D02*
X14844601Y-15287060D01*
X14844601Y-15287060D02*
X14863648Y-15258488D01*
X14863648Y-15258488D02*
X14873172Y-15248965D01*
X14958886Y-15477536D02*
X14996981Y-15477536D01*
X14996981Y-15477536D02*
X15016029Y-15468012D01*
X15016029Y-15468012D02*
X15025553Y-15458488D01*
X15025553Y-15458488D02*
X15044601Y-15429917D01*
X15044601Y-15429917D02*
X15054124Y-15391822D01*
X15054124Y-15391822D02*
X15054124Y-15315631D01*
X15054124Y-15315631D02*
X15044601Y-15296584D01*
X15044601Y-15296584D02*
X15035077Y-15287060D01*
X15035077Y-15287060D02*
X15016029Y-15277536D01*
X15016029Y-15277536D02*
X14977934Y-15277536D01*
X14977934Y-15277536D02*
X14958886Y-15287060D01*
X14958886Y-15287060D02*
X14949362Y-15296584D01*
X14949362Y-15296584D02*
X14939839Y-15315631D01*
X14939839Y-15315631D02*
X14939839Y-15363250D01*
X14939839Y-15363250D02*
X14949362Y-15382298D01*
X14949362Y-15382298D02*
X14958886Y-15391822D01*
X14958886Y-15391822D02*
X14977934Y-15401346D01*
X14977934Y-15401346D02*
X15016029Y-15401346D01*
X15016029Y-15401346D02*
X15035077Y-15391822D01*
X15035077Y-15391822D02*
X15044601Y-15382298D01*
X15044601Y-15382298D02*
X15054124Y-15363250D01*
X15259839Y-15477536D02*
X15259839Y-15277536D01*
X15345553Y-15477536D02*
X15345553Y-15372774D01*
X15345553Y-15372774D02*
X15336029Y-15353727D01*
X15336029Y-15353727D02*
X15316982Y-15344203D01*
X15316982Y-15344203D02*
X15288410Y-15344203D01*
X15288410Y-15344203D02*
X15269362Y-15353727D01*
X15269362Y-15353727D02*
X15259839Y-15363250D01*
X15469362Y-15477536D02*
X15450315Y-15468012D01*
X15450315Y-15468012D02*
X15440791Y-15458488D01*
X15440791Y-15458488D02*
X15431267Y-15439441D01*
X15431267Y-15439441D02*
X15431267Y-15382298D01*
X15431267Y-15382298D02*
X15440791Y-15363250D01*
X15440791Y-15363250D02*
X15450315Y-15353727D01*
X15450315Y-15353727D02*
X15469362Y-15344203D01*
X15469362Y-15344203D02*
X15497934Y-15344203D01*
X15497934Y-15344203D02*
X15516982Y-15353727D01*
X15516982Y-15353727D02*
X15526505Y-15363250D01*
X15526505Y-15363250D02*
X15536029Y-15382298D01*
X15536029Y-15382298D02*
X15536029Y-15439441D01*
X15536029Y-15439441D02*
X15526505Y-15458488D01*
X15526505Y-15458488D02*
X15516982Y-15468012D01*
X15516982Y-15468012D02*
X15497934Y-15477536D01*
X15497934Y-15477536D02*
X15469362Y-15477536D01*
X15650315Y-15477536D02*
X15631267Y-15468012D01*
X15631267Y-15468012D02*
X15621743Y-15448965D01*
X15621743Y-15448965D02*
X15621743Y-15277536D01*
X15802696Y-15468012D02*
X15783648Y-15477536D01*
X15783648Y-15477536D02*
X15745553Y-15477536D01*
X15745553Y-15477536D02*
X15726505Y-15468012D01*
X15726505Y-15468012D02*
X15716982Y-15448965D01*
X15716982Y-15448965D02*
X15716982Y-15372774D01*
X15716982Y-15372774D02*
X15726505Y-15353727D01*
X15726505Y-15353727D02*
X15745553Y-15344203D01*
X15745553Y-15344203D02*
X15783648Y-15344203D01*
X15783648Y-15344203D02*
X15802696Y-15353727D01*
X15802696Y-15353727D02*
X15812220Y-15372774D01*
X15812220Y-15372774D02*
X15812220Y-15391822D01*
X15812220Y-15391822D02*
X15716982Y-15410869D01*
X15888410Y-15468012D02*
X15907458Y-15477536D01*
X15907458Y-15477536D02*
X15945553Y-15477536D01*
X15945553Y-15477536D02*
X15964601Y-15468012D01*
X15964601Y-15468012D02*
X15974124Y-15448965D01*
X15974124Y-15448965D02*
X15974124Y-15439441D01*
X15974124Y-15439441D02*
X15964601Y-15420393D01*
X15964601Y-15420393D02*
X15945553Y-15410869D01*
X15945553Y-15410869D02*
X15916982Y-15410869D01*
X15916982Y-15410869D02*
X15897934Y-15401346D01*
X15897934Y-15401346D02*
X15888410Y-15382298D01*
X15888410Y-15382298D02*
X15888410Y-15372774D01*
X15888410Y-15372774D02*
X15897934Y-15353727D01*
X15897934Y-15353727D02*
X15916982Y-15344203D01*
X15916982Y-15344203D02*
X15945553Y-15344203D01*
X15945553Y-15344203D02*
X15964601Y-15353727D01*
X16040791Y-15553727D02*
X16050315Y-15544203D01*
X16050315Y-15544203D02*
X16069363Y-15515631D01*
X16069363Y-15515631D02*
X16078886Y-15496584D01*
X16078886Y-15496584D02*
X16088410Y-15468012D01*
X16088410Y-15468012D02*
X16097934Y-15420393D01*
X16097934Y-15420393D02*
X16097934Y-15382298D01*
X16097934Y-15382298D02*
X16088410Y-15334679D01*
X16088410Y-15334679D02*
X16078886Y-15306108D01*
X16078886Y-15306108D02*
X16069363Y-15287060D01*
X16069363Y-15287060D02*
X16050315Y-15258488D01*
X16050315Y-15258488D02*
X16040791Y-15248965D01*
M02*
