M48
; DRILL file {KiCad 8.0.4} date 2024-12-17T16:27:56+0000
; FORMAT={-:-/ absolute / metric / decimal}
; #@! TF.CreationDate,2024-12-17T16:27:56+00:00
; #@! TF.GenerationSoftware,Kicad,Pcbnew,8.0.4
; #@! TF.FileFunction,Plated,1,2,PTH
FMAT,2
METRIC
; #@! TA.AperFunction,Plated,PTH,ViaDrill
T1C0.400
; #@! TA.AperFunction,Plated,PTH,ViaDrill
T2C0.500
; #@! TA.AperFunction,Plated,PTH,ComponentDrill
T3C0.600
; #@! TA.AperFunction,Plated,PTH,ComponentDrill
T4C0.762
; #@! TA.AperFunction,Plated,PTH,ComponentDrill
T5C0.850
; #@! TA.AperFunction,Plated,PTH,ComponentDrill
T6C0.950
; #@! TA.AperFunction,Plated,PTH,ComponentDrill
T7C1.300
%
G90
G05
T1
X117.32Y-88.7
X117.57Y-99.45
X121.646Y-95.077
T2
X115.453Y-88.406
X116.116Y-82.144
X116.116Y-101.194
X116.116Y-103.099
X117.07Y-91.1
X117.21Y-95.99
X119.66Y-98.48
X120.28Y-89.21
X121.61Y-93.559
X123.101Y-110.084
X123.101Y-111.984
X123.101Y-116.439
X123.101Y-118.339
X123.311Y-93.474
X123.736Y-102.464
X123.811Y-91.374
X124.371Y-98.019
X125.001Y-116.439
X125.006Y-110.084
X125.006Y-111.984
X125.006Y-118.339
X126.911Y-110.084
X126.911Y-118.339
X128.816Y-93.574
X128.816Y-95.479
X128.816Y-110.084
X128.816Y-118.339
X130.086Y-114.529
X131.991Y-91.669
X131.991Y-99.543
X131.991Y-101.067
X132.626Y-89.129
X133.301Y-94.844
X133.896Y-110.973
X135.547Y-107.544
X135.801Y-89.129
X136.055Y-97.257
X137.198Y-99.289
X137.706Y-107.544
X138.341Y-120.244
X138.468Y-92.05
X140.119Y-129.134
X141.516Y-118.339
X141.897Y-111.735
X142.151Y-101.194
X142.405Y-99.289
X143.421Y-104.771
X143.421Y-117.069
X144.183Y-118.593
X144.691Y-99.924
X145.326Y-105.004
X146.85Y-109.322
X147.231Y-99.924
X147.231Y-104.119
X147.231Y-120.244
X148.501Y-105.004
X149.771Y-104.389
X151.041Y-105.004
X151.676Y-114.529
X152.311Y-103.734
X152.946Y-106.274
X154.724Y-108.814
X154.851Y-103.734
X155.994Y-107.925
X155.994Y-120.371
X156.121Y-98.654
X156.121Y-101.194
X156.121Y-122.149
X156.121Y-124.054
X156.756Y-105.639
X157.899Y-80.874
X158.026Y-103.734
X162.471Y-129.134
X163.106Y-117.069
X164.605Y-118.974
X166.281Y-109.449
X168.186Y-119.944
X168.313Y-107.163
X169.456Y-101.829
X170.091Y-110.084
X170.091Y-122.149
X170.726Y-107.163
X171.361Y-119.888
X173.266Y-111.989
X173.266Y-115.164
X173.266Y-116.815
X173.266Y-118.339
X174.308Y-119.532
X175.044Y-120.879
X175.044Y-122.403
X176.441Y-125.324
X177.711Y-113.259
X177.711Y-118.339
X178.981Y-91.034
X180.251Y-113.259
X180.251Y-118.339
T4
X118.47Y-86.81
X121.01Y-86.81
T5
X133.007Y-80.874
X135.547Y-80.874
X138.087Y-80.874
X140.627Y-80.874
X142.151Y-129.134
X143.167Y-80.874
X144.691Y-129.134
X145.707Y-80.874
X147.231Y-129.134
X148.247Y-80.874
X149.771Y-129.134
X150.787Y-80.874
X152.311Y-129.134
X153.327Y-80.874
X154.851Y-129.134
X155.867Y-80.874
X157.391Y-129.134
X159.931Y-80.874
X159.931Y-129.134
X162.471Y-80.874
X165.011Y-80.874
X165.011Y-129.134
X167.551Y-80.874
X167.551Y-129.134
X170.091Y-80.874
X170.091Y-129.134
X172.631Y-80.874
X172.631Y-129.134
X175.171Y-80.874
X175.171Y-129.134
X177.711Y-80.874
X177.711Y-129.134
T6
X177.838Y-101.194
X177.838Y-103.734
X177.838Y-106.274
X180.378Y-101.194
X180.378Y-103.734
X180.378Y-106.274
T3
G00X115.651Y-90.08
M15
G01X116.245Y-90.08
M16
G05
G00X115.651Y-97.08
M15
G01X116.245Y-97.08
M16
G05
G00X118.623Y-90.93
M15
G01X118.623Y-91.23
M16
G05
G00X118.623Y-95.93
M15
G01X118.623Y-96.23
M16
G05
T7
G00X119.901Y-124.13
M15
G01X119.901Y-122.606
M16
G05
G00X123.66Y-128.372
M15
G01X122.136Y-128.372
M16
G05
G00X125.895Y-124.13
M15
G01X125.895Y-122.606
M16
G05
M30
